<svg width="115" height="431" viewBox="0 0 115 431" fill="none" xmlns="http://www.w3.org/2000/svg">
<g filter="url(#filter0_d_34_1554)">
<path d="M43.2388 110.833L40.2389 100.502L57.8884 71.1408C59.3645 68.5578 60.5672 66.2697 61.4964 64.2764C62.4477 62.2767 63.0665 60.4095 63.3527 58.6747C63.6325 56.9179 63.5127 55.1454 62.9935 53.3572C62.4166 51.3704 61.4672 49.791 60.1455 48.6189C58.8173 47.4247 57.2574 46.6688 55.4656 46.3513C53.6675 46.0117 51.775 46.1303 49.7882 46.7073C47.7131 47.3098 46.0246 48.2549 44.7229 49.5425C43.4212 50.8301 42.5785 52.3794 42.1947 54.1903C41.811 56.0013 41.9332 57.9885 42.5614 60.1519L28.9517 64.1038C27.6633 59.6665 27.5491 55.5227 28.6093 51.6721C29.6695 47.8216 31.7502 44.4766 34.8514 41.6372C37.9526 38.7978 41.8653 36.6922 46.5895 35.3205C51.4461 33.9102 55.9236 33.5436 60.022 34.2207C64.136 34.8692 67.6365 36.414 70.5236 38.8551C73.4107 41.2961 75.4215 44.4704 76.5561 48.3778C77.2997 50.9385 77.526 53.6136 77.2348 56.4031C76.9658 59.1861 75.9931 62.4726 74.317 66.2626C72.6344 70.0306 70.0795 74.7101 66.6522 80.3012L59.5686 92.8785L59.7032 93.342L88.1809 85.0729L91.5847 96.7951L43.2388 110.833Z" fill="#FFEFEA"/>
</g>
<g filter="url(#filter1_d_34_1554)">
<path d="M30.4821 301.32L31.1091 290.58L57.5598 268.81C59.8146 266.869 61.7131 265.115 63.2553 263.547C64.8205 261.981 66.0279 260.428 66.8777 258.888C67.7287 257.326 68.2085 255.616 68.3171 253.757C68.4376 251.691 68.071 249.886 67.2172 248.339C66.3648 246.769 65.1473 245.535 63.5648 244.637C61.9837 243.716 60.1605 243.195 58.0951 243.074C55.938 242.948 54.0307 243.275 52.3734 244.053C50.7161 244.831 49.4039 246.009 48.4367 247.588C47.4696 249.166 46.9203 251.08 46.789 253.329L32.6413 252.503C32.9106 247.89 34.1885 243.947 36.4751 240.672C38.7617 237.398 41.8411 234.941 45.7131 233.302C49.5852 231.663 53.9767 230.987 58.8877 231.273C63.9364 231.568 68.2788 232.72 71.9149 234.728C75.5753 236.715 78.3578 239.341 80.2626 242.607C82.1674 245.873 83.0012 249.537 82.764 253.599C82.6086 256.261 81.9274 258.857 80.7204 261.389C79.5363 263.922 77.5208 266.694 74.6739 269.706C71.8284 272.694 67.8559 276.25 62.7565 280.373L51.8753 289.858L51.8472 290.34L81.4507 292.069L80.7393 304.254L30.4821 301.32Z" fill="#FFEFEA"/>
</g>
<g filter="url(#filter2_d_34_1554)">
<path d="M45.2382 208.516C39.3814 207.582 34.563 205.355 30.7831 201.836C27.0259 198.321 24.4337 193.672 23.0063 187.89C21.6017 182.112 21.5041 175.408 22.7135 167.78C23.8967 160.17 26.0294 153.86 29.1117 148.849C32.2167 143.842 36.0875 140.268 40.7241 138.127C45.387 135.968 50.6373 135.342 56.4749 136.249C62.3126 137.157 67.1135 139.346 70.8778 142.816C74.6647 146.289 77.2772 150.883 78.7151 156.597C80.1566 162.288 80.2744 168.937 79.0685 176.542C77.8782 184.197 75.7253 190.562 72.6097 195.638C69.5169 200.717 65.6468 204.361 60.9996 206.57C56.3524 208.778 51.0986 209.427 45.2382 208.516ZM47.1401 196.284C51.1379 196.906 54.6419 195.392 57.6521 191.742C60.6622 188.092 62.7811 182.245 64.0087 174.201C64.8316 168.908 64.9717 164.417 64.4288 160.727C63.9087 157.04 62.7982 154.157 61.0976 152.078C59.4196 150.002 57.2518 148.758 54.5942 148.345C50.6191 147.727 47.13 149.22 44.1269 152.824C41.1238 156.428 38.9946 162.192 37.7392 170.116C36.9057 175.477 36.7437 180.035 37.2533 183.789C37.7891 187.525 38.9055 190.444 40.6027 192.546C42.3034 194.625 44.4825 195.871 47.1401 196.284Z" fill="#FFEFEA"/>
</g>
<g filter="url(#filter3_d_34_1554)">
<path d="M61.6113 401.408C57.9943 401.738 54.446 401.473 50.9665 400.613C47.5098 399.75 44.3236 398.11 41.4078 395.693C38.4921 393.276 36.0403 389.936 34.0525 385.672C32.0877 381.407 30.7907 376.06 30.1617 369.631C29.607 363.726 29.766 358.386 30.6385 353.612C31.5317 348.813 33.0662 344.667 35.2421 341.174C37.4408 337.679 40.2076 334.914 43.5423 332.879C46.8748 330.82 50.7145 329.579 55.0614 329.153C59.7514 328.694 63.9819 329.204 67.7529 330.683C71.5216 332.139 74.6449 334.316 77.1228 337.215C79.6236 340.112 81.2919 343.471 82.1278 347.293L67.4742 348.726C66.6627 346.334 65.2736 344.53 63.3068 343.314C61.3399 342.097 59.0067 341.621 56.3071 341.885C51.7314 342.333 48.4487 344.663 46.4588 348.877C44.4918 353.088 43.8201 358.617 44.4437 365.462L44.9241 365.415C45.7728 363.23 47.0178 361.318 48.659 359.679C50.3209 358.015 52.2577 356.682 54.4695 355.681C56.7018 354.654 59.0992 354.015 61.6616 353.764C65.8254 353.357 69.628 353.978 73.0692 355.628C76.5082 357.255 79.3325 359.681 81.542 362.906C83.7516 366.131 85.0712 369.94 85.501 374.333C85.9666 379.092 85.2712 383.433 83.4146 387.356C81.5809 391.277 78.7881 394.484 75.0361 396.976C71.3047 399.443 66.8298 400.92 61.6113 401.408ZM60.401 389.746C62.6888 389.522 64.6827 388.773 66.3827 387.498C68.0826 386.223 69.3556 384.597 70.2015 382.62C71.0475 380.644 71.3563 378.488 71.128 376.155C70.8997 373.821 70.1801 371.778 68.9692 370.026C67.7813 368.271 66.2413 366.932 64.3494 366.009C62.4574 365.085 60.3675 364.735 58.0797 364.959C56.3638 365.127 54.8051 365.603 53.4036 366.387C52.0249 367.168 50.8425 368.185 49.8562 369.436C48.8929 370.685 48.1762 372.095 47.7062 373.665C47.234 375.213 47.0807 376.833 47.2464 378.526C47.468 380.791 48.1853 382.811 49.3984 384.587C50.6344 386.36 52.1995 387.719 54.0937 388.666C56.0107 389.61 58.1132 389.97 60.401 389.746Z" fill="#FFEFEA"/>
</g>
<defs>
<filter id="filter0_d_34_1554" x="7.69576" y="13.1318" width="98.8084" height="112.813" filterUnits="userSpaceOnUse" color-interpolation-filters="sRGB">
<feFlood flood-opacity="0" result="BackgroundImageFix"/>
<feColorMatrix in="SourceAlpha" type="matrix" values="0 0 0 0 0 0 0 0 0 0 0 0 0 0 0 0 0 0 127 0" result="hardAlpha"/>
<feOffset/>
<feGaussianBlur stdDeviation="7.45974"/>
<feComposite in2="hardAlpha" operator="out"/>
<feColorMatrix type="matrix" values="0 0 0 0 1 0 0 0 0 1 0 0 0 0 1 0 0 0 0.63 0"/>
<feBlend mode="normal" in2="BackgroundImageFix" result="effect1_dropShadow_34_1554"/>
<feBlend mode="normal" in="SourceGraphic" in2="effect1_dropShadow_34_1554" result="shape"/>
</filter>
<filter id="filter1_d_34_1554" x="14.8742" y="214.899" width="84.9566" height="104.275" filterUnits="userSpaceOnUse" color-interpolation-filters="sRGB">
<feFlood flood-opacity="0" result="BackgroundImageFix"/>
<feColorMatrix in="SourceAlpha" type="matrix" values="0 0 0 0 0 0 0 0 0 0 0 0 0 0 0 0 0 0 127 0" result="hardAlpha"/>
<feOffset/>
<feGaussianBlur stdDeviation="7.45974"/>
<feComposite in2="hardAlpha" operator="out"/>
<feColorMatrix type="matrix" values="0 0 0 0 1 0 0 0 0 1 0 0 0 0 1 0 0 0 0.63 0"/>
<feBlend mode="normal" in2="BackgroundImageFix" result="effect1_dropShadow_34_1554"/>
<feBlend mode="normal" in="SourceGraphic" in2="effect1_dropShadow_34_1554" result="shape"/>
</filter>
<filter id="filter2_d_34_1554" x="2.10719" y="116.943" width="97.4987" height="110.879" filterUnits="userSpaceOnUse" color-interpolation-filters="sRGB">
<feFlood flood-opacity="0" result="BackgroundImageFix"/>
<feColorMatrix in="SourceAlpha" type="matrix" values="0 0 0 0 0 0 0 0 0 0 0 0 0 0 0 0 0 0 127 0" result="hardAlpha"/>
<feOffset/>
<feGaussianBlur stdDeviation="7.45974"/>
<feComposite in2="hardAlpha" operator="out"/>
<feColorMatrix type="matrix" values="0 0 0 0 1 0 0 0 0 1 0 0 0 0 1 0 0 0 0.63 0"/>
<feBlend mode="normal" in2="BackgroundImageFix" result="effect1_dropShadow_34_1554"/>
<feBlend mode="normal" in="SourceGraphic" in2="effect1_dropShadow_34_1554" result="shape"/>
</filter>
<filter id="filter3_d_34_1554" x="11.5554" y="311.712" width="91.2658" height="107.396" filterUnits="userSpaceOnUse" color-interpolation-filters="sRGB">
<feFlood flood-opacity="0" result="BackgroundImageFix"/>
<feColorMatrix in="SourceAlpha" type="matrix" values="0 0 0 0 0 0 0 0 0 0 0 0 0 0 0 0 0 0 127 0" result="hardAlpha"/>
<feOffset/>
<feGaussianBlur stdDeviation="7.45974"/>
<feComposite in2="hardAlpha" operator="out"/>
<feColorMatrix type="matrix" values="0 0 0 0 1 0 0 0 0 1 0 0 0 0 1 0 0 0 0.63 0"/>
<feBlend mode="normal" in2="BackgroundImageFix" result="effect1_dropShadow_34_1554"/>
<feBlend mode="normal" in="SourceGraphic" in2="effect1_dropShadow_34_1554" result="shape"/>
</filter>
</defs>
</svg>
