<svg width="311" height="310" viewBox="0 0 311 310" fill="none" xmlns="http://www.w3.org/2000/svg">
<path d="M214.593 138.143C213.933 142.486 217.545 149.965 219.433 153.162L224.035 158.151L227.149 156.956C227.149 156.956 244.2 116.624 243.696 115.15C243.191 113.676 239.995 107.648 236.745 107.301C233.494 106.955 219.899 123.628 219.899 123.628C219.899 123.628 215.252 133.799 214.593 138.143Z" fill="url(#paint0_linear_11_940)"/>
<path d="M193.779 232.655C193.779 232.655 196.807 216.433 189.812 212.471C186.167 210.406 186.264 195.448 182.387 197.023C177.729 198.916 172.039 217.067 172.139 222.096C172.18 224.165 173.748 225.179 173.466 227.23C173.111 229.815 169.496 232.603 169.496 232.603C169.496 232.603 169.026 240.165 170.056 244.838L170.089 244.989C171.38 250.851 172.494 255.905 176.599 258.938C180.739 261.997 193.779 232.655 193.779 232.655Z" fill="url(#paint1_linear_11_940)"/>
<g filter="url(#filter0_d_11_940)">
<path d="M91.6377 108.417C103.107 112.786 108.121 113.283 121.448 114.227C134.775 115.171 144.945 116.963 146.515 122.575C150.105 135.402 148.955 162.967 145.679 175.597L206.979 149.446C206.979 149.446 196.49 116.176 180.466 102.509C163.1 87.6972 141.077 100.14 125.09 83.8492C122.862 81.5786 122.213 79.7167 119.763 77.6869C110.434 69.9579 97.4675 68.9692 88.7686 77.3607C79.7833 86.0285 85.4199 106.048 91.6377 108.417Z" fill="url(#paint2_linear_11_940)"/>
</g>
<path d="M186.477 158.074C183.793 161.705 182.391 191.738 177.817 203.988C173.243 216.238 174.299 213.51 188.436 212.991C202.573 212.472 215.774 211.055 217.281 214.21C219.165 218.153 232.753 226.641 234.039 226.592C236.62 226.495 242.957 223.613 244.525 220.625C246.093 217.637 251.757 200.45 254.12 194.222C256.483 187.993 249.286 181.718 246.945 178.394C244.604 175.069 250.027 165.998 251.748 162.804C253.469 159.609 269.412 136.302 273.071 131.35C276.73 126.399 281.99 116.25 283.405 113.469C284.821 110.687 278.819 112.036 275.783 111.664C260.587 109.801 244.65 125.661 240.774 129.176C236.897 132.691 229.208 153.485 226.203 156.687C223.197 159.889 209.445 150.365 207.43 149.195C205.416 148.026 189.831 153.535 186.477 158.074Z" fill="url(#paint3_linear_11_940)"/>
<path d="M147.155 174.032C147.155 174.032 142.029 183.345 142.191 189.796C142.456 200.423 157.297 212.427 157.297 212.427C155.073 214.288 149.834 219.081 146.667 223.367C143.5 227.653 147.727 233.707 150.236 236.198C152.862 235.802 159.401 234.305 164.544 231.48C169.687 228.654 172.819 223.153 173.742 220.755L180.46 206.925C181.888 203.413 184.602 195.203 184.037 190.454C183.331 184.517 189.421 155.972 186.447 157.47C183.405 159.003 159.622 169.652 147.155 174.032Z" fill="url(#paint4_linear_11_940)"/>
<path d="M46.4884 191.755C50.0632 184.755 80.7972 162.625 80.7972 162.625L83.5382 158.916C83.5382 158.916 75.7076 137.058 81.9091 126.086C86.4874 117.987 90.4175 115.831 99.3718 113.267C107.735 110.871 113.064 112.418 121.663 113.808C132.563 115.57 144.303 112.794 148.395 123.047C149.815 126.606 149.21 128.971 149.506 132.789C150.803 149.563 145.922 175.701 145.922 175.701C145.922 175.701 130.456 188.466 118.421 190.427C106.433 192.38 98.9153 180.575 87.7195 185.264C77.0039 189.751 76.2305 206.002 70.0551 209.169C61.7114 213.448 48.0225 217.446 43.4956 209.213C40.7196 204.165 42.9136 198.755 46.4884 191.755Z" fill="url(#paint5_linear_11_940)"/>
<path d="M67.6309 116.651L88.4824 106.228C88.4824 106.228 91.9923 108.821 95.4924 110.132C98.9926 111.443 107.812 110.306 109.258 111.374C110.703 112.442 90.0065 114.344 83.7367 123.449C75.0044 136.131 83.9006 158.649 83.9006 158.649L70.5329 154.193L66.3981 157.197C66.3981 157.197 18.1081 184.018 14.9241 178.476C11.7401 172.935 11.1145 170.156 11.1301 165.468C11.1456 160.78 16.0109 157.326 20.2752 153.092C30.6606 142.779 45.4699 149.701 54.7584 138.391C58.876 133.377 62.4487 123.664 62.4487 123.664C63.129 120.871 67.6309 116.651 67.6309 116.651Z" fill="url(#paint6_linear_11_940)"/>
<path d="M240.631 195.562C239.254 196.057 238.135 194.662 237.768 193.446C237.402 192.23 238.091 189.587 238.478 187.352C238.865 185.117 239.378 183.598 240.888 184.09C241.652 184.34 243.6 186.41 243.912 187.271C244.225 188.132 245.055 190.474 244.311 192.293C243.585 194.073 242.009 195.067 240.631 195.562Z" fill="#4D4444"/>
<ellipse cx="242.585" cy="192.687" rx="0.728327" ry="1.01966" transform="rotate(36.4616 242.585 192.687)" fill="#D9D9D9"/>
<path d="M262.353 136.888C262.353 136.888 244.899 158.776 238.939 165.541C237.765 164.674 235.405 161.654 235.36 156.514C235.303 150.09 242.184 132.501 254.479 125.006C261.741 120.578 276.309 114.967 275.471 119.135C274.633 123.303 262.353 136.888 262.353 136.888Z" fill="url(#paint7_linear_11_940)"/>
<g filter="url(#filter1_f_11_940)">
<ellipse cx="98.63" cy="81.6055" rx="6.26361" ry="8.01159" transform="rotate(61.5682 98.63 81.6055)" fill="#D7F6FF" fill-opacity="0.96"/>
</g>
<g filter="url(#filter2_f_11_940)">
<ellipse cx="166.142" cy="221.87" rx="6.11795" ry="7.86593" transform="rotate(36.4616 166.142 221.87)" fill="#D7F6FF" fill-opacity="0.96"/>
</g>
<g filter="url(#filter3_f_11_940)">
<ellipse cx="232.286" cy="186.467" rx="6.15514" ry="3.5905" transform="rotate(85.9071 232.286 186.467)" fill="#F9D0D0" fill-opacity="0.65"/>
</g>
<defs>
<filter id="filter0_d_11_940" x="82.9228" y="71.4686" width="125.222" height="106.459" filterUnits="userSpaceOnUse" color-interpolation-filters="sRGB">
<feFlood flood-opacity="0" result="BackgroundImageFix"/>
<feColorMatrix in="SourceAlpha" type="matrix" values="0 0 0 0 0 0 0 0 0 0 0 0 0 0 0 0 0 0 127 0" result="hardAlpha"/>
<feOffset dy="1.16532"/>
<feGaussianBlur stdDeviation="0.582662"/>
<feComposite in2="hardAlpha" operator="out"/>
<feColorMatrix type="matrix" values="0 0 0 0 0 0 0 0 0 0 0 0 0 0 0 0 0 0 0.25 0"/>
<feBlend mode="normal" in2="BackgroundImageFix" result="effect1_dropShadow_11_940"/>
<feBlend mode="normal" in="SourceGraphic" in2="effect1_dropShadow_11_940" result="shape"/>
</filter>
<filter id="filter1_f_11_940" x="85.1511" y="69.0784" width="26.9579" height="25.0543" filterUnits="userSpaceOnUse" color-interpolation-filters="sRGB">
<feFlood flood-opacity="0" result="BackgroundImageFix"/>
<feBlend mode="normal" in="SourceGraphic" in2="BackgroundImageFix" result="shape"/>
<feGaussianBlur stdDeviation="2.91331" result="effect1_foregroundBlur_11_940"/>
</filter>
<filter id="filter2_f_11_940" x="154.985" y="210.202" width="22.3137" height="23.3355" filterUnits="userSpaceOnUse" color-interpolation-filters="sRGB">
<feFlood flood-opacity="0" result="BackgroundImageFix"/>
<feBlend mode="normal" in="SourceGraphic" in2="BackgroundImageFix" result="shape"/>
<feGaussianBlur stdDeviation="2.18498" result="effect1_foregroundBlur_11_940"/>
</filter>
<filter id="filter3_f_11_940" x="225.764" y="177.409" width="13.0434" height="18.1164" filterUnits="userSpaceOnUse" color-interpolation-filters="sRGB">
<feFlood flood-opacity="0" result="BackgroundImageFix"/>
<feBlend mode="normal" in="SourceGraphic" in2="BackgroundImageFix" result="shape"/>
<feGaussianBlur stdDeviation="1.45665" result="effect1_foregroundBlur_11_940"/>
</filter>
<linearGradient id="paint0_linear_11_940" x1="244.255" y1="112.236" x2="225.472" y2="155.245" gradientUnits="userSpaceOnUse">
<stop stop-color="#C1EDF9"/>
<stop offset="0.860577" stop-color="#D9D9D9"/>
<stop offset="0.971154" stop-color="#AEADAD"/>
</linearGradient>
<linearGradient id="paint1_linear_11_940" x1="172.166" y1="212.155" x2="174.096" y2="257.089" gradientUnits="userSpaceOnUse">
<stop offset="0.0144231" stop-color="#AEADAD"/>
<stop offset="0.153846" stop-color="#D9D9D9"/>
<stop offset="1" stop-color="#C1EDF9"/>
</linearGradient>
<linearGradient id="paint2_linear_11_940" x1="189.178" y1="164.176" x2="155.162" y2="130.012" gradientUnits="userSpaceOnUse">
<stop offset="0.288462" stop-color="#D9D9D9"/>
<stop offset="1" stop-color="#C1EDF9"/>
</linearGradient>
<linearGradient id="paint3_linear_11_940" x1="184.864" y1="168.047" x2="256.535" y2="184.797" gradientUnits="userSpaceOnUse">
<stop stop-color="#D9D9D9"/>
<stop offset="0.918269" stop-color="#C1EDF9"/>
<stop offset="0.990385" stop-color="#D9F7FF"/>
</linearGradient>
<linearGradient id="paint4_linear_11_940" x1="155.421" y1="174.045" x2="138.591" y2="227.581" gradientUnits="userSpaceOnUse">
<stop stop-color="#D9D9D9"/>
<stop offset="1" stop-color="#C1EDF9"/>
</linearGradient>
<linearGradient id="paint5_linear_11_940" x1="131.146" y1="155.542" x2="150.085" y2="172.659" gradientUnits="userSpaceOnUse">
<stop stop-color="#C1EDF9"/>
<stop offset="0.802885" stop-color="#D9D9D9"/>
<stop offset="1" stop-color="#AEADAD"/>
</linearGradient>
<linearGradient id="paint6_linear_11_940" x1="88.8856" y1="105.25" x2="27.4916" y2="187.904" gradientUnits="userSpaceOnUse">
<stop stop-color="#AEADAD"/>
<stop offset="0.0913462" stop-color="#D7DBDC"/>
<stop offset="1" stop-color="#C1EDF9"/>
</linearGradient>
<linearGradient id="paint7_linear_11_940" x1="269.848" y1="114.122" x2="234.355" y2="162.155" gradientUnits="userSpaceOnUse">
<stop offset="0.149038" stop-color="#F9D0D0"/>
<stop offset="1" stop-color="#E06060"/>
</linearGradient>
</defs>
</svg>
