<svg width="83" height="125" viewBox="0 0 83 125" fill="none" xmlns="http://www.w3.org/2000/svg">
<path d="M61.9373 107.597C62.0644 108.095 62.3804 108.527 62.8209 108.795C63.2613 109.064 63.7893 109.147 64.2895 109.027C64.7898 108.907 65.2224 108.593 65.4931 108.154C65.7639 107.715 65.8497 107.187 65.7366 106.685C65.6781 106.411 65.6777 106.023 65.7534 105.622C66.2557 103.098 68.6564 101.422 71.2398 102.254C71.945 102.443 72.5265 102.787 72.8281 103.146C73.0795 103.448 73.1667 103.669 73.1844 103.949C73.201 104.228 73.0749 104.652 72.7288 105.102C72.1946 105.825 71.1094 106.518 69.9249 107.062C69.3285 107.338 68.6967 107.588 68.039 107.832C67.7097 107.955 67.374 108.075 67.0241 108.208C66.8426 108.277 66.67 108.344 66.4695 108.431C66.2618 108.531 66.0843 108.572 65.7059 108.875C65.2814 109.326 64.8384 109.698 64.7402 110.754L64.7546 110.604C64.6556 111.588 65.0782 112.427 65.849 112.92C66.6341 113.394 67.4633 113.309 68.1155 113.151C68.5119 113.051 68.9365 112.936 69.3556 112.758C69.4313 112.726 69.5064 112.692 69.5814 112.656C70.1562 112.382 70.7439 112.06 71.3368 111.648C71.5774 111.507 71.6574 111.254 71.6181 110.991C71.5781 110.728 71.4115 110.468 71.1655 110.277C70.9195 110.086 70.6266 109.988 70.3617 110.014C70.0974 110.041 69.8723 110.18 69.7948 110.448C69.7948 110.448 69.7948 110.448 69.7948 110.448C69.7184 110.905 69.4309 111.286 69.0168 111.482C68.963 111.508 68.9083 111.533 68.8522 111.556C68.5416 111.684 68.1973 111.769 67.8229 111.841C66.7835 112.08 66.2952 111.436 66.463 110.92L66.4774 110.77C66.4755 110.923 66.4948 110.802 66.52 110.787C66.5458 110.751 66.5812 110.707 66.6237 110.663C66.7092 110.575 66.8252 110.483 66.9604 110.399C68.7788 110.011 72.4755 110.093 75.3488 107.661C76.1891 106.902 76.9724 105.78 77.1602 104.357C77.3669 102.938 76.8218 101.434 75.9569 100.459C74.9097 99.2547 73.5849 98.6262 72.3133 98.2808C67.9038 96.7082 62.3716 100.307 61.8515 104.973C61.7254 105.792 61.7095 106.668 61.9373 107.597Z" fill="#D54D8C"/>
<mask id="mask0_11_1852" style="mask-type:alpha" maskUnits="userSpaceOnUse" x="61" y="97" width="17" height="17">
<path d="M61.9373 107.597C62.0644 108.095 62.3804 108.527 62.8209 108.796C63.2613 109.064 63.7893 109.148 64.2895 109.028C64.7898 108.908 65.2224 108.594 65.4931 108.154C65.7639 107.715 65.8497 107.187 65.7366 106.685C65.6781 106.411 65.6777 106.023 65.7534 105.622C66.2557 103.098 68.6564 101.422 71.2398 102.254C71.945 102.443 72.5265 102.787 72.8281 103.146C73.0795 103.449 73.1667 103.669 73.1844 103.949C73.201 104.228 73.0749 104.652 72.7288 105.102C72.1946 105.825 71.1094 106.519 69.9249 107.062C69.3285 107.338 68.6967 107.588 68.039 107.832C67.7097 107.955 67.374 108.075 67.0241 108.208C66.8426 108.277 66.67 108.344 66.4695 108.431C66.2618 108.531 66.0843 108.572 65.7059 108.875C65.2814 109.326 64.8384 109.698 64.7402 110.754L64.7546 110.604C64.6556 111.588 65.0782 112.427 65.849 112.921C66.6341 113.394 67.4633 113.309 68.1155 113.151C68.5119 113.052 68.9365 112.936 69.3556 112.758C69.4313 112.726 69.5064 112.692 69.5814 112.656C70.1562 112.382 70.7439 112.06 71.3368 111.648C71.5774 111.507 71.6574 111.254 71.6181 110.992C71.5781 110.728 71.4115 110.468 71.1655 110.277C70.9195 110.086 70.6266 109.988 70.3617 110.014C70.0974 110.041 69.8723 110.181 69.7948 110.448C69.7948 110.448 69.7948 110.448 69.7948 110.448C69.7184 110.905 69.4309 111.286 69.0168 111.482C68.963 111.508 68.9083 111.533 68.8522 111.556C68.5416 111.684 68.1973 111.769 67.8229 111.841C66.7835 112.08 66.2952 111.436 66.463 110.92L66.4774 110.77C66.4755 110.923 66.4948 110.802 66.52 110.787C66.5458 110.751 66.5812 110.707 66.6237 110.663C66.7092 110.575 66.8252 110.483 66.9604 110.399C68.7788 110.011 72.4755 110.093 75.3488 107.661C76.1891 106.902 76.9724 105.78 77.1602 104.357C77.3669 102.938 76.8218 101.434 75.9569 100.459C74.9097 99.2547 73.5849 98.6263 72.3133 98.2808C67.9038 96.7083 62.3716 100.307 61.8515 104.973C61.7254 105.792 61.7095 106.668 61.9373 107.597Z" fill="#D54D8C"/>
</mask>
<g mask="url(#mask0_11_1852)">
<g filter="url(#filter0_g_11_1852)">
<rect x="58.3838" y="103.199" width="10.7143" height="23.7764" transform="rotate(-109.994 58.3838 103.199)" fill="#F6BD55"/>
</g>
</g>
<g filter="url(#filter1_n_11_1852)">
<ellipse cx="41.8055" cy="110.722" rx="23.9852" ry="9.44212" fill="#F6BD55"/>
</g>
<mask id="mask1_11_1852" style="mask-type:alpha" maskUnits="userSpaceOnUse" x="17" y="101" width="49" height="20">
<ellipse cx="41.8055" cy="110.722" rx="23.9852" ry="9.44212" fill="#F6BD55"/>
</mask>
<g mask="url(#mask1_11_1852)">
<g filter="url(#filter2_g_11_1852)">
<ellipse cx="40.9374" cy="107.032" rx="14.0004" ry="5.53504" fill="#D54D8C"/>
</g>
</g>
<path fill-rule="evenodd" clip-rule="evenodd" d="M19.2214 111.167C17.5218 111.163 17.8463 110.5 17.8464 108.308C17.8464 103.228 28.5866 99.1101 41.8356 99.11C55.0847 99.11 65.8259 103.228 65.8259 108.308C65.8259 110.468 66.1404 110.95 64.5251 110.835C64.6442 110.488 64.7057 110.135 64.7057 109.777C64.7057 105.146 54.4526 101.39 41.8054 101.39C29.1582 101.39 18.9059 105.146 18.9059 109.777C18.906 110.251 19.0152 110.714 19.2214 111.167Z" fill="#D54D8C"/>
<mask id="mask2_11_1852" style="mask-type:alpha" maskUnits="userSpaceOnUse" x="17" y="99" width="49" height="13">
<path fill-rule="evenodd" clip-rule="evenodd" d="M19.2199 111.166C17.5215 111.162 17.8458 110.5 17.8459 108.308C17.8459 103.228 28.5862 99.1099 41.8351 99.1098C55.0842 99.1098 65.8253 103.228 65.8253 108.308C65.8254 110.468 66.1401 110.95 64.5246 110.834C64.6436 110.488 64.7052 110.135 64.7052 109.777C64.7052 105.145 54.4521 101.391 41.8048 101.391C29.1577 101.391 18.9054 105.145 18.9054 109.777C18.9055 110.25 19.0138 110.714 19.2199 111.166Z" fill="#F6BD55"/>
</mask>
<g mask="url(#mask2_11_1852)">
<path d="M23.6484 105.245L21.7274 105.786C21.7274 105.786 21.8754 104.24 21.3748 103.966C21.0319 103.779 20.3711 103.979 20.3711 103.979L21.9432 103.113C21.9432 103.113 22.4831 102.757 23.2221 103.113C23.5525 103.273 23.6484 105.245 23.6484 105.245Z" fill="#F6BD55"/>
<path d="M27.8465 103.63L24.6991 104.363C24.6991 104.363 24.6867 102.601 24.1565 102.421C23.6779 102.258 23.288 102.389 23.2165 102.416L23.2047 102.421C23.2047 102.421 23.2087 102.419 23.2165 102.416L25.8406 101.377C25.8406 101.377 26.4539 100.765 27.4128 101.346C28.0219 101.716 27.8465 103.63 27.8465 103.63Z" fill="#F6BD55"/>
</g>
<g filter="url(#filter3_n_11_1852)">
<path d="M56.8908 107.575C56.8908 109.313 54.5099 110.723 51.5729 110.723C48.6358 110.723 46.2549 109.313 46.2549 107.575C46.2549 105.837 48.6358 104.428 51.5729 104.428C54.5099 104.428 56.8908 107.575 56.8908 107.575Z" fill="#3E33AE"/>
<path d="M27.8048 109.017L29.7583 112.401L29.792 104.862L28.8309 106.67L27.8048 109.017Z" fill="#3E33AE"/>
</g>
<mask id="mask3_11_1852" style="mask-type:alpha" maskUnits="userSpaceOnUse" x="27" y="104" width="30" height="9">
<path d="M56.8908 107.575C56.8908 109.313 54.5099 110.723 51.5729 110.723C48.6358 110.723 46.2549 109.313 46.2549 107.575C46.2549 105.837 48.6358 104.428 51.5729 104.428C54.5099 104.428 56.8908 107.575 56.8908 107.575Z" fill="#9890E7"/>
<path d="M27.8048 109.017L29.7583 112.401L29.792 104.862L28.8309 106.67L27.8048 109.017Z" fill="#9890E7"/>
</mask>
<g mask="url(#mask3_11_1852)">
<g filter="url(#filter4_g_11_1852)">
<path d="M39.318 80.1405C49.0332 79.468 57.5615 88.3525 58.3667 99.9845C59.1718 111.617 49.7945 101.475 40.0794 102.147C30.3642 102.819 23.9901 114.052 23.185 102.42C22.3799 90.7876 29.6029 80.8129 39.318 80.1405Z" fill="#9890E7"/>
</g>
</g>
<path fill-rule="evenodd" clip-rule="evenodd" d="M64.6551 108.771C66.1214 108.849 65.8241 109.779 65.824 112.576C65.824 119.348 55.0837 124.838 41.8348 124.838C28.5857 124.838 17.8445 119.348 17.8445 112.576C17.8445 109.808 17.5536 109.105 18.9686 109.193C18.9622 109.292 18.9578 109.391 18.9578 109.491C18.9578 115.142 29.2008 119.723 41.8358 119.723C54.4707 119.723 64.7137 115.142 64.7137 109.491C64.7137 109.249 64.6922 109.009 64.6551 108.771Z" fill="#D54D8C"/>
<mask id="mask4_11_1852" style="mask-type:alpha" maskUnits="userSpaceOnUse" x="17" y="108" width="49" height="17">
<path fill-rule="evenodd" clip-rule="evenodd" d="M64.6551 108.771C66.1214 108.849 65.8241 109.779 65.824 112.576C65.824 119.348 55.0837 124.838 41.8348 124.838C28.5857 124.838 17.8445 119.348 17.8445 112.576C17.8445 109.808 17.5536 109.105 18.9686 109.193C18.9622 109.292 18.9578 109.391 18.9578 109.491C18.9578 115.142 29.2008 119.723 41.8358 119.723C54.4707 119.723 64.7137 115.142 64.7137 109.491C64.7137 109.249 64.6922 109.009 64.6551 108.771Z" fill="#D54D8C"/>
</mask>
<g mask="url(#mask4_11_1852)">
<g filter="url(#filter5_g_11_1852)">
<rect x="26.7148" y="107.575" width="8.31207" height="28.2178" transform="rotate(3.07686 26.7148 107.575)" fill="#F6BD55"/>
</g>
<g filter="url(#filter6_g_11_1852)">
<path d="M68.3035 120.95C53.5479 131.352 39.0895 133.836 33.7047 133.778L34.9975 154.435L86.9731 133.529C86.898 125.001 83.059 110.547 68.3035 120.95Z" fill="#100C3F"/>
</g>
</g>
<g filter="url(#filter7_ng_11_1852)">
<path d="M50.1616 63.8375C51.6001 63.8375 52.767 65.0036 52.7671 66.442V108.986C52.7671 109.126 52.7523 109.263 52.731 109.397C52.752 109.512 52.7671 109.628 52.7671 109.746C52.7671 112.323 47.6158 114.413 41.2622 114.413C34.9087 114.413 29.7583 112.323 29.7583 109.746C29.7583 109.628 29.7723 109.512 29.7935 109.396C29.7723 109.262 29.7583 109.126 29.7583 108.986V94.9908L30.9517 90.4274L29.7583 84.5992V66.442C29.7584 65.0036 30.9244 63.8376 32.3628 63.8375H50.1616Z" fill="#3E33AE"/>
</g>
<mask id="mask5_11_1852" style="mask-type:alpha" maskUnits="userSpaceOnUse" x="29" y="63" width="24" height="52">
<path d="M50.1616 63.8375C51.6001 63.8375 52.767 65.0036 52.7671 66.442V108.986C52.7671 109.126 52.7523 109.263 52.731 109.397C52.752 109.512 52.7671 109.628 52.7671 109.746C52.7671 112.323 47.6158 114.413 41.2622 114.413C34.9087 114.413 29.7583 112.323 29.7583 109.746C29.7583 109.628 29.7723 109.512 29.7935 109.396C29.7723 109.262 29.7583 109.126 29.7583 108.986V94.9908L30.9517 90.4274L29.7583 84.5992V66.442C29.7584 65.0036 30.9244 63.8376 32.3628 63.8375H50.1616Z" fill="#3E33AE"/>
</mask>
<g mask="url(#mask5_11_1852)">
<g filter="url(#filter8_g_11_1852)">
<path d="M57.4334 99.4119C39.9817 107.921 25.5617 102.957 20.5331 99.4119L14.564 135.878L70.5655 133.056C73.4596 118.296 74.885 90.9032 57.4334 99.4119Z" fill="#100C3F"/>
</g>
</g>
<g filter="url(#filter9_ng_11_1852)">
<path d="M40.9369 59.3878C34.3545 60.5455 33.5569 60.7987 29.4327 62.2096C28.7765 62.3405 28.6059 65.0747 28.5645 73.4967C28.5645 73.4967 30.6265 77.7294 32.1459 75.7758C33.6654 73.8223 32.4992 69.3646 33.4483 68.3958C34.6676 67.1511 36.8127 68.3958 36.8127 68.3958C37.5994 70.9816 37.1383 90.3185 36.8127 93.0318C36.4871 95.7451 41.6966 93.1403 41.6966 90.21C41.6966 86.4115 41.8448 73.0394 42.3478 69.8067C42.3478 69.8067 43.6947 69.4365 44.4098 69.8067C45.6984 70.4737 44.844 75.0161 44.844 75.0161C44.1928 77.7294 48.9681 82.0706 48.9681 79.2488V69.8067C48.9681 69.8067 51.0267 68.7144 51.4643 69.5896C52.0069 70.6749 51.4643 84.2412 51.4643 84.2412C51.4643 89.125 55.8055 81.2023 55.8055 81.2023C56.5652 80.9853 55.1905 73.8513 54.8287 63.6204C54.2861 63.0778 52.4411 61.9925 47.9913 59.3878H40.9369Z" fill="#9890E7"/>
</g>
<path d="M33.4411 64.8351L32.146 63.7267L40.8878 61.2328L46.6078 61.8793L51.4644 64.2809C50.4415 64.4621 50.0608 64.7509 49.4138 65.2969L43.2621 65.574C40.269 64.9432 38.5912 64.8811 35.5996 65.2969L33.4411 64.8351Z" fill="#3E33AE"/>
<g filter="url(#filter10_gn_11_1852)">
<path d="M37.7895 111.699C37.7895 113.438 34.7283 114.847 30.9521 114.847C27.176 114.847 25.7427 113.436 24.1147 111.699C24.1147 109.961 27.176 108.552 30.9521 108.552C32.5504 108.552 34.0206 108.804 35.1848 109.227C36.7713 109.804 37.7895 110.697 37.7895 111.699Z" fill="#9890E7"/>
<path d="M36.5956 108.118L31.0605 108.552L39.5259 112.676L38.115 110.791L36.5956 108.118Z" fill="#9890E7"/>
<path d="M46.8928 111.266L48.1738 111.494L45.2202 114.307L45.9503 112.91L46.8928 111.266Z" fill="#9890E7"/>
<path d="M41.2624 113.219C43.9757 115.932 41.9136 115.281 37.3553 115.281C35.1975 115.281 33.4482 114.358 33.4482 113.219C33.4482 112.08 35.1975 111.157 37.3553 111.157C39.5131 111.157 40.4571 112.413 41.2624 113.219Z" fill="#9890E7"/>
<path d="M53.9041 109.725C54.8698 110.835 53.6091 112.972 51.0884 114.498C48.5676 116.024 45.7412 116.361 44.7756 115.252C43.8099 114.142 45.8328 112.639 48.3536 111.113C50.8744 109.587 50.3902 106.278 53.9041 109.725Z" fill="#9890E7"/>
<path d="M58.4103 113.653L53.685 109.447L51.4644 114.222L58.4103 113.653Z" fill="#9890E7"/>
</g>
<mask id="mask6_11_1852" style="mask-type:alpha" maskUnits="userSpaceOnUse" x="24" y="108" width="35" height="8">
<path d="M37.7895 111.699C37.7895 113.438 34.7283 114.847 30.9521 114.847C27.176 114.847 25.7427 113.436 24.1147 111.699C24.1147 109.961 27.176 108.552 30.9521 108.552C32.5504 108.552 34.0206 108.804 35.1848 109.227C36.7713 109.804 37.7895 110.697 37.7895 111.699Z" fill="#9890E7"/>
<path d="M36.5956 108.118L31.0605 108.552L39.5259 112.676L38.115 110.791L36.5956 108.118Z" fill="#9890E7"/>
<path d="M46.8928 111.266L48.1738 111.494L45.2202 114.307L45.9503 112.91L46.8928 111.266Z" fill="#9890E7"/>
<path d="M41.2624 113.219C43.9757 115.932 41.9136 115.281 37.3553 115.281C35.1975 115.281 33.4482 114.358 33.4482 113.219C33.4482 112.08 35.1975 111.157 37.3553 111.157C39.5131 111.157 40.4571 112.413 41.2624 113.219Z" fill="#9890E7"/>
<path d="M53.9041 109.725C54.8698 110.835 53.6091 112.972 51.0884 114.498C48.5676 116.024 45.7412 116.361 44.7756 115.252C43.8099 114.142 45.8328 112.639 48.3536 111.113C50.8744 109.587 50.3902 106.278 53.9041 109.725Z" fill="#9890E7"/>
<path d="M58.4103 113.653L53.685 109.447L51.4644 114.222L58.4103 113.653Z" fill="#9890E7"/>
</mask>
<g mask="url(#mask6_11_1852)">
<g filter="url(#filter11_g_11_1852)">
<path d="M42.2392 116.583L22.5952 109.962L33.0141 122.878H56.7822L60.6893 108.66L42.2392 116.583Z" fill="#3E33AE"/>
</g>
</g>
<path d="M42.3478 63.946L40.6113 63.0778L41.371 53.8527L42.999 55.5892L42.3478 63.946Z" fill="#100C3F"/>
<mask id="mask7_11_1852" style="mask-type:alpha" maskUnits="userSpaceOnUse" x="17" y="108" width="49" height="17">
<path fill-rule="evenodd" clip-rule="evenodd" d="M64.6551 108.771C66.1214 108.849 65.8241 109.779 65.824 112.576C65.824 119.348 55.0837 124.838 41.8348 124.838C28.5857 124.838 17.8445 119.348 17.8445 112.576C17.8445 109.808 17.5536 109.105 18.9686 109.193C18.9622 109.292 18.9578 109.391 18.9578 109.491C18.9578 115.142 29.2008 119.723 41.8358 119.723C54.4707 119.723 64.7137 115.142 64.7137 109.491C64.7137 109.249 64.6922 109.009 64.6551 108.771Z" fill="#F6BD55"/>
</mask>
<g mask="url(#mask7_11_1852)">
<path d="M57.8677 116.48L53.418 118.217C53.418 118.217 54.4851 118.188 54.9374 118.651C55.3897 119.114 54.8289 123.643 54.8289 123.643L59.4957 121.907C59.4957 121.907 60.1562 117.664 59.6042 117.023C59.0521 116.382 57.9137 116.23 57.8677 116.48Z" fill="#F6BD55"/>
<path d="M50.5962 118.76L47.7744 119.296C47.7744 119.296 48.8415 119.268 49.2938 119.73C49.7461 120.193 49.1853 124.723 49.1853 124.723L52.3327 123.643C52.3327 123.643 52.9932 119.829 52.4412 119.188C51.8892 118.547 50.6422 118.509 50.5962 118.76Z" fill="#F6BD55"/>
</g>
<mask id="mask8_11_1852" style="mask-type:alpha" maskUnits="userSpaceOnUse" x="61" y="97" width="17" height="17">
<path d="M62.0777 108.407C62.2047 108.906 62.5207 109.338 62.9612 109.606C63.4016 109.875 63.9297 109.958 64.43 109.838C64.9303 109.718 65.3629 109.404 65.6336 108.965C65.9044 108.526 65.9902 107.998 65.877 107.496C65.877 107.496 65.877 107.496 65.877 107.496C65.8175 107.221 65.8135 106.791 65.8832 106.355C66.3575 103.542 68.7054 101.395 71.2398 102.255C71.8829 102.428 72.4253 102.727 72.7432 103.054C73.0494 103.373 73.161 103.62 73.1929 103.905C73.2253 104.19 73.1075 104.636 72.7408 105.114C72.2041 105.841 71.116 106.535 69.93 107.077C69.3329 107.353 68.7004 107.601 68.0424 107.844C67.7128 107.967 67.377 108.087 67.0271 108.219C66.8457 108.287 66.6731 108.354 66.4728 108.44C66.2656 108.54 66.0881 108.581 65.7117 108.882C65.2877 109.331 64.8452 109.702 64.7467 110.754L64.761 110.605C64.6613 111.586 65.0819 112.424 65.851 112.918C66.6344 113.391 67.4632 113.308 68.1154 113.15C68.5042 113.053 68.9201 112.94 69.3312 112.768C69.4079 112.736 69.4842 112.702 69.5601 112.666C70.143 112.392 70.7388 112.066 71.337 111.648C71.5765 111.506 71.6565 111.253 71.6172 110.991C71.5773 110.728 71.4112 110.468 71.1656 110.277C70.9201 110.086 70.6276 109.989 70.3628 110.015C70.0986 110.042 69.8735 110.181 69.7949 110.448C69.7949 110.448 69.7949 110.448 69.7949 110.448C69.7155 110.909 69.4226 111.293 69.0015 111.49C68.947 111.516 68.8913 111.54 68.8342 111.563C68.5285 111.688 68.1903 111.771 67.8233 111.842C66.7848 112.082 66.2907 111.441 66.4568 110.919L66.4712 110.77C66.4692 110.921 66.4884 110.8 66.5137 110.784C66.5395 110.747 66.575 110.703 66.6176 110.659C66.7032 110.57 66.8194 110.477 66.9548 110.392C68.7799 109.996 72.4684 110.073 75.337 107.649C76.2197 106.856 77.0424 105.649 77.1732 104.134C77.3241 102.623 76.6365 101.098 75.6801 100.158C74.6748 99.1476 73.4764 98.5952 72.3136 98.28C70.0679 97.5992 67.1135 98.0842 65.2438 99.7343C63.3556 101.342 62.2994 103.468 61.9648 105.814C61.8657 106.617 61.8494 107.467 62.0777 108.407Z" fill="#F6BD55"/>
</mask>
<g mask="url(#mask8_11_1852)">
<path d="M72.9474 104.753C73.0059 104.432 73.0644 104.11 73.1229 103.789C72.4306 103.712 71.7384 103.636 71.0461 103.559C71.0327 103.885 71.0193 104.211 71.0058 104.537C71.0011 104.639 70.9975 104.738 70.995 104.837C70.9965 105.739 70.9346 106.71 71.541 107.779C72.2494 108.919 73.5247 109.014 74.3623 109.03C74.4658 109.031 74.5602 109.03 74.662 109.029C74.8446 109.025 75.0273 109.021 75.2099 109.017C75.2273 108.652 75.2446 108.287 75.262 107.922C75.0806 107.901 74.8992 107.879 74.7178 107.858C74.6271 107.847 74.5443 107.836 74.4557 107.822C73.6676 107.713 73.0294 107.438 72.9063 107.019C72.7185 106.569 72.7723 105.773 72.9016 105.011C72.9158 104.927 72.931 104.841 72.9474 104.753Z" fill="#F6BD55"/>
<path d="M70.7725 106.377C70.8238 106.129 70.8752 105.88 70.9265 105.632C70.3919 105.557 69.8572 105.483 69.3226 105.409C69.3042 105.662 69.2859 105.915 69.2675 106.168C69.2599 106.26 69.2551 106.348 69.2524 106.44C69.1138 108.084 70.3486 109.904 72.0208 110.097C72.111 110.111 72.2018 110.121 72.2925 110.126C72.4349 110.133 72.5773 110.141 72.7197 110.148C72.7527 109.865 72.7857 109.581 72.8187 109.298C72.6785 109.272 72.5382 109.246 72.398 109.221C72.3361 109.208 72.2746 109.193 72.214 109.175C71.0767 108.847 70.5146 107.675 70.7362 106.565C70.7466 106.502 70.7585 106.441 70.7725 106.377Z" fill="#F6BD55"/>
</g>
<mask id="mask9_11_1852" style="mask-type:alpha" maskUnits="userSpaceOnUse" x="61" y="97" width="17" height="17">
<path d="M62.0777 108.407C62.2047 108.906 62.5207 109.338 62.9612 109.606C63.4016 109.875 63.9297 109.958 64.43 109.838C64.9303 109.718 65.3629 109.404 65.6336 108.965C65.9044 108.526 65.9902 107.998 65.877 107.496C65.877 107.496 65.877 107.496 65.877 107.496C65.8175 107.221 65.8135 106.791 65.8832 106.355C66.3575 103.542 68.7054 101.395 71.2398 102.255C71.8829 102.428 72.4253 102.727 72.7432 103.054C73.0494 103.373 73.161 103.62 73.1929 103.905C73.2253 104.19 73.1075 104.636 72.7408 105.114C72.2041 105.841 71.116 106.535 69.93 107.077C69.3329 107.353 68.7004 107.601 68.0424 107.844C67.7128 107.967 67.377 108.087 67.0271 108.219C66.8457 108.287 66.6731 108.354 66.4728 108.44C66.2656 108.54 66.0881 108.581 65.7117 108.882C65.2877 109.331 64.8452 109.702 64.7467 110.754L64.761 110.605C64.6613 111.586 65.0819 112.424 65.851 112.918C66.6344 113.391 67.4632 113.308 68.1154 113.15C68.5042 113.053 68.9201 112.94 69.3312 112.768C69.4079 112.736 69.4842 112.702 69.5601 112.666C70.143 112.392 70.7388 112.066 71.337 111.648C71.5765 111.506 71.6565 111.253 71.6172 110.991C71.5773 110.728 71.4112 110.468 71.1656 110.277C70.9201 110.086 70.6276 109.989 70.3628 110.015C70.0986 110.042 69.8735 110.181 69.7949 110.448C69.7949 110.448 69.7949 110.448 69.7949 110.448C69.7155 110.909 69.4226 111.293 69.0015 111.49C68.947 111.516 68.8913 111.54 68.8342 111.563C68.5285 111.688 68.1903 111.771 67.8233 111.842C66.7848 112.082 66.2907 111.441 66.4568 110.919L66.4712 110.77C66.4692 110.921 66.4884 110.8 66.5137 110.784C66.5395 110.747 66.575 110.703 66.6176 110.659C66.7032 110.57 66.8194 110.477 66.9548 110.392C68.7799 109.996 72.4684 110.073 75.337 107.649C76.2197 106.856 77.0424 105.649 77.1732 104.134C77.3241 102.623 76.6365 101.098 75.6801 100.158C74.6748 99.1476 73.4764 98.5952 72.3136 98.28C70.0679 97.5992 67.1135 98.0842 65.2438 99.7343C63.3556 101.342 62.2994 103.468 61.9648 105.814C61.8657 106.617 61.8494 107.467 62.0777 108.407Z" fill="#F6BD55"/>
</mask>
<g mask="url(#mask9_11_1852)">
<path d="M72.9474 104.753C73.0059 104.432 73.0644 104.11 73.1229 103.789C72.4306 103.712 71.7384 103.636 71.0461 103.559C71.0327 103.885 71.0193 104.211 71.0058 104.537C71.0011 104.639 70.9975 104.738 70.995 104.837C70.9965 105.739 70.9346 106.71 71.541 107.779C72.2494 108.919 73.5247 109.014 74.3623 109.03C74.4658 109.031 74.5602 109.03 74.662 109.029C74.8446 109.025 75.0273 109.021 75.2099 109.017C75.2273 108.652 75.2446 108.287 75.262 107.922C75.0806 107.901 74.8992 107.879 74.7178 107.858C74.6271 107.847 74.5443 107.836 74.4557 107.822C73.6676 107.713 73.0294 107.438 72.9063 107.019C72.7185 106.569 72.7723 105.773 72.9016 105.011C72.9158 104.927 72.931 104.841 72.9474 104.753Z" fill="#F6BD55"/>
<path d="M70.7725 106.377C70.8238 106.129 70.8752 105.88 70.9265 105.632C70.3919 105.557 69.8572 105.483 69.3226 105.409C69.3042 105.662 69.2859 105.915 69.2675 106.168C69.2599 106.26 69.2551 106.348 69.2524 106.44C69.1138 108.084 70.3486 109.904 72.0208 110.097C72.111 110.111 72.2018 110.121 72.2925 110.126C72.4349 110.133 72.5773 110.141 72.7197 110.148C72.7527 109.865 72.7857 109.581 72.8187 109.298C72.6785 109.272 72.5382 109.246 72.398 109.221C72.3361 109.208 72.2746 109.193 72.214 109.175C71.0767 108.847 70.5146 107.675 70.7362 106.565C70.7466 106.502 70.7585 106.441 70.7725 106.377Z" fill="#F6BD55"/>
</g>
<path d="M42.2834 53.2226C42.3265 53.2807 42.3696 53.3388 42.4127 53.397C44.5194 52.3062 46.862 51.6545 49.074 51.6032C50.1931 51.6361 51.5985 51.9974 52.9054 52.3292C57.9775 53.6243 62.7858 55.4134 68.5506 56.0232C68.9126 56.0429 69.311 56.0537 69.7512 56.0159C71.5109 55.8494 73.3177 55.4753 75.0524 54.4122C76.7228 53.4655 78.5441 51.0329 77.8001 48.4449C75.8943 43.558 71.3357 43.3597 68.0696 43.2209C50.6262 43.7503 33.5606 45.832 17.0551 41.584C14.2563 40.8829 11.4078 40.0965 9.20157 38.8566C8.66008 38.5499 8.21565 38.1507 8.16533 38.038C8.1445 37.9773 8.23544 38.2208 8.17096 38.3914C8.11363 38.551 8.1083 38.4773 8.24824 38.3668C8.84212 37.8656 10.2833 37.38 11.572 37.095C17.006 35.9572 22.9178 36.085 28.5876 36.8048C28.8216 36.8358 29.0558 36.8682 29.2902 36.902L29.3675 36.9115C40.2394 37.7703 51.334 38.1403 62.0448 33.8211C64.1088 32.7426 66.1199 31.2035 66.8905 28.5087C67.052 27.8274 67.0937 27.0122 66.7591 26.2028C66.4327 25.3878 65.7082 24.7788 65.0174 24.4983C63.6186 23.9475 62.4029 24.1094 61.2601 24.3047C49.42 26.5314 37.192 28.9576 25.5119 25.28C25.3326 25.2274 25.1527 25.1737 24.9723 25.1188C24.1732 24.8675 23.223 24.4907 22.9205 23.8832C22.795 23.6259 23.0594 23.3312 23.4293 23.1343C23.7912 22.9369 24.2143 22.8032 24.6416 22.6949C26.3717 22.2836 28.1678 22.2022 29.9756 22.1616C29.9756 22.0893 29.9756 22.0169 29.9756 21.9446C28.1568 21.9236 26.3604 21.9334 24.5485 22.2907C24.0971 22.3878 23.6462 22.5071 23.2126 22.7208C22.9917 22.834 22.7786 22.9631 22.596 23.1834C22.4079 23.3944 22.3196 23.7721 22.4303 24.0564C22.9524 25.1046 23.924 25.3722 24.777 25.7163C24.9571 25.7792 25.1366 25.8409 25.3158 25.9015C36.9909 30.1287 49.7203 28.2601 61.6386 26.5304C62.562 26.3907 63.5078 26.4129 64.0514 26.6823C64.3224 26.8178 64.4265 26.9534 64.4848 27.1189C64.5438 27.2863 64.5487 27.5621 64.4533 27.8901C64.0388 29.2713 62.4876 30.6113 60.8539 31.34C51.3579 34.8138 40.1481 34.387 29.7154 33.459L29.7927 33.4685C29.545 33.4317 29.2976 33.3965 29.0505 33.3628C23.0287 32.5919 16.9795 32.3885 10.7966 33.6476C9.248 34.0362 7.69791 34.3343 5.97334 35.6449C5.53254 36.0235 5.03757 36.5139 4.76502 37.3875C4.48314 38.2712 4.73916 39.2689 5.11283 39.8586C5.86456 41.0168 6.61175 41.4294 7.39134 41.9229C10.3688 43.5817 13.2329 44.2954 16.1977 45.066C33.3432 49.5354 51.2286 47.3825 68.0696 46.9021C70.8141 46.8119 73.9331 47.9487 74.2359 49.3906C74.7878 50.4979 72.1743 52.2424 69.4269 52.3402C69.2708 52.3548 69.0135 52.3541 68.759 52.3391C63.9968 51.8506 58.6741 50.414 53.3507 49.8552C51.9108 49.7235 50.5115 49.5459 48.8627 49.8069C46.3209 50.361 44.1049 51.5948 42.2834 53.2226Z" fill="#9890E7" fill-opacity="0.26"/>
<g filter="url(#filter12_g_11_1852)">
<path d="M42.2834 53.2226C42.3265 53.2807 42.3696 53.3388 42.4127 53.397C44.5194 52.3062 46.862 51.6545 49.074 51.6032C50.1931 51.6361 51.5985 51.9974 52.9054 52.3292C57.9775 53.6243 62.7858 55.4134 68.5506 56.0232C68.9126 56.0429 69.311 56.0537 69.7512 56.0159C71.5109 55.8494 73.3177 55.4753 75.0524 54.4122C76.7228 53.4655 78.5441 51.0329 77.8001 48.4449C75.8943 43.558 71.3357 43.3597 68.0696 43.2209C50.6262 43.7503 33.5606 45.832 17.0551 41.584C14.2563 40.8829 11.4078 40.0965 9.20157 38.8566C8.66008 38.5499 8.21565 38.1507 8.16533 38.038C8.1445 37.9773 8.23544 38.2208 8.17096 38.3914C8.11363 38.551 8.1083 38.4773 8.24824 38.3668C8.84212 37.8656 10.2833 37.38 11.572 37.095C17.006 35.9572 22.9178 36.085 28.5876 36.8048C28.8216 36.8358 29.0558 36.8682 29.2902 36.902L29.3675 36.9115C40.2394 37.7703 51.334 38.1403 62.0448 33.8211C64.1088 32.7426 66.1199 31.2035 66.8905 28.5087C67.052 27.8274 67.0937 27.0122 66.7591 26.2028C66.4327 25.3878 65.7082 24.7788 65.0174 24.4983C63.6186 23.9475 62.4029 24.1094 61.2601 24.3047C49.42 26.5314 37.192 28.9576 25.5119 25.28C25.3326 25.2274 25.1527 25.1737 24.9723 25.1188C24.1732 24.8675 23.223 24.4907 22.9205 23.8832C22.795 23.6259 23.0594 23.3312 23.4293 23.1343C23.7912 22.9369 24.2143 22.8032 24.6416 22.6949C26.3717 22.2836 28.1678 22.2022 29.9756 22.1616C29.9756 22.0893 29.9756 22.0169 29.9756 21.9446C28.1568 21.9236 26.3604 21.9334 24.5485 22.2907C24.0971 22.3878 23.6462 22.5071 23.2126 22.7208C22.9917 22.834 22.7786 22.9631 22.596 23.1834C22.4079 23.3944 22.3196 23.7721 22.4303 24.0564C22.9524 25.1046 23.924 25.3722 24.777 25.7163C24.9571 25.7792 25.1366 25.8409 25.3158 25.9015C36.9909 30.1287 49.7203 28.2601 61.6386 26.5304C62.562 26.3907 63.5078 26.4129 64.0514 26.6823C64.3224 26.8178 64.4265 26.9534 64.4848 27.1189C64.5438 27.2863 64.5487 27.5621 64.4533 27.8901C64.0388 29.2713 62.4876 30.6113 60.8539 31.34C51.3579 34.8138 40.1481 34.387 29.7154 33.459L29.7927 33.4685C29.545 33.4317 29.2976 33.3965 29.0505 33.3628C23.0287 32.5919 16.9795 32.3885 10.7966 33.6476C9.248 34.0362 7.69791 34.3343 5.97334 35.6449C5.53254 36.0235 5.03757 36.5139 4.76502 37.3875C4.48314 38.2712 4.73916 39.2689 5.11283 39.8586C5.86456 41.0168 6.61175 41.4294 7.39134 41.9229C10.3688 43.5817 13.2329 44.2954 16.1977 45.066C33.3432 49.5354 51.2286 47.3825 68.0696 46.9021C70.8141 46.8119 73.9331 47.9487 74.2359 49.3906C74.7878 50.4979 72.1743 52.2424 69.4269 52.3402C69.2708 52.3548 69.0135 52.3541 68.759 52.3391C63.9968 51.8506 58.6741 50.414 53.3507 49.8552C51.9108 49.7235 50.5115 49.5459 48.8627 49.8069C46.3209 50.361 44.1049 51.5948 42.2834 53.2226Z" fill="#9890E7"/>
</g>
<defs>
<filter id="filter0_g_11_1852" x="46.8192" y="77.0996" width="41.8088" height="34.0001" filterUnits="userSpaceOnUse" color-interpolation-filters="sRGB">
<feFlood flood-opacity="0" result="BackgroundImageFix"/>
<feBlend mode="normal" in="SourceGraphic" in2="BackgroundImageFix" result="shape"/>
<feTurbulence type="fractalNoise" baseFrequency="0.99900001287460327 0.99900001287460327" numOctaves="3" seed="6289" />
<feDisplacementMap in="shape" scale="15.801983833312988" xChannelSelector="R" yChannelSelector="G" result="displacedImage" width="100%" height="100%" />
<feMerge result="effect1_texture_11_1852">
<feMergeNode in="displacedImage"/>
</feMerge>
</filter>
<filter id="filter1_n_11_1852" x="17.8203" y="101.28" width="47.9702" height="18.8842" filterUnits="userSpaceOnUse" color-interpolation-filters="sRGB">
<feFlood flood-opacity="0" result="BackgroundImageFix"/>
<feBlend mode="normal" in="SourceGraphic" in2="BackgroundImageFix" result="shape"/>
<feTurbulence type="fractalNoise" baseFrequency="9.2140331268310547 9.2140331268310547" stitchTiles="stitch" numOctaves="3" result="noise" seed="8250" />
<feColorMatrix in="noise" type="luminanceToAlpha" result="alphaNoise" />
<feComponentTransfer in="alphaNoise" result="coloredNoise1">
<feFuncA type="discrete" tableValues="1 1 1 1 1 1 1 1 1 1 1 1 1 1 1 1 1 1 1 1 1 1 1 1 1 1 1 1 1 1 1 1 1 1 1 1 1 1 1 1 1 1 1 1 1 1 1 1 1 1 1 0 0 0 0 0 0 0 0 0 0 0 0 0 0 0 0 0 0 0 0 0 0 0 0 0 0 0 0 0 0 0 0 0 0 0 0 0 0 0 0 0 0 0 0 0 0 0 0 0 "/>
</feComponentTransfer>
<feComposite operator="in" in2="shape" in="coloredNoise1" result="noise1Clipped" />
<feFlood flood-color="rgba(0, 0, 0, 0.11)" result="color1Flood" />
<feComposite operator="in" in2="noise1Clipped" in="color1Flood" result="color1" />
<feMerge result="effect1_noise_11_1852">
<feMergeNode in="shape" />
<feMergeNode in="color1" />
</feMerge>
</filter>
<filter id="filter2_g_11_1852" x="16.084" y="90.6441" width="49.707" height="32.7761" filterUnits="userSpaceOnUse" color-interpolation-filters="sRGB">
<feFlood flood-opacity="0" result="BackgroundImageFix"/>
<feBlend mode="normal" in="SourceGraphic" in2="BackgroundImageFix" result="shape"/>
<feTurbulence type="fractalNoise" baseFrequency="0.99900001287460327 0.99900001287460327" numOctaves="3" seed="7183" />
<feDisplacementMap in="shape" scale="21.706020355224609" xChannelSelector="R" yChannelSelector="G" result="displacedImage" width="100%" height="100%" />
<feMerge result="effect1_texture_11_1852">
<feMergeNode in="displacedImage"/>
</feMerge>
</filter>
<filter id="filter3_n_11_1852" x="27.8047" y="104.428" width="29.0859" height="7.97277" filterUnits="userSpaceOnUse" color-interpolation-filters="sRGB">
<feFlood flood-opacity="0" result="BackgroundImageFix"/>
<feBlend mode="normal" in="SourceGraphic" in2="BackgroundImageFix" result="shape"/>
<feTurbulence type="fractalNoise" baseFrequency="9.2140331268310547 9.2140331268310547" stitchTiles="stitch" numOctaves="3" result="noise" seed="7704" />
<feColorMatrix in="noise" type="luminanceToAlpha" result="alphaNoise" />
<feComponentTransfer in="alphaNoise" result="coloredNoise1">
<feFuncA type="discrete" tableValues="1 1 1 1 1 1 1 1 1 1 1 1 1 1 1 1 1 1 1 1 1 1 1 1 1 1 1 1 1 1 1 1 1 1 1 1 1 1 1 1 1 1 1 1 1 1 1 1 1 1 1 0 0 0 0 0 0 0 0 0 0 0 0 0 0 0 0 0 0 0 0 0 0 0 0 0 0 0 0 0 0 0 0 0 0 0 0 0 0 0 0 0 0 0 0 0 0 0 0 0 "/>
</feComponentTransfer>
<feComposite operator="in" in2="shape" in="coloredNoise1" result="noise1Clipped" />
<feFlood flood-color="rgba(0, 0, 0, 0.21)" result="color1Flood" />
<feComposite operator="in" in2="noise1Clipped" in="color1Flood" result="color1" />
<feMerge result="effect1_noise_11_1852">
<feMergeNode in="shape" />
<feMergeNode in="color1" />
</feMerge>
</filter>
<filter id="filter4_g_11_1852" x="18.8257" y="75.8069" width="43.8871" height="36.1598" filterUnits="userSpaceOnUse" color-interpolation-filters="sRGB">
<feFlood flood-opacity="0" result="BackgroundImageFix"/>
<feBlend mode="normal" in="SourceGraphic" in2="BackgroundImageFix" result="shape"/>
<feTurbulence type="fractalNoise" baseFrequency="0.99900001287460327 0.99900001287460327" numOctaves="3" seed="1232" />
<feDisplacementMap in="shape" scale="8.5955839157104492" xChannelSelector="R" yChannelSelector="G" result="displacedImage" width="100%" height="100%" />
<feMerge result="effect1_texture_11_1852">
<feMergeNode in="displacedImage"/>
</feMerge>
</filter>
<filter id="filter5_g_11_1852" x="13.8479" y="96.2225" width="32.5194" height="51.3278" filterUnits="userSpaceOnUse" color-interpolation-filters="sRGB">
<feFlood flood-opacity="0" result="BackgroundImageFix"/>
<feBlend mode="normal" in="SourceGraphic" in2="BackgroundImageFix" result="shape"/>
<feTurbulence type="fractalNoise" baseFrequency="0.99900001287460327 0.99900001287460327" numOctaves="3" seed="244" />
<feDisplacementMap in="shape" scale="22.704498291015625" xChannelSelector="R" yChannelSelector="G" result="displacedImage" width="100%" height="100%" />
<feMerge result="effect1_texture_11_1852">
<feMergeNode in="displacedImage"/>
</feMerge>
</filter>
<filter id="filter6_g_11_1852" x="11.9986" y="95.6208" width="96.6806" height="80.5202" filterUnits="userSpaceOnUse" color-interpolation-filters="sRGB">
<feFlood flood-opacity="0" result="BackgroundImageFix"/>
<feBlend mode="normal" in="SourceGraphic" in2="BackgroundImageFix" result="shape"/>
<feTurbulence type="fractalNoise" baseFrequency="0.99900001287460327 0.99900001287460327" numOctaves="3" seed="8379" />
<feDisplacementMap in="shape" scale="43.412040710449219" xChannelSelector="R" yChannelSelector="G" result="displacedImage" width="100%" height="100%" />
<feMerge result="effect1_texture_11_1852">
<feMergeNode in="displacedImage"/>
</feMerge>
</filter>
<filter id="filter7_ng_11_1852" x="29.5412" y="63.6204" width="23.4429" height="51.0093" filterUnits="userSpaceOnUse" color-interpolation-filters="sRGB">
<feFlood flood-opacity="0" result="BackgroundImageFix"/>
<feBlend mode="normal" in="SourceGraphic" in2="BackgroundImageFix" result="shape"/>
<feTurbulence type="fractalNoise" baseFrequency="9.2140331268310547 9.2140331268310547" stitchTiles="stitch" numOctaves="3" result="noise" seed="6600" />
<feColorMatrix in="noise" type="luminanceToAlpha" result="alphaNoise" />
<feComponentTransfer in="alphaNoise" result="coloredNoise1">
<feFuncA type="discrete" tableValues="1 1 1 1 1 1 1 1 1 1 1 1 1 1 1 1 1 1 1 1 1 1 1 1 1 1 1 1 1 1 1 1 1 1 1 1 1 1 1 1 1 1 1 1 1 1 1 1 1 1 1 0 0 0 0 0 0 0 0 0 0 0 0 0 0 0 0 0 0 0 0 0 0 0 0 0 0 0 0 0 0 0 0 0 0 0 0 0 0 0 0 0 0 0 0 0 0 0 0 0 "/>
</feComponentTransfer>
<feComposite operator="in" in2="shape" in="coloredNoise1" result="noise1Clipped" />
<feFlood flood-color="rgba(152, 144, 231, 0.68)" result="color1Flood" />
<feComposite operator="in" in2="noise1Clipped" in="color1Flood" result="color1" />
<feMerge result="effect1_noise_11_1852">
<feMergeNode in="shape" />
<feMergeNode in="color1" />
</feMerge>
<feTurbulence type="fractalNoise" baseFrequency="0.99900001287460327 0.99900001287460327" numOctaves="3" seed="5774" />
<feDisplacementMap in="effect1_noise_11_1852" scale="0.43412041664123535" xChannelSelector="R" yChannelSelector="G" result="displacedImage" width="100%" height="100%" />
<feMerge result="effect2_texture_11_1852">
<feMergeNode in="displacedImage"/>
</feMerge>
</filter>
<filter id="filter8_g_11_1852" x="-7.14206" y="76.1011" width="101.173" height="81.483" filterUnits="userSpaceOnUse" color-interpolation-filters="sRGB">
<feFlood flood-opacity="0" result="BackgroundImageFix"/>
<feBlend mode="normal" in="SourceGraphic" in2="BackgroundImageFix" result="shape"/>
<feTurbulence type="fractalNoise" baseFrequency="0.99900001287460327 0.99900001287460327" numOctaves="3" seed="8379" />
<feDisplacementMap in="shape" scale="43.412040710449219" xChannelSelector="R" yChannelSelector="G" result="displacedImage" width="100%" height="100%" />
<feMerge result="effect1_texture_11_1852">
<feMergeNode in="displacedImage"/>
</feMerge>
</filter>
<filter id="filter9_ng_11_1852" x="28.3474" y="59.1707" width="27.9004" height="35.2192" filterUnits="userSpaceOnUse" color-interpolation-filters="sRGB">
<feFlood flood-opacity="0" result="BackgroundImageFix"/>
<feBlend mode="normal" in="SourceGraphic" in2="BackgroundImageFix" result="shape"/>
<feTurbulence type="fractalNoise" baseFrequency="9.2140331268310547 9.2140331268310547" stitchTiles="stitch" numOctaves="3" result="noise" seed="7182" />
<feColorMatrix in="noise" type="luminanceToAlpha" result="alphaNoise" />
<feComponentTransfer in="alphaNoise" result="coloredNoise1">
<feFuncA type="discrete" tableValues="1 1 1 1 1 1 1 1 1 1 1 1 1 1 1 1 1 1 1 1 1 1 1 1 1 1 1 1 1 1 1 1 1 1 1 1 1 1 1 1 1 1 1 1 1 1 1 1 1 1 1 0 0 0 0 0 0 0 0 0 0 0 0 0 0 0 0 0 0 0 0 0 0 0 0 0 0 0 0 0 0 0 0 0 0 0 0 0 0 0 0 0 0 0 0 0 0 0 0 0 "/>
</feComponentTransfer>
<feComposite operator="in" in2="shape" in="coloredNoise1" result="noise1Clipped" />
<feFlood flood-color="rgba(0, 0, 0, 0.25)" result="color1Flood" />
<feComposite operator="in" in2="noise1Clipped" in="color1Flood" result="color1" />
<feMerge result="effect1_noise_11_1852">
<feMergeNode in="shape" />
<feMergeNode in="color1" />
</feMerge>
<feTurbulence type="fractalNoise" baseFrequency="0.99900001287460327 0.99900001287460327" numOctaves="3" seed="8776" />
<feDisplacementMap in="effect1_noise_11_1852" scale="0.43412041664123535" xChannelSelector="R" yChannelSelector="G" result="displacedImage" width="100%" height="100%" />
<feMerge result="effect2_texture_11_1852">
<feMergeNode in="displacedImage"/>
</feMerge>
</filter>
<filter id="filter10_gn_11_1852" x="23.8977" y="107.901" width="34.7295" height="8.2216" filterUnits="userSpaceOnUse" color-interpolation-filters="sRGB">
<feFlood flood-opacity="0" result="BackgroundImageFix"/>
<feBlend mode="normal" in="SourceGraphic" in2="BackgroundImageFix" result="shape"/>
<feTurbulence type="fractalNoise" baseFrequency="0.99900001287460327 0.99900001287460327" numOctaves="3" seed="98" />
<feDisplacementMap in="shape" scale="0.43412041664123535" xChannelSelector="R" yChannelSelector="G" result="displacedImage" width="100%" height="100%" />
<feMerge result="effect1_texture_11_1852">
<feMergeNode in="displacedImage"/>
</feMerge>
<feTurbulence type="fractalNoise" baseFrequency="9.2140331268310547 9.2140331268310547" stitchTiles="stitch" numOctaves="3" result="noise" seed="2439" />
<feColorMatrix in="noise" type="luminanceToAlpha" result="alphaNoise" />
<feComponentTransfer in="alphaNoise" result="coloredNoise1">
<feFuncA type="discrete" tableValues="1 1 1 1 1 1 1 1 1 1 1 1 1 1 1 1 1 1 1 1 1 1 1 1 1 1 1 1 1 1 1 1 1 1 1 1 1 1 1 1 1 1 1 1 1 1 1 1 1 1 1 0 0 0 0 0 0 0 0 0 0 0 0 0 0 0 0 0 0 0 0 0 0 0 0 0 0 0 0 0 0 0 0 0 0 0 0 0 0 0 0 0 0 0 0 0 0 0 0 0 "/>
</feComponentTransfer>
<feComposite operator="in" in2="effect1_texture_11_1852" in="coloredNoise1" result="noise1Clipped" />
<feFlood flood-color="rgba(0, 0, 0, 0.19)" result="color1Flood" />
<feComposite operator="in" in2="noise1Clipped" in="color1Flood" result="color1" />
<feMerge result="effect2_noise_11_1852">
<feMergeNode in="effect1_texture_11_1852" />
<feMergeNode in="color1" />
</feMerge>
</filter>
<filter id="filter11_g_11_1852" x="19.1657" y="105.231" width="44.9533" height="21.0765" filterUnits="userSpaceOnUse" color-interpolation-filters="sRGB">
<feFlood flood-opacity="0" result="BackgroundImageFix"/>
<feBlend mode="normal" in="SourceGraphic" in2="BackgroundImageFix" result="shape"/>
<feTurbulence type="fractalNoise" baseFrequency="0.99900001287460327 0.99900001287460327" numOctaves="3" seed="5631" />
<feDisplacementMap in="shape" scale="6.859102725982666" xChannelSelector="R" yChannelSelector="G" result="displacedImage" width="100%" height="100%" />
<feMerge result="effect1_texture_11_1852">
<feMergeNode in="displacedImage"/>
</feMerge>
</filter>
<filter id="filter12_g_11_1852" x="-6.91414e-05" y="17.293" width="82.6163" height="43.3932" filterUnits="userSpaceOnUse" color-interpolation-filters="sRGB">
<feFlood flood-opacity="0" result="BackgroundImageFix"/>
<feBlend mode="normal" in="SourceGraphic" in2="BackgroundImageFix" result="shape"/>
<feTurbulence type="fractalNoise" baseFrequency="0.99900001287460327 0.99900001287460327" numOctaves="3" seed="1980" />
<feDisplacementMap in="shape" scale="9.2901773452758789" xChannelSelector="R" yChannelSelector="G" result="displacedImage" width="100%" height="100%" />
<feMerge result="effect1_texture_11_1852">
<feMergeNode in="displacedImage"/>
</feMerge>
</filter>
</defs>
</svg>
