<svg width="210" height="150" viewBox="0 0 210 150" fill="none" xmlns="http://www.w3.org/2000/svg">
<g filter="url(#filter0_n_8_184)">
<path d="M33.5033 63.9247C34.5324 68.994 31.4529 77.0108 31.4529 77.0108L176.007 68.7999C176.007 68.7999 175.479 63.1311 176.007 59.5627C176.933 53.3022 179.87 50.4741 182.414 44.6805C186.795 34.7049 192.562 30.0864 193.948 19.2781C194.547 14.6068 195.909 11.4994 193.948 7.21837C190.451 -0.415972 181.661 -0.887227 173.444 0.803632C108.599 14.1463 58.8771 17.1198 36.3226 27.7455C27.6083 31.8509 26.6313 34.3868 24.5327 39.2921C22.3686 44.3507 23.2512 48.7859 27.0957 53.1479C30.3325 56.8204 32.5288 59.1251 33.5033 63.9247Z" fill="url(#paint0_radial_8_184)"/>
</g>
<path d="M39.2637 141.111V126.388L173.405 117.781V131.371C170.984 130.239 164.145 128.019 156.155 128.2C146.168 128.427 129.302 136.031 124.152 137.94C116.208 140.884 102.929 140.161 99.6387 139.525C92.6025 138.166 62.188 128.427 53.563 131.371C46.663 133.727 41.1551 138.846 39.2637 141.111Z" fill="url(#paint1_radial_8_184)"/>
<g filter="url(#filter1_g_8_184)">
<path d="M208.132 60.023C208.132 73.1579 194.514 86.2973 188.84 89.6948C176.429 89.6948 166.369 79.0469 166.369 65.9121C166.369 52.7773 176.429 42.1294 188.84 42.1294C201.25 42.1294 208.132 46.8882 208.132 60.023Z" fill="url(#paint2_linear_8_184)"/>
</g>
<g filter="url(#filter2_g_8_184)">
<path d="M42.8955 70.8952C42.8955 84.03 29.2771 97.1694 23.6027 100.567C11.1927 100.567 1.13232 89.9191 1.13232 76.7842C1.13232 63.6494 11.1927 53.0015 23.6027 53.0015C36.0128 53.0015 42.8955 57.7603 42.8955 70.8952Z" fill="url(#paint3_linear_8_184)"/>
</g>
<g filter="url(#filter3_gn_8_184)">
<path d="M41.7605 67.0447C42.6719 71.5195 39.9447 78.5963 39.9447 78.5963L103.724 79.5023L167.958 71.3482C167.958 71.3482 167.49 66.3441 167.958 63.1941C168.778 57.6678 171.379 55.1713 173.632 50.057C177.512 41.2512 182.619 37.1742 183.846 27.6333C184.376 23.5097 185.582 20.7667 183.846 16.9877C180.749 10.2485 172.965 9.83253 165.688 11.3251C108.264 23.1032 64.2308 25.7281 44.2572 35.1078C36.5401 38.7318 35.6748 40.9703 33.8164 45.3005C31.8999 49.7659 32.6815 53.681 36.0861 57.5316C38.9525 60.7735 40.8975 62.8079 41.7605 67.0447Z" fill="url(#paint4_linear_8_184)"/>
</g>
<g filter="url(#filter4_n_8_184)">
<path d="M103.498 74.5193L104.178 87.2033C125.741 88.1094 179.08 89.9214 174.54 83.8584C170.14 77.9815 172.044 67.7064 159.56 66.4176C139.813 64.3791 114.619 70.6687 109.853 71.1217C106.04 71.4841 104.027 73.5378 103.498 74.5193Z" fill="url(#paint5_linear_8_184)"/>
</g>
<g filter="url(#filter5_n_8_184)">
<path d="M103.724 75.1987L104.178 86.9768L91.2408 92.6394H34.0435C34.2704 91.5824 35.3599 88.1093 37.902 82.6733C41.0796 75.8782 47.4349 73.8397 49.2507 72.4807C51.0665 71.1217 95.5533 67.7241 98.504 69.5362C100.865 70.9858 102.968 73.9152 103.724 75.1987Z" fill="url(#paint6_linear_8_184)"/>
</g>
<g filter="url(#filter6_n_8_184)">
<path d="M35.4053 124.123C32.6484 121.097 32.7859 118.282 31.5467 114.384C30.7147 111.766 29.731 107.589 29.731 107.589L174.313 101.247C174.313 101.247 178.296 105.955 179.307 109.627C180.316 113.295 181.349 117.781 179.307 119.367C177.264 120.952 174.076 123.719 170.001 124.35C143.672 128.427 51.7474 127.974 51.7474 127.974C51.7474 127.974 39.8162 128.965 35.4053 124.123Z" fill="url(#paint7_linear_8_184)"/>
</g>
<g filter="url(#filter7_dn_8_184)">
<path d="M104.178 87.1207C102.531 89.6331 103.497 106.373 105.767 109.771C108.616 114.035 112.893 114.31 118.024 114.527C128.692 114.98 158.425 114.301 169.774 112.036C173.712 111.25 178.037 111.988 179.307 108.185C180.442 104.788 179.307 95.7278 179.307 93.0097C179.307 88.2414 176.127 84.0797 171.363 83.7231C162.284 83.0437 120.293 77.6076 109.626 81.6846C106.816 82.7583 105.825 84.6082 104.178 87.1207Z" fill="url(#paint8_linear_8_184)"/>
</g>
<g filter="url(#filter8_dn_8_184)">
<path d="M35.4056 90.2581C29.7766 96.9625 29.7704 106.793 32.6819 112.229C35.5934 117.665 94.4187 115.853 105.767 109.737C107.744 108.672 107.053 97.0142 104.86 89.352C103.498 84.5955 102.817 82.557 98.9582 80.9715C95.0996 79.3859 41.0345 83.5536 35.4056 90.2581Z" fill="url(#paint9_linear_8_184)"/>
</g>
<g filter="url(#filter9_dn_8_184)">
<path d="M42.6684 147V128.427C42.9672 127.98 42.5403 127.607 40.6988 125.999L40.6257 125.935C33.3625 119.593 30.4119 106.683 32.6816 97.1695C35.0356 87.3032 38.3559 82.2203 35.1783 74.7458C32.8719 69.3204 25.6454 61.3821 21.7868 61.1556C17.9283 60.9291 9.98418 61.8351 11.8 71.3482C13.6158 80.8613 20.8789 75.8783 23.6026 80.6348C26.3263 85.3914 19.2901 89.4684 16.5664 100.794C13.8428 112.119 25.5573 121.365 28.823 127.068C33.3625 134.995 30.4118 143.376 30.4118 147H42.6684Z" fill="#6E2020"/>
</g>
<g filter="url(#filter10_dn_8_184)">
<path d="M171.45 140.677V122.104C171.151 121.657 171.578 121.284 173.419 119.676L173.492 119.612C180.756 113.27 180.381 99.7434 176.356 90.8274C172.271 81.7771 171.45 74.3117 171.45 67.2613C171.45 61.3679 179.08 54.5772 183.706 53.2182C187.414 52.129 200.869 55.0302 199.054 64.5433C197.238 74.0564 189.067 67.0348 186.343 71.7914C183.619 76.5479 190.883 80.8515 193.606 92.1766C196.33 103.502 188.561 115.042 185.295 120.745C180.756 128.672 183.706 137.053 183.706 140.677H171.45Z" fill="#6E2020"/>
</g>
<g filter="url(#filter11_dn_8_184)">
<path fill-rule="evenodd" clip-rule="evenodd" d="M82.3657 56.8558C84.11 56.6632 85.6805 57.9189 85.8735 59.6595C86.0663 61.4 84.809 62.9669 83.0649 63.1595C81.3207 63.3521 79.7503 62.0974 79.5571 60.3568C79.3641 58.6162 80.6214 57.0485 82.3657 56.8558ZM126.233 48.8217C127.977 48.6291 129.548 49.8847 129.741 51.6254C129.934 53.366 128.676 54.9328 126.932 55.1254C125.188 55.318 123.617 54.0633 123.424 52.3226C123.231 50.582 124.489 49.0144 126.233 48.8217ZM53.647 44.9867C55.3912 44.7942 56.9617 46.0489 57.1548 47.7894C57.3478 49.5301 56.0895 51.0978 54.3452 51.2904C52.6011 51.4827 51.0313 50.2272 50.8384 48.4867C50.6456 46.7461 51.9028 45.1793 53.647 44.9867ZM162.684 35.682C164.428 35.4894 165.999 36.7443 166.192 38.4847C166.385 40.2253 165.127 41.793 163.383 41.9857C161.639 42.1783 160.069 40.9234 159.875 39.183C159.682 37.4423 160.94 35.8746 162.684 35.682ZM96.7134 33.851C98.4577 33.6584 100.028 34.913 100.221 36.6537C100.414 38.3944 99.1569 39.962 97.4126 40.1547C95.6683 40.3473 94.0978 39.0916 93.9048 37.351C93.7119 35.6104 94.9693 34.0437 96.7134 33.851ZM137.074 23.014C138.818 22.8215 140.389 24.0761 140.582 25.8168C140.774 27.5572 139.517 29.1239 137.773 29.3168C136.029 29.5094 134.458 28.2547 134.265 26.514C134.072 24.7734 135.329 23.2066 137.074 23.014Z" fill="#560D0E"/>
</g>
<path d="M33.7111 142.84C33.974 142.456 34.325 141.935 34.5905 141.536C34.6741 141.41 34.6601 141.491 34.7186 141.405C34.8327 141.236 34.9154 141.064 35.0274 140.896C35.0646 140.841 35.0648 140.936 35.1027 140.878C35.1234 140.846 35.1438 140.813 35.1639 140.781C35.3315 140.511 35.451 140.218 35.5784 139.905C36.0752 138.652 36.3421 137.286 36.6099 135.916C36.7082 135.402 36.7719 134.885 36.782 134.366C36.7995 133.746 36.7417 132.989 36.5073 132.395C36.4805 132.326 36.4559 132.382 36.448 132.37C36.323 132.183 36.4264 132.221 36.3824 132.083C36.212 131.554 35.8767 131.021 35.5754 130.527C35.5643 130.509 35.5531 130.491 35.5418 130.473C35.4149 130.278 35.468 130.519 35.3817 130.299C35.3752 130.284 35.445 130.308 35.4133 130.253C35.3428 130.125 35.1659 129.912 35.0928 129.825C34.9533 129.657 34.9271 129.631 34.7788 129.485C34.5753 129.287 34.3241 129.052 34.0666 128.876C34.0116 128.838 34.0557 128.926 33.9658 128.871C33.8763 128.814 33.6472 128.651 33.5734 128.589C33.5001 128.527 33.5536 128.52 33.544 128.504C33.4664 128.369 33.1363 128.269 33.0992 128.248C32.8807 128.123 32.6754 127.995 32.4784 127.862C32.0673 127.584 31.6872 127.284 31.3135 126.929C30.8908 126.532 30.5034 126.034 30.2432 125.551C30.1185 125.323 30.0171 125.101 29.9264 124.881C29.789 124.546 29.6838 124.214 29.5738 123.856C29.5547 123.794 29.5255 123.883 29.5021 123.806C29.2556 122.988 29.0954 122.164 28.9384 121.352C28.9225 121.271 28.9931 121.364 28.9799 121.282C28.9233 120.947 28.8557 120.45 28.6648 120.173C28.565 120.03 28.4567 119.922 28.3498 119.877C28.1762 119.587 27.9428 119.243 27.7952 118.969C27.6999 118.792 27.8548 118.919 27.6933 118.733C27.6569 118.691 27.6629 118.775 27.6111 118.71C27.5205 118.597 27.4308 118.475 27.3417 118.351C27.22 118.182 27.0909 118.014 26.9567 117.864C26.9102 117.812 26.8901 117.851 26.8722 117.84C26.7241 117.745 26.6273 117.465 26.5957 117.412C26.3515 117.013 26.1307 116.755 25.8754 116.404C25.8165 116.322 25.8427 116.45 25.7848 116.373C25.5642 116.079 25.3495 115.773 25.1482 115.464C25.0729 115.348 25.001 115.232 24.9327 115.117C24.8767 115.022 24.9707 115.081 24.946 115.035C24.8379 114.829 24.7372 114.832 24.6357 114.634C24.6143 114.592 24.6616 114.593 24.6608 114.584C24.6487 114.435 24.507 114.386 24.4876 114.357C24.2398 113.998 24.1911 113.707 23.9797 113.347C23.9544 113.303 23.9641 113.426 23.8958 113.303C23.4791 112.557 23.1053 111.74 22.7468 110.978C22.7109 110.903 22.6755 110.827 22.6409 110.752C22.5806 110.621 22.6607 110.696 22.6607 110.686C22.6575 110.522 22.5289 110.48 22.5045 110.439C22.3148 110.119 22.2399 109.772 22.031 109.59C21.8731 109.219 21.7182 108.847 21.5762 108.468C21.365 107.21 21.4305 106.107 21.4845 104.942C21.4856 104.922 21.5331 104.957 21.5352 104.918C21.5617 104.444 21.4882 104.536 21.3986 104.222C21.3761 104.143 21.4858 103.902 21.4939 103.882C21.5236 103.805 21.5938 103.885 21.5996 103.859C21.6452 103.643 21.4116 103.68 21.413 103.389C21.4135 103.38 21.4562 103.418 21.4606 103.394C21.4744 103.319 21.4578 103.245 21.473 103.17C21.5082 103.003 21.6219 102.941 21.5577 102.684C21.5493 102.652 21.4166 102.7 21.4247 102.442C21.426 102.403 21.4269 102.311 21.4282 102.205C21.43 102.035 21.4351 101.831 21.4425 101.752C21.4544 101.624 21.4947 101.713 21.4968 101.704C21.5636 101.36 21.5833 101.492 21.6736 101.324C21.7646 101.157 21.5645 101.193 21.546 101.123C21.5273 101.05 21.5902 100.8 21.6114 100.74C21.6322 100.679 21.6534 100.759 21.6667 100.704C21.7556 100.346 21.5816 100.536 21.5604 100.413C21.5115 100.122 21.6813 99.9178 21.718 99.6611C21.7278 99.5919 21.6896 99.6459 21.6917 99.5836C21.6956 99.4654 21.7099 99.3709 21.7206 99.273C21.7323 99.166 21.7428 99.054 21.7356 98.9053C21.7329 98.8592 21.6706 98.6183 21.7557 98.4794C21.7678 98.4599 21.796 98.5235 21.8186 98.4201C21.8524 98.2648 21.9056 97.985 21.924 97.8156C21.9374 97.6902 21.8522 97.8208 21.8992 97.6689C21.9203 97.6013 21.931 97.736 21.968 97.6084C22.0043 97.482 22.0696 97.1531 22.0957 97.0286C22.1214 96.9038 22.0619 96.9623 22.061 96.9515C22.0567 96.8871 22.0888 96.6431 22.0939 96.6221C22.271 95.8325 22.5078 95.1076 22.7286 94.3694C22.8064 94.1099 22.8907 93.8512 22.9791 93.5898C23.0062 93.5105 22.9416 93.5462 22.9453 93.5339C23.0276 93.2579 23.0676 93.5143 23.1794 93.345C23.0778 93.3361 23.1363 93.2322 23.2046 93.0423C23.2376 92.9511 23.1821 92.9848 23.182 92.9751C23.186 92.8188 23.2957 92.7574 23.3202 92.74C23.4102 92.6766 23.394 92.5544 23.4555 92.5121C23.5168 92.4698 23.5027 92.6274 23.5849 92.4536C23.5767 92.3898 23.4319 92.4788 23.4822 92.3406C23.6696 91.8128 24.2382 90.9486 24.4499 90.5642C24.6616 90.1793 24.7162 90.049 24.833 89.8228C24.8513 89.7868 24.8666 89.755 24.8795 89.7267C25.0184 89.4254 24.9164 89.511 24.9988 89.2577C25.0912 88.9798 25.1849 89.1786 25.2349 89.1557C25.2846 89.134 25.2697 89.0781 25.3092 89.0403C25.3485 89.0031 25.3245 89.1119 25.3814 89.0083C25.4382 88.9038 25.5223 88.5841 25.5078 88.5293C25.4757 88.4145 25.3353 88.5079 25.5027 88.2385C25.5124 88.2231 25.5254 88.2954 25.5605 88.2354C25.8388 87.7567 26.1084 87.2538 26.3676 86.7688C26.4033 86.7022 26.4192 86.784 26.4405 86.7453C26.6463 86.365 26.5313 86.4427 26.5293 86.2341C26.529 86.2207 26.5291 86.2061 26.5297 86.19C26.619 86.2885 26.7499 86.1916 26.8651 85.8575C26.9318 85.6567 26.8688 85.675 26.8716 85.5347C26.8724 85.493 26.9471 85.3602 26.9296 85.3274C26.8719 85.221 26.7516 85.3329 26.8704 84.9977C26.8756 84.983 26.9081 85.0413 26.9229 84.9897C27.0173 84.6527 26.9411 84.5938 26.9999 84.2222C27.0457 83.9306 27.1808 83.4166 27.2398 83.083C27.3748 83.1098 27.3914 82.7899 27.3172 82.6464C27.3538 82.4286 27.3837 82.1933 27.4286 81.9847C27.4441 81.9126 27.4761 81.9664 27.4817 81.9579C27.5696 81.828 27.4933 81.7189 27.4969 81.6716C27.5088 81.5322 27.5274 81.401 27.5489 81.2722C27.6054 80.9326 27.6718 80.6187 27.6645 80.2583C27.664 80.2408 27.5728 80.2015 27.6566 80.0797C27.6623 80.0717 27.6876 80.2371 27.7163 80.0088C27.7453 79.7801 27.8382 79.3512 27.8184 79.0279C27.8139 78.9495 27.7511 78.749 27.8214 78.5961C27.8309 78.5757 27.8568 78.6004 27.8739 78.5711C27.9284 78.4762 27.8354 78.4174 27.9235 78.3069C28.0114 78.1968 28.0856 77.9582 28.0392 77.6317C28.0378 77.6212 27.9639 77.542 27.9674 77.4409C27.9734 77.2776 27.9923 77.0479 27.9915 76.8776C27.9911 76.7962 27.9437 76.8484 27.9429 76.8343C27.9125 76.2897 27.9452 75.9005 27.9039 75.3165C27.8965 75.2083 27.7937 74.9147 27.8008 74.7033C27.8037 74.4897 28.0505 74.6206 27.9308 74.2448C27.918 74.2086 27.9011 74.1685 27.879 74.1245C27.7663 73.9051 27.3989 73.8204 27.2642 73.4456C26.728 72.9248 26.1103 72.5667 25.3886 72.383C25.3562 72.3748 25.2315 72.4217 25.1571 72.3985C25.0475 72.3639 24.9967 72.3098 24.9171 72.2854C24.5849 72.1832 24.2674 72.1456 23.9413 72.0726C23.8172 72.0453 23.8686 72.015 23.7204 71.983C23.5718 71.9514 23.4631 71.9838 23.2659 71.9205C23.1174 71.8726 22.9845 71.7387 22.7852 71.6878C22.7581 71.7902 22.6192 71.7622 22.3672 71.7398C22.3188 71.7355 22.3622 71.7819 22.3389 71.7817C22.2447 71.7819 22.1651 71.734 22.0748 71.7355C22.0529 71.7357 22.0441 71.7708 22.0257 71.773C21.866 71.7931 21.6429 71.6542 21.6071 71.6295C21.4622 71.5356 21.3783 71.5598 21.2644 71.5018C21.1596 71.4467 21.3189 71.4724 21.2222 71.4266C21.2266 71.4271 21.2221 71.4226 21.217 71.4176C21.0009 71.2084 20.7105 70.9587 20.4938 70.7454C20.4074 70.6606 20.4328 70.7527 20.4197 70.7414C20.2305 70.574 20.094 70.3548 19.9287 70.3168C19.9947 70.0205 19.8073 70.2221 19.6063 69.9178C19.5908 69.8939 19.6555 69.7895 19.74 69.8598C19.8243 69.9299 19.9055 70.0773 20.0266 70.1695C20.0551 70.1918 20.2737 70.2644 20.2972 70.2788C20.4829 70.3972 20.3803 70.5407 20.3816 70.5562C20.3997 70.7229 20.6626 70.8102 20.7157 70.8475C20.9486 71.0147 21.1195 71.189 21.3185 71.3229L21.2661 71.2942C21.2761 71.2965 21.2861 71.2987 21.2963 71.3008C21.4535 71.3326 21.5011 71.2257 21.6195 71.2624C22.018 71.3794 22.1334 71.5646 22.5543 71.5079C22.6444 71.4953 22.5839 71.356 22.8692 71.5114C22.8871 71.5212 23.0966 71.6529 23.2395 71.6217C23.2574 71.6177 23.2636 71.5816 23.2859 71.5827C23.4353 71.5908 23.5279 71.6381 23.6903 71.6556C23.8529 71.6732 24.05 71.6918 24.2308 71.7437C24.34 71.7748 24.4664 71.8737 24.5151 71.9024C24.6525 71.9839 24.831 71.9477 24.9081 72.0287C24.9848 72.11 24.7833 72.1471 25.0123 72.2492C25.0468 72.16 25.0938 72.0718 25.1346 71.9839C25.6685 72.1407 26.1856 72.3575 26.6886 72.6512C26.7511 72.6883 26.714 72.6057 26.782 72.6452C27.0687 72.8162 27.2819 73.0283 27.5295 73.286C27.7208 73.485 27.9384 73.7234 28.0653 74.0009C28.0572 74.0555 28.0631 74.1218 28.0753 74.1972C28.1099 74.4081 28.185 74.6755 28.2108 74.8899C28.2228 74.9895 28.1931 74.9893 28.1933 75.0601C28.1924 75.33 28.2716 75.1946 28.2953 75.2655C28.3917 75.5745 28.1769 75.6187 28.2026 75.9808C28.2042 76.0009 28.3299 76.2299 28.3378 76.2641C28.3909 76.4685 28.2986 76.299 28.2932 76.4284C28.2826 76.6642 28.2561 76.8278 28.2879 77.103C28.2973 77.1838 28.3668 77.3779 28.3066 77.5323C28.2987 77.5526 28.2606 77.5402 28.2579 77.5566C28.2116 77.8536 28.3309 77.8658 28.3645 78.0382C28.398 78.2114 28.2998 78.4706 28.2725 78.5223C28.2019 78.6582 28.2525 78.4137 28.2467 78.4056C28.1793 78.3126 28.1812 78.5046 28.1655 78.6502C28.0463 78.6637 28.0393 78.8674 28.1494 78.8011C28.1615 78.7935 28.1582 78.6792 28.1655 78.6502C28.2729 78.7857 28.272 79.0133 28.1431 79.2519C28.0823 79.3636 28.034 79.2487 28.023 79.6018C28.0174 79.7614 28.1044 79.7085 28.1122 79.8515C28.1297 80.1793 28.0044 80.5875 27.9693 80.9201C27.9564 81.0414 28.0173 80.9303 28.01 81.0132C28.0001 81.1255 27.9778 81.2331 27.9566 81.3367C27.9365 81.435 27.918 81.5299 27.9098 81.6366C27.9084 81.6564 27.9619 81.6159 27.9521 81.6829C27.8789 82.1913 27.7845 82.6293 27.7024 83.1628C27.663 83.4205 27.6155 83.886 27.5626 84.1545C27.4738 84.6196 27.2876 85.1795 27.1874 85.5802C27.1215 85.8418 27.1813 85.799 27.1758 85.9202C27.1678 86.0795 27.0501 86.2892 26.9587 86.4162C26.9161 86.4755 26.8817 86.5163 26.8697 86.5301C26.8691 86.5307 26.9128 86.4134 26.9068 86.3942C26.906 86.3918 26.9045 86.391 26.9021 86.3922C26.8976 86.3942 26.8901 86.4026 26.8785 86.4197C26.8048 86.4652 26.8706 86.5274 26.8697 86.5301C26.8473 86.558 26.6492 86.9684 26.6169 87.0527C26.6002 87.0991 26.6519 87.0934 26.6424 87.1172C26.4138 87.6839 26.1403 88.2163 25.8591 88.7435C25.8537 88.7525 25.8163 88.7164 25.804 88.7381C25.6318 89.04 25.5926 89.2669 25.5082 89.5409C25.4613 89.6935 25.4111 89.8214 25.3498 89.929C25.2979 90.0214 25.2382 90.0958 25.1701 90.1518C25.0841 90.3622 24.9029 90.6303 24.797 90.7796C24.6909 90.9298 24.7635 90.9969 24.7575 91.0122C24.5732 91.4795 24.3852 91.6992 24.1446 92.1432C24.0293 92.3538 23.8342 92.785 23.7419 93.0241C23.6679 93.213 23.6004 93.3161 23.545 93.4949C23.5377 93.5189 23.5868 93.511 23.5856 93.5187C23.5587 93.7294 23.4969 93.5999 23.464 93.6332C23.3462 93.7541 23.2767 93.8347 23.2237 94.0986C23.2112 94.1599 23.3021 94.3748 23.2806 94.4828C23.2773 94.4987 23.274 94.512 23.2706 94.5233C23.2429 94.6154 23.2109 94.5764 23.1845 94.7132C23.182 94.7263 23.2148 94.7326 23.1875 94.8251C23.0613 95.2542 22.917 95.7199 22.8092 96.1705C22.7943 96.232 22.8651 96.166 22.8446 96.2549C22.7486 96.6723 22.6434 97.1277 22.5389 97.5288C22.5131 97.6276 22.4891 97.5578 22.474 97.5774C22.3824 97.6981 22.443 97.906 22.4395 97.9371C22.3826 98.4432 22.2955 98.8604 22.2575 99.3054C22.2387 99.5411 22.2169 99.783 22.2056 100.041C22.2039 100.085 22.2754 100.421 22.175 100.556C22.1683 100.565 22.0654 100.701 22.1186 100.831C22.1219 100.839 22.1748 100.754 22.1593 100.908C22.1438 101.062 22.1615 101.312 22.1028 101.522C22.0841 101.59 21.9881 101.747 22.057 101.951C22.06 101.959 22.1245 102.088 22.1436 102.21C22.1546 102.283 22.15 102.352 22.1082 102.393C22.0895 102.412 21.9702 102.39 22.0297 102.637C22.0413 102.684 22.0685 102.6 22.0843 102.723C22.1086 102.912 22.0751 103.164 22.1271 103.396C22.1363 103.436 22.2164 103.611 22.1543 103.748C22.1446 103.77 22.1049 103.728 22.1001 103.802C22.0773 104.149 22.1031 104.514 22.0758 104.866C22.0662 104.992 22.0017 104.928 21.9846 105.058C21.9675 105.189 21.9518 105.452 21.9821 105.587C22.0125 105.724 22.1142 105.575 22.1238 105.777C22.1701 106.612 22.1093 107.647 22.1996 108.233C22.2033 108.243 22.207 108.253 22.2107 108.263C22.2553 108.383 22.251 108.271 22.3205 108.445C22.5626 109.066 23.0883 110.085 23.3269 110.675C23.3369 110.7 23.3464 110.724 23.3553 110.748C23.5307 111.228 23.1986 110.683 23.351 111.038C23.4241 111.209 23.6192 111.333 23.6428 111.372C23.87 111.744 23.9553 112.036 24.1453 112.372C24.1847 112.442 24.1922 112.35 24.2251 112.409C24.338 112.611 24.4314 112.836 24.5393 113.028C24.588 113.114 24.6117 113.08 24.6526 113.161C24.751 113.354 24.8311 113.529 24.9069 113.729C24.9138 113.747 24.809 113.658 24.8878 113.797C25.016 114.023 25.1539 114.317 25.3444 114.549C25.4014 114.618 25.4733 114.575 25.5288 114.765C25.5406 114.805 25.4274 114.819 25.6238 114.954C25.6358 114.962 25.6845 114.999 25.7438 115.053C25.8487 115.148 25.9819 115.287 26.0107 115.412C26.0219 115.463 26.0264 115.613 26.0993 115.693C26.1095 115.704 26.1123 115.629 26.1679 115.7C26.3615 115.945 26.5528 116.214 26.7574 116.462C26.8121 116.528 26.7727 116.398 26.8531 116.497C27.0745 116.771 27.3363 117.123 27.542 117.411C27.6178 117.517 27.5317 117.47 27.5342 117.48C27.573 117.642 27.7021 117.659 27.7375 117.698C27.8107 117.777 27.8717 117.856 27.9268 117.936C28.0288 118.084 28.1131 118.229 28.2311 118.379C28.28 118.441 28.283 118.37 28.2954 118.381C28.4226 118.49 28.2867 118.438 28.3403 118.528C28.4906 118.778 28.6844 119.044 28.8563 119.294C28.9195 119.386 28.8935 119.253 28.9497 119.337C29.0564 119.495 29.1607 119.661 29.2587 119.834C29.5108 120.319 29.568 120.697 29.6515 121.084C29.6714 121.188 29.6171 121.133 29.6136 121.156C29.5886 121.321 29.7224 121.517 29.742 121.566C29.8306 121.784 29.8159 121.879 29.8676 122.076C30.0811 122.885 30.2987 123.855 30.6036 124.586C30.6609 124.724 30.7194 124.854 30.7783 124.975C31.2781 126.01 31.8707 126.626 32.8317 127.245C32.8863 127.281 32.8663 127.217 32.8996 127.228C32.9035 127.229 32.908 127.231 32.9136 127.235C33.5934 127.671 34.3049 128.109 34.9921 128.673C35.0483 128.719 35.0008 128.612 35.0923 128.687C35.2805 128.84 35.5031 129.06 35.657 129.26C35.7317 129.357 35.592 129.262 35.667 129.359C35.8407 129.585 36.0185 129.835 36.1752 130.084C36.2403 130.189 36.1923 130.009 36.2677 130.134C36.2691 130.136 36.2706 130.139 36.2722 130.142C36.7649 130.947 37.3635 131.944 37.4765 133.046C37.485 133.12 37.3951 133.203 37.436 133.354C37.4661 133.362 37.4996 133.356 37.5308 133.358C37.6621 134.278 37.5815 135.188 37.4159 136.061C37.3032 136.651 37.1848 137.241 37.0546 137.836C37.0412 137.898 37.1178 137.803 37.092 137.922C36.9412 138.607 36.7926 139.281 36.5014 139.963C36.472 140.03 36.3947 139.963 36.3345 140.169C36.325 140.207 36.2174 140.514 36.2009 140.6C36.1991 140.612 36.265 140.574 36.223 140.673C36.1439 140.857 36.0536 141.043 35.9492 141.224C35.7461 141.578 35.5276 141.93 35.3016 142.261C35.2479 142.34 35.26 142.229 35.2215 142.284C34.9469 142.679 34.6893 143.14 34.3724 143.491C34.158 143.724 34.1621 143.581 33.9947 143.658C33.9722 143.668 33.8428 143.815 33.8002 143.789C33.6958 143.726 33.658 143.573 33.539 143.514C33.5142 143.504 33.3803 143.683 33.4241 143.543C33.4271 143.535 33.5218 143.398 33.5308 143.351C33.5375 143.319 33.4672 143.328 33.4896 143.27C33.5112 143.213 33.5837 143.188 33.6263 143.095C33.668 143.002 33.5986 143.004 33.7111 142.84ZM24.3187 91.4463C24.1986 91.5704 24.3359 91.6724 24.386 91.4954C24.3883 91.4867 24.3248 91.4398 24.3187 91.4463ZM26.1188 72.5052C26.2923 72.665 26.477 72.6418 26.3602 72.5165C26.2391 72.3918 26.0645 72.4567 26.1188 72.5052ZM23.9034 71.9131C24.1419 72.0226 24.2321 71.7964 23.9517 71.7876C23.9354 71.787 23.8894 71.9068 23.9034 71.9131ZM34.4321 143.036C34.4287 143.037 34.3488 143.147 34.3484 143.151C34.3501 143.242 34.5117 143.02 34.4321 143.036ZM21.694 71.5243C21.7632 71.5761 21.9935 71.5912 21.9071 71.5295C21.8395 71.4811 21.6087 71.4609 21.694 71.5243ZM21.8009 99.6612C21.7983 99.6637 21.7875 99.7599 21.8018 99.7593C21.8483 99.7568 21.847 99.6212 21.8009 99.6612ZM19.2098 68.9085C19.3044 69.4376 19.3227 69.8622 19.098 69.238C19.0679 69.1272 19.2341 69.4569 19.2056 69.3114C19.1574 69.0533 19.0073 68.9051 19.0297 68.6302C19.0337 68.5825 19.2027 68.8785 19.2103 68.9095C19.2101 68.9092 19.2099 68.9089 19.2098 68.9085ZM24.0942 91.4334C24.0907 91.4351 24.0249 91.5523 24.0255 91.556C24.0384 91.6452 24.1704 91.4101 24.0942 91.4334ZM21.5316 105.3C21.5267 105.308 21.5237 105.617 21.5283 105.629C21.617 105.791 21.6232 105.16 21.5316 105.3ZM27.2443 83.0783C27.2128 82.926 27.2325 82.7526 27.317 82.647C27.2918 82.7906 27.2696 82.9347 27.2443 83.0783Z" fill="#4B0E0E"/>
<path d="M38.3046 142.543C38.333 142.197 38.4164 141.747 38.4974 141.411C38.5227 141.305 38.5428 141.364 38.5618 141.292C38.599 141.151 38.6098 141.013 38.6514 140.874C38.6652 140.829 38.7004 140.896 38.7139 140.848C38.7879 140.583 38.8308 140.327 38.9029 140.059C39.1198 139.249 39.3678 138.46 39.5787 137.676C39.7125 137.175 39.8483 136.679 39.9638 136.176C40.0639 135.747 40.1983 135.226 40.2354 134.77C40.2397 134.717 40.1944 134.743 40.1922 134.733C40.1589 134.57 40.2362 134.632 40.259 134.53C40.3479 134.129 40.3843 133.675 40.3841 133.278C40.3841 133.275 40.3841 133.272 40.3841 133.269C40.3795 133.117 40.2966 133.269 40.3408 133.117C40.3435 133.107 40.3892 133.144 40.3924 133.102C40.4008 133.005 40.3698 132.822 40.3582 132.747C40.3372 132.601 40.3305 132.577 40.294 132.44C40.2433 132.254 40.1831 132.026 40.0891 131.833C40.0689 131.792 40.0512 131.865 40.0152 131.802C39.9798 131.739 39.9018 131.563 39.8823 131.499C39.8631 131.436 39.9074 131.445 39.9096 131.431C39.9296 131.314 39.7399 131.154 39.7243 131.13C39.5754 130.888 39.4528 130.653 39.3461 130.403C39.2546 130.186 39.1701 129.972 39.0713 129.753C38.9123 129.402 38.729 129.034 38.5747 128.708C38.391 128.319 38.2434 127.987 38.0256 127.632C38.0027 127.595 37.9834 127.667 37.9553 127.621C37.9472 127.608 37.9391 127.595 37.9309 127.582C37.6404 127.119 37.3168 126.675 36.9921 126.225C36.9586 126.178 37.0417 126.205 37.0103 126.157C36.8188 125.862 36.5134 125.382 36.2207 125.368C36.0655 125.188 35.8712 124.973 35.7519 124.792C35.6735 124.674 35.8052 124.735 35.67 124.629C35.6399 124.606 35.6432 124.673 35.5997 124.634C35.521 124.565 35.4424 124.488 35.3638 124.41C35.2555 124.304 35.155 124.19 35.0567 124.086C35.0211 124.048 34.9981 124.083 34.9833 124.076C34.8592 124.012 34.8237 123.785 34.8073 123.745C34.6722 123.434 34.5457 123.233 34.411 122.961C34.3802 122.897 34.3686 122.996 34.3373 122.936C34.1755 122.624 34.0297 122.298 33.9015 121.988C33.8732 121.919 33.9448 121.96 33.9333 121.925C33.9299 121.916 33.9263 121.906 33.9225 121.898C33.8689 121.774 33.7843 121.771 33.7364 121.636C33.7255 121.605 33.7687 121.604 33.77 121.597C33.7897 121.484 33.6685 121.455 33.6562 121.435C33.4981 121.178 33.5052 120.963 33.3683 120.708C33.3518 120.677 33.3404 120.769 33.2969 120.682C33.0068 120.102 32.7367 119.471 32.5174 118.868C32.4831 118.773 32.5458 118.824 32.5475 118.816C32.573 118.695 32.4581 118.672 32.4421 118.644C32.3699 118.514 32.3333 118.377 32.282 118.261C32.2442 118.175 32.1982 118.101 32.124 118.051C31.7365 117.039 31.2649 116.068 30.918 115.052C30.9135 115.04 30.9666 115.042 30.9575 115.017C30.9164 114.904 30.8831 114.843 30.8513 114.807C30.7949 114.743 30.7388 114.742 30.6271 114.647C30.583 114.609 30.604 114.414 30.6039 114.397C30.6051 114.336 30.6933 114.352 30.69 114.333C30.6597 114.181 30.4657 114.312 30.3705 114.139C30.3679 114.133 30.4181 114.135 30.4138 114.119C30.4005 114.067 30.3605 114.03 30.3486 113.979C30.3214 113.861 30.3993 113.768 30.2528 113.646C30.234 113.631 30.1371 113.727 30.0527 113.571C30.0194 113.508 29.8565 113.239 29.8183 113.159C29.78 113.078 29.8479 113.109 29.8462 113.102C29.7721 112.869 29.8384 112.934 29.8487 112.789C29.859 112.644 29.7054 112.774 29.6615 112.744C29.6174 112.713 29.568 112.538 29.5606 112.493C29.5527 112.448 29.6033 112.481 29.5919 112.443C29.5176 112.195 29.4506 112.395 29.3819 112.338C29.3411 112.304 29.314 112.265 29.2956 112.223C29.2418 112.102 29.2577 111.956 29.2001 111.834C29.1793 111.79 29.17 111.841 29.1458 111.805C29.05 111.662 29.0378 111.55 28.9034 111.402C28.8816 111.378 28.7257 111.285 28.7313 111.163C28.7323 111.146 28.7845 111.164 28.7555 111.096C28.712 110.995 28.6232 110.818 28.5569 110.72C28.5079 110.647 28.5015 110.764 28.4666 110.658C28.4512 110.611 28.5245 110.674 28.4934 110.587C28.462 110.501 28.3569 110.293 28.319 110.212C28.2807 110.133 28.2594 110.196 28.2535 110.191C28.2435 110.181 28.2286 110.162 28.2125 110.139C28.173 110.083 28.1291 109.999 28.1257 109.989C27.8604 109.245 27.874 108.538 27.7478 107.815C27.7385 107.758 27.6955 107.802 27.6936 107.793C27.6483 107.6 27.7956 107.738 27.8207 107.596C27.7259 107.628 27.7332 107.546 27.7046 107.409C27.6908 107.344 27.6578 107.385 27.6532 107.379C27.5831 107.289 27.6478 107.211 27.6606 107.191C27.7074 107.119 27.6321 107.057 27.663 107.008C27.6937 106.958 27.7626 107.053 27.7433 106.921C27.7033 106.889 27.6263 106.999 27.5974 106.902C27.4916 106.534 27.4382 105.829 27.3632 105.535C27.3123 105.32 27.2749 105.214 27.2424 105.107C27.2298 105.067 27.218 105.026 27.2058 104.98C27.1246 104.669 27.0973 104.8 27.0053 104.62C26.913 104.436 27.1031 104.48 27.1284 104.441C27.1541 104.403 27.1096 104.385 27.1179 104.346C27.1261 104.306 27.1725 104.372 27.1546 104.29C27.1365 104.209 27.0102 104.013 26.9659 103.995C26.872 103.958 26.8203 104.082 26.787 103.861C26.7852 103.848 26.8388 103.876 26.8298 103.828C26.7573 103.45 26.6625 103.061 26.6176 102.681C26.6115 102.628 26.6687 102.665 26.6657 102.634C26.6375 102.317 26.5778 102.443 26.4577 102.285C26.585 102.304 26.6409 102.197 26.6085 101.96C26.5896 101.817 26.5403 101.849 26.4914 101.76C26.4767 101.733 26.5015 101.627 26.4746 101.612C26.3869 101.559 26.3044 101.665 26.3167 101.412C26.3174 101.4 26.3653 101.431 26.3645 101.393C26.361 101.147 26.2732 101.125 26.247 100.859C26.2264 100.65 26.2659 100.278 26.2711 100.042C26.4082 100.043 26.3736 99.8243 26.2786 99.7332C26.2814 99.5809 26.2761 99.4161 26.2899 99.2665C26.2947 99.2157 26.3342 99.2493 26.3386 99.2429C26.4065 99.1466 26.315 99.0788 26.3117 99.0454C26.2801 98.6872 26.3553 98.3982 26.2943 98.0551C26.2921 98.0429 26.1971 98.0218 26.2688 97.9317C26.2737 97.9258 26.3146 98.0403 26.3215 97.8786C26.3222 97.8633 26.3233 97.8467 26.3247 97.829C26.3384 97.6562 26.3861 97.3925 26.3578 97.1892C26.3499 97.1383 26.2815 96.9892 26.35 96.8864C26.3592 96.8726 26.3853 96.8903 26.4021 96.8708C26.4554 96.8093 26.3626 96.7603 26.4512 96.6877C26.5398 96.6159 26.6157 96.4557 26.5864 96.2309C26.5857 96.2235 26.5165 96.1599 26.5271 96.09C26.5436 95.9811 26.5839 95.8202 26.6028 95.708C26.6123 95.6511 26.5593 95.6794 26.5602 95.6694C26.6011 95.2892 26.7013 95.0296 26.8367 94.648C26.8614 94.5779 26.8688 94.3512 26.9699 94.2352C27.0822 94.1087 27.2314 94.3431 27.3232 94.0021C27.3604 93.8706 27.1836 93.5616 27.4545 93.4131C27.6611 93.0079 27.9914 92.7234 28.2243 92.3305C28.2523 92.288 28.283 92.2386 28.31 92.191C28.3215 92.1709 28.297 92.0632 28.3284 92.0202C28.3765 91.9546 28.4321 91.9416 28.4671 91.8947C28.6119 91.7021 28.7039 91.4994 28.8321 91.3061C28.881 91.2321 28.8979 91.2802 28.9557 91.1918C29.0131 91.1037 29.0053 91.0166 29.1011 90.9085C29.1734 90.8269 29.321 90.7903 29.4053 90.6736C29.3172 90.6147 29.3697 90.5316 29.4342 90.3674C29.4465 90.3358 29.3965 90.3481 29.4007 90.3321C29.4171 90.267 29.4736 90.2311 29.4866 90.1679C29.4899 90.1525 29.459 90.1337 29.4599 90.1201C29.4661 90.0042 29.6217 89.8977 29.6486 89.8794C29.7513 89.809 29.7366 89.7402 29.7978 89.676C29.8588 89.6121 29.818 89.7366 29.879 89.656C30.0055 89.4885 30.1324 89.2525 30.2375 89.069C30.2792 88.9958 30.2089 89.0223 30.2139 89.0113C30.2888 88.8531 30.4195 88.7244 30.3827 88.5931C30.6588 88.6083 30.413 88.4895 30.5778 88.2958C30.5908 88.2807 30.7057 88.3157 30.684 88.3903C30.6623 88.4647 30.5749 88.5461 30.547 88.6513C30.5408 88.6754 30.5671 88.8541 30.5638 88.8737C30.5348 89.0322 30.3715 88.9644 30.359 88.9668C30.2235 88.9958 30.2421 89.2046 30.2267 89.2485C30.1565 89.4491 30.0472 89.5915 29.9834 89.7568C29.9415 89.8646 30.0355 89.9319 29.9875 90.0081C29.8274 90.262 29.6365 90.2707 29.6126 90.5845C29.6072 90.6516 29.7462 90.6645 29.5498 90.8005C29.5373 90.8092 29.3768 90.9008 29.3772 91.01C29.3773 91.0238 29.4088 91.0425 29.4034 91.0572C29.3662 91.1566 29.3053 91.2001 29.2576 91.3036C29.2097 91.4073 29.1548 91.534 29.0744 91.6366C29.026 91.6986 28.914 91.7459 28.8797 91.7677C28.7819 91.8296 28.7846 91.9677 28.6996 91.9894C28.6142 92.0109 28.6128 91.8548 28.4846 91.9758C28.5595 92.0348 28.6317 92.1022 28.7047 92.165C28.6236 92.2805 28.5384 92.392 28.4496 92.5018L28.4608 92.4858C28.312 92.6943 28.1535 92.874 28.0176 93.0611C27.9908 93.098 28.0597 93.0912 28.0321 93.1316C27.9183 93.2992 27.7893 93.4202 27.6951 93.6028C27.6227 93.7438 27.5891 93.9197 27.5324 94.0715C27.3901 94.1147 27.3259 94.3576 27.2583 94.5221C27.2335 94.5818 27.2082 94.5666 27.1847 94.6063C27.0979 94.7578 27.2144 94.7125 27.215 94.7602C27.22 94.9669 27.005 94.9243 26.9517 95.1601C26.9486 95.1722 27.0265 95.3521 27.0299 95.3722C27.0482 95.5132 26.9857 95.385 26.96 95.4669C26.914 95.6154 26.8667 95.7204 26.8721 95.9045C26.8735 95.9606 26.9268 96.0948 26.858 96.191C26.849 96.2038 26.8119 96.1913 26.8083 96.2021C26.7462 96.3975 26.8666 96.4138 26.895 96.5331C26.9239 96.6487 26.8262 96.816 26.7995 96.8522C26.7303 96.94 26.7787 96.7776 26.7734 96.7712C26.7064 96.7037 26.7072 96.8385 26.6942 96.9335C26.5752 96.9385 26.5728 97.0791 26.6812 97.0354C26.6931 97.0303 26.6874 96.9526 26.6942 96.9335C26.8036 97.0275 26.8083 97.1808 26.692 97.3415C26.6378 97.4173 26.5809 97.3437 26.5935 97.5823C26.5996 97.6912 26.6823 97.6517 26.7017 97.749C26.7074 97.7775 26.7111 97.8071 26.7132 97.8378C26.7275 98.0478 26.6659 98.2896 26.6729 98.4886C26.6758 98.5724 26.7218 98.4917 26.7253 98.5488C26.7349 98.698 26.6996 98.8326 26.7151 98.9811C26.7166 98.9946 26.7636 98.9618 26.7637 99.0087C26.7657 99.3634 26.735 99.6715 26.7404 100.04C26.7426 100.218 26.778 100.535 26.7824 100.717C26.7885 101.034 26.7527 101.426 26.8017 101.693C26.8334 101.867 26.8753 101.822 26.9166 101.892C26.9962 102.026 26.9284 102.294 26.9181 102.332C26.9175 102.333 26.8817 102.186 26.8714 102.269C26.83 102.324 26.9176 102.33 26.9181 102.332C26.9102 102.356 26.9558 102.655 26.9777 102.711C26.9891 102.742 27.0287 102.715 27.0338 102.732C27.1552 103.117 27.2685 103.504 27.366 103.903C27.3672 103.91 27.3167 103.914 27.3202 103.931C27.3681 104.167 27.472 104.294 27.5679 104.472C27.6631 104.647 27.7022 104.799 27.6607 104.939C27.6635 104.946 27.6663 104.953 27.6691 104.96C27.728 105.11 27.7532 105.326 27.7626 105.451C27.7723 105.582 27.8694 105.578 27.8741 105.589C28.014 105.924 27.9964 106.139 28.0459 106.498C28.0693 106.669 28.1308 107.004 28.1652 107.185C28.1928 107.329 28.1816 107.419 28.213 107.549C28.2173 107.567 28.2574 107.543 28.2598 107.549C28.3297 107.69 28.2166 107.632 28.202 107.665C28.1488 107.784 28.1215 107.857 28.1781 108.041C28.1911 108.084 28.3575 108.189 28.3773 108.266C28.4026 108.365 28.3436 108.335 28.3721 108.439C28.3745 108.448 28.4071 108.441 28.4154 108.506C28.4547 108.809 28.4916 109.136 28.5694 109.425C28.5799 109.464 28.618 109.401 28.6341 109.456C28.6777 109.605 28.7275 109.756 28.7801 109.885C28.8273 109.998 28.8757 110.113 28.92 110.224C28.9455 110.288 28.893 110.267 28.89 110.285C28.8727 110.398 29.0206 110.47 29.0325 110.488C29.3202 110.923 29.4571 111.312 29.7677 111.78C29.7764 111.793 29.835 111.841 29.886 111.903C29.93 111.955 29.9692 112.02 29.9554 112.083C29.9534 112.092 29.9233 112.222 30.0215 112.266C30.0277 112.269 30.0366 112.192 30.0873 112.288C30.1378 112.383 30.2549 112.517 30.2886 112.673C30.2993 112.723 30.2799 112.866 30.4156 112.953C30.4248 112.958 30.6793 113.066 30.6225 113.192C30.6131 113.213 30.5034 113.261 30.6432 113.379C30.6701 113.402 30.6629 113.337 30.7211 113.404C30.8103 113.507 30.8703 113.677 30.9968 113.796C31.019 113.816 31.1497 113.886 31.1422 114.003C31.1411 114.021 31.092 114.014 31.1127 114.063C31.1838 114.23 31.2781 114.393 31.356 114.564C31.3847 114.627 31.412 114.694 31.4334 114.758C31.462 114.843 31.3843 114.828 31.4069 114.919C31.4295 115.011 31.4891 115.185 31.5547 115.261C31.6199 115.336 31.672 115.199 31.7372 115.327C32.0196 115.883 32.2031 116.471 32.4359 117.042C32.4703 117.127 32.4746 117.043 32.5278 117.167C32.6255 117.394 32.7648 117.7 32.8923 118.001C33.0211 118.306 33.1394 118.606 33.1901 118.819C33.2711 119.158 33.0534 118.782 33.1359 119.032C33.1763 119.153 33.341 119.229 33.357 119.256C33.5138 119.512 33.5516 119.723 33.679 119.959C33.7054 120.008 33.7265 119.939 33.7484 119.98C33.8237 120.123 33.876 120.285 33.9455 120.422C33.9766 120.483 34.0048 120.456 34.0294 120.515C34.089 120.654 34.1332 120.782 34.1668 120.93C34.1699 120.944 34.0888 120.882 34.1363 120.984C34.2138 121.149 34.2832 121.367 34.4085 121.538C34.4337 121.573 34.4769 121.568 34.5045 121.605C34.5183 121.624 34.5286 121.654 34.5313 121.702C34.5331 121.733 34.4263 121.745 34.5751 121.85C34.6 121.867 34.8229 122.057 34.8095 122.206C34.8061 122.245 34.7687 122.359 34.8128 122.421C34.8191 122.429 34.8425 122.373 34.8732 122.427C34.9809 122.616 35.0753 122.819 35.1892 123C35.2197 123.048 35.2206 122.951 35.2647 123.023C35.3856 123.22 35.5218 123.458 35.6399 123.63C35.6834 123.694 35.62 123.677 35.6201 123.684C35.6241 123.799 35.7314 123.779 35.7546 123.797C35.7995 123.832 35.837 123.868 35.8717 123.903C35.9645 123.998 36.0381 124.098 36.1418 124.192C36.1831 124.23 36.1869 124.17 36.1976 124.175C36.3057 124.23 36.1887 124.225 36.2334 124.283C36.3584 124.446 36.5179 124.607 36.6634 124.754C36.7165 124.808 36.696 124.711 36.7434 124.76C37.0258 125.049 37.3025 125.369 37.5343 125.693C37.5778 125.754 37.5173 125.743 37.5202 125.761C37.5398 125.884 37.705 125.952 37.7341 125.975C37.8662 126.082 37.878 126.154 37.9716 126.267C38.1886 126.529 38.4105 126.839 38.6083 127.167C38.8247 127.525 39.0125 127.897 39.1616 128.217C39.4879 128.922 39.6889 129.487 39.9799 130.107C40.0142 130.18 40.0526 130.257 40.0941 130.336C40.1172 130.38 40.1413 130.311 40.1619 130.349C40.4286 130.839 40.702 131.366 40.9243 131.958C40.9423 132.007 40.9652 131.919 40.9956 131.998C41.0584 132.16 41.1161 132.379 41.1345 132.563C41.1434 132.652 41.0795 132.543 41.0888 132.632C41.1093 132.838 41.1264 133.064 41.1269 133.286C41.1269 133.296 41.1275 133.303 41.1284 133.308C41.1393 133.308 41.1806 133.31 41.1812 133.31L41.1793 133.356C41.1543 134.066 41.0961 134.774 40.9146 135.476C40.902 135.524 40.7929 135.549 40.7945 135.656C40.8215 135.669 40.855 135.674 40.8847 135.683C40.7662 136.437 40.5623 137.165 40.3741 137.873C40.3043 138.137 40.2313 138.399 40.1603 138.66C40.149 138.701 40.2212 138.644 40.1998 138.724C40.0755 139.186 39.9727 139.633 39.8085 140.088C39.7923 140.133 39.7034 140.088 39.6859 140.228C39.6826 140.253 39.6482 140.463 39.6572 140.521C39.6587 140.529 39.711 140.501 39.6978 140.568C39.6197 140.957 39.5313 141.361 39.4391 141.747C39.4243 141.809 39.3879 141.735 39.3769 141.779C39.2991 142.093 39.2856 142.447 39.2046 142.749C39.1506 142.951 39.0774 142.865 38.9833 142.966C38.97 142.98 38.9541 143.108 38.9061 143.11C38.7853 143.114 38.6619 143.037 38.5323 143.049C38.5043 143.052 38.5151 143.232 38.4601 143.12C38.4564 143.112 38.4482 142.982 38.4294 142.949C38.4164 142.925 38.3639 142.959 38.3491 142.912C38.3344 142.865 38.3803 142.82 38.3659 142.744C38.3512 142.667 38.2924 142.693 38.3046 142.543ZM27.7887 106.038C27.7652 106.162 27.9349 106.149 27.8713 106.03C27.868 106.024 27.7898 106.032 27.7887 106.038ZM28.139 92.6809C27.9875 92.7587 28.0125 92.9066 28.1232 92.8562C28.2339 92.8056 28.1852 92.6566 28.139 92.6809ZM28.9836 91.3446C28.8389 91.4634 29.0262 91.6162 29.0877 91.4283C29.0914 91.4173 28.992 91.3377 28.9836 91.3446ZM39.0235 142.452C39.0211 142.453 39.0066 142.546 39.0086 142.548C39.0554 142.604 39.0841 142.42 39.0235 142.452ZM29.7353 89.9763C29.6796 90.0078 29.632 90.1642 29.7014 90.1252C29.7574 90.0936 29.8047 89.937 29.7353 89.9763ZM29.2694 111.788C29.2682 111.791 29.2994 111.851 29.3112 111.842C29.3489 111.816 29.2911 111.741 29.2694 111.788ZM31.0334 87.6895C30.7903 87.9633 30.5067 88.1246 30.761 87.7368C30.8097 87.6722 30.7162 87.9176 30.788 87.8413C30.9144 87.7097 30.903 87.5357 31.083 87.4467C31.1132 87.4319 31.0451 87.674 31.0332 87.6902C31.0333 87.69 31.0333 87.6897 31.0334 87.6895ZM27.6014 106.142C27.5998 106.145 27.6144 106.236 27.6169 106.238C27.6788 106.278 27.6494 106.093 27.6014 106.142ZM31.0624 115.259C31.0598 115.265 31.1435 115.464 31.15 115.468C31.276 115.536 31.1078 115.134 31.0624 115.259ZM26.2747 100.038C26.2188 99.9374 26.2111 99.8156 26.2785 99.7337C26.2756 99.8354 26.2762 99.9364 26.2747 100.038Z" fill="#4B0E0E"/>
<path d="M180.21 137.221C180.118 136.761 180.061 136.159 180.037 135.702C180.029 135.56 180.066 135.628 180.063 135.53C180.056 135.337 180.025 135.159 180.022 134.969C180.022 134.905 180.076 134.979 180.074 134.914C180.073 134.864 180.071 134.814 180.069 134.763C180.054 134.453 180.026 134.16 180.016 133.843C179.961 132.038 179.976 130.262 180.162 128.439C180.199 128.096 180.254 127.72 180.33 127.334C180.389 127.046 180.449 126.761 180.498 126.494C180.511 126.423 180.461 126.456 180.461 126.442C180.456 126.218 180.523 126.307 180.565 126.171C180.732 125.632 180.893 125.031 181.024 124.508C181.08 124.286 180.937 124.484 181.046 124.275C181.053 124.26 181.08 124.328 181.101 124.269C181.151 124.135 181.219 123.874 181.255 123.769C181.322 123.568 181.332 123.534 181.39 123.342C181.471 123.08 181.588 122.776 181.664 122.492C181.68 122.431 181.612 122.497 181.634 122.4C181.656 122.302 181.735 122.051 181.771 121.969C181.806 121.887 181.83 121.933 181.842 121.92C181.91 121.852 181.93 121.689 181.938 121.576C181.942 121.516 181.944 121.469 181.947 121.456C182.114 120.746 182.373 120.177 182.612 119.542C182.794 119.06 182.984 118.543 183.176 118.093C183.22 117.991 183.264 117.892 183.307 117.796C183.487 117.394 183.654 117.018 183.82 116.594C183.842 116.539 183.767 116.584 183.793 116.516C184.073 115.798 184.36 115.086 184.682 114.386C184.714 114.315 184.72 114.425 184.755 114.356C184.832 114.203 184.928 114.02 185.018 113.834C185.176 113.502 185.308 113.157 185.256 112.941C185.386 112.649 185.543 112.294 185.692 112.046C185.789 111.886 185.766 112.071 185.834 111.854C185.85 111.805 185.783 111.848 185.809 111.776C185.921 111.473 186.076 111.155 186.185 110.853C186.207 110.792 186.163 110.792 186.164 110.772C186.169 110.688 186.221 110.598 186.275 110.522C186.328 110.447 186.384 110.387 186.399 110.363C186.624 109.996 186.733 109.707 186.883 109.344C186.917 109.26 186.827 109.339 186.858 109.258C187.021 108.835 187.179 108.395 187.329 107.977C187.363 107.883 187.381 107.984 187.399 107.94C187.478 107.744 187.407 107.677 187.477 107.489C187.491 107.449 187.523 107.482 187.529 107.476C187.599 107.403 187.583 107.319 187.571 107.265C187.566 107.245 187.562 107.229 187.563 107.221C187.626 106.836 187.771 106.609 187.825 106.231C187.831 106.186 187.764 106.279 187.784 106.152C187.917 105.309 188.052 104.413 188.213 103.576C188.238 103.445 188.261 103.544 188.267 103.537C188.357 103.413 188.275 103.312 188.278 103.269C188.301 102.928 188.43 102.625 188.356 102.378C188.403 102.145 188.449 101.909 188.505 101.676C188.779 100.53 188.779 99.3361 188.824 98.1484C188.824 98.1304 188.873 98.161 188.874 98.1249C188.883 97.6891 188.812 97.7757 188.706 97.4943C188.679 97.4242 188.773 97.1969 188.78 97.1772C188.804 97.1046 188.88 97.1729 188.884 97.1489C188.914 96.9478 188.684 96.9978 188.664 96.733C188.664 96.7248 188.709 96.756 188.712 96.7336C188.72 96.6644 188.697 96.5956 188.706 96.5274C188.727 96.3699 188.836 96.3052 188.749 96.074C188.738 96.0453 188.61 96.1013 188.596 95.8648C188.59 95.7692 188.551 95.3507 188.55 95.2323C188.549 95.1133 188.598 95.1912 188.6 95.1825C188.631 94.8606 188.664 94.9812 188.736 94.8155C188.809 94.6542 188.614 94.7073 188.588 94.6443C188.584 94.6342 188.582 94.6198 188.58 94.6026C188.575 94.5167 188.589 94.3472 188.595 94.2978C188.602 94.24 188.64 94.3053 188.641 94.254C188.642 93.9128 188.518 94.1271 188.467 94.0267C188.343 93.7931 188.436 93.5639 188.387 93.3293C188.374 93.2661 188.355 93.3258 188.337 93.271C188.264 93.056 188.27 92.9119 188.154 92.676C188.135 92.6379 187.989 92.4638 188.01 92.3158C188.013 92.2947 188.064 92.3356 188.043 92.2405C188.011 92.0983 187.937 91.8473 187.877 91.703C187.832 91.5968 187.816 91.741 187.788 91.5975C187.776 91.5335 187.847 91.6359 187.821 91.5169C187.795 91.3983 187.696 91.107 187.657 90.9966C187.618 90.8858 187.595 90.9613 187.589 90.9534C187.587 90.9507 187.585 90.9476 187.583 90.9441C187.546 90.8856 187.459 90.6997 187.454 90.684C187.11 89.7495 186.839 88.8616 186.465 87.9613C186.435 87.8914 186.409 87.9558 186.404 87.9454C186.291 87.7088 186.484 87.8542 186.459 87.6684C186.377 87.7284 186.355 87.6215 186.278 87.4531C186.241 87.3724 186.223 87.431 186.217 87.4249C186.115 87.3221 186.152 87.2097 186.158 87.1824C186.179 87.0814 186.082 87.0145 186.097 86.9468C186.11 86.8782 186.211 86.9859 186.147 86.8211C186.096 86.7871 186.058 86.9432 185.995 86.8224C185.761 86.3697 185.493 85.4582 185.358 85.073C185.223 84.6903 185.17 84.5678 185.1 84.3423C185.072 84.2496 185.049 84.1859 185.029 84.1407C184.963 83.9874 184.936 84.0475 184.842 83.8649C184.719 83.6256 184.921 83.6885 184.942 83.6397C184.962 83.5918 184.913 83.567 184.915 83.5164C184.917 83.4653 184.976 83.5519 184.943 83.4458C184.911 83.3399 184.743 83.0826 184.694 83.0604C184.59 83.0127 184.562 83.1701 184.483 82.888C184.479 82.8719 184.539 82.9061 184.52 82.8452C184.367 82.3616 184.171 81.8718 184.004 81.3907C183.982 81.3248 184.051 81.3635 184.038 81.325C183.905 80.9223 183.886 81.0935 183.712 80.9157C183.845 80.9165 183.865 80.7691 183.74 80.4729C183.666 80.2963 183.629 80.3452 183.547 80.2465C183.522 80.2162 183.502 80.0756 183.47 80.0633C183.363 80.0203 183.327 80.1734 183.233 79.8544C183.229 79.8403 183.288 79.8657 183.271 79.8182C183.162 79.5117 183.068 79.5102 182.925 79.1872C182.814 78.9359 182.681 78.4565 182.599 78.1462C182.667 78.1295 182.67 78.05 182.645 77.9652C182.62 77.8813 182.564 77.7898 182.505 77.7434C182.459 77.5449 182.403 77.332 182.372 77.1371C182.361 77.0702 182.41 77.1047 182.412 77.0954C182.449 76.953 182.34 76.8871 182.327 76.8446C182.191 76.3863 182.186 75.9923 182.04 75.5569C182.034 75.5416 181.936 75.5318 181.984 75.4002C181.987 75.3916 182.055 75.5319 182.023 75.321C181.99 75.1092 181.978 74.7044 181.892 74.417C181.871 74.3474 181.769 74.1786 181.809 74.0255C181.814 74.005 181.844 74.0226 181.856 73.9925C181.892 73.8974 181.79 73.8598 181.857 73.7443C181.925 73.6282 181.957 73.4021 181.866 73.1127C181.863 73.1037 181.779 73.0423 181.77 72.9485C181.757 72.8292 181.75 72.6681 181.739 72.5275C181.736 72.4932 181.733 72.4604 181.73 72.4299C181.722 72.3554 181.679 72.4079 181.677 72.395C181.601 71.8952 181.618 71.5314 181.621 70.9917C181.621 70.8933 181.552 70.608 181.605 70.4164C181.663 70.2073 181.89 70.4235 181.848 69.9469C181.832 69.7564 181.548 69.4889 181.732 69.1526C181.751 68.6625 181.843 68.2014 181.968 67.75C182.018 67.5773 182.077 67.4043 182.137 67.2262C182.146 67.1975 182.11 67.0749 182.142 67.0095C182.19 66.9124 182.251 66.8771 182.288 66.8099C182.444 66.5307 182.565 66.2613 182.735 66.0026C182.8 65.9049 182.811 65.9608 182.889 65.8452C182.968 65.7302 182.976 65.6233 183.105 65.482C183.203 65.3755 183.372 65.3216 183.494 65.1766C183.429 65.1223 183.465 65.045 183.542 64.9132C183.565 64.8856 183.593 64.8533 183.624 64.8179C183.653 64.7838 183.593 64.7888 183.606 64.7712C183.657 64.6989 183.737 64.6693 183.787 64.6011C183.799 64.5844 183.776 64.556 183.785 64.5408C183.859 64.4089 184.094 64.3345 184.134 64.3242C184.288 64.2806 184.319 64.2035 184.428 64.1591C184.537 64.1163 184.406 64.2289 184.525 64.1699C184.773 64.0475 185.085 63.885 185.347 63.7911C185.451 63.7535 185.364 63.734 185.378 63.7276C185.594 63.6363 185.831 63.6319 185.94 63.5145C186.141 63.7341 186.074 63.4569 186.417 63.4865C186.444 63.4898 186.478 63.6057 186.383 63.6268C186.288 63.6481 186.137 63.6262 186.009 63.6766C185.977 63.6872 185.825 63.8327 185.805 63.8458C185.638 63.9429 185.562 63.7874 185.548 63.7807C185.401 63.7163 185.229 63.9112 185.181 63.9424C184.949 64.0833 184.737 64.172 184.56 64.3139C184.444 64.4076 184.497 64.5114 184.403 64.5725C184.094 64.78 183.882 64.7487 183.712 65.0961C183.712 65.0962 183.712 65.0962 183.712 65.0963L183.742 65.0623C183.719 65.1439 183.866 65.1545 183.62 65.3247C183.604 65.335 183.407 65.4534 183.384 65.586C183.382 65.6026 183.412 65.6232 183.403 65.6413C183.343 65.7629 183.268 65.8201 183.199 65.9491C183.129 66.0781 183.052 66.2357 182.956 66.3695C182.897 66.4502 182.774 66.5249 182.736 66.5584C182.626 66.6516 182.627 66.8161 182.537 66.8623C182.446 66.9107 182.443 66.7207 182.308 66.9042C182.389 66.9541 182.468 67.0142 182.549 67.0679C182.423 67.3191 182.307 67.5689 182.224 67.8245C182.169 67.9933 182.127 68.1847 182.096 68.3768C182.087 68.4353 182.147 68.3835 182.139 68.4472C182.105 68.7126 182.041 68.9449 182.031 69.2277C182.023 69.4465 182.063 69.6894 182.068 69.918C181.953 70.0531 181.982 70.3966 181.975 70.6444C181.972 70.7309 181.943 70.7253 181.935 70.7876C181.904 71.0221 181.998 70.9102 182.015 70.9739C182.088 71.2447 181.871 71.2775 181.894 71.6028C181.895 71.6211 182.025 71.822 182.035 71.8505C182.096 72.0289 181.997 71.8835 181.998 71.999C181.999 72.1778 181.99 72.3112 182.024 72.4965C182.03 72.5301 182.038 72.5652 182.047 72.6023C182.065 72.6731 182.157 72.8385 182.117 72.985C182.112 73.0044 182.073 72.9986 182.073 73.0138C182.067 73.2868 182.188 73.2787 182.247 73.4277C182.307 73.5748 182.255 73.8226 182.238 73.8737C182.193 74.0073 182.199 73.7812 182.192 73.7745C182.11 73.7033 182.145 73.8752 182.157 74.0078C182.042 74.0432 182.075 74.2264 182.17 74.145C182.18 74.1359 182.155 74.0353 182.157 74.0078C182.287 74.1077 182.33 74.3073 182.256 74.5462C182.222 74.6586 182.147 74.568 182.218 74.8826C182.251 75.026 182.322 74.9564 182.365 75.0801C182.462 75.3611 182.453 75.7488 182.523 76.0433C182.548 76.1502 182.571 76.0369 182.59 76.1094C182.64 76.3018 182.643 76.48 182.701 76.6713C182.707 76.6886 182.743 76.6357 182.757 76.696C182.849 77.1004 182.912 77.4633 183.011 77.871C183.022 77.9176 183.036 77.969 183.051 78.0192C183.113 78.2326 183.285 78.6168 183.371 78.8445C183.52 79.2413 183.664 79.7538 183.822 80.0866C183.925 80.3018 183.948 80.2381 184.017 80.3188C184.151 80.4793 184.184 80.8434 184.188 80.8952C184.187 80.8962 184.097 80.7101 184.118 80.8208C184.097 80.8992 184.186 80.8931 184.188 80.8952C184.189 80.9278 184.338 81.3124 184.378 81.3862C184.399 81.4251 184.43 81.3854 184.441 81.4061C184.688 81.9024 184.906 82.4142 185.089 82.9444C185.091 82.9539 185.04 82.9579 185.047 82.9801C185.144 83.2919 185.274 83.4632 185.402 83.7033C185.45 83.7929 185.489 83.8787 185.517 83.9605C185.564 84.0939 185.582 84.2126 185.566 84.3224C185.646 84.5083 185.712 84.7914 185.748 84.9535C185.786 85.1183 185.884 85.1053 185.891 85.1184C186.108 85.5229 186.149 85.7886 186.309 86.2329C186.385 86.4443 186.557 86.855 186.654 87.0778C186.732 87.2555 186.752 87.371 186.829 87.5306C186.84 87.5521 186.871 87.5143 186.875 87.5204C186.994 87.6869 186.862 87.6359 186.86 87.6808C186.849 87.8424 186.848 87.9412 186.97 88.1664C186.998 88.2172 187.2 88.3235 187.247 88.418C187.308 88.5445 187.238 88.5145 187.302 88.6447C187.308 88.6559 187.338 88.6419 187.369 88.726C187.513 89.1154 187.659 89.5467 187.815 89.9528C187.836 90.0079 187.859 89.9178 187.89 89.9983C187.983 90.2368 188.078 90.4923 188.158 90.7492C188.204 90.8956 188.246 91.0391 188.283 91.1791C188.308 91.272 188.254 91.2268 188.25 91.2501C188.228 91.3934 188.376 91.535 188.388 91.5636C188.655 92.2335 188.742 92.7801 188.969 93.498C188.982 93.5351 189.157 93.8244 189.096 93.988C189.093 93.9998 189.03 94.1551 189.109 94.2764C189.114 94.2844 189.149 94.1838 189.165 94.3484C189.17 94.409 189.181 94.4856 189.188 94.5723C189.197 94.6873 189.207 94.8268 189.184 94.9518C189.172 95.0154 189.093 95.1722 189.181 95.3525C189.187 95.3661 189.375 95.6397 189.272 95.755C189.255 95.7742 189.134 95.7651 189.215 95.9871C189.231 96.0294 189.251 95.9488 189.277 96.0605C189.318 96.2346 189.306 96.4668 189.376 96.6798C189.388 96.7161 189.482 96.8718 189.429 97.0051C189.421 97.0261 189.379 96.9903 189.379 97.0591C189.381 97.3848 189.427 97.7245 189.412 98.0575C189.407 98.175 189.341 98.1174 189.327 98.2402C189.314 98.3631 189.303 98.6094 189.333 98.7374C189.364 98.8658 189.466 98.7242 189.475 98.9176C189.511 99.7607 189.403 100.603 189.236 101.448C189.21 101.574 189.268 101.476 189.23 101.662C189.219 101.717 189.206 101.775 189.193 101.836C189.059 102.445 188.947 103.454 188.8 103.962C188.673 104.408 188.708 103.83 188.633 104.173C188.597 104.339 188.689 104.538 188.687 104.579C188.668 104.981 188.575 105.249 188.535 105.61C188.527 105.684 188.586 105.619 188.578 105.683C188.553 105.899 188.494 106.123 188.461 106.33C188.446 106.423 188.486 106.412 188.467 106.498C188.423 106.701 188.373 106.879 188.295 107.074C188.288 107.091 188.27 106.959 188.235 107.11C188.213 107.204 188.184 107.306 188.153 107.411C188.103 107.579 188.051 107.757 188.023 107.934C188.01 108.018 188.091 108.047 187.982 108.206C187.959 108.24 187.877 108.163 187.897 108.393C187.901 108.432 187.901 108.814 187.768 108.956C187.733 108.993 187.614 109.077 187.59 109.177C187.587 109.191 187.65 109.154 187.624 109.236C187.53 109.523 187.404 109.812 187.294 110.098C187.264 110.174 187.356 110.082 187.311 110.195C187.227 110.404 187.115 110.639 187.01 110.855C186.958 110.961 186.907 111.063 186.86 111.156C186.807 111.261 186.805 111.171 186.798 111.177C186.679 111.275 186.731 111.387 186.718 111.431C186.633 111.704 186.507 111.885 186.415 112.13C186.39 112.198 186.451 112.168 186.449 112.183C186.426 112.335 186.396 112.202 186.351 112.286C186.225 112.52 186.114 112.794 186.016 113.045C185.981 113.137 186.071 113.054 186.038 113.136C185.913 113.453 185.78 113.775 185.642 114.09C185.567 114.259 185.491 114.427 185.415 114.59C185.374 114.677 185.36 114.606 185.344 114.621C185.233 114.726 185.238 114.946 185.228 114.993C185.184 115.204 185.121 115.268 185.057 115.445C184.756 116.283 184.342 117.291 183.987 118.088C183.976 118.112 183.965 118.136 183.954 118.16C183.5 119.181 183.147 119.976 182.822 120.984C182.801 121.048 182.872 121 182.855 121.055C182.781 121.297 182.707 121.537 182.638 121.776C182.497 122.263 182.344 122.741 182.206 123.226C182.189 123.286 182.263 123.214 182.237 123.311C182.184 123.51 182.106 123.758 182.032 123.952C181.996 124.046 181.993 123.904 181.958 124C181.875 124.222 181.8 124.464 181.742 124.699C181.717 124.799 181.809 124.663 181.773 124.793C181.532 125.671 181.331 126.534 181.103 127.421C181.098 127.437 181.087 127.452 181.073 127.467C181.036 127.501 180.976 127.548 180.976 127.644C181.003 127.658 181.037 127.662 181.067 127.671C180.907 128.958 180.82 130.281 180.817 131.607C180.817 131.664 180.872 131.566 180.872 131.675C180.876 132.303 180.909 132.912 180.889 133.557C180.887 133.621 180.789 133.594 180.814 133.78C180.819 133.813 180.849 134.097 180.876 134.168C180.88 134.177 180.921 134.123 180.929 134.214C180.942 134.372 180.954 134.528 180.966 134.689C180.995 135.072 181.02 135.457 181.04 135.829C181.045 135.914 180.988 135.829 180.991 135.89C181.012 136.323 181.109 136.78 181.136 137.188C181.155 137.463 181.056 137.378 181.002 137.537C180.995 137.56 181.026 137.729 180.982 137.747C180.869 137.794 180.724 137.737 180.606 137.796C180.58 137.809 180.655 138.029 180.563 137.908C180.557 137.901 180.502 137.739 180.471 137.701C180.451 137.676 180.413 137.737 180.382 137.682C180.351 137.627 180.378 137.553 180.338 137.459C180.297 137.365 180.249 137.417 180.21 137.221ZM185.916 85.6894C185.927 85.8493 186.094 85.8103 185.997 85.6697C185.992 85.6629 185.916 85.6812 185.916 85.6894ZM182.064 67.8783C181.944 68.0491 182.028 68.2043 182.112 68.0826C182.195 67.9635 182.1 67.8289 182.064 67.8783ZM182.894 66.0293C182.719 66.195 182.905 66.3516 182.995 66.1178C183.001 66.1043 182.905 66.0197 182.894 66.0293ZM180.864 136.869C180.862 136.871 180.879 136.994 180.881 136.996C180.945 137.053 180.911 136.809 180.864 136.869ZM184.163 64.4558C184.085 64.4719 183.943 64.6313 184.039 64.6072C184.115 64.5877 184.26 64.4353 184.163 64.4558ZM188.465 93.3013C188.463 93.3041 188.484 93.391 188.498 93.3857C188.54 93.3676 188.495 93.2511 188.465 93.3013ZM187.357 63.8267C187.147 63.6865 186.969 63.5826 186.905 63.5188C186.841 63.4604 186.92 63.4072 187.203 63.5345C187.301 63.5789 186.962 63.5074 187.084 63.5736C187.296 63.6898 187.497 63.6802 187.662 63.8762C187.691 63.9104 187.381 63.8391 187.356 63.8265C187.356 63.8265 187.357 63.8266 187.357 63.8267ZM185.757 85.844C185.756 85.8476 185.798 85.9631 185.801 85.9656C185.875 86.009 185.791 85.7753 185.757 85.844ZM188.88 98.4759C188.876 98.483 188.876 98.768 188.88 98.7775C188.97 98.9263 188.971 98.3467 188.88 98.4759ZM182.601 78.1403C182.568 78.0987 182.54 78.0469 182.521 77.997C182.489 77.9112 182.48 77.8206 182.505 77.7441C182.523 77.8249 182.542 77.9058 182.562 77.9865C182.574 78.0365 182.588 78.0905 182.601 78.1403Z" fill="#4B0E0E"/>
<path d="M175.658 136.883C175.648 136.481 175.672 135.954 175.7 135.554C175.708 135.44 175.733 135.485 175.743 135.424C175.744 135.419 175.744 135.413 175.745 135.406C175.759 135.237 175.747 135.081 175.764 134.912C175.77 134.857 175.816 134.927 175.821 134.869C175.847 134.551 175.841 134.248 175.857 133.926C175.939 132.336 175.995 130.772 176.102 129.16C176.112 129.02 176.125 128.872 176.139 128.722C176.18 128.295 176.235 127.837 176.261 127.431C176.264 127.367 176.219 127.401 176.217 127.389C176.183 127.192 176.261 127.263 176.285 127.14C176.38 126.648 176.454 126.101 176.513 125.623C176.538 125.421 176.424 125.609 176.503 125.413C176.508 125.399 176.543 125.457 176.557 125.403C176.588 125.279 176.622 125.041 176.643 124.944C176.685 124.76 176.69 124.729 176.726 124.552C176.775 124.312 176.859 124.03 176.909 123.773C176.92 123.717 176.859 123.779 176.872 123.69C176.885 123.601 176.945 123.372 176.974 123.298C177.004 123.222 177.03 123.264 177.042 123.253C177.105 123.188 177.114 123.04 177.114 122.939C177.114 122.887 177.113 122.847 177.115 122.836C177.231 122.201 177.436 121.682 177.622 121.108C177.763 120.671 177.912 120.202 178.074 119.796C178.161 119.576 178.249 119.375 178.338 119.178C178.445 118.941 178.554 118.708 178.661 118.456C178.682 118.408 178.609 118.443 178.634 118.383C178.905 117.751 179.186 117.134 179.485 116.522C179.515 116.46 179.524 116.559 179.556 116.499C179.755 116.131 180.088 115.549 179.983 115.246C180.091 114.986 180.213 114.669 180.329 114.444C180.391 114.324 180.402 114.415 180.427 114.341C180.432 114.325 180.438 114.301 180.445 114.266C180.454 114.221 180.394 114.264 180.411 114.198C180.484 113.919 180.598 113.625 180.671 113.349C180.685 113.292 180.642 113.294 180.641 113.276C180.632 113.126 180.801 112.943 180.825 112.898C181.004 112.558 181.083 112.291 181.212 111.961C181.242 111.885 181.156 111.956 181.183 111.882C181.324 111.496 181.484 111.103 181.653 110.739C181.691 110.659 181.704 110.752 181.724 110.714C181.812 110.547 181.747 110.477 181.83 110.316C181.847 110.282 181.876 110.317 181.883 110.312C181.985 110.236 181.93 110.113 181.938 110.086C182.038 109.748 182.212 109.574 182.318 109.251C182.331 109.213 182.252 109.281 182.29 109.173C182.472 108.655 182.666 108.119 182.855 107.594C182.924 107.402 182.978 107.203 183.023 107.004C183.048 106.893 183.071 106.979 183.077 106.973C183.167 106.867 183.081 106.776 183.082 106.739C183.094 106.442 183.195 106.169 183.094 105.958C183.128 105.598 183.147 105.235 183.162 104.871C183.199 103.965 183.191 103.061 183.237 102.156C183.237 102.14 183.286 102.167 183.287 102.135C183.3 101.748 183.229 101.824 183.128 101.574C183.102 101.511 183.201 101.31 183.208 101.292C183.234 101.227 183.308 101.289 183.312 101.267C183.347 101.09 183.116 101.132 183.101 100.897C183.101 100.89 183.146 100.918 183.149 100.898C183.158 100.836 183.137 100.776 183.147 100.715C183.171 100.575 183.281 100.517 183.198 100.312C183.187 100.287 183.059 100.338 183.046 100.128C183.043 100.065 183.02 99.836 183.008 99.6844C183.004 99.6368 183.001 99.5969 183 99.572C182.997 99.4679 183.047 99.534 183.048 99.5265C183.073 99.2417 183.108 99.3446 183.174 99.1947C183.24 99.0445 183.047 99.1076 183.018 99.0536C182.99 98.9995 183.009 98.7897 183.018 98.7373C183.027 98.685 183.063 98.7439 183.066 98.698C183.084 98.394 182.95 98.5818 182.905 98.4891C182.799 98.2712 182.917 98.0716 182.898 97.8596C182.893 97.8021 182.867 97.8538 182.856 97.8037C182.812 97.6062 182.838 97.4782 182.757 97.2583C182.744 97.2223 182.626 97.0549 182.668 96.9246C182.674 96.9062 182.719 96.9473 182.712 96.8612C182.701 96.7318 182.667 96.5022 182.63 96.3682C182.602 96.2693 182.564 96.3957 182.559 96.2656C182.556 96.2081 182.611 96.3052 182.603 96.1977C182.596 96.0897 182.542 95.8214 182.521 95.7198C182.499 95.6176 182.466 95.6826 182.461 95.6749C182.434 95.629 182.373 95.4379 182.37 95.42C182.312 95.1381 182.262 94.8594 182.216 94.5854C182.121 94.0133 182.047 93.4562 181.869 92.903C181.849 92.8384 181.815 92.8951 181.811 92.8854C181.727 92.6697 181.902 92.8082 181.897 92.6405C181.809 92.6912 181.799 92.5941 181.74 92.4419C181.711 92.3685 181.688 92.4209 181.682 92.4152C181.592 92.3212 181.638 92.2227 181.646 92.1969C181.676 92.1074 181.586 92.0463 181.605 91.9856C181.623 91.9236 181.715 92.022 181.664 91.8721C181.617 91.8423 181.566 91.9802 181.515 91.8736C181.425 91.6887 181.334 91.4196 181.248 91.1479C181.146 90.8243 181.053 90.4958 180.99 90.3081C180.875 89.9655 180.829 89.859 180.769 89.6559C180.66 89.2898 180.645 89.4459 180.534 89.2336C180.424 89.0226 180.62 89.0727 180.643 89.0285C180.665 88.9848 180.617 88.9625 180.622 88.9171C180.626 88.8716 180.68 88.9471 180.654 88.8534C180.627 88.7591 180.475 88.5309 180.428 88.5111C180.328 88.4698 180.291 88.6114 180.23 88.3593C180.226 88.3447 180.284 88.3748 180.269 88.3199C180.145 87.8842 179.985 87.4437 179.858 87.0102C179.84 86.9507 179.905 86.9857 179.896 86.9509C179.795 86.5873 179.764 86.7418 179.607 86.5803C179.737 86.5816 179.768 86.4485 179.67 86.1812C179.611 86.0195 179.572 86.0661 179.498 85.9752C179.476 85.9476 179.468 85.821 179.437 85.8092C179.335 85.7697 179.289 85.9088 179.221 85.6199C179.218 85.6072 179.275 85.6301 179.262 85.5875C179.179 85.3104 179.087 85.3081 178.97 85.019C178.878 84.7927 178.777 84.3664 178.691 84.1025C178.783 84.0747 178.75 83.946 178.681 83.8532C178.651 83.8117 178.614 83.7766 178.577 83.7567C178.519 83.5851 178.449 83.4048 178.403 83.2358C178.387 83.1771 178.438 83.2014 178.439 83.1928C178.463 83.0602 178.351 83.0169 178.334 82.9817C178.162 82.595 178.117 82.2461 177.934 81.8791C177.928 81.8664 177.829 81.8708 177.866 81.7469C177.868 81.7389 177.947 81.8553 177.898 81.6713C177.847 81.487 177.806 81.1284 177.698 80.884C177.675 80.8321 177.581 80.7171 177.58 80.5934C177.58 80.5783 177.581 80.563 177.584 80.5477C177.588 80.5289 177.619 80.5404 177.627 80.5125C177.654 80.4224 177.55 80.4038 177.606 80.2925C177.662 80.1801 177.673 79.975 177.553 79.7322C177.549 79.7247 177.46 79.6822 177.44 79.6009C177.409 79.4719 177.378 79.2837 177.344 79.1498C177.327 79.0849 177.292 79.1381 177.288 79.127C177.153 78.6991 177.117 78.3791 177.021 77.9099C177.003 77.8231 176.88 77.5923 176.891 77.4159C176.901 77.2197 177.172 77.3539 177.02 76.9492C176.958 76.7854 176.621 76.6399 176.702 76.3016C176.533 75.7192 176.494 75.1601 176.346 74.5727C176.34 74.5457 176.245 74.4734 176.238 74.4088C176.226 74.3139 176.258 74.2559 176.253 74.1897C176.247 74.1085 176.24 74.03 176.232 73.9548C176.224 73.758 176.208 73.5682 176.213 73.3712C176.216 73.2668 176.255 73.304 176.259 73.1799C176.263 73.0561 176.212 72.9721 176.242 72.8046C176.266 72.6781 176.377 72.5553 176.397 72.3884C176.292 72.3774 176.298 72.262 176.282 72.0551C176.279 72.0153 176.24 72.0556 176.236 72.0367C176.221 71.9594 176.256 71.8908 176.24 71.8173C176.236 71.7993 176.2 71.7962 176.195 71.7814C176.15 71.6555 176.246 71.4593 176.263 71.426C176.326 71.2979 176.285 71.2325 176.315 71.1326C176.345 71.0333 176.358 71.1867 176.381 71.07C176.429 70.8279 176.456 70.5137 176.488 70.2667C176.5 70.1678 176.444 70.2294 176.445 70.2151C176.458 70.0089 176.537 69.8101 176.459 69.6833C176.726 69.5781 176.452 69.5564 176.549 69.2727C176.557 69.2506 176.678 69.2415 176.68 69.3312C176.682 69.4217 176.625 69.5481 176.634 69.6739C176.636 69.7038 176.721 69.8841 176.725 69.907C176.753 70.0896 176.576 70.0916 176.565 70.1C176.448 70.1931 176.542 70.4106 176.544 70.4646C176.554 70.7124 176.509 70.9173 176.517 71.1242C176.523 71.2596 176.637 71.2818 176.625 71.3862C176.586 71.7321 176.418 71.8452 176.54 72.1817C176.566 72.2537 176.694 72.1897 176.584 72.437C176.577 72.4524 176.479 72.6364 176.533 72.7468C176.54 72.7606 176.577 72.7613 176.579 72.7793C176.595 72.8998 176.564 72.979 176.576 73.11C176.587 73.241 176.606 73.3979 176.594 73.5468C176.586 73.6362 176.519 73.7521 176.502 73.7952C176.482 73.8473 176.486 73.9006 176.491 73.9503L176.491 73.9367C176.502 73.9985 176.52 74.0583 176.491 74.1029C176.441 74.1838 176.335 74.0465 176.321 74.2484C176.416 74.2443 176.515 74.2492 176.611 74.249C176.662 74.6695 176.713 75.0988 176.805 75.5281C176.817 75.581 176.856 75.5163 176.869 75.573C176.928 75.812 176.938 76.0303 177.008 76.2774C177.063 76.4692 177.164 76.6671 177.225 76.8674C177.148 77.0141 177.255 77.308 177.298 77.5272C177.314 77.6053 177.284 77.6059 177.288 77.6625C177.304 77.8758 177.374 77.7573 177.402 77.8098C177.524 78.0341 177.318 78.1072 177.393 78.3903C177.397 78.4048 177.556 78.5617 177.569 78.5849C177.655 78.7336 177.536 78.621 177.553 78.7237C177.584 78.9119 177.59 79.0469 177.677 79.2532C177.703 79.3142 177.811 79.4463 177.788 79.5827C177.785 79.6007 177.745 79.6012 177.746 79.6148C177.769 79.8572 177.888 79.8351 177.962 79.9579C178.035 80.0812 178.007 80.3086 177.995 80.3565C177.963 80.482 177.948 80.2787 177.94 80.2744C177.852 80.2228 177.903 80.3695 177.926 80.4869C177.909 80.494 177.896 80.5038 177.886 80.515C177.832 80.5776 177.878 80.6795 177.951 80.608C177.959 80.6003 177.938 80.5397 177.929 80.504C177.928 80.497 177.927 80.4911 177.926 80.4869C177.934 80.4908 177.941 80.4949 177.948 80.4993C178.071 80.5783 178.122 80.7455 178.069 80.9549C178.044 81.0588 177.964 80.9881 178.057 81.2582C178.1 81.3804 178.166 81.3111 178.217 81.4144C178.334 81.6491 178.359 81.9897 178.455 82.241C178.49 82.3322 178.502 82.2284 178.527 82.2895C178.594 82.4524 178.613 82.6107 178.688 82.773C178.695 82.7878 178.726 82.7347 178.745 82.7875C178.861 83.1051 178.946 83.397 179.054 83.7182C179.078 83.7912 179.106 83.8717 179.134 83.949C179.207 84.1495 179.361 84.4967 179.432 84.7063C179.555 85.0666 179.654 85.532 179.782 85.8325C179.866 86.0286 179.893 85.9684 179.955 86.0433C180.073 86.187 180.077 86.5177 180.076 86.5631C180.076 86.5644 180.002 86.3963 180.014 86.4963C179.986 86.5669 180.075 86.5613 180.076 86.5631C180.075 86.5929 180.192 86.94 180.225 87.005C180.243 87.0404 180.277 87.0044 180.286 87.0232C180.492 87.469 180.672 87.9252 180.823 88.399C180.826 88.4076 180.775 88.4122 180.78 88.432C180.858 88.709 180.979 88.8624 181.093 89.0722C181.209 89.2835 181.261 89.4632 181.23 89.6253C181.3 89.7881 181.353 90.0454 181.381 90.1909C181.41 90.3384 181.507 90.3252 181.513 90.3367C181.641 90.5739 181.696 90.7587 181.755 90.9696C181.787 91.0837 181.82 91.2022 181.865 91.3404C181.927 91.5322 182.068 91.9052 182.145 92.1119C182.206 92.2746 182.216 92.381 182.276 92.5309C182.284 92.5514 182.319 92.5178 182.323 92.5238C182.423 92.6817 182.298 92.629 182.29 92.6697C182.263 92.8182 182.251 92.9068 182.34 93.1214C182.36 93.1708 182.544 93.2859 182.575 93.3799C182.614 93.5013 182.551 93.4666 182.592 93.5929C182.595 93.6038 182.628 93.5942 182.643 93.6743C182.694 93.9336 182.735 94.204 182.784 94.4715C182.805 94.5862 182.827 94.702 182.851 94.8157C182.862 94.867 182.9 94.7908 182.917 94.8643C182.993 95.2117 183.068 95.5959 183.11 95.9431C183.12 96.0279 183.073 95.9825 183.066 96.0027C183.022 96.1278 183.147 96.269 183.154 96.2945C183.317 96.9144 183.315 97.4111 183.454 98.0496C183.462 98.0843 183.605 98.3405 183.534 98.4744C183.529 98.4837 183.456 98.6155 183.532 98.7132C183.537 98.7193 183.573 98.6383 183.586 98.7694C183.598 98.9006 183.656 99.1074 183.626 99.2936C183.617 99.3479 183.553 99.4744 183.613 99.6206C183.618 99.6334 183.624 99.6464 183.631 99.6595C183.638 99.6697 183.827 99.9175 183.723 100.022C183.706 100.039 183.586 100.034 183.664 100.232C183.679 100.269 183.7 100.197 183.725 100.298C183.764 100.453 183.748 100.663 183.813 100.853C183.825 100.885 183.915 101.024 183.86 101.143C183.852 101.162 183.81 101.13 183.809 101.191C183.804 101.481 183.844 101.782 183.826 102.076C183.819 102.18 183.753 102.129 183.739 102.238C183.725 102.346 183.713 102.564 183.745 102.676C183.776 102.789 183.877 102.664 183.887 102.833C183.929 103.525 183.87 104.21 183.829 104.898C183.827 104.945 183.824 104.992 183.821 105.039C183.816 105.148 183.856 105.058 183.85 105.219C183.829 105.805 183.807 106.853 183.594 107.395C183.427 107.818 183.517 107.259 183.408 107.582C183.388 107.639 183.383 107.704 183.384 107.765C183.387 107.86 183.41 107.944 183.405 107.967C183.328 108.32 183.196 108.539 183.103 108.848C183.084 108.912 183.152 108.867 183.135 108.921C183.077 109.107 182.987 109.29 182.925 109.465C182.898 109.543 182.938 109.542 182.909 109.612C182.838 109.781 182.766 109.926 182.67 110.079C182.661 110.093 182.658 109.975 182.608 110.1C182.527 110.302 182.397 110.541 182.338 110.786C182.321 110.859 182.399 110.893 182.286 111.019C182.262 111.046 182.184 110.969 182.197 111.174C182.199 111.208 182.196 111.54 182.069 111.654C182.036 111.684 181.921 111.749 181.901 111.836C181.899 111.848 181.958 111.82 181.936 111.89C181.856 112.136 181.754 112.387 181.674 112.64C181.653 112.707 181.734 112.625 181.701 112.725C181.61 113 181.476 113.334 181.369 113.595C181.329 113.691 181.316 113.611 181.31 113.616C181.204 113.709 181.269 113.807 181.261 113.847C181.211 114.094 181.109 114.262 181.05 114.485C181.034 114.547 181.09 114.517 181.089 114.53C181.089 114.538 181.089 114.545 181.088 114.552C181.079 114.659 181.038 114.555 181.005 114.631C180.906 114.856 180.819 115.112 180.739 115.343C180.71 115.428 180.793 115.352 180.766 115.428C180.607 115.878 180.416 116.333 180.211 116.746C180.172 116.824 180.157 116.758 180.142 116.771C180.035 116.861 180.043 117.062 180.034 117.104C179.993 117.294 179.932 117.348 179.87 117.504C179.628 118.127 179.293 118.847 179.019 119.465C178.957 119.604 178.898 119.74 178.843 119.869C178.463 120.775 178.187 121.49 177.946 122.399C177.931 122.457 177.997 122.413 177.985 122.462C177.931 122.679 177.876 122.895 177.822 123.111C177.713 123.549 177.601 123.969 177.519 124.401C177.509 124.455 177.574 124.388 177.56 124.475C177.53 124.651 177.483 124.873 177.434 125.048C177.411 125.133 177.39 125.008 177.367 125.095C177.314 125.296 177.273 125.515 177.248 125.728C177.238 125.818 177.309 125.69 177.292 125.807C177.175 126.602 177.099 127.388 176.97 128.2C176.962 128.255 176.854 128.296 176.866 128.417C176.894 128.429 176.928 128.43 176.958 128.437C176.952 128.549 176.946 128.658 176.939 128.772C176.88 129.838 176.813 130.903 176.777 131.983C176.775 132.033 176.833 131.948 176.83 132.045C176.813 132.609 176.816 133.157 176.749 133.733C176.743 133.79 176.647 133.759 176.658 133.928C176.66 133.957 176.668 134.211 176.688 134.279C176.691 134.288 176.737 134.242 176.737 134.324C176.735 134.688 176.724 135.069 176.703 135.439C176.697 135.554 176.69 135.663 176.681 135.775C176.676 135.851 176.629 135.769 176.624 135.823C176.593 136.21 176.623 136.634 176.575 137.002C176.544 137.249 176.461 137.157 176.379 137.287C176.367 137.306 176.364 137.459 176.317 137.467C176.197 137.487 176.066 137.412 175.939 137.442C175.911 137.449 175.941 137.655 175.874 137.533C175.87 137.525 175.848 137.374 175.826 137.337C175.811 137.311 175.762 137.357 175.742 137.305C175.723 137.252 175.764 137.194 175.741 137.107C175.718 137.019 175.663 137.058 175.658 136.883ZM181.509 90.8519C181.511 90.9982 181.678 90.9608 181.59 90.833C181.585 90.8268 181.508 90.8443 181.509 90.8519ZM176.59 75.1204C176.55 75.308 176.682 75.4079 176.714 75.273C176.746 75.1395 176.602 75.063 176.59 75.1204ZM176.362 73.316C176.301 73.5239 176.541 73.5568 176.494 73.3353C176.492 73.3224 176.366 73.304 176.362 73.316ZM176.362 136.676C176.36 136.679 176.356 136.789 176.358 136.792C176.411 136.851 176.418 136.63 176.362 136.676ZM176.382 71.4831C176.345 71.5457 176.369 71.7352 176.415 71.6573C176.452 71.5948 176.429 71.4055 176.382 71.4831ZM182.979 97.841C182.977 97.8436 182.987 97.922 183.001 97.9183C183.045 97.9058 183.015 97.7989 182.979 97.841ZM176.823 68.4054C176.703 68.8432 176.459 69.0869 176.586 68.5935C176.61 68.5044 176.605 68.8006 176.647 68.6902C176.725 68.4921 176.639 68.3173 176.773 68.1289C176.796 68.0959 176.828 68.3819 176.823 68.4063C176.823 68.406 176.823 68.4057 176.823 68.4054ZM181.344 90.9949C181.343 90.9983 181.373 91.0913 181.379 91.102C181.379 91.1026 181.379 91.103 181.379 91.1031C181.398 91.1135 181.407 91.1063 181.409 91.0913C181.416 91.0511 181.371 90.9488 181.344 90.9949ZM183.291 102.447C183.286 102.453 183.287 102.707 183.291 102.716C183.382 102.847 183.381 102.332 183.291 102.447ZM178.693 84.0972C178.636 84.0398 178.592 83.9633 178.576 83.8912C178.566 83.845 178.565 83.7995 178.577 83.7573C178.59 83.7963 178.604 83.8359 178.617 83.8763C178.642 83.9477 178.668 84.0243 178.693 84.0972Z" fill="#4B0E0E"/>
<defs>
<filter id="filter0_n_8_184" x="23.376" y="0" width="171.592" height="77.0108" filterUnits="userSpaceOnUse" color-interpolation-filters="sRGB">
<feFlood flood-opacity="0" result="BackgroundImageFix"/>
<feBlend mode="normal" in="SourceGraphic" in2="BackgroundImageFix" result="shape"/>
<feTurbulence type="fractalNoise" baseFrequency="1.766493558883667 1.766493558883667" stitchTiles="stitch" numOctaves="3" result="noise" seed="2824" />
<feColorMatrix in="noise" type="luminanceToAlpha" result="alphaNoise" />
<feComponentTransfer in="alphaNoise" result="coloredNoise1">
<feFuncA type="discrete" tableValues="1 1 1 1 1 1 1 1 1 1 1 1 1 1 1 1 1 1 1 1 1 1 1 1 1 1 1 1 1 1 1 1 1 1 1 1 1 1 1 1 1 1 1 1 1 1 1 1 1 1 1 0 0 0 0 0 0 0 0 0 0 0 0 0 0 0 0 0 0 0 0 0 0 0 0 0 0 0 0 0 0 0 0 0 0 0 0 0 0 0 0 0 0 0 0 0 0 0 0 0 "/>
</feComponentTransfer>
<feComposite operator="in" in2="shape" in="coloredNoise1" result="noise1Clipped" />
<feFlood flood-color="rgba(0, 0, 0, 0.25)" result="color1Flood" />
<feComposite operator="in" in2="noise1Clipped" in="color1Flood" result="color1" />
<feMerge result="effect1_noise_8_184">
<feMergeNode in="shape" />
<feMergeNode in="color1" />
</feMerge>
</filter>
<filter id="filter1_g_8_184" x="165.237" y="40.9972" width="44.0276" height="49.8299" filterUnits="userSpaceOnUse" color-interpolation-filters="sRGB">
<feFlood flood-opacity="0" result="BackgroundImageFix"/>
<feBlend mode="normal" in="SourceGraphic" in2="BackgroundImageFix" result="shape"/>
<feTurbulence type="fractalNoise" baseFrequency="0.99900001287460327 0.99900001287460327" numOctaves="3" seed="9958" />
<feDisplacementMap in="shape" scale="2.2643728256225586" xChannelSelector="R" yChannelSelector="G" result="displacedImage" width="100%" height="100%" />
<feMerge result="effect1_texture_8_184">
<feMergeNode in="displacedImage"/>
</feMerge>
</filter>
<filter id="filter2_g_8_184" x="0.000137806" y="51.8693" width="44.0276" height="49.8299" filterUnits="userSpaceOnUse" color-interpolation-filters="sRGB">
<feFlood flood-opacity="0" result="BackgroundImageFix"/>
<feBlend mode="normal" in="SourceGraphic" in2="BackgroundImageFix" result="shape"/>
<feTurbulence type="fractalNoise" baseFrequency="0.99900001287460327 0.99900001287460327" numOctaves="3" seed="9958" />
<feDisplacementMap in="shape" scale="2.2643728256225586" xChannelSelector="R" yChannelSelector="G" result="displacedImage" width="100%" height="100%" />
<feMerge result="effect1_texture_8_184">
<feMergeNode in="displacedImage"/>
</feMerge>
</filter>
<filter id="filter3_gn_8_184" x="31.6598" y="9.48354" width="154.222" height="71.1509" filterUnits="userSpaceOnUse" color-interpolation-filters="sRGB">
<feFlood flood-opacity="0" result="BackgroundImageFix"/>
<feBlend mode="normal" in="SourceGraphic" in2="BackgroundImageFix" result="shape"/>
<feTurbulence type="fractalNoise" baseFrequency="0.99900001287460327 0.99900001287460327" numOctaves="3" seed="1186" />
<feDisplacementMap in="shape" scale="2.2643728256225586" xChannelSelector="R" yChannelSelector="G" result="displacedImage" width="100%" height="100%" />
<feMerge result="effect1_texture_8_184">
<feMergeNode in="displacedImage"/>
</feMerge>
<feTurbulence type="fractalNoise" baseFrequency="1.766493558883667 1.766493558883667" stitchTiles="stitch" numOctaves="3" result="noise" seed="7512" />
<feComponentTransfer in="noise" result="coloredNoise1">
<feFuncR type="linear" slope="2" intercept="-0.5" />
<feFuncG type="linear" slope="2" intercept="-0.5" />
<feFuncB type="linear" slope="2" intercept="-0.5" />
<feFuncA type="discrete" tableValues="1 1 1 1 1 1 1 1 1 1 1 1 1 1 1 1 1 1 1 1 1 1 1 1 1 1 1 1 1 1 1 1 1 1 1 1 1 1 1 1 1 1 1 1 1 1 1 1 1 1 1 0 0 0 0 0 0 0 0 0 0 0 0 0 0 0 0 0 0 0 0 0 0 0 0 0 0 0 0 0 0 0 0 0 0 0 0 0 0 0 0 0 0 0 0 0 0 0 0 0 "/>
</feComponentTransfer>
<feComposite operator="in" in2="effect1_texture_8_184" in="coloredNoise1" result="noise1Clipped" />
<feComponentTransfer in="noise1Clipped" result="color1">
<feFuncA type="table" tableValues="0 0.15" />
</feComponentTransfer>
<feMerge result="effect2_noise_8_184">
<feMergeNode in="effect1_texture_8_184" />
<feMergeNode in="color1" />
</feMerge>
</filter>
<filter id="filter4_n_8_184" x="103.498" y="66.0122" width="71.3154" height="22.1652" filterUnits="userSpaceOnUse" color-interpolation-filters="sRGB">
<feFlood flood-opacity="0" result="BackgroundImageFix"/>
<feBlend mode="normal" in="SourceGraphic" in2="BackgroundImageFix" result="shape"/>
<feTurbulence type="fractalNoise" baseFrequency="1.766493558883667 1.766493558883667" stitchTiles="stitch" numOctaves="3" result="noise" seed="3062" />
<feComponentTransfer in="noise" result="coloredNoise1">
<feFuncR type="linear" slope="2" intercept="-0.5" />
<feFuncG type="linear" slope="2" intercept="-0.5" />
<feFuncB type="linear" slope="2" intercept="-0.5" />
<feFuncA type="discrete" tableValues="1 1 1 1 1 1 1 1 1 1 1 1 1 1 1 1 1 1 1 1 1 1 1 1 1 1 1 1 1 1 1 1 1 1 1 1 1 1 1 1 1 1 1 1 1 1 1 1 1 1 1 0 0 0 0 0 0 0 0 0 0 0 0 0 0 0 0 0 0 0 0 0 0 0 0 0 0 0 0 0 0 0 0 0 0 0 0 0 0 0 0 0 0 0 0 0 0 0 0 0 "/>
</feComponentTransfer>
<feComposite operator="in" in2="shape" in="coloredNoise1" result="noise1Clipped" />
<feComponentTransfer in="noise1Clipped" result="color1">
<feFuncA type="table" tableValues="0 0.15" />
</feComponentTransfer>
<feMerge result="effect1_noise_8_184">
<feMergeNode in="shape" />
<feMergeNode in="color1" />
</feMerge>
</filter>
<filter id="filter5_n_8_184" x="34.0435" y="69.016" width="70.1348" height="23.6233" filterUnits="userSpaceOnUse" color-interpolation-filters="sRGB">
<feFlood flood-opacity="0" result="BackgroundImageFix"/>
<feBlend mode="normal" in="SourceGraphic" in2="BackgroundImageFix" result="shape"/>
<feTurbulence type="fractalNoise" baseFrequency="1.766493558883667 1.766493558883667" stitchTiles="stitch" numOctaves="3" result="noise" seed="3062" />
<feComponentTransfer in="noise" result="coloredNoise1">
<feFuncR type="linear" slope="2" intercept="-0.5" />
<feFuncG type="linear" slope="2" intercept="-0.5" />
<feFuncB type="linear" slope="2" intercept="-0.5" />
<feFuncA type="discrete" tableValues="1 1 1 1 1 1 1 1 1 1 1 1 1 1 1 1 1 1 1 1 1 1 1 1 1 1 1 1 1 1 1 1 1 1 1 1 1 1 1 1 1 1 1 1 1 1 1 1 1 1 1 0 0 0 0 0 0 0 0 0 0 0 0 0 0 0 0 0 0 0 0 0 0 0 0 0 0 0 0 0 0 0 0 0 0 0 0 0 0 0 0 0 0 0 0 0 0 0 0 0 "/>
</feComponentTransfer>
<feComposite operator="in" in2="shape" in="coloredNoise1" result="noise1Clipped" />
<feComponentTransfer in="noise1Clipped" result="color1">
<feFuncA type="table" tableValues="0 0.15" />
</feComponentTransfer>
<feMerge result="effect1_noise_8_184">
<feMergeNode in="shape" />
<feMergeNode in="color1" />
</feMerge>
</filter>
<filter id="filter6_n_8_184" x="29.731" y="101.247" width="150.751" height="26.811" filterUnits="userSpaceOnUse" color-interpolation-filters="sRGB">
<feFlood flood-opacity="0" result="BackgroundImageFix"/>
<feBlend mode="normal" in="SourceGraphic" in2="BackgroundImageFix" result="shape"/>
<feTurbulence type="fractalNoise" baseFrequency="1.766493558883667 1.766493558883667" stitchTiles="stitch" numOctaves="3" result="noise" seed="3248" />
<feComponentTransfer in="noise" result="coloredNoise1">
<feFuncR type="linear" slope="2" intercept="-0.5" />
<feFuncG type="linear" slope="2" intercept="-0.5" />
<feFuncB type="linear" slope="2" intercept="-0.5" />
<feFuncA type="discrete" tableValues="1 1 1 1 1 1 1 1 1 1 1 1 1 1 1 1 1 1 1 1 1 1 1 1 1 1 1 1 1 1 1 1 1 1 1 1 1 1 1 1 1 1 1 1 1 1 1 1 1 1 1 0 0 0 0 0 0 0 0 0 0 0 0 0 0 0 0 0 0 0 0 0 0 0 0 0 0 0 0 0 0 0 0 0 0 0 0 0 0 0 0 0 0 0 0 0 0 0 0 0 "/>
</feComponentTransfer>
<feComposite operator="in" in2="shape" in="coloredNoise1" result="noise1Clipped" />
<feComponentTransfer in="noise1Clipped" result="color1">
<feFuncA type="table" tableValues="0 0.15" />
</feComponentTransfer>
<feMerge result="effect1_noise_8_184">
<feMergeNode in="shape" />
<feMergeNode in="color1" />
</feMerge>
</filter>
<filter id="filter7_dn_8_184" x="102.221" y="80.1818" width="78.7224" height="36.7425" filterUnits="userSpaceOnUse" color-interpolation-filters="sRGB">
<feFlood flood-opacity="0" result="BackgroundImageFix"/>
<feColorMatrix in="SourceAlpha" type="matrix" values="0 0 0 0 0 0 0 0 0 0 0 0 0 0 0 0 0 0 127 0" result="hardAlpha"/>
<feOffset dy="1.13219"/>
<feGaussianBlur stdDeviation="0.566093"/>
<feComposite in2="hardAlpha" operator="out"/>
<feColorMatrix type="matrix" values="0 0 0 0 0 0 0 0 0 0 0 0 0 0 0 0 0 0 0.25 0"/>
<feBlend mode="normal" in2="BackgroundImageFix" result="effect1_dropShadow_8_184"/>
<feBlend mode="normal" in="SourceGraphic" in2="BackgroundImageFix" result="shape"/>
<feTurbulence type="fractalNoise" baseFrequency="7.065974235534668 7.065974235534668" stitchTiles="stitch" numOctaves="3" result="noise" seed="4498" />
<feColorMatrix in="noise" type="luminanceToAlpha" result="alphaNoise" />
<feComponentTransfer in="alphaNoise" result="coloredNoise1">
<feFuncA type="discrete" tableValues="1 1 1 1 1 1 1 1 1 1 1 1 1 1 1 1 1 1 1 1 1 1 1 1 1 1 1 1 1 1 1 1 1 1 1 1 1 1 1 1 1 1 1 1 1 1 1 1 1 1 1 0 0 0 0 0 0 0 0 0 0 0 0 0 0 0 0 0 0 0 0 0 0 0 0 0 0 0 0 0 0 0 0 0 0 0 0 0 0 0 0 0 0 0 0 0 0 0 0 0 "/>
</feComponentTransfer>
<feComposite operator="in" in2="shape" in="coloredNoise1" result="noise1Clipped" />
<feFlood flood-color="rgba(0, 0, 0, 0.25)" result="color1Flood" />
<feComposite operator="in" in2="noise1Clipped" in="color1Flood" result="color1" />
<feMerge result="effect2_noise_8_184">
<feMergeNode in="shape" />
<feMergeNode in="color1" />
</feMerge>
<feBlend mode="normal" in="effect2_noise_8_184" in2="effect1_dropShadow_8_184" result="effect2_noise_8_184"/>
</filter>
<filter id="filter8_dn_8_184" x="29.6256" y="80.6348" width="78.4406" height="37.0925" filterUnits="userSpaceOnUse" color-interpolation-filters="sRGB">
<feFlood flood-opacity="0" result="BackgroundImageFix"/>
<feColorMatrix in="SourceAlpha" type="matrix" values="0 0 0 0 0 0 0 0 0 0 0 0 0 0 0 0 0 0 127 0" result="hardAlpha"/>
<feOffset dy="1.13219"/>
<feGaussianBlur stdDeviation="0.566093"/>
<feComposite in2="hardAlpha" operator="out"/>
<feColorMatrix type="matrix" values="0 0 0 0 0 0 0 0 0 0 0 0 0 0 0 0 0 0 0.25 0"/>
<feBlend mode="normal" in2="BackgroundImageFix" result="effect1_dropShadow_8_184"/>
<feBlend mode="normal" in="SourceGraphic" in2="BackgroundImageFix" result="shape"/>
<feTurbulence type="fractalNoise" baseFrequency="7.065974235534668 7.065974235534668" stitchTiles="stitch" numOctaves="3" result="noise" seed="4498" />
<feColorMatrix in="noise" type="luminanceToAlpha" result="alphaNoise" />
<feComponentTransfer in="alphaNoise" result="coloredNoise1">
<feFuncA type="discrete" tableValues="1 1 1 1 1 1 1 1 1 1 1 1 1 1 1 1 1 1 1 1 1 1 1 1 1 1 1 1 1 1 1 1 1 1 1 1 1 1 1 1 1 1 1 1 1 1 1 1 1 1 1 0 0 0 0 0 0 0 0 0 0 0 0 0 0 0 0 0 0 0 0 0 0 0 0 0 0 0 0 0 0 0 0 0 0 0 0 0 0 0 0 0 0 0 0 0 0 0 0 0 "/>
</feComponentTransfer>
<feComposite operator="in" in2="shape" in="coloredNoise1" result="noise1Clipped" />
<feFlood flood-color="rgba(0, 0, 0, 0.25)" result="color1Flood" />
<feComposite operator="in" in2="noise1Clipped" in="color1Flood" result="color1" />
<feMerge result="effect2_noise_8_184">
<feMergeNode in="shape" />
<feMergeNode in="color1" />
</feMerge>
<feBlend mode="normal" in="effect2_noise_8_184" in2="effect1_dropShadow_8_184" result="effect2_noise_8_184"/>
</filter>
<filter id="filter9_dn_8_184" x="10.402" y="61.1268" width="33.4856" height="88.1375" filterUnits="userSpaceOnUse" color-interpolation-filters="sRGB">
<feFlood flood-opacity="0" result="BackgroundImageFix"/>
<feColorMatrix in="SourceAlpha" type="matrix" values="0 0 0 0 0 0 0 0 0 0 0 0 0 0 0 0 0 0 127 0" result="hardAlpha"/>
<feOffset dy="1.13219"/>
<feGaussianBlur stdDeviation="0.566093"/>
<feComposite in2="hardAlpha" operator="out"/>
<feColorMatrix type="matrix" values="0 0 0 0 0 0 0 0 0 0 0 0 0 0 0 0 0 0 0.25 0"/>
<feBlend mode="normal" in2="BackgroundImageFix" result="effect1_dropShadow_8_184"/>
<feBlend mode="normal" in="SourceGraphic" in2="BackgroundImageFix" result="shape"/>
<feTurbulence type="fractalNoise" baseFrequency="1.766493558883667 1.766493558883667" stitchTiles="stitch" numOctaves="3" result="noise" seed="2072" />
<feComponentTransfer in="noise" result="coloredNoise1">
<feFuncR type="linear" slope="2" intercept="-0.5" />
<feFuncG type="linear" slope="2" intercept="-0.5" />
<feFuncB type="linear" slope="2" intercept="-0.5" />
<feFuncA type="discrete" tableValues="1 1 1 1 1 1 1 1 1 1 1 1 1 1 1 1 1 1 1 1 1 1 1 1 1 1 1 1 1 1 1 1 1 1 1 1 1 1 1 1 1 1 1 1 1 1 1 1 1 1 1 0 0 0 0 0 0 0 0 0 0 0 0 0 0 0 0 0 0 0 0 0 0 0 0 0 0 0 0 0 0 0 0 0 0 0 0 0 0 0 0 0 0 0 0 0 0 0 0 0 "/>
</feComponentTransfer>
<feComposite operator="in" in2="shape" in="coloredNoise1" result="noise1Clipped" />
<feComponentTransfer in="noise1Clipped" result="color1">
<feFuncA type="table" tableValues="0 0.15" />
</feComponentTransfer>
<feMerge result="effect2_noise_8_184">
<feMergeNode in="shape" />
<feMergeNode in="color1" />
</feMerge>
<feBlend mode="normal" in="effect2_noise_8_184" in2="effect1_dropShadow_8_184" result="effect2_noise_8_184"/>
</filter>
<filter id="filter10_dn_8_184" x="170.231" y="53.0015" width="30.1228" height="89.9397" filterUnits="userSpaceOnUse" color-interpolation-filters="sRGB">
<feFlood flood-opacity="0" result="BackgroundImageFix"/>
<feColorMatrix in="SourceAlpha" type="matrix" values="0 0 0 0 0 0 0 0 0 0 0 0 0 0 0 0 0 0 127 0" result="hardAlpha"/>
<feOffset dy="1.13219"/>
<feGaussianBlur stdDeviation="0.566093"/>
<feComposite in2="hardAlpha" operator="out"/>
<feColorMatrix type="matrix" values="0 0 0 0 0 0 0 0 0 0 0 0 0 0 0 0 0 0 0.25 0"/>
<feBlend mode="normal" in2="BackgroundImageFix" result="effect1_dropShadow_8_184"/>
<feBlend mode="normal" in="SourceGraphic" in2="BackgroundImageFix" result="shape"/>
<feTurbulence type="fractalNoise" baseFrequency="1.766493558883667 1.766493558883667" stitchTiles="stitch" numOctaves="3" result="noise" seed="2072" />
<feComponentTransfer in="noise" result="coloredNoise1">
<feFuncR type="linear" slope="2" intercept="-0.5" />
<feFuncG type="linear" slope="2" intercept="-0.5" />
<feFuncB type="linear" slope="2" intercept="-0.5" />
<feFuncA type="discrete" tableValues="1 1 1 1 1 1 1 1 1 1 1 1 1 1 1 1 1 1 1 1 1 1 1 1 1 1 1 1 1 1 1 1 1 1 1 1 1 1 1 1 1 1 1 1 1 1 1 1 1 1 1 0 0 0 0 0 0 0 0 0 0 0 0 0 0 0 0 0 0 0 0 0 0 0 0 0 0 0 0 0 0 0 0 0 0 0 0 0 0 0 0 0 0 0 0 0 0 0 0 0 "/>
</feComponentTransfer>
<feComposite operator="in" in2="shape" in="coloredNoise1" result="noise1Clipped" />
<feComponentTransfer in="noise1Clipped" result="color1">
<feFuncA type="table" tableValues="0 0.15" />
</feComponentTransfer>
<feMerge result="effect2_noise_8_184">
<feMergeNode in="shape" />
<feMergeNode in="color1" />
</feMerge>
<feBlend mode="normal" in="effect2_noise_8_184" in2="effect1_dropShadow_8_184" result="effect2_noise_8_184"/>
</filter>
<filter id="filter11_dn_8_184" x="49.6867" y="22.9945" width="117.657" height="42.4489" filterUnits="userSpaceOnUse" color-interpolation-filters="sRGB">
<feFlood flood-opacity="0" result="BackgroundImageFix"/>
<feColorMatrix in="SourceAlpha" type="matrix" values="0 0 0 0 0 0 0 0 0 0 0 0 0 0 0 0 0 0 127 0" result="hardAlpha"/>
<feOffset dy="1.13219"/>
<feGaussianBlur stdDeviation="0.566093"/>
<feComposite in2="hardAlpha" operator="out"/>
<feColorMatrix type="matrix" values="0 0 0 0 0 0 0 0 0 0 0 0 0 0 0 0 0 0 0.25 0"/>
<feBlend mode="normal" in2="BackgroundImageFix" result="effect1_dropShadow_8_184"/>
<feBlend mode="normal" in="SourceGraphic" in2="BackgroundImageFix" result="shape"/>
<feTurbulence type="fractalNoise" baseFrequency="3.532987117767334 3.532987117767334" stitchTiles="stitch" numOctaves="3" result="noise" seed="7585" />
<feColorMatrix in="noise" type="luminanceToAlpha" result="alphaNoise" />
<feComponentTransfer in="alphaNoise" result="coloredNoise1">
<feFuncA type="discrete" tableValues="1 1 1 1 1 1 1 1 1 1 1 1 1 1 1 1 1 1 1 1 1 1 1 1 1 1 1 1 1 1 1 1 1 1 1 1 1 1 1 1 1 1 1 1 1 1 1 1 1 1 1 0 0 0 0 0 0 0 0 0 0 0 0 0 0 0 0 0 0 0 0 0 0 0 0 0 0 0 0 0 0 0 0 0 0 0 0 0 0 0 0 0 0 0 0 0 0 0 0 0 "/>
</feComponentTransfer>
<feComposite operator="in" in2="shape" in="coloredNoise1" result="noise1Clipped" />
<feComponentTransfer in="alphaNoise" result="coloredNoise2">
<feFuncA type="discrete" tableValues="0 0 0 0 0 0 0 0 0 0 0 0 0 0 0 0 0 0 0 0 0 0 0 0 0 0 0 0 0 0 0 0 0 0 0 0 0 0 0 0 0 0 0 0 0 0 0 0 0 1 1 1 1 1 1 1 1 1 1 1 1 1 1 1 1 1 1 1 1 1 1 1 1 1 1 1 1 1 1 1 1 1 1 1 1 1 1 1 1 1 1 1 1 1 1 1 1 1 1 1 "/>
</feComponentTransfer>
<feComposite operator="in" in2="shape" in="coloredNoise2" result="noise2Clipped" />
<feFlood flood-color="rgba(0, 0, 0, 0.25)" result="color1Flood" />
<feComposite operator="in" in2="noise1Clipped" in="color1Flood" result="color1" />
<feFlood flood-color="rgba(255, 255, 255, 0.25)" result="color2Flood" />
<feComposite operator="in" in2="noise2Clipped" in="color2Flood" result="color2" />
<feMerge result="effect2_noise_8_184">
<feMergeNode in="shape" />
<feMergeNode in="color1" />
<feMergeNode in="color2" />
</feMerge>
<feBlend mode="normal" in="effect2_noise_8_184" in2="effect1_dropShadow_8_184" result="effect2_noise_8_184"/>
</filter>
<radialGradient id="paint0_radial_8_184" cx="0" cy="0" r="1" gradientTransform="matrix(140.951 -18.1202 40.3746 312.757 37.9023 38.5054)" gradientUnits="userSpaceOnUse">
<stop stop-color="#9E3131"/>
<stop offset="0.961538" stop-color="#4A2917"/>
</radialGradient>
<radialGradient id="paint1_radial_8_184" cx="0" cy="0" r="1" gradientTransform="matrix(63.0987 -11.8914 2.07675 10.9741 110.306 141.337)" gradientUnits="userSpaceOnUse">
<stop stop-color="#D43E3E"/>
<stop offset="1" stop-color="#6E2020"/>
</radialGradient>
<linearGradient id="paint2_linear_8_184" x1="172.27" y1="74.2927" x2="204.272" y2="70.4263" gradientUnits="userSpaceOnUse">
<stop stop-color="#1C5A53"/>
<stop offset="1" stop-color="#3CC0B1"/>
</linearGradient>
<linearGradient id="paint3_linear_8_184" x1="37.6751" y1="84.9383" x2="14.2988" y2="88.3497" gradientUnits="userSpaceOnUse">
<stop stop-color="#1C5A53"/>
<stop offset="1" stop-color="#3CC0B1"/>
</linearGradient>
<linearGradient id="paint4_linear_8_184" x1="108.718" y1="30.1248" x2="108.718" y2="71.5747" gradientUnits="userSpaceOnUse">
<stop stop-color="#31E4CF"/>
<stop offset="1" stop-color="#1B7E73"/>
</linearGradient>
<linearGradient id="paint5_linear_8_184" x1="139.155" y1="66.0122" x2="139.155" y2="87.6923" gradientUnits="userSpaceOnUse">
<stop stop-color="#0F3934"/>
<stop offset="1" stop-color="#299F92"/>
</linearGradient>
<linearGradient id="paint6_linear_8_184" x1="69.1109" y1="68.6073" x2="69.1109" y2="92.6394" gradientUnits="userSpaceOnUse">
<stop stop-color="#0F3934"/>
<stop offset="1" stop-color="#299F92"/>
</linearGradient>
<linearGradient id="paint7_linear_8_184" x1="87.8362" y1="128.2" x2="94.6173" y2="3.62252" gradientUnits="userSpaceOnUse">
<stop offset="0.0144231" stop-color="#0A4D45"/>
<stop offset="0.269231" stop-color="#0C6056"/>
<stop offset="1" stop-color="#19C6B1"/>
</linearGradient>
<linearGradient id="paint8_linear_8_184" x1="141.582" y1="80.1818" x2="141.582" y2="114.66" gradientUnits="userSpaceOnUse">
<stop stop-color="#3CC0B1"/>
<stop offset="1" stop-color="#297970"/>
</linearGradient>
<linearGradient id="paint9_linear_8_184" x1="68.8459" y1="80.6348" x2="68.8459" y2="115.463" gradientUnits="userSpaceOnUse">
<stop stop-color="#3CC0B1"/>
<stop offset="1" stop-color="#297970"/>
</linearGradient>
</defs>
</svg>
