<svg width="319" height="293" viewBox="0 0 319 293" fill="none" xmlns="http://www.w3.org/2000/svg">
<g filter="url(#filter0_gn_11_724)">
<path d="M190.099 82.6571L279.252 184.071L277.527 189.865L130.436 211.349L39.9865 109.824L40.2128 103.338L190.099 82.6571Z" fill="#723A3A"/>
<path d="M188.669 84.6995L279.214 184.06L132.499 204.284L44.4197 104.93L188.669 84.6995Z" fill="#561E1E"/>
<path d="M62.5846 102.102L73.9613 114.873L55.5518 117.401L44.1973 104.671L62.5846 102.102Z" fill="#7E3D3D"/>
<path d="M84.3302 126.382L95.707 139.153L77.2974 141.682L65.9429 128.952L84.3302 126.382Z" fill="#7E3D3D"/>
<path d="M80.7775 99.5977L92.1542 112.369L73.7446 114.897L62.3901 102.167L80.7775 99.5977Z" fill="#EBA9A9"/>
<path d="M102.523 123.878L113.899 136.649L95.4897 139.178L84.1352 126.448L102.523 123.878Z" fill="#EBA9A9"/>
<path d="M98.4845 96.9489L109.861 109.72L91.4517 112.248L80.0972 99.5184L98.4845 96.9489Z" fill="#7E3D3D"/>
<path d="M120.23 121.229L131.607 134L113.197 136.529L101.843 123.799L120.23 121.229Z" fill="#7E3D3D"/>
<path d="M116.676 94.4446L128.053 107.216L109.644 109.744L98.289 97.0142L116.676 94.4446Z" fill="#EBA9A9"/>
<path d="M138.422 118.725L149.799 131.496L131.389 134.025L120.035 121.295L138.422 118.725Z" fill="#EBA9A9"/>
<path d="M135.355 92.0852L146.731 104.856L128.322 107.385L116.967 94.6547L135.355 92.0852Z" fill="#7E3D3D"/>
<path d="M157.1 116.366L168.477 129.137L150.067 131.665L138.713 118.935L157.1 116.366Z" fill="#7E3D3D"/>
<path d="M153.548 89.5811L164.924 102.352L146.515 104.881L135.16 92.1506L153.548 89.5811Z" fill="#EBA9A9"/>
<path d="M175.293 113.862L186.67 126.633L168.26 129.161L156.906 116.431L175.293 113.862Z" fill="#EBA9A9"/>
<path d="M171.254 86.9322L182.631 99.7032L164.221 102.232L152.867 89.5017L171.254 86.9322Z" fill="#7E3D3D"/>
<path d="M189.447 84.4281L200.824 97.1991L182.414 99.7277L171.06 86.9977L189.447 84.4281Z" fill="#EBA9A9"/>
<path d="M211.192 108.709L222.569 121.48L204.159 124.008L192.805 111.278L211.192 108.709Z" fill="#EBA9A9"/>
<path d="M91.966 111.962L103.343 124.733L84.9331 127.261L73.5786 114.531L91.966 111.962Z" fill="#7E3D3D"/>
<path d="M113.712 136.242L125.088 149.013L106.679 151.542L95.3242 138.812L113.712 136.242Z" fill="#7E3D3D"/>
<path d="M110.159 109.458L121.536 122.229L103.126 124.757L91.7715 112.027L110.159 109.458Z" fill="#EBA9A9"/>
<path d="M131.904 133.738L143.281 146.509L124.872 149.038L113.517 136.308L131.904 133.738Z" fill="#EBA9A9"/>
<path d="M127.866 106.809L139.243 119.58L120.833 122.108L109.479 109.378L127.866 106.809Z" fill="#7E3D3D"/>
<path d="M149.611 131.089L160.988 143.86L142.579 146.389L131.224 133.659L149.611 131.089Z" fill="#7E3D3D"/>
<path d="M146.058 104.305L157.435 117.076L139.025 119.604L127.671 106.874L146.058 104.305Z" fill="#EBA9A9"/>
<path d="M167.803 128.585L179.18 141.356L160.771 143.885L149.416 131.155L167.803 128.585Z" fill="#EBA9A9"/>
<path d="M164.736 101.945L176.113 114.716L157.704 117.245L146.349 104.515L164.736 101.945Z" fill="#7E3D3D"/>
<path d="M186.482 126.225L197.858 138.996L179.449 141.525L168.094 128.795L186.482 126.225Z" fill="#7E3D3D"/>
<path d="M182.929 99.4409L194.306 112.212L175.896 114.74L164.541 102.01L182.929 99.4409Z" fill="#EBA9A9"/>
<path d="M204.674 123.721L216.051 136.492L197.642 139.021L186.287 126.291L204.674 123.721Z" fill="#EBA9A9"/>
<path d="M200.636 96.7922L212.013 109.563L193.603 112.092L182.249 99.3617L200.636 96.7922Z" fill="#7E3D3D"/>
<path d="M222.382 121.073L233.758 133.844L215.349 136.372L203.994 123.642L222.382 121.073Z" fill="#7E3D3D"/>
<path d="M73.4015 114.431L84.7782 127.202L66.3686 129.73L55.0141 117L73.4015 114.431Z" fill="#EBA9A9"/>
<path d="M95.1466 138.711L106.523 151.482L88.1138 154.011L76.7593 141.281L95.1466 138.711Z" fill="#EBA9A9"/>
<path d="M193.488 111.96L204.865 124.731L186.456 127.26L175.101 114.53L193.488 111.96Z" fill="#7E3D3D"/>
<path d="M106.435 151.326L117.812 164.097L99.4023 166.626L88.0478 153.896L106.435 151.326Z" fill="#7E3D3D"/>
<path d="M128.364 175.947L139.741 188.718L121.331 191.247L109.977 178.517L128.364 175.947Z" fill="#7E3D3D"/>
<path d="M124.628 148.822L136.005 161.593L117.595 164.122L106.241 151.392L124.628 148.822Z" fill="#EBA9A9"/>
<path d="M146.373 173.102L157.75 185.873L139.34 188.402L127.986 175.672L146.373 173.102Z" fill="#EBA9A9"/>
<path d="M142.335 146.173L153.711 158.944L135.302 161.473L123.947 148.743L142.335 146.173Z" fill="#7E3D3D"/>
<path d="M164.08 170.454L175.457 183.225L157.047 185.753L145.693 173.023L164.08 170.454Z" fill="#7E3D3D"/>
<path d="M182.272 167.949L193.649 180.72L175.239 183.249L163.885 170.519L182.272 167.949Z" fill="#EBA9A9"/>
<path d="M179.205 141.309L190.582 154.08L172.172 156.609L160.818 143.879L179.205 141.309Z" fill="#7E3D3D"/>
<path d="M200.95 165.59L212.327 178.361L193.917 180.889L182.563 168.159L200.95 165.59Z" fill="#7E3D3D"/>
<path d="M197.398 138.805L208.774 151.576L190.365 154.105L179.01 141.375L197.398 138.805Z" fill="#EBA9A9"/>
<path d="M219.143 163.086L230.52 175.857L212.11 178.385L200.756 165.655L219.143 163.086Z" fill="#EBA9A9"/>
<path d="M215.105 136.157L226.481 148.928L208.072 151.456L196.717 138.726L215.105 136.157Z" fill="#7E3D3D"/>
<path d="M236.849 160.437L248.226 173.208L229.816 175.736L218.462 163.006L236.849 160.437Z" fill="#7E3D3D"/>
<path d="M233.297 133.652L244.674 146.423L226.264 148.952L214.91 136.222L233.297 133.652Z" fill="#EBA9A9"/>
<path d="M255.042 157.933L266.419 170.704L248.009 173.232L236.655 160.502L255.042 157.933Z" fill="#EBA9A9"/>
<path d="M135.817 161.186L147.194 173.957L128.784 176.486L117.43 163.756L135.817 161.186Z" fill="#7E3D3D"/>
<path d="M157.563 185.466L168.939 198.237L150.53 200.766L139.175 188.036L157.563 185.466Z" fill="#7E3D3D"/>
<path d="M154.009 158.682L165.386 171.453L146.977 173.981L135.622 161.251L154.009 158.682Z" fill="#EBA9A9"/>
<path d="M175.755 182.962L187.131 195.733L168.722 198.262L157.367 185.532L175.755 182.962Z" fill="#EBA9A9"/>
<path d="M171.716 156.033L183.093 168.804L164.684 171.333L153.329 158.603L171.716 156.033Z" fill="#7E3D3D"/>
<path d="M193.462 180.313L204.838 193.084L186.429 195.613L175.074 182.883L193.462 180.313Z" fill="#7E3D3D"/>
<path d="M189.908 153.529L201.285 166.3L182.875 168.828L171.521 156.098L189.908 153.529Z" fill="#EBA9A9"/>
<path d="M211.654 177.809L223.031 190.58L204.621 193.109L193.267 180.379L211.654 177.809Z" fill="#EBA9A9"/>
<path d="M208.587 151.169L219.963 163.94L201.554 166.469L190.199 153.739L208.587 151.169Z" fill="#7E3D3D"/>
<path d="M230.332 175.45L241.708 188.221L223.299 190.749L211.944 178.019L230.332 175.45Z" fill="#7E3D3D"/>
<path d="M226.779 148.665L238.156 161.436L219.747 163.965L208.392 151.235L226.779 148.665Z" fill="#EBA9A9"/>
<path d="M248.525 172.946L259.901 185.717L241.492 188.245L230.137 175.515L248.525 172.946Z" fill="#EBA9A9"/>
<path d="M244.486 146.016L255.863 158.787L237.453 161.316L226.099 148.586L244.486 146.016Z" fill="#7E3D3D"/>
<path d="M266.232 170.297L277.608 183.068L259.199 185.596L247.844 172.866L266.232 170.297Z" fill="#7E3D3D"/>
<path d="M117.252 163.655L128.629 176.426L110.219 178.955L98.8647 166.225L117.252 163.655Z" fill="#EBA9A9"/>
<path d="M138.997 187.935L150.374 200.706L131.964 203.235L120.61 190.505L138.997 187.935Z" fill="#EBA9A9"/>
<path d="M160.572 143.3L171.949 156.071L153.54 158.599L142.185 145.869L160.572 143.3Z" fill="#EBA9A9"/>
<path d="M132.349 204.788L130.399 211.338L39.9496 109.813L40.238 103.317L132.349 204.788Z" fill="#561E1E"/>
</g>
<defs>
<filter id="filter0_gn_11_724" x="39.4237" y="82.1314" width="240.354" height="129.744" filterUnits="userSpaceOnUse" color-interpolation-filters="sRGB">
<feFlood flood-opacity="0" result="BackgroundImageFix"/>
<feBlend mode="normal" in="SourceGraphic" in2="BackgroundImageFix" result="shape"/>
<feTurbulence type="fractalNoise" baseFrequency="0.99900001287460327 0.99900001287460327" numOctaves="3" seed="598" />
<feDisplacementMap in="shape" scale="1.0514322519302368" xChannelSelector="R" yChannelSelector="G" result="displacedImage" width="100%" height="100%" />
<feMerge result="effect1_texture_11_724">
<feMergeNode in="displacedImage"/>
</feMerge>
<feTurbulence type="fractalNoise" baseFrequency="3.8043344020843506 3.8043344020843506" stitchTiles="stitch" numOctaves="3" result="noise" seed="8" />
<feColorMatrix in="noise" type="luminanceToAlpha" result="alphaNoise" />
<feComponentTransfer in="alphaNoise" result="coloredNoise1">
<feFuncA type="discrete" tableValues="0 0 0 0 0 0 0 0 0 0 1 1 1 1 1 1 1 1 1 1 1 1 1 1 1 1 1 1 1 1 1 1 1 1 1 1 1 1 1 0 0 0 0 0 0 0 0 0 0 0 0 0 0 0 0 0 0 0 0 0 0 0 0 0 0 0 0 0 0 0 0 0 0 0 0 0 0 0 0 0 0 0 0 0 0 0 0 0 0 0 0 0 0 0 0 0 0 0 0 0 "/>
</feComponentTransfer>
<feComposite operator="in" in2="effect1_texture_11_724" in="coloredNoise1" result="noise1Clipped" />
<feFlood flood-color="rgba(0, 0, 0, 0.25)" result="color1Flood" />
<feComposite operator="in" in2="noise1Clipped" in="color1Flood" result="color1" />
<feMerge result="effect2_noise_11_724">
<feMergeNode in="effect1_texture_11_724" />
<feMergeNode in="color1" />
</feMerge>
</filter>
</defs>
</svg>
