<svg width="1116" height="484" viewBox="0 0 1116 484" fill="none" xmlns="http://www.w3.org/2000/svg">
<g filter="url(#filter0_n_34_1556)">
<path d="M153.438 239.321L152.342 238.086L-27.8492 165.487L-29.3868 186.848L-29.1401 202.409L-25.2889 208.749L42.3886 248.319L112.96 274.349L141.063 273.861L146.103 269.15L153.438 239.321Z" fill="url(#paint0_linear_34_1556)"/>
</g>
<g opacity="0.88" filter="url(#filter1_d_34_1556)">
<path d="M76.5396 228.295C73.0871 230.762 71.4633 227.844 70.3043 226.634L66.5313 225.876L63.2649 218.873L80.6615 222.367C80.726 223.315 79.9921 225.827 76.5396 228.295Z" fill="#3E33AE"/>
</g>
<g filter="url(#filter2_dn_34_1556)">
<path d="M-2.36597 145.194C-2.36597 145.194 -16.4815 145.89 -20.6386 148.272C-24.7956 150.655 -27.9027 165.625 -27.9027 165.625L-17.8767 173.556L-14.5131 173.015L-12.0942 177.948L12.2015 197.347L42.2222 212.843L47.4276 218.03L60.0505 214.469L61.8367 219.54L75.5459 223.678L115.121 241.684L145.948 244.326L153.461 239.327L145.282 224.076L129.594 210.867L96.8306 170.779L92.4832 162.222L83.541 162.448L62.7179 143.303L40.5608 138.853L14.9232 137.169L-2.36597 145.194Z" fill="url(#paint1_radial_34_1556)"/>
</g>
<g filter="url(#filter3_i_34_1556)">
<path d="M54.8088 156.481L40.8412 150.603L54.938 153.752L61.3247 150.324L57.167 154.613L59.4418 177.574L54.8088 156.481Z" fill="#E7746F"/>
</g>
<g filter="url(#filter4_i_34_1556)">
<path d="M45.5861 201.192L28.6896 180.397L47.7728 200.065L78.7182 207.846L45.5861 201.192Z" fill="#E7746F"/>
</g>
<g filter="url(#filter5_i_34_1556)">
<path d="M111.663 209.451L122.846 211.697L113.227 211.074L119.428 220.027L96.1862 225.684L115.374 219.213L111.663 209.451Z" fill="#E7746F"/>
</g>
<g filter="url(#filter6_i_34_1556)">
<path d="M-19.7214 162.255L-4.58736 153.428L-13.9473 161.814L-0.0152203 168.879L-19.7214 162.255Z" fill="#E7746F"/>
</g>
<g filter="url(#filter7_i_34_1556)">
<path d="M-2.9325 202.352L-23.9392 188.173L-4.50704 202.901L-0.928651 208.674L3.32524 207.402L18.1165 214.756L34.3432 225.83L18.5434 213.419L3.69113 206.256L-0.166377 206.287L-2.9325 202.352Z" fill="#D54D8C"/>
</g>
<g filter="url(#filter8_i_34_1556)">
<path d="M52.3626 239.896L70.7909 247.315L64.0949 241.255L52.3626 239.896Z" fill="#D54D8C"/>
</g>
<g filter="url(#filter9_i_34_1556)">
<path d="M76.3237 246.567L93.0338 257.31L84.2176 255.352L76.3237 246.567Z" fill="#D54D8C"/>
</g>
<g filter="url(#filter10_i_34_1556)">
<path d="M91.3005 253.783L109.912 262.262L101.03 260.478L91.3005 253.783Z" fill="#D54D8C"/>
</g>
<g filter="url(#filter11_i_34_1556)">
<path d="M125.402 250.67L125.195 255.04L142.158 255.844L148.152 251.201L142.225 254.424L127.289 253.716L125.402 250.67Z" fill="#D54D8C"/>
</g>
<g opacity="0.88" filter="url(#filter12_d_34_1556)">
<path d="M25.4102 151.536L23.0285 152.506L20.6179 149.324C20.6179 149.324 27.0237 148.382 30.835 148.678C34.6462 148.975 34.5277 155.988 34.5277 155.988L25.9589 154.267L25.4102 151.536Z" fill="#3E33AE"/>
</g>
<g opacity="0.88" filter="url(#filter13_d_34_1556)">
<path d="M98.3721 217.914L92.6374 214.411C92.317 213.66 92.2255 211.77 94.4228 210.213C97.1694 208.266 99.1951 213.817 104.762 213.465C109.216 213.184 107.691 217.385 106.372 219.521L102.448 218.733L99.6879 219.508L98.3721 217.914Z" fill="#3E33AE"/>
</g>
<g opacity="0.88" filter="url(#filter14_d_34_1556)">
<path d="M13.4973 189.502L16.7385 185.058C25.4218 182.726 28.7102 188.377 29.269 191.494L23.928 189.245L20.3104 190.87L13.4973 189.502Z" fill="#3E33AE"/>
</g>
<g opacity="0.88" filter="url(#filter15_d_34_1556)">
<path d="M87.9999 166.059L93.0987 162.614C90.4382 159.814 86.0829 159.417 82.0458 160.394C77.2367 161.557 84.4943 165.355 87.9999 166.059Z" fill="#3E33AE"/>
</g>
<g opacity="0.88" filter="url(#filter16_d_34_1556)">
<path d="M128.331 230.207L124.047 231.426L119.301 228.394C118.489 228.231 117.718 227.39 121.138 225.332C124.557 223.274 130.509 226.07 133.057 227.726L135.485 234.347L131.873 233.622L128.763 234.141L128.331 230.207Z" fill="#3E33AE"/>
</g>
<g opacity="0.88" filter="url(#filter17_d_34_1556)">
<path d="M15.564 220.211L12.2876 219.983L11.636 223.227L16.4489 227.753L23.1914 227.266L22.1286 221.53L15.564 220.211Z" fill="#3E33AE"/>
</g>
<g opacity="0.88" filter="url(#filter18_d_34_1556)">
<path d="M132.772 265.748L131.627 268.826L134.555 270.368L140.256 267.03L141.694 260.425L135.891 259.823L132.772 265.748Z" fill="#3E33AE"/>
</g>
<path d="M970.202 66.127C971.895 62.8109 976.291 62.0381 979.014 64.5781L1042.56 123.875C1044.39 125.58 1044.87 128.291 1043.73 130.518L1041.02 135.832C1039.29 139.226 1034.75 139.937 1032.06 137.236L970.051 74.9153C968.342 73.1973 967.931 70.575 969.033 68.4165L970.202 66.127Z" fill="#D9D9D9"/>
<path d="M967.889 67.0685C970.725 61.4081 978.336 60.3103 982.656 64.9386L1043.03 129.621C1045.74 132.519 1046.35 136.793 1044.58 140.337L1043.69 142.099C1041.62 147.462 1034.63 148.775 1030.75 144.531L969.305 77.2674C966.767 74.489 966.204 70.4332 967.889 67.0685Z" fill="url(#paint2_linear_34_1556)"/>
<path d="M1132.99 128.757C1136.67 121.534 1130.18 113.316 1122.3 115.234L1050.46 132.728C1046.87 133.601 1044.12 136.478 1043.4 140.1L1042.92 142.537C1041.29 147.993 1046 153.24 1051.6 152.208L1123.63 138.928C1126.53 138.394 1129.01 136.541 1130.35 133.915L1132.99 128.757Z" fill="url(#paint3_linear_34_1556)"/>
<g filter="url(#filter19_g_34_1556)">
<path d="M958.345 96.2707C960.92 90.7745 968.236 89.6268 972.37 94.0706L1034.19 160.532C1036.83 163.363 1037.48 167.51 1035.84 171.011L1035.09 172.609C1033.29 177.72 1026.69 179.063 1023.04 175.061L959.772 105.673C957.44 103.116 956.877 99.4053 958.345 96.2707Z" fill="url(#paint4_linear_34_1556)"/>
<path d="M1117.14 156.176C1121.55 148.998 1115.11 140.063 1106.91 141.979L1030.43 159.848C1027 160.651 1024.29 163.293 1023.41 166.707L1022.86 168.821C1021.06 173.645 1025.21 178.592 1030.27 177.663L1109.14 163.196C1111.79 162.711 1114.1 161.125 1115.51 158.834L1117.14 156.176Z" fill="url(#paint5_linear_34_1556)"/>
</g>
<path d="M1040.61 131.424C1042.22 132.902 1044.38 133.634 1046.55 133.441L1122.37 126.699C1130.83 125.947 1132.18 113.921 1124.1 111.281C1101.82 103.997 1073.27 94.4173 1049.31 85.5737C1031.14 78.8674 1006.2 68.2197 984.654 58.7186C976.55 55.1447 969.407 65.9497 975.927 71.9446L1040.61 131.424Z" fill="url(#paint6_linear_34_1556)"/>
<g filter="url(#filter20_n_34_1556)">
<path d="M959.955 94.3147C960.022 86.976 960.655 87.5381 963.777 80.9261C965.675 76.9054 966.546 75.5018 967.969 70.8689C967.969 70.8689 1029.28 134.51 1043.18 141.604C1057.07 148.698 1134.17 126.805 1129.95 135.079C1126.58 141.676 1122.91 145.534 1118.5 154.184C1114.08 162.833 1041.22 164.629 1033.89 164.586C1026.57 164.544 959.874 103.329 959.955 94.3147Z" fill="url(#paint7_linear_34_1556)"/>
</g>
<g filter="url(#filter21_n_34_1556)">
<path d="M1037.68 148.255C1021.88 140.186 965.416 77.7113 965.416 77.7113L961.153 86.0623C961.153 86.0623 1021.26 150.599 1034.34 154.817C1047.41 159.034 1122.01 147.688 1122.01 147.688L1127.4 138.972C1127.4 138.972 1053.49 156.325 1037.68 148.255Z" fill="url(#paint8_radial_34_1556)"/>
</g>
<ellipse cx="985.148" cy="63.452" rx="2.82713" ry="0.810652" transform="rotate(21.093 985.148 63.452)" fill="#FFD188"/>
<ellipse cx="993.474" cy="68.0535" rx="2.19888" ry="0.810652" transform="rotate(21.093 993.474 68.0535)" fill="#BD6435" fill-opacity="0.47"/>
<ellipse cx="987.033" cy="69.9134" rx="1.88476" ry="0.648522" transform="rotate(21.093 987.033 69.9134)" fill="#FFD188"/>
<ellipse cx="1061.88" cy="111.773" rx="5.97545" ry="1.85346" transform="rotate(21.093 1061.88 111.773)" fill="#FFD188"/>
<ellipse cx="1079.4" cy="121.708" rx="4.64758" ry="1.85346" transform="rotate(21.093 1079.4 121.708)" fill="#BD6435" fill-opacity="0.47"/>
<ellipse cx="1065.53" cy="126.292" rx="3.98364" ry="1.48277" transform="rotate(21.093 1065.53 126.292)" fill="#FFD188"/>
<g filter="url(#filter22_n_34_1556)">
<path d="M242.907 308.932C263.325 344.764 232.404 370.482 195.885 396.27C159.366 422.058 123.667 436.283 103.249 400.451C82.8305 364.618 137.393 372.307 173.912 346.519C210.43 320.731 222.489 273.099 242.907 308.932Z" fill="url(#paint9_linear_34_1556)"/>
</g>
<g filter="url(#filter23_n_34_1556)">
<path d="M260.369 289.407C285.568 306.915 226.543 377.649 197.568 395.858C168.592 414.067 96.4908 439.608 90.0161 410.627C83.5414 381.647 130.952 396.74 181.808 364.78C232.664 332.82 235.169 271.898 260.369 289.407Z" fill="url(#paint10_linear_34_1556)"/>
</g>
<g filter="url(#filter24_dn_34_1556)">
<path d="M279.213 337.338C299.631 373.171 265.091 401.444 224.507 430.103C183.922 458.763 144.744 475.444 124.326 439.611C103.908 403.778 162.455 408.654 203.039 379.995C243.624 351.335 258.795 301.505 279.213 337.338Z" fill="url(#paint11_linear_34_1556)"/>
</g>
<path d="M124.088 384.469C124.836 382.892 126.713 380.454 128.025 378.857C128.647 378.047 129.464 377.375 130.187 376.962C130.255 376.922 130.324 376.883 130.393 376.846C131.291 376.364 132.125 376.109 132.956 375.936C133.118 375.902 133.282 375.873 133.446 375.846C135.172 375.695 137.429 375.134 141.263 377.7C141.873 378.182 142.391 378.728 142.843 379.303C143.868 380.519 144.529 381.716 145.094 382.902C145.743 384.282 146.228 385.649 146.632 387.018C147.171 388.876 148.348 390.798 149.818 392.379C149.957 392.526 149.978 392.549 150.141 392.637C150.3 392.72 150.656 392.837 151.144 392.95C152.129 393.176 153.453 393.42 154.711 393.75C155.983 394.088 157.181 394.232 158.129 394.118C159.132 393.984 159.644 393.749 161.298 392.744C161.474 392.705 162.29 391.905 162.862 391.125C163.478 390.316 164.072 389.394 164.637 388.434C164.702 388.312 164.77 388.185 164.838 388.056C165.844 386.147 166.898 383.737 167.744 381.777C167.944 381.321 168.103 380.887 168.237 380.485C168.954 378.213 169.161 376.076 169.465 374.463C169.596 373.423 169.736 372.379 169.895 371.325C170.393 367.943 171.238 364.527 172.512 361.3C175.053 356.344 179.079 356.19 181.946 354.761C183.799 353.908 186.335 354.331 187.72 355.113C188.488 355.472 189.088 356.044 189.494 356.579C190.745 358.347 190.986 359.76 191.531 360.906C192.104 362.213 192.773 363.418 193.584 364.587C194.34 365.686 195.238 366.79 196.132 367.99C196.822 368.915 197.581 369.73 198.433 370.408C199.518 371.202 200.683 371.726 201.83 372.074C202.058 372.144 202.284 372.206 202.511 372.263C203.505 372.489 204.508 372.308 205.415 372.03C207.136 371.513 209.13 370.311 210.826 369.02C211.502 368.513 212.138 367.861 212.661 367.233C212.924 366.917 213.161 366.604 213.371 366.306C214.042 365.239 214.593 364.082 214.967 362.919C215.194 362.212 215.36 361.481 215.469 360.733C215.516 360.607 215.563 360.477 215.61 360.344C216.181 358.68 216.251 356.421 215.57 352.811C215.342 351.579 215.015 350.201 214.658 348.521C214.565 348.076 214.463 347.614 214.353 347.134C214.029 345.736 213.958 344.968 213.91 344.341C213.895 344.156 213.882 343.983 213.861 343.809C213.792 343.211 213.546 342.624 213.261 341.92C212.893 341.008 212.455 339.895 212.293 338.336C212.269 338.111 212.248 337.896 212.225 337.682C212.037 336.092 212.245 334.74 212.641 333.602C213.699 330.761 215.399 329.667 216.41 328.881C216.877 328.549 217.305 328.287 217.738 328.066C218.354 327.75 219.092 327.479 219.69 327.248C220.924 326.749 222.191 326.62 223.205 326.636C224.66 326.621 227.358 326.729 229.438 327.225C230.106 327.39 230.896 327.599 232.031 328.265C232.184 328.359 232.343 328.458 232.501 328.556C233.483 329.168 234.573 329.858 235.762 330.43C236.834 330.945 237.711 331.277 238.39 331.453C238.209 331.385 238.251 331.402 238.325 331.373C238.401 331.351 238.519 331.308 238.592 331.267C238.592 331.231 238.593 331.222 238.695 331.044C238.769 330.908 238.86 330.701 238.944 330.451C239.216 329.675 239.465 328.269 239.698 326.716C239.703 326.685 239.707 326.655 239.712 326.625C239.972 324.916 239.95 323.328 239.727 322.113C239.475 319.401 238.295 315.389 238.421 311.615C238.424 311.035 238.451 310.397 238.653 309.609C238.74 309.272 238.878 308.899 239.037 308.583C239.193 308.273 239.351 308.018 239.299 308.146C239.335 308.083 239.904 306.876 240.744 306.381C241.536 305.871 242.106 305.797 242.56 305.73C243.97 305.61 244.746 305.845 245.526 306.058C246.993 306.518 247.76 307.161 247.765 307.811C247.769 308.467 246.957 309.087 245.598 309.593C244.941 309.851 244.03 310.08 243.552 310.323C243.434 310.384 243.398 310.482 243.625 310.372C243.733 310.32 243.889 310.173 243.954 310.086C244.022 309.998 244.013 310.025 243.938 310.227C243.758 310.637 243.713 310.71 243.705 310.758C243.697 310.8 243.7 310.81 243.693 310.858C243.676 310.961 243.66 311.217 243.678 311.518C243.731 314.868 244.946 317.702 245.502 321.944C245.715 323.906 245.585 325.896 245.267 327.743C245.051 328.983 244.851 330.289 244.381 331.775C243.918 333.145 243.047 335.399 240.467 336.388C239.408 336.733 238.396 337.031 236.724 336.558C236.669 336.541 236.614 336.522 236.559 336.504C233.632 335.46 231.443 333.93 229.338 332.62C229.048 332.43 228.291 332.129 227.609 331.942C227.332 331.864 227.048 331.794 226.76 331.733C224.724 331.44 222.674 331.721 221.821 332.205C221.455 332.375 221.141 332.507 220.862 332.623C219.312 333.254 218.6 333.536 218.086 333.842C217.742 334.046 217.515 334.237 217.36 334.49C217.278 334.627 217.182 334.819 217.098 335.104C217.098 335.104 217.098 335.104 217.098 335.105C216.992 335.464 216.93 336.08 217.075 336.746C217.461 338.66 217.99 340.856 218.467 343.041C218.752 344.366 219.055 345.935 219.282 347.526C219.315 347.771 219.351 348.022 219.389 348.277C219.776 350.759 220.071 353.274 220.257 354.528C220.63 356.734 220.598 359.429 220.082 361.774C219.877 362.737 219.604 363.637 219.316 364.425C218.937 365.464 218.552 366.293 218.316 366.892C217.808 368.146 217.164 369.117 216.022 370.413C215.438 371.058 214.734 371.789 213.682 372.596C213.323 372.867 212.934 373.154 212.504 373.455C210.708 374.712 209.228 375.381 207.903 375.82C206.024 376.388 204.474 376.739 202.01 376.436C201.754 376.397 201.496 376.345 201.24 376.28C199.128 375.781 197.021 374.696 195.652 373.462C194.958 372.852 194.207 372.113 193.52 371.291C193.285 371.011 193.057 370.723 192.838 370.429C192.288 369.69 191.704 368.933 191.18 368.159C190.598 367.302 190.193 366.497 189.871 365.776C189.77 365.55 189.677 365.333 189.586 365.123C189.149 364.392 188.751 363.638 188.39 362.875C188.313 362.758 188.233 362.639 188.15 362.511C188.134 362.487 188.119 362.463 188.103 362.438C187.681 361.786 187.247 360.967 186.825 360.154C186.397 359.304 186.018 358.903 185.963 358.883C185.477 358.634 185.184 358.502 184.846 358.417C184.418 358.314 184.001 358.311 183.504 358.497C183.032 358.682 182.549 358.877 182.055 359.091C181.144 359.487 180.142 359.964 179.259 360.477C177.913 361.235 177.076 362.091 176.804 362.568C176.745 362.659 176.684 362.738 176.621 362.819C176.525 362.984 176.427 363.137 176.329 363.292C176.328 363.294 176.327 363.295 176.326 363.296C176.313 363.317 176.3 363.338 176.288 363.358C175.457 365.902 174.926 368.528 174.629 371.21C174.617 371.444 174.606 371.681 174.597 371.915C174.597 371.916 174.596 371.917 174.596 371.918C174.547 373.089 174.523 374.228 174.582 374.986C174.628 375.815 174.593 377.817 174.277 380.235C174.106 381.5 173.782 382.891 173.348 384.083C173.259 384.337 173.175 384.579 173.096 384.809C172.856 385.499 172.51 386.092 172.141 386.707C171.797 387.281 171.441 387.857 171.133 388.541C170.979 388.884 170.831 389.261 170.667 389.665C170.523 390.02 170.366 390.397 170.182 390.783C170.01 391.144 169.554 391.903 168.901 392.863C168.494 393.46 168.017 394.126 167.454 394.834C166.692 395.858 166.009 396.888 164.403 397.949C163.754 398.366 162.672 399.14 161.441 399.64C160.92 399.924 160.444 400.16 160.068 400.374C159.797 400.527 159.566 400.678 159.324 400.825C158.992 401.025 158.639 401.221 158.135 401.373C157.737 401.493 157.275 401.536 156.969 401.492C156.824 401.471 156.72 401.434 156.624 401.4C156.514 401.36 156.415 401.324 156.295 401.318C156.21 401.313 156.12 401.332 156.007 401.353C155.824 401.386 155.599 401.428 155.252 401.388C154.503 401.301 153.731 401.151 152.975 400.959C152.593 400.861 152.199 400.766 151.796 400.675C150.699 400.418 149.503 400.248 148.081 399.818C147.138 399.555 145.516 398.726 144.47 397.512C144.032 397.014 143.604 396.476 143.202 395.919C142.455 394.886 141.801 393.786 141.286 392.803C140.779 391.842 140.254 390.818 139.837 389.75C139.755 389.539 139.677 389.327 139.604 389.114C139.334 388.369 139.064 387.684 138.895 387.077C138.854 386.929 138.876 386.719 138.897 386.454C138.911 386.266 138.926 386.051 138.917 385.814C138.519 384.966 138.055 384.183 137.612 383.659C137.587 383.65 137.561 383.641 137.534 383.632C137.534 383.632 137.533 383.632 137.533 383.632C137.308 383.56 137.063 383.518 136.901 383.536C136.783 383.661 136.358 383.539 135.876 383.301C135.671 383.2 135.537 383.071 135.405 382.957C135.277 382.846 135.149 382.75 134.964 382.744C134.857 382.741 134.741 382.766 134.622 382.811C134.489 382.856 134.365 382.916 134.265 382.978C133.948 383.171 133.999 383.305 133.914 383.238C133.906 383.235 133.898 383.233 133.889 383.231C133.87 383.228 133.846 383.228 133.816 383.236C133.428 383.627 132.955 384.064 132.439 384.454C130.961 386.291 129.544 388.125 128.313 390.003C127.644 391.026 127.028 392.068 126.571 393.065C125.494 395.46 124.494 397.911 123.566 400.391C122.895 402.18 122.07 403.852 121.249 405.016C120.421 406.191 119.694 406.734 119.065 406.682C118.414 406.601 117.972 405.575 117.889 404.089C117.802 402.591 118.077 400.659 118.639 398.75C119.42 396.107 120.275 393.488 121.241 390.884C121.447 390.337 121.67 389.819 121.904 389.316C121.977 389.141 122.052 388.967 122.128 388.796C122.697 387.527 123.196 386.376 123.72 385.244C123.841 384.984 123.963 384.725 124.088 384.469Z" fill="#FFE54E"/>
<ellipse cx="140.876" cy="427.777" rx="3.5972" ry="2.05555" fill="#FFD188"/>
<ellipse cx="122.633" cy="375.36" rx="3.34026" ry="1.54166" fill="#FFD188"/>
<circle cx="210.508" cy="411.075" r="2.82638" fill="#BD6435" fill-opacity="0.47"/>
<ellipse cx="112.356" cy="382.555" rx="2.82638" ry="1.54166" fill="#BD6435" fill-opacity="0.47"/>
<ellipse cx="224.126" cy="392.062" rx="2.56943" ry="2.82638" fill="#BD6435" fill-opacity="0.47"/>
<ellipse cx="263.438" cy="338.874" rx="4.36803" ry="2.56943" fill="#BD6435" fill-opacity="0.47"/>
<ellipse cx="152.953" cy="431.374" rx="2.82638" ry="2.05555" fill="#BD6435" fill-opacity="0.47"/>
<ellipse cx="146.015" cy="442.679" rx="2.56943" ry="2.05555" fill="#FFD188"/>
<circle cx="213.848" cy="312.666" r="2.56943" fill="#FFD188" fill-opacity="0.52"/>
<circle cx="221.557" cy="312.666" r="2.05555" fill="#BD6435" fill-opacity="0.47"/>
<ellipse cx="215.904" cy="320.117" rx="2.05555" ry="1.7986" fill="#FFD188" fill-opacity="0.52"/>
<circle cx="209.48" cy="397.201" r="2.31249" fill="#FFD188"/>
<ellipse cx="272.431" cy="371.507" rx="2.05555" ry="2.31249" fill="#FFD188"/>
<circle cx="252.904" cy="345.555" r="3.5972" fill="#FFD188" fill-opacity="0.44"/>
<ellipse cx="273.202" cy="340.159" rx="2.31249" ry="2.82638" fill="#FFD188"/>
<ellipse cx="3.65541" cy="2.00096" rx="3.65541" ry="2.00096" transform="matrix(0.939869 0.341534 -0.27888 0.960326 254.02 303.93)" fill="#FFB5B5" fill-opacity="0.46"/>
<ellipse cx="3.26832" cy="1.78212" rx="3.26832" ry="1.78212" transform="matrix(0.940397 0.340078 -0.280125 0.959963 104.781 396.954)" fill="#FFB5B5" fill-opacity="0.46"/>
<ellipse cx="100.793" cy="401.569" rx="2.05555" ry="1.54166" fill="#BF1313" fill-opacity="0.74"/>
<g filter="url(#filter25_gn_34_1556)">
<path d="M879.285 368.404C877.601 370.426 878.583 374.722 879.285 376.617L885.603 386.935L915.084 382.934L894.447 359.77C891.709 359.63 885.897 359.728 884.55 361.244C882.865 363.14 881.391 365.877 879.285 368.404Z" fill="url(#paint12_linear_34_1556)"/>
<path d="M897.606 335.975L900.764 338.08L909.188 340.607L925.192 349.662L931.088 361.244L952.989 366.088L933.194 322.708L913.82 320.181C911.293 320.111 906.155 320.518 905.818 322.708C905.397 325.446 902.238 326.92 899.29 331.763C896.932 335.638 897.185 336.185 897.606 335.975Z" fill="url(#paint13_linear_34_1556)"/>
<path d="M923.928 297.017C922.918 297.691 921.401 300.667 920.77 302.071L930.667 310.705L933.194 316.391L944.144 318.496L950.251 327.13L970.467 336.606L968.782 314.706L949.409 291.121C944.916 290.279 935.763 288.594 935.089 288.594C934.247 288.594 931.93 291.121 931.509 293.016C931.088 294.911 925.192 296.175 923.928 297.017Z" fill="url(#paint14_linear_34_1556)"/>
<path d="M956.568 264.377C952.188 266.399 952.918 270.133 953.831 271.747L967.729 278.065L974.257 293.016L994.894 301.018L998.685 283.119L986.471 262.903L974.257 254.901C972.713 255.813 969.582 257.807 969.414 258.481C969.203 259.323 962.044 261.85 956.568 264.377Z" fill="url(#paint15_linear_34_1556)"/>
</g>
<g filter="url(#filter26_dn_34_1556)">
<path d="M872.336 395.359C870.82 384.914 874.372 379.495 876.337 378.091C876.618 377.74 877.474 376.954 878.653 376.617C880.128 376.196 883.076 378.091 886.024 379.776C888.972 381.46 895.079 381.039 897.606 379.776C900.133 378.512 903.291 379.354 906.24 379.354C909.188 379.354 907.924 378.091 906.871 375.775C905.818 373.458 900.133 367.772 898.027 366.088C895.921 364.403 888.13 362.929 884.76 361.244C881.391 359.56 883.076 355.348 883.076 352.4C883.076 349.452 884.899 347.209 886.024 345.24C888.551 340.818 887.077 339.976 891.499 338.291C892.932 337.745 893.815 336.817 898.027 335.975C902.239 335.132 905.397 338.291 906.24 338.291C907.082 338.291 916.979 339.555 920.349 339.976C923.718 340.397 924.981 344.398 926.877 345.24C928.772 346.083 934.458 352.4 935.3 354.085C936.142 355.769 939.722 358.086 941.828 358.717C943.934 359.349 941.617 353.453 940.775 350.715C939.933 347.978 930.456 331.552 927.929 328.394C925.403 325.235 922.876 325.235 920.98 325.235H906.871C904.344 325.235 905.187 320.392 904.766 317.865C904.344 315.338 905.818 311.547 910.662 306.493C912.271 304.814 918.453 301.861 920.98 300.597C923.507 299.334 923.507 302.492 926.877 304.177C930.246 305.862 934.668 308.178 936.984 309.231C939.301 310.284 938.248 311.337 938.88 313.442C939.511 315.548 941.407 313.864 943.723 313.442C946.039 313.021 946.882 317.022 948.988 317.865C951.093 318.707 960.991 327.551 962.465 328.394C963.939 329.236 964.36 328.183 963.939 324.182C963.518 320.181 959.517 317.022 956.358 312.6C953.199 308.178 954.884 305.23 951.936 302.492C948.988 299.755 949.619 297.859 946.882 296.175C944.144 294.49 939.933 294.069 936.353 293.858C933.489 293.69 933.334 291.402 933.615 290.279C934.177 287.822 935.637 282.192 936.984 279.328C938.669 275.748 945.019 270.006 948.356 269.22C951.936 268.378 956.147 270.273 960.991 270.273C965.834 270.273 970.046 274.485 973.836 274.906C977.627 275.327 978.89 277.854 981.417 279.96C983.944 282.066 985.208 283.329 985.629 286.278C986.05 289.226 988.787 291.121 990.262 292.384C991.736 293.648 991.736 288.383 991.736 285.014C991.736 281.645 984.365 269.22 982.681 266.483C980.996 263.745 978.89 264.166 973.836 262.692C969.793 261.513 966.466 258.691 966.676 257.428C967.87 253.427 974.931 245.256 982.681 244.582C990.43 243.909 1001.98 246.478 1002.69 247.32C1009.85 251.532 1009.72 253.932 1014.27 260.165C1019.95 267.957 1016.16 282.066 1014.27 295.333C1012.37 308.599 994.473 335.343 988.998 341.66C983.523 347.978 934.879 406.098 921.401 414.732C907.924 423.366 895.079 422.734 885.813 417.891C875.736 412.623 874.231 408.415 872.336 395.359Z" fill="url(#paint16_linear_34_1556)"/>
</g>
<path fill-rule="evenodd" clip-rule="evenodd" d="M191.801 54.7933C192.532 54.9526 193.157 55.1337 193.645 55.3372C194.139 55.5431 194.469 55.7619 194.64 55.9812C194.732 56.0996 194.813 56.3267 194.863 56.6856C194.912 57.0371 194.929 57.4859 194.915 58.0183C194.886 59.0831 194.739 60.4601 194.517 62.0211C194.073 65.1423 193.333 68.9763 192.66 72.4845C191.989 75.9854 191.382 79.1724 191.212 80.9813C191.169 81.433 191.153 81.8098 191.172 82.0877C191.181 82.2255 191.2 82.3517 191.234 82.4538C191.266 82.5485 191.329 82.6713 191.457 82.728C191.598 82.7897 191.732 82.7389 191.824 82.6799C191.916 82.6197 192.009 82.525 192.1 82.411C192.285 82.1803 192.509 81.8155 192.777 81.3117C194.901 77.311 198.273 71.7465 201.494 67.2885C203.105 65.0586 204.673 63.1117 206.024 61.7776C206.701 61.1101 207.316 60.6033 207.848 60.2899C208.388 59.972 208.802 59.8777 209.099 59.9581C210.638 60.3767 214.892 61.4032 219.176 62.8061C221.318 63.5074 223.462 64.3011 225.272 65.1563C227.089 66.0147 228.544 66.9234 229.334 67.8457C229.417 67.9426 229.485 68.0212 229.54 68.08C229.592 68.1345 229.642 68.1848 229.684 68.2151C229.695 68.2233 229.713 68.2352 229.735 68.2453C229.75 68.2521 229.805 68.2765 229.875 68.2631C229.901 68.2581 229.926 68.2451 229.951 68.2291C238.069 77.4357 241.469 89.015 238.808 98.8017C234.28 115.449 215.863 113.509 191.916 106.996C167.969 100.483 147.749 90.5308 152.276 73.8837C154.773 64.7013 163.692 57.5588 175.207 54.0914C178.179 53.857 182.577 53.8275 186.468 54.1058C188.474 54.2493 190.339 54.4748 191.801 54.7933Z" fill="url(#paint17_linear_34_1556)"/>
<g filter="url(#filter27_d_34_1556)">
<path fill-rule="evenodd" clip-rule="evenodd" d="M206.116 54.0761C215.977 56.758 223.98 62.0406 229.67 68.4873C229.594 68.54 229.51 68.523 229.486 68.5159C229.45 68.5057 229.424 68.4893 229.413 68.482C229.37 68.4528 229.319 68.401 229.271 68.3504C229.218 68.2935 229.15 68.2166 229.067 68.1198C228.277 67.1974 226.823 66.2878 225.006 65.4294C223.195 64.5742 221.051 63.7815 218.91 63.0802C214.625 61.6772 210.371 60.6499 208.832 60.2313C208.536 60.1508 208.121 60.2451 207.581 60.563C207.049 60.8765 206.434 61.384 205.758 62.0516C204.406 63.3858 202.838 65.3318 201.227 67.5616C198.006 72.0199 194.634 77.5849 192.51 81.5858C192.242 82.0895 192.018 82.4534 191.833 82.6841C191.742 82.7982 191.65 82.8928 191.557 82.953C191.465 83.0122 191.331 83.063 191.191 83.0011C191.062 82.9443 191 82.8217 190.968 82.727C190.933 82.6248 190.914 82.4995 190.905 82.3618C190.886 82.0837 190.902 81.7066 190.945 81.2544C191.116 79.4455 191.722 76.2588 192.394 72.7576C193.066 69.2492 193.807 65.4155 194.251 62.2942C194.473 60.7333 194.619 59.3572 194.648 58.2924C194.662 57.7596 194.645 57.3103 194.596 56.9587C194.546 56.5997 194.465 56.3727 194.373 56.2543C194.202 56.0351 193.872 55.8162 193.378 55.6104C192.89 55.4068 192.266 55.2257 191.535 55.0664C190.073 54.748 188.208 54.5224 186.201 54.3789C182.309 54.1006 177.911 54.1316 174.938 54.3662C184.3 51.5469 195.377 51.1555 206.116 54.0761Z" fill="url(#paint18_linear_34_1556)"/>
</g>
<path d="M161.652 83.6559C163.561 87.3424 166.547 89.948 164.499 91.0087C162.451 92.0693 156.607 87.7759 155.702 81.3453C154.796 74.9147 166.481 62.3988 168.529 61.3382C170.577 60.2775 157.969 73.0079 161.652 83.6559Z" fill="url(#paint19_linear_34_1556)"/>
<ellipse cx="181.288" cy="57.1912" rx="1.67046" ry="0.501139" transform="rotate(15.2144 181.288 57.1912)" fill="#E8B588" fill-opacity="0.46"/>
<ellipse cx="181.288" cy="57.1912" rx="1.67046" ry="0.501139" transform="rotate(15.2144 181.288 57.1912)" fill="#E8B588" fill-opacity="0.46"/>
<ellipse cx="181.288" cy="57.1912" rx="1.67046" ry="0.501139" transform="rotate(15.2144 181.288 57.1912)" fill="#E8B588" fill-opacity="0.46"/>
<ellipse cx="218.248" cy="72.7829" rx="1.67046" ry="0.501139" transform="rotate(15.2144 218.248 72.7829)" fill="#E8B588" fill-opacity="0.46"/>
<ellipse cx="218.248" cy="72.7829" rx="1.67046" ry="0.501139" transform="rotate(15.2144 218.248 72.7829)" fill="#E8B588" fill-opacity="0.46"/>
<ellipse cx="218.248" cy="72.7829" rx="1.67046" ry="0.501139" transform="rotate(15.2144 218.248 72.7829)" fill="#E8B588" fill-opacity="0.46"/>
<ellipse cx="207.754" cy="66.8127" rx="1.67046" ry="0.501139" transform="rotate(15.2144 207.754 66.8127)" fill="#E8B588" fill-opacity="0.46"/>
<ellipse cx="207.754" cy="66.8127" rx="1.67046" ry="0.501139" transform="rotate(15.2144 207.754 66.8127)" fill="#E8B588" fill-opacity="0.06"/>
<ellipse cx="216.69" cy="65.7809" rx="1.67046" ry="0.501139" transform="rotate(15.2144 216.69 65.7809)" fill="#E8B588" fill-opacity="0.46"/>
<ellipse cx="216.69" cy="65.7809" rx="1.67046" ry="0.501139" transform="rotate(15.2144 216.69 65.7809)" fill="#E8B588" fill-opacity="0.06"/>
<ellipse cx="187.882" cy="59.6772" rx="1.67046" ry="0.501139" transform="rotate(15.2144 187.882 59.6772)" fill="#E8B588"/>
<ellipse cx="183.037" cy="64.7645" rx="1.67046" ry="1.00228" transform="rotate(15.2144 183.037 64.7645)" fill="#E8B588"/>
<ellipse cx="173.261" cy="59.3359" rx="1.16932" ry="0.668185" transform="rotate(15.2144 173.261 59.3359)" fill="#E8B588"/>
<ellipse cx="227.893" cy="78.695" rx="1.16932" ry="0.668185" transform="rotate(15.2144 227.893 78.695)" fill="#E8B588" fill-opacity="0.26"/>
<ellipse cx="227.893" cy="78.695" rx="1.16932" ry="0.668185" transform="rotate(15.2144 227.893 78.695)" fill="#E8B588" fill-opacity="0.26"/>
<ellipse cx="227.893" cy="78.695" rx="1.16932" ry="0.668185" transform="rotate(15.2144 227.893 78.695)" fill="#E8B588" fill-opacity="0.26"/>
<ellipse cx="227.893" cy="78.695" rx="1.16932" ry="0.668185" transform="rotate(15.2144 227.893 78.695)" fill="#E8B588" fill-opacity="0.26"/>
<ellipse cx="208.473" cy="88.9937" rx="1.16932" ry="0.668185" transform="rotate(15.2144 208.473 88.9937)" fill="#E8B588" fill-opacity="0.26"/>
<ellipse cx="208.473" cy="88.9937" rx="1.16932" ry="0.668185" transform="rotate(15.2144 208.473 88.9937)" fill="#E8B588" fill-opacity="0.26"/>
<ellipse cx="208.473" cy="88.9937" rx="1.16932" ry="0.668185" transform="rotate(15.2144 208.473 88.9937)" fill="#E8B588" fill-opacity="0.26"/>
<ellipse cx="208.473" cy="88.9937" rx="1.16932" ry="0.668185" transform="rotate(15.2144 208.473 88.9937)" fill="#E8B588" fill-opacity="0.26"/>
<ellipse cx="175.435" cy="67.8905" rx="1.16932" ry="0.668185" transform="rotate(15.2144 175.435 67.8905)" fill="#E8B588" fill-opacity="0.26"/>
<ellipse cx="175.435" cy="67.8905" rx="1.16932" ry="0.668185" transform="rotate(15.2144 175.435 67.8905)" fill="#E8B588" fill-opacity="0.26"/>
<ellipse cx="175.435" cy="67.8905" rx="1.16932" ry="0.668185" transform="rotate(15.2144 175.435 67.8905)" fill="#E8B588" fill-opacity="0.26"/>
<ellipse cx="175.435" cy="67.8905" rx="1.16932" ry="0.668185" transform="rotate(15.2144 175.435 67.8905)" fill="#E8B588" fill-opacity="0.26"/>
<ellipse cx="209.048" cy="72.8773" rx="1.16932" ry="0.668185" transform="rotate(15.2144 209.048 72.8773)" fill="#E8B588"/>
<ellipse cx="223.711" cy="69.2481" rx="1.67046" ry="1.00228" transform="rotate(15.2144 223.711 69.2481)" fill="#E8B588"/>
<ellipse cx="204.817" cy="77.6126" rx="1.67046" ry="1.00228" transform="rotate(15.2144 204.817 77.6126)" fill="#E8B588"/>
<g filter="url(#filter28_g_34_1556)">
<path d="M192.289 37.1508C190.245 43.0806 201.464 47.7529 202.658 46.1321C203.853 44.5113 199.725 40.6865 200.637 38.1242C201.549 35.5619 203.746 34.2137 208.814 34.1867C213.881 34.1597 211.159 26.8294 210.166 24.0695C208.871 20.4747 214.105 13.8993 213.814 12.1987C213.118 12.9102 204.88 18.7623 206.337 22.2716C208.159 26.6583 207.457 29.2779 203.164 30.8126C198.871 32.3472 194.843 29.7386 192.289 37.1508Z" fill="url(#paint20_linear_34_1556)"/>
</g>
<g filter="url(#filter29_g_34_1556)">
<path d="M207.118 41.1839C205.075 47.1137 216.293 51.7861 217.488 50.1653C218.682 48.5445 214.554 44.7196 215.467 42.1573C216.379 39.595 218.576 38.2469 223.643 38.2199C228.711 38.1929 225.922 32.5229 224.928 29.763C223.634 26.1683 224.042 23.6994 223.751 21.9988C223.055 22.7103 220.978 27.239 221.296 31.0255C221.742 36.3403 222.287 33.3111 217.993 34.8457C213.7 36.3804 209.672 33.7717 207.118 41.1839Z" fill="url(#paint21_linear_34_1556)"/>
</g>
<g filter="url(#filter30_dn_34_1556)">
<path d="M844.399 202.684C838.351 199.85 831.664 189.162 827.698 182.423C827.698 182.423 903.83 139.218 905.383 149.665C906.936 160.112 907.794 163.826 908.64 172.791C908.42 174.927 908.818 176.505 905.656 178.768C905.35 178.988 905.01 179.213 904.633 179.447C902.562 180.728 900.053 182.13 897.284 183.586C893.577 185.536 889.404 187.582 885.197 189.562C881.111 191.485 876.992 193.346 873.237 194.997C867.194 197.653 862.091 199.765 859.571 200.713C859.068 200.903 858.668 201.046 858.384 201.138C857.69 201.362 857.031 201.581 856.401 201.79L856.401 201.791C852.885 202.959 850.285 203.822 847.707 203.6C846.623 203.506 845.543 203.22 844.399 202.684Z" fill="url(#paint22_linear_34_1556)"/>
</g>
<g filter="url(#filter31_n_34_1556)">
<path d="M876.095 165.808L885.197 189.562C881.111 191.485 876.993 193.347 873.237 194.997L861.927 171.074L876.095 165.808ZM847.017 175.482L859.571 200.713C859.068 200.903 858.667 201.046 858.383 201.138C857.69 201.362 857.029 201.581 856.399 201.791C852.884 202.959 850.285 203.822 847.706 203.599L833.166 180.131L847.017 175.482ZM905.701 178.868C905.394 179.087 905.054 179.312 904.677 179.546C902.607 180.827 900.097 182.229 897.329 183.685L887.309 159.249L899.26 152.478L905.701 178.868Z" fill="url(#paint23_linear_34_1556)"/>
</g>
<g filter="url(#filter32_d_34_1556)">
<path fill-rule="evenodd" clip-rule="evenodd" d="M848.03 132.947C850.434 131.85 852.955 131.716 854.902 132.401C855.96 131.089 857.539 129.974 859.458 129.318C861.643 128.572 863.843 128.568 865.611 129.161C866.805 127.83 868.533 126.701 870.601 126.033C875.277 124.521 879.92 125.931 880.971 129.181C881.092 129.558 881.158 129.943 881.176 130.331C882.219 129.299 883.61 128.442 885.237 127.915C889.514 126.533 893.804 127.954 894.819 131.091C895.034 131.756 895.082 132.446 894.987 133.132C898.62 132.592 901.924 134.021 902.797 136.723C903.241 138.094 902.984 139.565 902.199 140.903C904.125 141.429 905.616 142.618 906.161 144.304C907.175 147.44 904.53 151.104 900.253 152.487C899.937 152.589 899.619 152.673 899.304 152.745C899.322 152.794 899.341 152.841 899.357 152.89C900.371 156.027 897.725 159.691 893.448 161.074C891.57 161.681 889.689 161.746 888.084 161.364C888.4 164.275 885.864 167.403 881.986 168.657C880.326 169.194 878.664 169.306 877.193 169.061C876.507 171.316 874.307 173.42 871.296 174.394C868.097 175.428 864.891 174.894 863.054 173.247C862.529 175.657 860.244 177.967 857.046 179.001C853.345 180.197 849.637 179.294 848.048 176.997C847.505 179.392 845.229 181.681 842.049 182.709C838.329 183.912 834.6 182.993 833.025 180.669C832.123 181.36 831.044 181.933 829.835 182.324C825.558 183.707 821.269 182.285 820.255 179.148C819.794 177.72 820.091 176.184 820.955 174.802C820.631 174.72 820.314 174.603 820.011 174.446C817.082 172.933 816.379 168.469 818.441 164.475C819.104 163.192 819.972 162.115 820.941 161.292C819.713 158.937 820.35 155.407 822.723 152.596C824.934 149.977 828.013 148.74 830.467 149.242C830.418 146.903 831.708 144.104 834.097 141.885C836.867 139.311 840.307 138.267 842.771 139.013C843.158 136.666 845.115 134.278 848.03 132.947ZM845.8 144.233C845.536 146.35 844.292 148.708 842.222 150.631C839.691 152.982 836.601 154.056 834.207 153.655C834.4 155.752 833.596 158.22 831.844 160.296C831.169 161.095 830.412 161.765 829.618 162.297C830.569 164.367 830.436 167.266 829.048 169.952C828.959 170.126 828.863 170.294 828.767 170.46C831.522 170.275 833.983 171.231 835.187 173.007C836.089 172.315 837.168 171.742 838.377 171.351C842.077 170.155 845.784 171.058 847.375 173.354C847.918 170.959 850.195 168.671 853.374 167.643C856.572 166.609 859.777 167.143 861.614 168.79C862.14 166.379 864.426 164.07 867.624 163.036C869.284 162.5 870.945 162.387 872.416 162.631C873.102 160.376 875.303 158.272 878.314 157.298C880.192 156.691 882.073 156.625 883.678 157.007C883.362 154.097 885.899 150.969 889.776 149.715C890.092 149.613 890.409 149.527 890.724 149.455C890.707 149.407 890.689 149.36 890.673 149.311C890.23 147.94 890.485 146.469 891.27 145.131C889.345 144.605 887.854 143.415 887.309 141.73C887.094 141.064 887.045 140.375 887.14 139.688C883.507 140.228 880.203 138.8 879.33 136.098C879.21 135.728 879.142 135.349 879.121 134.968C877.944 136.172 876.321 137.185 874.407 137.804C871.935 138.603 869.473 138.586 867.546 137.912C866.501 139.059 865.046 140.024 863.315 140.615C861.035 141.394 858.739 141.365 856.934 140.692C856.008 141.939 854.655 143.046 852.988 143.807C850.451 144.965 847.785 145.051 845.8 144.233Z" fill="url(#paint24_radial_34_1556)"/>
</g>
<g filter="url(#filter33_dn_34_1556)">
<path d="M896.857 140.925C900.114 148.531 884.629 158.707 864.255 167.432C843.88 176.158 827.647 181.198 824.389 173.592C821.132 165.986 832.364 147.947 852.739 139.221C873.113 130.496 893.599 133.318 896.857 140.925Z" fill="url(#paint25_linear_34_1556)"/>
</g>
<path d="M855.766 150.316C855.887 150.996 851.022 151.161 849.38 151.454C847.737 151.747 846.035 152.443 845.812 151.187C845.588 149.931 846.769 148.85 848.412 148.557C850.055 148.265 855.645 149.637 855.766 150.316Z" fill="#C24C0D"/>
<path d="M854.597 150.234C854.674 150.664 851.596 150.769 850.557 150.954C849.517 151.139 848.441 151.58 848.299 150.785C848.158 149.99 848.905 149.307 849.945 149.121C850.984 148.936 854.521 149.804 854.597 150.234Z" fill="#783D1D"/>
<path d="M857.64 149.596C858.065 150.139 861.432 146.623 862.746 145.594C864.059 144.565 865.713 143.761 864.926 142.757C864.139 141.752 862.545 141.912 861.232 142.942C859.918 143.971 857.214 149.052 857.64 149.596Z" fill="#C24C0D"/>
<path d="M858.718 148.407C858.989 148.752 861.127 146.519 861.962 145.865C862.796 145.211 863.846 144.701 863.346 144.063C862.846 143.424 861.834 143.526 861 144.18C860.166 144.834 858.448 148.062 858.718 148.407Z" fill="#783D1D"/>
<path d="M856.827 152.057C857.425 152.402 854.415 156.227 853.579 157.672C852.743 159.116 852.179 160.866 851.074 160.227C849.97 159.588 849.905 157.988 850.741 156.544C851.577 155.099 856.23 151.711 856.827 152.057Z" fill="#C24C0D"/>
<path d="M855.808 153.173C856.243 153.424 854.055 156.204 853.448 157.254C852.84 158.304 852.43 159.575 851.627 159.111C850.825 158.646 850.778 157.484 851.385 156.434C851.993 155.384 855.374 152.922 855.808 153.173Z" fill="#783D1D"/>
<path d="M858.876 151.584C858.735 152.259 863.594 152.566 865.227 152.906C866.861 153.247 868.541 153.992 868.801 152.743C869.062 151.494 867.912 150.379 866.278 150.039C864.645 149.699 859.017 150.908 858.876 151.584Z" fill="#C24C0D"/>
<path d="M859.981 151.52C859.88 152.004 863.364 152.224 864.535 152.468C865.707 152.712 866.912 153.247 867.098 152.351C867.285 151.455 866.46 150.656 865.289 150.412C864.117 150.168 860.082 151.035 859.981 151.52Z" fill="#783D1D"/>
<g filter="url(#filter34_f_34_1556)">
<path d="M827.187 167.822C827.315 178.18 832.606 175.764 837.666 175.622C841.227 175.14 839.812 174.151 836.647 173.344C824.497 170.243 829.898 162.453 833.777 156.558C836.441 152.51 847.539 145.174 841.456 147.894C837.346 149.731 827.079 159.074 827.187 167.822Z" fill="url(#paint26_linear_34_1556)" fill-opacity="0.64"/>
</g>
<g filter="url(#filter35_g_34_1556)">
<path d="M829.048 128.359C831.31 134.48 843.466 130.828 843.362 128.734C843.258 126.641 837.396 126.291 836.442 123.626C835.488 120.962 836.375 118.426 840.455 115.056C844.536 111.686 837.496 107.586 834.871 106.022C831.451 103.985 831.343 95.2364 829.985 94.0604C829.892 95.0927 827.093 105.244 830.588 107.105C834.956 109.431 836.118 112.002 833.659 116.074C831.2 120.145 826.221 120.708 829.048 128.359Z" fill="url(#paint27_linear_34_1556)"/>
</g>
<g filter="url(#filter36_g_34_1556)">
<path d="M845.121 123.904C846.863 128.465 854.536 126.369 854.372 124.84C854.208 123.312 850.41 122.785 849.671 120.801C848.932 118.817 849.387 117.011 851.863 114.747C854.338 112.483 849.776 107.758 847.841 107.912C846.293 108.034 844.045 106.227 843.114 105.308C843.102 106.055 843.663 107.929 846.003 109.445C848.929 111.341 848.923 112.323 847.526 115.173C846.128 118.024 842.942 118.202 845.121 123.904Z" fill="url(#paint28_linear_34_1556)"/>
</g>
<defs>
<filter id="filter0_n_34_1556" x="-29.3867" y="165.487" width="182.825" height="108.862" filterUnits="userSpaceOnUse" color-interpolation-filters="sRGB">
<feFlood flood-opacity="0" result="BackgroundImageFix"/>
<feBlend mode="normal" in="SourceGraphic" in2="BackgroundImageFix" result="shape"/>
<feTurbulence type="fractalNoise" baseFrequency="1.1199746131896973 1.1199746131896973" stitchTiles="stitch" numOctaves="3" result="noise" seed="4469" />
<feColorMatrix in="noise" type="luminanceToAlpha" result="alphaNoise" />
<feComponentTransfer in="alphaNoise" result="coloredNoise1">
<feFuncA type="discrete" tableValues="1 1 1 1 1 1 1 1 1 1 1 1 1 1 1 1 1 1 1 1 1 1 1 1 1 1 1 1 1 1 1 1 1 1 1 1 1 1 1 1 1 1 1 1 1 1 1 1 1 1 1 0 0 0 0 0 0 0 0 0 0 0 0 0 0 0 0 0 0 0 0 0 0 0 0 0 0 0 0 0 0 0 0 0 0 0 0 0 0 0 0 0 0 0 0 0 0 0 0 0 "/>
</feComponentTransfer>
<feComposite operator="in" in2="shape" in="coloredNoise1" result="noise1Clipped" />
<feFlood flood-color="rgba(213, 77, 140, 0.18)" result="color1Flood" />
<feComposite operator="in" in2="noise1Clipped" in="color1Flood" result="color1" />
<feMerge result="effect1_noise_34_1556">
<feMergeNode in="shape" />
<feMergeNode in="color1" />
</feMerge>
</filter>
<filter id="filter1_d_34_1556" x="62.3274" y="217.936" width="19.2754" height="12.258" filterUnits="userSpaceOnUse" color-interpolation-filters="sRGB">
<feFlood flood-opacity="0" result="BackgroundImageFix"/>
<feColorMatrix in="SourceAlpha" type="matrix" values="0 0 0 0 0 0 0 0 0 0 0 0 0 0 0 0 0 0 127 0" result="hardAlpha"/>
<feOffset/>
<feGaussianBlur stdDeviation="0.468761"/>
<feComposite in2="hardAlpha" operator="out"/>
<feColorMatrix type="matrix" values="0 0 0 0 0.243137 0 0 0 0 0.2 0 0 0 0 0.682353 0 0 0 1 0"/>
<feBlend mode="normal" in2="BackgroundImageFix" result="effect1_dropShadow_34_1556"/>
<feBlend mode="normal" in="SourceGraphic" in2="effect1_dropShadow_34_1556" result="shape"/>
</filter>
<filter id="filter2_dn_34_1556" x="-31.4742" y="136.276" width="188.506" height="114.3" filterUnits="userSpaceOnUse" color-interpolation-filters="sRGB">
<feFlood flood-opacity="0" result="BackgroundImageFix"/>
<feColorMatrix in="SourceAlpha" type="matrix" values="0 0 0 0 0 0 0 0 0 0 0 0 0 0 0 0 0 0 127 0" result="hardAlpha"/>
<feOffset dy="2.67863"/>
<feGaussianBlur stdDeviation="1.78575"/>
<feComposite in2="hardAlpha" operator="out"/>
<feColorMatrix type="matrix" values="0 0 0 0 0 0 0 0 0 0 0 0 0 0 0 0 0 0 0.09 0"/>
<feBlend mode="normal" in2="BackgroundImageFix" result="effect1_dropShadow_34_1556"/>
<feBlend mode="normal" in="SourceGraphic" in2="BackgroundImageFix" result="shape"/>
<feTurbulence type="fractalNoise" baseFrequency="1.1199746131896973 1.1199746131896973" stitchTiles="stitch" numOctaves="3" result="noise" seed="1754" />
<feColorMatrix in="noise" type="luminanceToAlpha" result="alphaNoise" />
<feComponentTransfer in="alphaNoise" result="coloredNoise1">
<feFuncA type="discrete" tableValues="1 1 1 1 1 1 1 1 1 1 1 1 1 1 1 1 1 1 1 1 1 1 1 1 1 1 1 1 1 1 1 1 1 1 1 1 1 1 1 1 1 1 1 1 1 1 1 1 1 1 1 0 0 0 0 0 0 0 0 0 0 0 0 0 0 0 0 0 0 0 0 0 0 0 0 0 0 0 0 0 0 0 0 0 0 0 0 0 0 0 0 0 0 0 0 0 0 0 0 0 "/>
</feComponentTransfer>
<feComposite operator="in" in2="shape" in="coloredNoise1" result="noise1Clipped" />
<feFlood flood-color="rgba(235, 125, 105, 0.31)" result="color1Flood" />
<feComposite operator="in" in2="noise1Clipped" in="color1Flood" result="color1" />
<feMerge result="effect2_noise_34_1556">
<feMergeNode in="shape" />
<feMergeNode in="color1" />
</feMerge>
<feBlend mode="normal" in="effect2_noise_34_1556" in2="effect1_dropShadow_34_1556" result="effect2_noise_34_1556"/>
</filter>
<filter id="filter3_i_34_1556" x="40.8412" y="150.324" width="20.4835" height="27.6968" filterUnits="userSpaceOnUse" color-interpolation-filters="sRGB">
<feFlood flood-opacity="0" result="BackgroundImageFix"/>
<feBlend mode="normal" in="SourceGraphic" in2="BackgroundImageFix" result="shape"/>
<feColorMatrix in="SourceAlpha" type="matrix" values="0 0 0 0 0 0 0 0 0 0 0 0 0 0 0 0 0 0 127 0" result="hardAlpha"/>
<feOffset dy="0.446439"/>
<feGaussianBlur stdDeviation="0.937521"/>
<feComposite in2="hardAlpha" operator="arithmetic" k2="-1" k3="1"/>
<feColorMatrix type="matrix" values="0 0 0 0 0 0 0 0 0 0 0 0 0 0 0 0 0 0 0.1 0"/>
<feBlend mode="normal" in2="shape" result="effect1_innerShadow_34_1556"/>
</filter>
<filter id="filter4_i_34_1556" x="28.6896" y="180.397" width="50.0286" height="27.8958" filterUnits="userSpaceOnUse" color-interpolation-filters="sRGB">
<feFlood flood-opacity="0" result="BackgroundImageFix"/>
<feBlend mode="normal" in="SourceGraphic" in2="BackgroundImageFix" result="shape"/>
<feColorMatrix in="SourceAlpha" type="matrix" values="0 0 0 0 0 0 0 0 0 0 0 0 0 0 0 0 0 0 127 0" result="hardAlpha"/>
<feOffset dy="0.446439"/>
<feGaussianBlur stdDeviation="0.937521"/>
<feComposite in2="hardAlpha" operator="arithmetic" k2="-1" k3="1"/>
<feColorMatrix type="matrix" values="0 0 0 0 0 0 0 0 0 0 0 0 0 0 0 0 0 0 0.1 0"/>
<feBlend mode="normal" in2="shape" result="effect1_innerShadow_34_1556"/>
</filter>
<filter id="filter5_i_34_1556" x="96.1862" y="209.451" width="26.6599" height="16.6802" filterUnits="userSpaceOnUse" color-interpolation-filters="sRGB">
<feFlood flood-opacity="0" result="BackgroundImageFix"/>
<feBlend mode="normal" in="SourceGraphic" in2="BackgroundImageFix" result="shape"/>
<feColorMatrix in="SourceAlpha" type="matrix" values="0 0 0 0 0 0 0 0 0 0 0 0 0 0 0 0 0 0 127 0" result="hardAlpha"/>
<feOffset dy="0.446439"/>
<feGaussianBlur stdDeviation="0.937521"/>
<feComposite in2="hardAlpha" operator="arithmetic" k2="-1" k3="1"/>
<feColorMatrix type="matrix" values="0 0 0 0 0 0 0 0 0 0 0 0 0 0 0 0 0 0 0.1 0"/>
<feBlend mode="normal" in2="shape" result="effect1_innerShadow_34_1556"/>
</filter>
<filter id="filter6_i_34_1556" x="-19.7214" y="153.428" width="19.7062" height="15.898" filterUnits="userSpaceOnUse" color-interpolation-filters="sRGB">
<feFlood flood-opacity="0" result="BackgroundImageFix"/>
<feBlend mode="normal" in="SourceGraphic" in2="BackgroundImageFix" result="shape"/>
<feColorMatrix in="SourceAlpha" type="matrix" values="0 0 0 0 0 0 0 0 0 0 0 0 0 0 0 0 0 0 127 0" result="hardAlpha"/>
<feOffset dy="0.446439"/>
<feGaussianBlur stdDeviation="0.937521"/>
<feComposite in2="hardAlpha" operator="arithmetic" k2="-1" k3="1"/>
<feColorMatrix type="matrix" values="0 0 0 0 0 0 0 0 0 0 0 0 0 0 0 0 0 0 0.1 0"/>
<feBlend mode="normal" in2="shape" result="effect1_innerShadow_34_1556"/>
</filter>
<filter id="filter7_i_34_1556" x="-23.9392" y="188.173" width="58.2823" height="38.1031" filterUnits="userSpaceOnUse" color-interpolation-filters="sRGB">
<feFlood flood-opacity="0" result="BackgroundImageFix"/>
<feBlend mode="normal" in="SourceGraphic" in2="BackgroundImageFix" result="shape"/>
<feColorMatrix in="SourceAlpha" type="matrix" values="0 0 0 0 0 0 0 0 0 0 0 0 0 0 0 0 0 0 127 0" result="hardAlpha"/>
<feOffset dy="0.446439"/>
<feGaussianBlur stdDeviation="0.937521"/>
<feComposite in2="hardAlpha" operator="arithmetic" k2="-1" k3="1"/>
<feColorMatrix type="matrix" values="0 0 0 0 0 0 0 0 0 0 0 0 0 0 0 0 0 0 0.1 0"/>
<feBlend mode="normal" in2="shape" result="effect1_innerShadow_34_1556"/>
</filter>
<filter id="filter8_i_34_1556" x="52.3627" y="239.896" width="18.4282" height="7.8656" filterUnits="userSpaceOnUse" color-interpolation-filters="sRGB">
<feFlood flood-opacity="0" result="BackgroundImageFix"/>
<feBlend mode="normal" in="SourceGraphic" in2="BackgroundImageFix" result="shape"/>
<feColorMatrix in="SourceAlpha" type="matrix" values="0 0 0 0 0 0 0 0 0 0 0 0 0 0 0 0 0 0 127 0" result="hardAlpha"/>
<feOffset dy="0.446439"/>
<feGaussianBlur stdDeviation="0.937521"/>
<feComposite in2="hardAlpha" operator="arithmetic" k2="-1" k3="1"/>
<feColorMatrix type="matrix" values="0 0 0 0 0 0 0 0 0 0 0 0 0 0 0 0 0 0 0.1 0"/>
<feBlend mode="normal" in2="shape" result="effect1_innerShadow_34_1556"/>
</filter>
<filter id="filter9_i_34_1556" x="76.3237" y="246.567" width="16.7101" height="11.1897" filterUnits="userSpaceOnUse" color-interpolation-filters="sRGB">
<feFlood flood-opacity="0" result="BackgroundImageFix"/>
<feBlend mode="normal" in="SourceGraphic" in2="BackgroundImageFix" result="shape"/>
<feColorMatrix in="SourceAlpha" type="matrix" values="0 0 0 0 0 0 0 0 0 0 0 0 0 0 0 0 0 0 127 0" result="hardAlpha"/>
<feOffset dy="0.446439"/>
<feGaussianBlur stdDeviation="0.937521"/>
<feComposite in2="hardAlpha" operator="arithmetic" k2="-1" k3="1"/>
<feColorMatrix type="matrix" values="0 0 0 0 0 0 0 0 0 0 0 0 0 0 0 0 0 0 0.1 0"/>
<feBlend mode="normal" in2="shape" result="effect1_innerShadow_34_1556"/>
</filter>
<filter id="filter10_i_34_1556" x="91.3005" y="253.783" width="18.6115" height="8.92547" filterUnits="userSpaceOnUse" color-interpolation-filters="sRGB">
<feFlood flood-opacity="0" result="BackgroundImageFix"/>
<feBlend mode="normal" in="SourceGraphic" in2="BackgroundImageFix" result="shape"/>
<feColorMatrix in="SourceAlpha" type="matrix" values="0 0 0 0 0 0 0 0 0 0 0 0 0 0 0 0 0 0 127 0" result="hardAlpha"/>
<feOffset dy="0.446439"/>
<feGaussianBlur stdDeviation="0.937521"/>
<feComposite in2="hardAlpha" operator="arithmetic" k2="-1" k3="1"/>
<feColorMatrix type="matrix" values="0 0 0 0 0 0 0 0 0 0 0 0 0 0 0 0 0 0 0.1 0"/>
<feBlend mode="normal" in2="shape" result="effect1_innerShadow_34_1556"/>
</filter>
<filter id="filter11_i_34_1556" x="125.195" y="250.67" width="22.9569" height="5.62088" filterUnits="userSpaceOnUse" color-interpolation-filters="sRGB">
<feFlood flood-opacity="0" result="BackgroundImageFix"/>
<feBlend mode="normal" in="SourceGraphic" in2="BackgroundImageFix" result="shape"/>
<feColorMatrix in="SourceAlpha" type="matrix" values="0 0 0 0 0 0 0 0 0 0 0 0 0 0 0 0 0 0 127 0" result="hardAlpha"/>
<feOffset dy="0.446439"/>
<feGaussianBlur stdDeviation="0.937521"/>
<feComposite in2="hardAlpha" operator="arithmetic" k2="-1" k3="1"/>
<feColorMatrix type="matrix" values="0 0 0 0 0 0 0 0 0 0 0 0 0 0 0 0 0 0 0.1 0"/>
<feBlend mode="normal" in2="shape" result="effect1_innerShadow_34_1556"/>
</filter>
<filter id="filter12_d_34_1556" x="19.6804" y="147.683" width="15.7852" height="9.2429" filterUnits="userSpaceOnUse" color-interpolation-filters="sRGB">
<feFlood flood-opacity="0" result="BackgroundImageFix"/>
<feColorMatrix in="SourceAlpha" type="matrix" values="0 0 0 0 0 0 0 0 0 0 0 0 0 0 0 0 0 0 127 0" result="hardAlpha"/>
<feOffset/>
<feGaussianBlur stdDeviation="0.468761"/>
<feComposite in2="hardAlpha" operator="out"/>
<feColorMatrix type="matrix" values="0 0 0 0 0.243137 0 0 0 0 0.2 0 0 0 0 0.682353 0 0 0 1 0"/>
<feBlend mode="normal" in2="BackgroundImageFix" result="effect1_dropShadow_34_1556"/>
<feBlend mode="normal" in="SourceGraphic" in2="effect1_dropShadow_34_1556" result="shape"/>
</filter>
<filter id="filter13_d_34_1556" x="91.5289" y="208.86" width="17.1405" height="11.5989" filterUnits="userSpaceOnUse" color-interpolation-filters="sRGB">
<feFlood flood-opacity="0" result="BackgroundImageFix"/>
<feColorMatrix in="SourceAlpha" type="matrix" values="0 0 0 0 0 0 0 0 0 0 0 0 0 0 0 0 0 0 127 0" result="hardAlpha"/>
<feOffset/>
<feGaussianBlur stdDeviation="0.468761"/>
<feComposite in2="hardAlpha" operator="out"/>
<feColorMatrix type="matrix" values="0 0 0 0 0.243137 0 0 0 0 0.2 0 0 0 0 0.682353 0 0 0 1 0"/>
<feBlend mode="normal" in2="BackgroundImageFix" result="effect1_dropShadow_34_1556"/>
<feBlend mode="normal" in="SourceGraphic" in2="effect1_dropShadow_34_1556" result="shape"/>
</filter>
<filter id="filter14_d_34_1556" x="12.5598" y="183.571" width="17.6468" height="8.86073" filterUnits="userSpaceOnUse" color-interpolation-filters="sRGB">
<feFlood flood-opacity="0" result="BackgroundImageFix"/>
<feColorMatrix in="SourceAlpha" type="matrix" values="0 0 0 0 0 0 0 0 0 0 0 0 0 0 0 0 0 0 127 0" result="hardAlpha"/>
<feOffset/>
<feGaussianBlur stdDeviation="0.468761"/>
<feComposite in2="hardAlpha" operator="out"/>
<feColorMatrix type="matrix" values="0 0 0 0 0.243137 0 0 0 0 0.2 0 0 0 0 0.682353 0 0 0 1 0"/>
<feBlend mode="normal" in2="BackgroundImageFix" result="effect1_dropShadow_34_1556"/>
<feBlend mode="normal" in="SourceGraphic" in2="effect1_dropShadow_34_1556" result="shape"/>
</filter>
<filter id="filter15_d_34_1556" x="79.5117" y="158.974" width="14.5245" height="8.02198" filterUnits="userSpaceOnUse" color-interpolation-filters="sRGB">
<feFlood flood-opacity="0" result="BackgroundImageFix"/>
<feColorMatrix in="SourceAlpha" type="matrix" values="0 0 0 0 0 0 0 0 0 0 0 0 0 0 0 0 0 0 127 0" result="hardAlpha"/>
<feOffset/>
<feGaussianBlur stdDeviation="0.468761"/>
<feComposite in2="hardAlpha" operator="out"/>
<feColorMatrix type="matrix" values="0 0 0 0 0.243137 0 0 0 0 0.2 0 0 0 0 0.682353 0 0 0 1 0"/>
<feBlend mode="normal" in2="BackgroundImageFix" result="effect1_dropShadow_34_1556"/>
<feBlend mode="normal" in="SourceGraphic" in2="effect1_dropShadow_34_1556" result="shape"/>
</filter>
<filter id="filter16_d_34_1556" x="117.669" y="223.667" width="18.7536" height="11.6174" filterUnits="userSpaceOnUse" color-interpolation-filters="sRGB">
<feFlood flood-opacity="0" result="BackgroundImageFix"/>
<feColorMatrix in="SourceAlpha" type="matrix" values="0 0 0 0 0 0 0 0 0 0 0 0 0 0 0 0 0 0 127 0" result="hardAlpha"/>
<feOffset/>
<feGaussianBlur stdDeviation="0.468761"/>
<feComposite in2="hardAlpha" operator="out"/>
<feColorMatrix type="matrix" values="0 0 0 0 0.243137 0 0 0 0 0.2 0 0 0 0 0.682353 0 0 0 1 0"/>
<feBlend mode="normal" in2="BackgroundImageFix" result="effect1_dropShadow_34_1556"/>
<feBlend mode="normal" in="SourceGraphic" in2="effect1_dropShadow_34_1556" result="shape"/>
</filter>
<filter id="filter17_d_34_1556" x="10.6985" y="219.045" width="13.4305" height="9.64497" filterUnits="userSpaceOnUse" color-interpolation-filters="sRGB">
<feFlood flood-opacity="0" result="BackgroundImageFix"/>
<feColorMatrix in="SourceAlpha" type="matrix" values="0 0 0 0 0 0 0 0 0 0 0 0 0 0 0 0 0 0 127 0" result="hardAlpha"/>
<feOffset/>
<feGaussianBlur stdDeviation="0.468761"/>
<feComposite in2="hardAlpha" operator="out"/>
<feColorMatrix type="matrix" values="0 0 0 0 0.243137 0 0 0 0 0.2 0 0 0 0 0.682353 0 0 0 1 0"/>
<feBlend mode="normal" in2="BackgroundImageFix" result="effect1_dropShadow_34_1556"/>
<feBlend mode="normal" in="SourceGraphic" in2="effect1_dropShadow_34_1556" result="shape"/>
</filter>
<filter id="filter18_d_34_1556" x="130.69" y="258.886" width="11.9421" height="12.4197" filterUnits="userSpaceOnUse" color-interpolation-filters="sRGB">
<feFlood flood-opacity="0" result="BackgroundImageFix"/>
<feColorMatrix in="SourceAlpha" type="matrix" values="0 0 0 0 0 0 0 0 0 0 0 0 0 0 0 0 0 0 127 0" result="hardAlpha"/>
<feOffset/>
<feGaussianBlur stdDeviation="0.468761"/>
<feComposite in2="hardAlpha" operator="out"/>
<feColorMatrix type="matrix" values="0 0 0 0 0.243137 0 0 0 0 0.2 0 0 0 0 0.682353 0 0 0 1 0"/>
<feBlend mode="normal" in2="BackgroundImageFix" result="effect1_dropShadow_34_1556"/>
<feBlend mode="normal" in="SourceGraphic" in2="effect1_dropShadow_34_1556" result="shape"/>
</filter>
<filter id="filter19_g_34_1556" x="955.813" y="89.6143" width="164.486" height="89.8857" filterUnits="userSpaceOnUse" color-interpolation-filters="sRGB">
<feFlood flood-opacity="0" result="BackgroundImageFix"/>
<feBlend mode="normal" in="SourceGraphic" in2="BackgroundImageFix" result="shape"/>
<feTurbulence type="fractalNoise" baseFrequency="0.99900001287460327 0.99900001287460327" numOctaves="3" seed="980" />
<feDisplacementMap in="shape" scale="3.4476337432861328" xChannelSelector="R" yChannelSelector="G" result="displacedImage" width="100%" height="100%" />
<feMerge result="effect1_texture_34_1556">
<feMergeNode in="displacedImage"/>
</feMerge>
</filter>
<filter id="filter20_n_34_1556" x="959.955" y="70.8689" width="170.159" height="93.7181" filterUnits="userSpaceOnUse" color-interpolation-filters="sRGB">
<feFlood flood-opacity="0" result="BackgroundImageFix"/>
<feBlend mode="normal" in="SourceGraphic" in2="BackgroundImageFix" result="shape"/>
<feTurbulence type="fractalNoise" baseFrequency="0.89247393608093262 0.89247393608093262" stitchTiles="stitch" numOctaves="3" result="noise" seed="2137" />
<feComponentTransfer in="noise" result="coloredNoise1">
<feFuncR type="linear" slope="2" intercept="-0.5" />
<feFuncG type="linear" slope="2" intercept="-0.5" />
<feFuncB type="linear" slope="2" intercept="-0.5" />
<feFuncA type="discrete" tableValues="1 1 1 1 1 1 1 1 1 1 1 1 1 1 1 1 1 1 1 1 1 1 1 1 1 1 1 1 1 1 1 1 1 1 1 1 1 1 1 1 1 1 1 1 1 1 1 1 1 1 1 0 0 0 0 0 0 0 0 0 0 0 0 0 0 0 0 0 0 0 0 0 0 0 0 0 0 0 0 0 0 0 0 0 0 0 0 0 0 0 0 0 0 0 0 0 0 0 0 0 "/>
</feComponentTransfer>
<feComposite operator="in" in2="shape" in="coloredNoise1" result="noise1Clipped" />
<feComponentTransfer in="noise1Clipped" result="color1">
<feFuncA type="table" tableValues="0 0.15" />
</feComponentTransfer>
<feMerge result="effect1_noise_34_1556">
<feMergeNode in="shape" />
<feMergeNode in="color1" />
</feMerge>
</filter>
<filter id="filter21_n_34_1556" x="961.153" y="77.7113" width="166.243" height="78.0451" filterUnits="userSpaceOnUse" color-interpolation-filters="sRGB">
<feFlood flood-opacity="0" result="BackgroundImageFix"/>
<feBlend mode="normal" in="SourceGraphic" in2="BackgroundImageFix" result="shape"/>
<feTurbulence type="fractalNoise" baseFrequency="1.1602160930633545 1.1602160930633545" stitchTiles="stitch" numOctaves="3" result="noise" seed="113" />
<feComponentTransfer in="noise" result="coloredNoise1">
<feFuncR type="linear" slope="2" intercept="-0.5" />
<feFuncG type="linear" slope="2" intercept="-0.5" />
<feFuncB type="linear" slope="2" intercept="-0.5" />
<feFuncA type="discrete" tableValues="1 1 1 1 1 1 1 1 1 1 1 1 1 1 1 1 1 1 1 1 1 1 1 1 1 1 1 1 1 1 1 1 1 1 1 1 1 1 1 1 1 1 1 1 1 1 1 1 1 1 1 0 0 0 0 0 0 0 0 0 0 0 0 0 0 0 0 0 0 0 0 0 0 0 0 0 0 0 0 0 0 0 0 0 0 0 0 0 0 0 0 0 0 0 0 0 0 0 0 0 "/>
</feComponentTransfer>
<feComposite operator="in" in2="shape" in="coloredNoise1" result="noise1Clipped" />
<feComponentTransfer in="noise1Clipped" result="color1">
<feFuncA type="table" tableValues="0 0.15" />
</feComponentTransfer>
<feMerge result="effect1_noise_34_1556">
<feMergeNode in="shape" />
<feMergeNode in="color1" />
</feMerge>
</filter>
<filter id="filter22_n_34_1556" x="98.8076" y="296.055" width="150.608" height="125.913" filterUnits="userSpaceOnUse" color-interpolation-filters="sRGB">
<feFlood flood-opacity="0" result="BackgroundImageFix"/>
<feBlend mode="normal" in="SourceGraphic" in2="BackgroundImageFix" result="shape"/>
<feTurbulence type="fractalNoise" baseFrequency="0.75603914260864258 0.75603914260864258" stitchTiles="stitch" numOctaves="3" result="noise" seed="8082" />
<feComponentTransfer in="noise" result="coloredNoise1">
<feFuncR type="linear" slope="2" intercept="-0.5" />
<feFuncG type="linear" slope="2" intercept="-0.5" />
<feFuncB type="linear" slope="2" intercept="-0.5" />
<feFuncA type="discrete" tableValues="1 1 1 1 1 1 1 1 1 1 1 1 1 1 1 1 1 1 1 1 1 1 1 1 1 1 1 1 1 1 1 1 1 1 1 1 1 1 1 1 1 1 1 1 1 1 1 1 1 1 1 0 0 0 0 0 0 0 0 0 0 0 0 0 0 0 0 0 0 0 0 0 0 0 0 0 0 0 0 0 0 0 0 0 0 0 0 0 0 0 0 0 0 0 0 0 0 0 0 0 "/>
</feComponentTransfer>
<feComposite operator="in" in2="shape" in="coloredNoise1" result="noise1Clipped" />
<feComponentTransfer in="noise1Clipped" result="color1">
<feFuncA type="table" tableValues="0 0.15" />
</feComponentTransfer>
<feMerge result="effect1_noise_34_1556">
<feMergeNode in="shape" />
<feMergeNode in="color1" />
</feMerge>
</filter>
<filter id="filter23_n_34_1556" x="89.4211" y="286.306" width="177.058" height="137.425" filterUnits="userSpaceOnUse" color-interpolation-filters="sRGB">
<feFlood flood-opacity="0" result="BackgroundImageFix"/>
<feBlend mode="normal" in="SourceGraphic" in2="BackgroundImageFix" result="shape"/>
<feTurbulence type="fractalNoise" baseFrequency="0.75603914260864258 0.75603914260864258" stitchTiles="stitch" numOctaves="3" result="noise" seed="5315" />
<feComponentTransfer in="noise" result="coloredNoise1">
<feFuncR type="linear" slope="2" intercept="-0.5" />
<feFuncG type="linear" slope="2" intercept="-0.5" />
<feFuncB type="linear" slope="2" intercept="-0.5" />
<feFuncA type="discrete" tableValues="1 1 1 1 1 1 1 1 1 1 1 1 1 1 1 1 1 1 1 1 1 1 1 1 1 1 1 1 1 1 1 1 1 1 1 1 1 1 1 1 1 1 1 1 1 1 1 1 1 1 1 0 0 0 0 0 0 0 0 0 0 0 0 0 0 0 0 0 0 0 0 0 0 0 0 0 0 0 0 0 0 0 0 0 0 0 0 0 0 0 0 0 0 0 0 0 0 0 0 0 "/>
</feComponentTransfer>
<feComposite operator="in" in2="shape" in="coloredNoise1" result="noise1Clipped" />
<feComponentTransfer in="noise1Clipped" result="color1">
<feFuncA type="table" tableValues="0 0.15" />
</feComponentTransfer>
<feMerge result="effect1_noise_34_1556">
<feMergeNode in="shape" />
<feMergeNode in="color1" />
</feMerge>
</filter>
<filter id="filter24_dn_34_1556" x="117.482" y="324.855" width="170.426" height="140.436" filterUnits="userSpaceOnUse" color-interpolation-filters="sRGB">
<feFlood flood-opacity="0" result="BackgroundImageFix"/>
<feColorMatrix in="SourceAlpha" type="matrix" values="0 0 0 0 0 0 0 0 0 0 0 0 0 0 0 0 0 0 127 0" result="hardAlpha"/>
<feOffset dy="2.64537"/>
<feGaussianBlur stdDeviation="1.32268"/>
<feComposite in2="hardAlpha" operator="out"/>
<feColorMatrix type="matrix" values="0 0 0 0 0 0 0 0 0 0 0 0 0 0 0 0 0 0 0.25 0"/>
<feBlend mode="normal" in2="BackgroundImageFix" result="effect1_dropShadow_34_1556"/>
<feBlend mode="normal" in="SourceGraphic" in2="BackgroundImageFix" result="shape"/>
<feTurbulence type="fractalNoise" baseFrequency="0.75603914260864258 0.75603914260864258" stitchTiles="stitch" numOctaves="3" result="noise" seed="4596" />
<feComponentTransfer in="noise" result="coloredNoise1">
<feFuncR type="linear" slope="2" intercept="-0.5" />
<feFuncG type="linear" slope="2" intercept="-0.5" />
<feFuncB type="linear" slope="2" intercept="-0.5" />
<feFuncA type="discrete" tableValues="1 1 1 1 1 1 1 1 1 1 1 1 1 1 1 1 1 1 1 1 1 1 1 1 1 1 1 1 1 1 1 1 1 1 1 1 1 1 1 1 1 1 1 1 1 1 1 1 1 1 1 0 0 0 0 0 0 0 0 0 0 0 0 0 0 0 0 0 0 0 0 0 0 0 0 0 0 0 0 0 0 0 0 0 0 0 0 0 0 0 0 0 0 0 0 0 0 0 0 0 "/>
</feComponentTransfer>
<feComposite operator="in" in2="shape" in="coloredNoise1" result="noise1Clipped" />
<feComponentTransfer in="noise1Clipped" result="color1">
<feFuncA type="table" tableValues="0 0.15" />
</feComponentTransfer>
<feMerge result="effect2_noise_34_1556">
<feMergeNode in="shape" />
<feMergeNode in="color1" />
</feMerge>
<feBlend mode="normal" in="effect2_noise_34_1556" in2="effect1_dropShadow_34_1556" result="effect2_noise_34_1556"/>
</filter>
<filter id="filter25_gn_34_1556" x="876.187" y="252.733" width="124.666" height="136.37" filterUnits="userSpaceOnUse" color-interpolation-filters="sRGB">
<feFlood flood-opacity="0" result="BackgroundImageFix"/>
<feBlend mode="normal" in="SourceGraphic" in2="BackgroundImageFix" result="shape"/>
<feTurbulence type="fractalNoise" baseFrequency="0.92249023914337158 0.92249023914337158" numOctaves="3" seed="8773" />
<feDisplacementMap in="shape" scale="4.3360891342163086" xChannelSelector="R" yChannelSelector="G" result="displacedImage" width="100%" height="100%" />
<feMerge result="effect1_texture_34_1556">
<feMergeNode in="displacedImage"/>
</feMerge>
<feTurbulence type="fractalNoise" baseFrequency="1.8449804782867432 1.8449804782867432" stitchTiles="stitch" numOctaves="3" result="noise" seed="6685" />
<feColorMatrix in="noise" type="luminanceToAlpha" result="alphaNoise" />
<feComponentTransfer in="alphaNoise" result="coloredNoise1">
<feFuncA type="discrete" tableValues="1 1 1 1 1 1 1 1 1 1 1 1 1 1 1 1 1 1 1 1 1 1 1 1 1 1 1 1 1 1 1 1 1 1 1 1 1 1 1 1 1 1 1 1 1 1 1 1 1 1 1 0 0 0 0 0 0 0 0 0 0 0 0 0 0 0 0 0 0 0 0 0 0 0 0 0 0 0 0 0 0 0 0 0 0 0 0 0 0 0 0 0 0 0 0 0 0 0 0 0 "/>
</feComponentTransfer>
<feComposite operator="in" in2="effect1_texture_34_1556" in="coloredNoise1" result="noise1Clipped" />
<feFlood flood-color="rgba(0, 0, 0, 0.25)" result="color1Flood" />
<feComposite operator="in" in2="noise1Clipped" in="color1Flood" result="color1" />
<feMerge result="effect2_noise_34_1556">
<feMergeNode in="effect1_texture_34_1556" />
<feMergeNode in="color1" />
</feMerge>
</filter>
<filter id="filter26_dn_34_1556" x="869.801" y="244.471" width="149.637" height="181.275" filterUnits="userSpaceOnUse" color-interpolation-filters="sRGB">
<feFlood flood-opacity="0" result="BackgroundImageFix"/>
<feColorMatrix in="SourceAlpha" type="matrix" values="0 0 0 0 0 0 0 0 0 0 0 0 0 0 0 0 0 0 127 0" result="hardAlpha"/>
<feOffset dy="2.16804"/>
<feGaussianBlur stdDeviation="1.08402"/>
<feComposite in2="hardAlpha" operator="out"/>
<feColorMatrix type="matrix" values="0 0 0 0 0 0 0 0 0 0 0 0 0 0 0 0 0 0 0.25 0"/>
<feBlend mode="normal" in2="BackgroundImageFix" result="effect1_dropShadow_34_1556"/>
<feBlend mode="normal" in="SourceGraphic" in2="BackgroundImageFix" result="shape"/>
<feTurbulence type="fractalNoise" baseFrequency="3.6899609565734863 3.6899609565734863" stitchTiles="stitch" numOctaves="3" result="noise" seed="8622" />
<feComponentTransfer in="noise" result="coloredNoise1">
<feFuncR type="linear" slope="2" intercept="-0.5" />
<feFuncG type="linear" slope="2" intercept="-0.5" />
<feFuncB type="linear" slope="2" intercept="-0.5" />
<feFuncA type="discrete" tableValues="1 1 1 1 1 1 1 1 1 1 1 1 1 1 1 1 1 1 1 1 1 1 1 1 1 1 1 1 1 1 1 1 1 1 1 1 1 1 1 1 1 1 1 1 1 1 1 1 1 1 1 0 0 0 0 0 0 0 0 0 0 0 0 0 0 0 0 0 0 0 0 0 0 0 0 0 0 0 0 0 0 0 0 0 0 0 0 0 0 0 0 0 0 0 0 0 0 0 0 0 "/>
</feComponentTransfer>
<feComposite operator="in" in2="shape" in="coloredNoise1" result="noise1Clipped" />
<feComponentTransfer in="noise1Clipped" result="color1">
<feFuncA type="table" tableValues="0 0.15" />
</feComponentTransfer>
<feMerge result="effect2_noise_34_1556">
<feMergeNode in="shape" />
<feMergeNode in="color1" />
</feMerge>
<feBlend mode="normal" in="effect2_noise_34_1556" in2="effect1_dropShadow_34_1556" result="effect2_noise_34_1556"/>
</filter>
<filter id="filter27_d_34_1556" x="173.219" y="52.0612" width="58.1717" height="34.4078" filterUnits="userSpaceOnUse" color-interpolation-filters="sRGB">
<feFlood flood-opacity="0" result="BackgroundImageFix"/>
<feColorMatrix in="SourceAlpha" type="matrix" values="0 0 0 0 0 0 0 0 0 0 0 0 0 0 0 0 0 0 127 0" result="hardAlpha"/>
<feOffset dy="1.71983"/>
<feGaussianBlur stdDeviation="0.859914"/>
<feComposite in2="hardAlpha" operator="out"/>
<feColorMatrix type="matrix" values="0 0 0 0 0 0 0 0 0 0 0 0 0 0 0 0 0 0 0.25 0"/>
<feBlend mode="normal" in2="BackgroundImageFix" result="effect1_dropShadow_34_1556"/>
<feBlend mode="normal" in="SourceGraphic" in2="effect1_dropShadow_34_1556" result="shape"/>
</filter>
<filter id="filter28_g_34_1556" x="190.321" y="10.4789" width="25.2246" height="37.6978" filterUnits="userSpaceOnUse" color-interpolation-filters="sRGB">
<feFlood flood-opacity="0" result="BackgroundImageFix"/>
<feBlend mode="normal" in="SourceGraphic" in2="BackgroundImageFix" result="shape"/>
<feTurbulence type="fractalNoise" baseFrequency="0.23258134722709656 0.23258134722709656" numOctaves="3" seed="4191" />
<feDisplacementMap in="shape" scale="3.4396567344665527" xChannelSelector="R" yChannelSelector="G" result="displacedImage" width="100%" height="100%" />
<feMerge result="effect1_texture_34_1556">
<feMergeNode in="displacedImage"/>
</feMerge>
</filter>
<filter id="filter29_g_34_1556" x="205.15" y="20.279" width="23.1611" height="31.9309" filterUnits="userSpaceOnUse" color-interpolation-filters="sRGB">
<feFlood flood-opacity="0" result="BackgroundImageFix"/>
<feBlend mode="normal" in="SourceGraphic" in2="BackgroundImageFix" result="shape"/>
<feTurbulence type="fractalNoise" baseFrequency="0.23258134722709656 0.23258134722709656" numOctaves="3" seed="4191" />
<feDisplacementMap in="shape" scale="3.4396567344665527" xChannelSelector="R" yChannelSelector="G" result="displacedImage" width="100%" height="100%" />
<feMerge result="effect1_texture_34_1556">
<feMergeNode in="displacedImage"/>
</feMerge>
</filter>
<filter id="filter30_dn_34_1556" x="826.516" y="148.035" width="83.3051" height="57.9624" filterUnits="userSpaceOnUse" color-interpolation-filters="sRGB">
<feFlood flood-opacity="0" result="BackgroundImageFix"/>
<feColorMatrix in="SourceAlpha" type="matrix" values="0 0 0 0 0 0 0 0 0 0 0 0 0 0 0 0 0 0 127 0" result="hardAlpha"/>
<feOffset dy="1.18158"/>
<feGaussianBlur stdDeviation="0.59079"/>
<feComposite in2="hardAlpha" operator="out"/>
<feColorMatrix type="matrix" values="0 0 0 0 0 0 0 0 0 0 0 0 0 0 0 0 0 0 0.25 0"/>
<feBlend mode="normal" in2="BackgroundImageFix" result="effect1_dropShadow_34_1556"/>
<feBlend mode="normal" in="SourceGraphic" in2="BackgroundImageFix" result="shape"/>
<feTurbulence type="fractalNoise" baseFrequency="6.7705965042114258 6.7705965042114258" stitchTiles="stitch" numOctaves="3" result="noise" seed="5842" />
<feColorMatrix in="noise" type="luminanceToAlpha" result="alphaNoise" />
<feComponentTransfer in="alphaNoise" result="coloredNoise1">
<feFuncA type="discrete" tableValues="1 1 1 1 1 1 1 1 1 1 1 1 1 1 1 1 1 1 1 1 1 1 1 1 1 1 1 1 1 1 1 1 1 1 1 1 1 1 1 1 1 1 1 1 1 1 1 1 1 1 1 0 0 0 0 0 0 0 0 0 0 0 0 0 0 0 0 0 0 0 0 0 0 0 0 0 0 0 0 0 0 0 0 0 0 0 0 0 0 0 0 0 0 0 0 0 0 0 0 0 "/>
</feComponentTransfer>
<feComposite operator="in" in2="shape" in="coloredNoise1" result="noise1Clipped" />
<feFlood flood-color="rgba(0, 0, 0, 0.25)" result="color1Flood" />
<feComposite operator="in" in2="noise1Clipped" in="color1Flood" result="color1" />
<feMerge result="effect2_noise_34_1556">
<feMergeNode in="shape" />
<feMergeNode in="color1" />
</feMerge>
<feBlend mode="normal" in="effect2_noise_34_1556" in2="effect1_dropShadow_34_1556" result="effect2_noise_34_1556"/>
</filter>
<filter id="filter31_n_34_1556" x="833.166" y="152.478" width="72.5344" height="51.156" filterUnits="userSpaceOnUse" color-interpolation-filters="sRGB">
<feFlood flood-opacity="0" result="BackgroundImageFix"/>
<feBlend mode="normal" in="SourceGraphic" in2="BackgroundImageFix" result="shape"/>
<feTurbulence type="fractalNoise" baseFrequency="3.3852982521057129 3.3852982521057129" stitchTiles="stitch" numOctaves="3" result="noise" seed="44" />
<feColorMatrix in="noise" type="luminanceToAlpha" result="alphaNoise" />
<feComponentTransfer in="alphaNoise" result="coloredNoise1">
<feFuncA type="discrete" tableValues="1 1 1 1 1 1 1 1 1 1 1 1 1 1 1 1 1 1 1 1 1 1 1 1 1 1 1 1 1 1 1 1 1 1 1 1 1 1 1 1 1 1 1 1 1 1 1 1 1 1 1 0 0 0 0 0 0 0 0 0 0 0 0 0 0 0 0 0 0 0 0 0 0 0 0 0 0 0 0 0 0 0 0 0 0 0 0 0 0 0 0 0 0 0 0 0 0 0 0 0 "/>
</feComponentTransfer>
<feComposite operator="in" in2="shape" in="coloredNoise1" result="noise1Clipped" />
<feFlood flood-color="rgba(0, 0, 0, 0.25)" result="color1Flood" />
<feComposite operator="in" in2="noise1Clipped" in="color1Flood" result="color1" />
<feMerge result="effect1_noise_34_1556">
<feMergeNode in="shape" />
<feMergeNode in="color1" />
</feMerge>
</filter>
<filter id="filter32_d_34_1556" x="816.076" y="125.426" width="91.4823" height="60.1754" filterUnits="userSpaceOnUse" color-interpolation-filters="sRGB">
<feFlood flood-opacity="0" result="BackgroundImageFix"/>
<feColorMatrix in="SourceAlpha" type="matrix" values="0 0 0 0 0 0 0 0 0 0 0 0 0 0 0 0 0 0 127 0" result="hardAlpha"/>
<feOffset dy="1.18158"/>
<feGaussianBlur stdDeviation="0.59079"/>
<feComposite in2="hardAlpha" operator="out"/>
<feColorMatrix type="matrix" values="0 0 0 0 0 0 0 0 0 0 0 0 0 0 0 0 0 0 0.25 0"/>
<feBlend mode="normal" in2="BackgroundImageFix" result="effect1_dropShadow_34_1556"/>
<feBlend mode="normal" in="SourceGraphic" in2="effect1_dropShadow_34_1556" result="shape"/>
</filter>
<filter id="filter33_dn_34_1556" x="822.651" y="133.833" width="75.8219" height="45.8473" filterUnits="userSpaceOnUse" color-interpolation-filters="sRGB">
<feFlood flood-opacity="0" result="BackgroundImageFix"/>
<feColorMatrix in="SourceAlpha" type="matrix" values="0 0 0 0 0 0 0 0 0 0 0 0 0 0 0 0 0 0 127 0" result="hardAlpha"/>
<feOffset dy="1.18158"/>
<feGaussianBlur stdDeviation="0.59079"/>
<feComposite in2="hardAlpha" operator="out"/>
<feColorMatrix type="matrix" values="0 0 0 0 0 0 0 0 0 0 0 0 0 0 0 0 0 0 0.25 0"/>
<feBlend mode="normal" in2="BackgroundImageFix" result="effect1_dropShadow_34_1556"/>
<feBlend mode="normal" in="SourceGraphic" in2="BackgroundImageFix" result="shape"/>
<feTurbulence type="fractalNoise" baseFrequency="3.3852982521057129 3.3852982521057129" stitchTiles="stitch" numOctaves="3" result="noise" seed="2639" />
<feComponentTransfer in="noise" result="coloredNoise1">
<feFuncR type="linear" slope="2" intercept="-0.5" />
<feFuncG type="linear" slope="2" intercept="-0.5" />
<feFuncB type="linear" slope="2" intercept="-0.5" />
<feFuncA type="discrete" tableValues="1 1 1 1 1 1 1 1 1 1 1 1 1 1 1 1 1 1 1 1 1 1 1 1 1 1 1 1 1 1 1 1 1 1 1 1 1 1 1 1 1 1 1 1 1 1 1 1 1 1 1 0 0 0 0 0 0 0 0 0 0 0 0 0 0 0 0 0 0 0 0 0 0 0 0 0 0 0 0 0 0 0 0 0 0 0 0 0 0 0 0 0 0 0 0 0 0 0 0 0 "/>
</feComponentTransfer>
<feComposite operator="in" in2="shape" in="coloredNoise1" result="noise1Clipped" />
<feComponentTransfer in="noise1Clipped" result="color1">
<feFuncA type="table" tableValues="0 0.15" />
</feComponentTransfer>
<feMerge result="effect2_noise_34_1556">
<feMergeNode in="shape" />
<feMergeNode in="color1" />
</feMerge>
<feBlend mode="normal" in="effect2_noise_34_1556" in2="effect1_dropShadow_34_1556" result="effect2_noise_34_1556"/>
</filter>
<filter id="filter34_f_34_1556" x="826.004" y="146.122" width="18.4301" height="31.0247" filterUnits="userSpaceOnUse" color-interpolation-filters="sRGB">
<feFlood flood-opacity="0" result="BackgroundImageFix"/>
<feBlend mode="normal" in="SourceGraphic" in2="BackgroundImageFix" result="shape"/>
<feGaussianBlur stdDeviation="0.59079" result="effect1_foregroundBlur_34_1556"/>
</filter>
<filter id="filter35_g_34_1556" x="827.023" y="92.8789" width="17.5219" height="40.043" filterUnits="userSpaceOnUse" color-interpolation-filters="sRGB">
<feFlood flood-opacity="0" result="BackgroundImageFix"/>
<feBlend mode="normal" in="SourceGraphic" in2="BackgroundImageFix" result="shape"/>
<feTurbulence type="fractalNoise" baseFrequency="0.33852982521057129 0.33852982521057129" numOctaves="3" seed="4191" />
<feDisplacementMap in="shape" scale="2.3631596565246582" xChannelSelector="R" yChannelSelector="G" result="displacedImage" width="100%" height="100%" />
<feMerge result="effect1_texture_34_1556">
<feMergeNode in="displacedImage"/>
</feMerge>
</filter>
<filter id="filter36_g_34_1556" x="841.932" y="104.126" width="13.6234" height="23.731" filterUnits="userSpaceOnUse" color-interpolation-filters="sRGB">
<feFlood flood-opacity="0" result="BackgroundImageFix"/>
<feBlend mode="normal" in="SourceGraphic" in2="BackgroundImageFix" result="shape"/>
<feTurbulence type="fractalNoise" baseFrequency="0.33852982521057129 0.33852982521057129" numOctaves="3" seed="4191" />
<feDisplacementMap in="shape" scale="2.3631596565246582" xChannelSelector="R" yChannelSelector="G" result="displacedImage" width="100%" height="100%" />
<feMerge result="effect1_texture_34_1556">
<feMergeNode in="displacedImage"/>
</feMerge>
</filter>
<linearGradient id="paint0_linear_34_1556" x1="32.6981" y1="258.229" x2="83.8312" y2="129.228" gradientUnits="userSpaceOnUse">
<stop offset="0.197115" stop-color="#F4905A"/>
<stop offset="1" stop-color="#D54D8C"/>
</linearGradient>
<radialGradient id="paint1_radial_34_1556" cx="0" cy="0" r="1" gradientUnits="userSpaceOnUse" gradientTransform="translate(51.178 178.731) rotate(53.0667) scale(180.761 403.605)">
<stop stop-color="#F6BD55"/>
<stop offset="1" stop-color="#F4905A"/>
</radialGradient>
<linearGradient id="paint2_linear_34_1556" x1="967.996" y1="60.5016" x2="1045.78" y2="147.893" gradientUnits="userSpaceOnUse">
<stop stop-color="#DB741A"/>
<stop offset="1" stop-color="#C8640C"/>
</linearGradient>
<linearGradient id="paint3_linear_34_1556" x1="1144.61" y1="122.834" x2="1037.14" y2="141.973" gradientUnits="userSpaceOnUse">
<stop stop-color="#DB741A"/>
<stop offset="1" stop-color="#C8640C"/>
</linearGradient>
<linearGradient id="paint4_linear_34_1556" x1="1005.04" y1="127.567" x2="990.604" y2="140.417" gradientUnits="userSpaceOnUse">
<stop stop-color="#C8640C"/>
<stop offset="1" stop-color="#DB741A"/>
</linearGradient>
<linearGradient id="paint5_linear_34_1556" x1="1071.9" y1="146.984" x2="1075.92" y2="169.595" gradientUnits="userSpaceOnUse">
<stop stop-color="#C8640C"/>
<stop offset="1" stop-color="#DB741A"/>
</linearGradient>
<linearGradient id="paint6_linear_34_1556" x1="1147.37" y1="150.671" x2="936.742" y2="43.1462" gradientUnits="userSpaceOnUse">
<stop stop-color="#E2C27E"/>
<stop offset="1" stop-color="#FFA556"/>
</linearGradient>
<linearGradient id="paint7_linear_34_1556" x1="1053.18" y1="94.6953" x2="1020.75" y2="158.223" gradientUnits="userSpaceOnUse">
<stop stop-color="#6BD88C"/>
<stop offset="1" stop-color="#EDE86C"/>
</linearGradient>
<radialGradient id="paint8_radial_34_1556" cx="0" cy="0" r="1" gradientUnits="userSpaceOnUse" gradientTransform="translate(1014.44 134.507) rotate(16.4951) scale(104.401 34.2939)">
<stop stop-color="#DB4687"/>
<stop offset="1" stop-color="#E51818"/>
</radialGradient>
<linearGradient id="paint9_linear_34_1556" x1="162.115" y1="335.452" x2="190.027" y2="379.47" gradientUnits="userSpaceOnUse">
<stop stop-color="#E2C27E"/>
<stop offset="1" stop-color="#FFA556"/>
</linearGradient>
<linearGradient id="paint10_linear_34_1556" x1="210.426" y1="389.76" x2="192.671" y2="357.616" gradientUnits="userSpaceOnUse">
<stop stop-color="#A81C1C"/>
<stop offset="1" stop-color="#DD3737"/>
</linearGradient>
<linearGradient id="paint11_linear_34_1556" x1="190.807" y1="369.235" x2="230.701" y2="425.729" gradientUnits="userSpaceOnUse">
<stop stop-color="#FFA556"/>
<stop offset="1" stop-color="#E2C27E"/>
</linearGradient>
<linearGradient id="paint12_linear_34_1556" x1="938.52" y1="254.901" x2="938.52" y2="386.935" gradientUnits="userSpaceOnUse">
<stop stop-color="#E66D2C"/>
<stop offset="1" stop-color="#803D19"/>
</linearGradient>
<linearGradient id="paint13_linear_34_1556" x1="938.52" y1="254.901" x2="938.52" y2="386.935" gradientUnits="userSpaceOnUse">
<stop stop-color="#E66D2C"/>
<stop offset="1" stop-color="#803D19"/>
</linearGradient>
<linearGradient id="paint14_linear_34_1556" x1="938.52" y1="254.901" x2="938.52" y2="386.935" gradientUnits="userSpaceOnUse">
<stop stop-color="#E66D2C"/>
<stop offset="1" stop-color="#803D19"/>
</linearGradient>
<linearGradient id="paint15_linear_34_1556" x1="938.52" y1="254.901" x2="938.52" y2="386.935" gradientUnits="userSpaceOnUse">
<stop stop-color="#E66D2C"/>
<stop offset="1" stop-color="#803D19"/>
</linearGradient>
<linearGradient id="paint16_linear_34_1556" x1="939.511" y1="300.176" x2="1008.16" y2="373.879" gradientUnits="userSpaceOnUse">
<stop stop-color="#F8B569"/>
<stop offset="1" stop-color="#C85314"/>
</linearGradient>
<linearGradient id="paint17_linear_34_1556" x1="203.279" y1="57.8924" x2="190.062" y2="106.492" gradientUnits="userSpaceOnUse">
<stop stop-color="#C24C0D"/>
<stop offset="1" stop-color="#5C2406"/>
</linearGradient>
<linearGradient id="paint18_linear_34_1556" x1="204.428" y1="53.6171" x2="196.075" y2="84.3334" gradientUnits="userSpaceOnUse">
<stop offset="0.168269" stop-color="#FFCA8D"/>
</linearGradient>
<linearGradient id="paint19_linear_34_1556" x1="166.084" y1="62.6044" x2="160.152" y2="88.6382" gradientUnits="userSpaceOnUse">
<stop stop-color="#B85E2D"/>
<stop offset="1" stop-color="#C24C0D" stop-opacity="0"/>
</linearGradient>
<linearGradient id="paint20_linear_34_1556" x1="206.783" y1="17.4206" x2="199.033" y2="45.9176" gradientUnits="userSpaceOnUse">
<stop stop-color="#FEF2D8"/>
<stop offset="1" stop-color="#F6ECD4" stop-opacity="0.54"/>
</linearGradient>
<linearGradient id="paint21_linear_34_1556" x1="221.613" y1="21.4538" x2="213.862" y2="49.9507" gradientUnits="userSpaceOnUse">
<stop stop-color="#FEF2D8"/>
<stop offset="1" stop-color="#F6ECD4" stop-opacity="0.54"/>
</linearGradient>
<linearGradient id="paint22_linear_34_1556" x1="864.424" y1="159.455" x2="881.767" y2="198.697" gradientUnits="userSpaceOnUse">
<stop stop-color="#76191E"/>
<stop offset="1" stop-color="#F24A53"/>
</linearGradient>
<linearGradient id="paint23_linear_34_1556" x1="892.636" y1="155.444" x2="903.953" y2="180.719" gradientUnits="userSpaceOnUse">
<stop stop-color="#0A3C61"/>
<stop offset="0.971154" stop-color="#14C794"/>
</linearGradient>
<radialGradient id="paint24_radial_34_1556" cx="0" cy="0" r="1" gradientTransform="matrix(14.3932 29.5174 -58.5771 28.5633 860.43 153.383)" gradientUnits="userSpaceOnUse">
<stop offset="0.0480769" stop-color="#F8B569"/>
<stop offset="0.552885" stop-color="#E66D2C"/>
<stop offset="0.885945" stop-color="#8B421B"/>
</radialGradient>
<linearGradient id="paint25_linear_34_1556" x1="852.874" y1="139.163" x2="864.868" y2="167.17" gradientUnits="userSpaceOnUse">
<stop offset="0.139423" stop-color="#F8B569"/>
<stop offset="1" stop-color="#E66D2C"/>
</linearGradient>
<linearGradient id="paint26_linear_34_1556" x1="834.935" y1="147.533" x2="835.731" y2="175.887" gradientUnits="userSpaceOnUse">
<stop stop-color="#FBC98F"/>
<stop offset="1" stop-color="#FFD8AC" stop-opacity="0.18"/>
</linearGradient>
<linearGradient id="paint27_linear_34_1556" x1="827.746" y1="102.907" x2="840.289" y2="130.957" gradientUnits="userSpaceOnUse">
<stop stop-color="#FEF2D8"/>
<stop offset="1" stop-color="#F6ECD4" stop-opacity="0.54"/>
</linearGradient>
<linearGradient id="paint28_linear_34_1556" x1="843.101" y1="105.314" x2="852.492" y2="126.316" gradientUnits="userSpaceOnUse">
<stop stop-color="#FEF2D8"/>
<stop offset="1" stop-color="#F6ECD4" stop-opacity="0.54"/>
</linearGradient>
</defs>
</svg>
