<svg width="363" height="430" viewBox="0 0 363 430" fill="none" xmlns="http://www.w3.org/2000/svg">
<g filter="url(#filter0_gn_34_1567)">
<path d="M272.811 153.297C281.269 172.899 285.767 177.662 296.088 181.865L279.216 184.452L279.222 184.48L246.949 189.072L200.471 194.995H145.28L155.396 184.879L184.506 87.833L255.79 70.4951L272.811 153.297Z" fill="url(#paint0_linear_34_1567)"/>
</g>
<g filter="url(#filter1_gn_34_1567)">
<path d="M246.528 326.168H189.517V319.78H246.528V326.168ZM212.889 213.764C212.697 213.769 212.506 213.774 212.317 213.779L215.078 193.133L224.348 191.952C224.166 199.273 223.972 206.562 223.803 213.737C223.758 213.736 223.713 213.735 223.667 213.734C227.319 213.816 230.209 214.001 230.76 214.311C232.361 215.21 233.624 222.833 229.934 224.531C228.895 225.01 226.492 225.285 223.554 225.416C222.71 271.47 223.879 310.668 237.776 319.729H198.152L210.777 225.29C207.327 225.101 204.716 224.818 204.378 224.531C203.38 223.685 202.975 215.082 205.376 214.311C206.194 214.048 209.206 213.862 212.889 213.764ZM213.746 213.741C213.457 213.748 213.171 213.756 212.889 213.764C213.171 213.756 213.457 213.748 213.746 213.741Z" fill="url(#paint1_linear_34_1567)"/>
</g>
<path d="M189.576 93.4514C177.193 146.968 170.615 173.403 161.485 194.995H171.554L191.41 96.2309L189.576 93.4514Z" fill="url(#paint2_linear_34_1567)"/>
<path d="M196.91 92.8008L182.302 194.995H192.415C187.41 187.074 190.243 170.25 200.931 94.2694L196.91 92.8008Z" fill="url(#paint3_linear_34_1567)"/>
<path d="M208.383 92.1404C208.115 134.52 207.69 162.352 201.641 194.877L211.931 193.457V88.8975L208.383 92.1404Z" fill="url(#paint4_linear_34_1567)"/>
<path d="M244.695 80.0857L264.388 186.538L277.104 184.705C268.029 169.173 256.446 137.311 246.41 78.0158L244.695 80.0857Z" fill="url(#paint5_linear_34_1567)"/>
<g filter="url(#filter2_f_34_1567)">
<circle cx="220.625" cy="141.936" r="59.1401" fill="#FFCF11" fill-opacity="0.6"/>
</g>
<g filter="url(#filter3_gn_34_1567)">
<path d="M163.885 351.593H146.775C146.775 351.593 151.58 357.863 146.775 360.441C141.971 363.019 125.74 368.82 124.334 379.952C122.928 391.085 128.336 396.659 138.514 404.151H163.885C179.772 400.273 184.615 385.675 177.068 379.952C169.521 374.23 162.833 361.914 163.885 351.593Z" fill="url(#paint6_linear_34_1567)"/>
</g>
<g filter="url(#filter4_gn_34_1567)">
<path d="M89.4128 333.019L124.686 244.075L186.736 249.114L211.931 333.019L180.056 351.535H124.686L89.4128 333.019Z" fill="url(#paint7_linear_34_1567)"/>
<path d="M89.4128 333.019L124.686 244.075L186.736 249.114L211.931 333.019L180.056 351.535H124.686L89.4128 333.019Z" fill="#F300DA" fill-opacity="0.2"/>
</g>
<path d="M92.3423 328.801L125.623 246.302C125.623 246.302 142.437 250.625 153.455 251.751C165.702 253.002 184.978 251.751 184.978 251.751L209.822 330.91L184.978 345.265L167.283 261.008L175.31 348.605H128.963L136.111 261.008L118.065 345.265L92.3423 328.801Z" fill="#FF41BD" fill-opacity="0.32"/>
<path d="M92.3423 328.801L125.623 246.302C125.623 246.302 142.437 250.625 153.455 251.751C165.702 253.002 184.978 251.751 184.978 251.751L209.822 330.91L184.978 345.265L167.283 261.008L175.31 348.605H128.963L136.111 261.008L118.065 345.265L92.3423 328.801Z" fill="url(#paint8_linear_34_1567)" fill-opacity="0.7"/>
<g filter="url(#filter5_f_34_1567)">
<circle cx="140.623" cy="288.957" r="58.5931" fill="#FFCF11" fill-opacity="0.6"/>
</g>
<mask id="mask0_34_1567" style="mask-type:alpha" maskUnits="userSpaceOnUse" x="124" y="351" width="57" height="54">
<path d="M163.885 351.593H146.775C146.775 351.593 151.58 357.863 146.775 360.441C141.971 363.019 125.74 368.82 124.334 379.952C122.928 391.085 128.336 396.659 138.514 404.151H163.885C179.772 400.273 184.615 385.675 177.068 379.952C169.521 374.23 162.833 361.914 163.885 351.593Z" fill="url(#paint9_linear_34_1567)"/>
</mask>
<g mask="url(#mask0_34_1567)">
<g filter="url(#filter6_gn_34_1567)">
<path d="M150.701 349.894C150.428 349.894 150.155 349.894 149.881 349.894C149.824 351.117 149.769 352.339 149.716 353.561C149.6 356.265 149.496 358.968 149.405 361.671L149.737 360.98C141.932 366.816 134.227 372.775 126.619 378.856L125.945 379.395L126.124 380.244C126.221 380.705 126.319 381.166 126.416 381.627C127.198 385.307 127.989 388.984 128.79 392.66L128.876 393.076L129.196 393.379C133.108 396.995 137.035 400.596 140.976 404.182C141.88 405.005 142.785 405.827 143.69 406.648C144.224 406.077 144.757 405.507 145.291 404.936C144.41 404.088 143.529 403.24 142.647 402.394C138.804 398.704 134.946 395.029 131.074 391.37L131.48 392.089C130.72 388.405 129.949 384.723 129.168 381.043C129.07 380.582 128.972 380.122 128.873 379.661L128.378 381.049C135.966 374.943 143.455 368.714 150.846 362.363L151.191 362.066L151.178 361.671C151.086 358.968 150.982 356.265 150.866 353.561C150.814 352.339 150.759 351.117 150.701 349.894Z" fill="url(#paint10_linear_34_1567)"/>
<path d="M154.567 350.872C154.216 350.845 153.866 350.818 153.515 350.792C153.396 351.867 153.278 352.941 153.161 354.016C152.693 358.338 152.249 362.662 151.83 366.988L152.098 366.385C146.54 371.998 141.042 377.667 135.604 383.394C135.515 383.488 135.426 383.582 135.337 383.675L134.679 384.367L135.186 385.176C138.949 391.174 142.736 397.157 146.547 403.125C147.128 404.036 147.711 404.946 148.293 405.856C148.922 405.462 149.551 405.068 150.18 404.673C149.614 403.752 149.048 402.832 148.481 401.911C144.769 395.882 141.032 389.868 137.271 383.869L137.121 385.37C137.21 385.276 137.299 385.182 137.388 385.088C142.827 379.362 148.205 373.579 153.524 367.739L153.773 367.465L153.791 367.136C154.029 362.797 154.243 358.456 154.431 354.113C154.478 353.032 154.523 351.952 154.567 350.872Z" fill="url(#paint11_linear_34_1567)"/>
<path d="M158.494 350.656C158.143 350.656 157.791 350.656 157.439 350.656C157.398 351.638 157.358 352.62 157.321 353.603C157.012 361.78 156.856 369.958 156.853 378.136L157.024 377.545C156.99 377.598 156.957 377.651 156.924 377.704C154.594 381.42 152.293 385.155 150.022 388.908L149.74 389.343L149.952 389.85C152.053 394.445 154.196 399.023 156.381 403.582C156.805 404.468 157.232 405.353 157.659 406.238C157.981 406.097 158.304 405.956 158.626 405.815C158.265 404.9 157.903 403.987 157.539 403.074C155.669 398.377 153.756 393.699 151.802 389.04L151.732 389.981C154.121 386.301 156.48 382.603 158.81 378.887C158.843 378.834 158.877 378.781 158.91 378.727L159.08 378.456L159.08 378.136C159.078 369.958 158.922 361.78 158.612 353.603C158.575 352.62 158.536 351.638 158.494 350.656Z" fill="url(#paint12_linear_34_1567)"/>
<path d="M162.182 350.936C161.716 350.984 161.249 351.031 160.783 351.079C160.86 352.013 160.938 352.947 161.016 353.88C161.539 360.157 162.068 366.433 162.579 372.711C162.601 372.976 162.622 373.24 162.643 373.505L162.669 373.656C163.675 378.281 164.572 382.932 165.687 387.53C165.803 388.01 165.922 388.489 166.044 388.967L166.055 388.241C164.779 393.154 163.792 398.146 162.71 403.112C162.523 403.968 162.334 404.823 162.14 405.677C162.126 405.738 162.484 405.9 162.656 406.011C162.694 406.021 162.732 406.032 162.769 406.042C162.974 406.033 163.365 406.075 163.384 406.016C163.65 405.182 163.921 404.349 164.195 403.517C165.784 398.69 167.468 393.888 168.863 389.007L168.874 388.281C168.763 387.8 168.65 387.32 168.534 386.84C167.42 382.242 166.088 377.696 164.867 373.124L164.892 373.275C164.859 373.012 164.827 372.748 164.794 372.485C164.026 366.233 163.276 359.98 162.52 353.727C162.407 352.797 162.295 351.866 162.182 350.936Z" fill="url(#paint13_linear_34_1567)"/>
<path d="M171.892 372.009C171.515 372.109 171.137 372.21 170.76 372.31C170.902 372.883 171.044 373.456 171.186 374.029C172.619 379.812 174.052 385.595 175.485 391.377L175.577 390.687C173.169 394.688 170.762 398.69 168.354 402.691C168.05 403.197 167.745 403.703 167.441 404.208C168.117 404.6 168.793 404.992 169.469 405.383C169.756 404.868 170.044 404.352 170.331 403.836C172.605 399.758 174.879 395.679 177.153 391.6L177.344 391.258L177.245 390.91C175.622 385.178 173.998 379.446 172.375 373.713C172.214 373.145 172.053 372.577 171.892 372.009Z" fill="url(#paint14_linear_34_1567)"/>
</g>
</g>
<defs>
<filter id="filter0_gn_34_1567" x="144.807" y="70.022" width="151.754" height="125.446" filterUnits="userSpaceOnUse" color-interpolation-filters="sRGB">
<feFlood flood-opacity="0" result="BackgroundImageFix"/>
<feBlend mode="normal" in="SourceGraphic" in2="BackgroundImageFix" result="shape"/>
<feTurbulence type="fractalNoise" baseFrequency="0.99900001287460327 0.99900001287460327" numOctaves="3" seed="1775" />
<feDisplacementMap in="shape" scale="0.94624221324920654" xChannelSelector="R" yChannelSelector="G" result="displacedImage" width="100%" height="100%" />
<feMerge result="effect1_texture_34_1567">
<feMergeNode in="displacedImage"/>
</feMerge>
<feTurbulence type="fractalNoise" baseFrequency="4.2272472381591797 4.2272472381591797" stitchTiles="stitch" numOctaves="3" result="noise" seed="5556" />
<feColorMatrix in="noise" type="luminanceToAlpha" result="alphaNoise" />
<feComponentTransfer in="alphaNoise" result="coloredNoise1">
<feFuncA type="discrete" tableValues="1 1 1 1 1 1 1 1 1 1 1 1 1 1 1 1 1 1 1 1 1 1 1 1 1 1 1 1 1 1 1 1 1 1 1 1 1 1 1 1 1 1 1 1 1 1 1 1 1 1 1 0 0 0 0 0 0 0 0 0 0 0 0 0 0 0 0 0 0 0 0 0 0 0 0 0 0 0 0 0 0 0 0 0 0 0 0 0 0 0 0 0 0 0 0 0 0 0 0 0 "/>
</feComponentTransfer>
<feComposite operator="in" in2="effect1_texture_34_1567" in="coloredNoise1" result="noise1Clipped" />
<feFlood flood-color="rgba(255, 0, 0, 0.25)" result="color1Flood" />
<feComposite operator="in" in2="noise1Clipped" in="color1Flood" result="color1" />
<feMerge result="effect2_noise_34_1567">
<feMergeNode in="effect1_texture_34_1567" />
<feMergeNode in="color1" />
</feMerge>
</filter>
<filter id="filter1_gn_34_1567" x="189.044" y="191.479" width="57.957" height="135.162" filterUnits="userSpaceOnUse" color-interpolation-filters="sRGB">
<feFlood flood-opacity="0" result="BackgroundImageFix"/>
<feBlend mode="normal" in="SourceGraphic" in2="BackgroundImageFix" result="shape"/>
<feTurbulence type="fractalNoise" baseFrequency="0.99900001287460327 0.99900001287460327" numOctaves="3" seed="1775" />
<feDisplacementMap in="shape" scale="0.94624221324920654" xChannelSelector="R" yChannelSelector="G" result="displacedImage" width="100%" height="100%" />
<feMerge result="effect1_texture_34_1567">
<feMergeNode in="displacedImage"/>
</feMerge>
<feTurbulence type="fractalNoise" baseFrequency="4.2272472381591797 4.2272472381591797" stitchTiles="stitch" numOctaves="3" result="noise" seed="5556" />
<feColorMatrix in="noise" type="luminanceToAlpha" result="alphaNoise" />
<feComponentTransfer in="alphaNoise" result="coloredNoise1">
<feFuncA type="discrete" tableValues="1 1 1 1 1 1 1 1 1 1 1 1 1 1 1 1 1 1 1 1 1 1 1 1 1 1 1 1 1 1 1 1 1 1 1 1 1 1 1 1 1 1 1 1 1 1 1 1 1 1 1 0 0 0 0 0 0 0 0 0 0 0 0 0 0 0 0 0 0 0 0 0 0 0 0 0 0 0 0 0 0 0 0 0 0 0 0 0 0 0 0 0 0 0 0 0 0 0 0 0 "/>
</feComponentTransfer>
<feComposite operator="in" in2="effect1_texture_34_1567" in="coloredNoise1" result="noise1Clipped" />
<feFlood flood-color="rgba(0, 0, 0, 0.25)" result="color1Flood" />
<feComposite operator="in" in2="noise1Clipped" in="color1Flood" result="color1" />
<feMerge result="effect2_noise_34_1567">
<feMergeNode in="effect1_texture_34_1567" />
<feMergeNode in="color1" />
</feMerge>
</filter>
<filter id="filter2_f_34_1567" x="78.6887" y="7.62939e-06" width="283.873" height="283.873" filterUnits="userSpaceOnUse" color-interpolation-filters="sRGB">
<feFlood flood-opacity="0" result="BackgroundImageFix"/>
<feBlend mode="normal" in="SourceGraphic" in2="BackgroundImageFix" result="shape"/>
<feGaussianBlur stdDeviation="41.3981" result="effect1_foregroundBlur_34_1567"/>
</filter>
<filter id="filter3_gn_34_1567" x="123.646" y="351.125" width="57.3779" height="53.4955" filterUnits="userSpaceOnUse" color-interpolation-filters="sRGB">
<feFlood flood-opacity="0" result="BackgroundImageFix"/>
<feBlend mode="normal" in="SourceGraphic" in2="BackgroundImageFix" result="shape"/>
<feTurbulence type="fractalNoise" baseFrequency="0.99900001287460327 0.99900001287460327" numOctaves="3" seed="1775" />
<feDisplacementMap in="shape" scale="0.93749016523361206" xChannelSelector="R" yChannelSelector="G" result="displacedImage" width="100%" height="100%" />
<feMerge result="effect1_texture_34_1567">
<feMergeNode in="displacedImage"/>
</feMerge>
<feTurbulence type="fractalNoise" baseFrequency="4.2667112350463867 4.2667112350463867" stitchTiles="stitch" numOctaves="3" result="noise" seed="5556" />
<feColorMatrix in="noise" type="luminanceToAlpha" result="alphaNoise" />
<feComponentTransfer in="alphaNoise" result="coloredNoise1">
<feFuncA type="discrete" tableValues="1 1 1 1 1 1 1 1 1 1 1 1 1 1 1 1 1 1 1 1 1 1 1 1 1 1 1 1 1 1 1 1 1 1 1 1 1 1 1 1 1 1 1 1 1 1 1 1 1 1 1 0 0 0 0 0 0 0 0 0 0 0 0 0 0 0 0 0 0 0 0 0 0 0 0 0 0 0 0 0 0 0 0 0 0 0 0 0 0 0 0 0 0 0 0 0 0 0 0 0 "/>
</feComponentTransfer>
<feComposite operator="in" in2="effect1_texture_34_1567" in="coloredNoise1" result="noise1Clipped" />
<feFlood flood-color="rgba(0, 0, 0, 0.25)" result="color1Flood" />
<feComposite operator="in" in2="noise1Clipped" in="color1Flood" result="color1" />
<feMerge result="effect2_noise_34_1567">
<feMergeNode in="effect1_texture_34_1567" />
<feMergeNode in="color1" />
</feMerge>
</filter>
<filter id="filter4_gn_34_1567" x="88.9441" y="243.606" width="123.456" height="108.397" filterUnits="userSpaceOnUse" color-interpolation-filters="sRGB">
<feFlood flood-opacity="0" result="BackgroundImageFix"/>
<feBlend mode="normal" in="SourceGraphic" in2="BackgroundImageFix" result="shape"/>
<feTurbulence type="fractalNoise" baseFrequency="0.99900001287460327 0.99900001287460327" numOctaves="3" seed="1775" />
<feDisplacementMap in="shape" scale="0.93749016523361206" xChannelSelector="R" yChannelSelector="G" result="displacedImage" width="100%" height="100%" />
<feMerge result="effect1_texture_34_1567">
<feMergeNode in="displacedImage"/>
</feMerge>
<feTurbulence type="fractalNoise" baseFrequency="4.2667112350463867 4.2667112350463867" stitchTiles="stitch" numOctaves="3" result="noise" seed="5556" />
<feColorMatrix in="noise" type="luminanceToAlpha" result="alphaNoise" />
<feComponentTransfer in="alphaNoise" result="coloredNoise1">
<feFuncA type="discrete" tableValues="1 1 1 1 1 1 1 1 1 1 1 1 1 1 1 1 1 1 1 1 1 1 1 1 1 1 1 1 1 1 1 1 1 1 1 1 1 1 1 1 1 1 1 1 1 1 1 1 1 1 1 0 0 0 0 0 0 0 0 0 0 0 0 0 0 0 0 0 0 0 0 0 0 0 0 0 0 0 0 0 0 0 0 0 0 0 0 0 0 0 0 0 0 0 0 0 0 0 0 0 "/>
</feComponentTransfer>
<feComposite operator="in" in2="effect1_texture_34_1567" in="coloredNoise1" result="noise1Clipped" />
<feFlood flood-color="rgba(0, 0, 0, 0.25)" result="color1Flood" />
<feComposite operator="in" in2="noise1Clipped" in="color1Flood" result="color1" />
<feMerge result="effect2_noise_34_1567">
<feMergeNode in="effect1_texture_34_1567" />
<feMergeNode in="color1" />
</feMerge>
</filter>
<filter id="filter5_f_34_1567" x="-0.000114441" y="148.334" width="281.247" height="281.247" filterUnits="userSpaceOnUse" color-interpolation-filters="sRGB">
<feFlood flood-opacity="0" result="BackgroundImageFix"/>
<feBlend mode="normal" in="SourceGraphic" in2="BackgroundImageFix" result="shape"/>
<feGaussianBlur stdDeviation="41.0152" result="effect1_foregroundBlur_34_1567"/>
</filter>
<filter id="filter6_gn_34_1567" x="125.477" y="349.425" width="52.3359" height="57.6914" filterUnits="userSpaceOnUse" color-interpolation-filters="sRGB">
<feFlood flood-opacity="0" result="BackgroundImageFix"/>
<feBlend mode="normal" in="SourceGraphic" in2="BackgroundImageFix" result="shape"/>
<feTurbulence type="fractalNoise" baseFrequency="0.99900001287460327 0.99900001287460327" numOctaves="3" seed="1775" />
<feDisplacementMap in="shape" scale="0.93749016523361206" xChannelSelector="R" yChannelSelector="G" result="displacedImage" width="100%" height="100%" />
<feMerge result="effect1_texture_34_1567">
<feMergeNode in="displacedImage"/>
</feMerge>
<feTurbulence type="fractalNoise" baseFrequency="4.2667112350463867 4.2667112350463867" stitchTiles="stitch" numOctaves="3" result="noise" seed="5556" />
<feColorMatrix in="noise" type="luminanceToAlpha" result="alphaNoise" />
<feComponentTransfer in="alphaNoise" result="coloredNoise1">
<feFuncA type="discrete" tableValues="1 1 1 1 1 1 1 1 1 1 1 1 1 1 1 1 1 1 1 1 1 1 1 1 1 1 1 1 1 1 1 1 1 1 1 1 1 1 1 1 1 1 1 1 1 1 1 1 1 1 1 0 0 0 0 0 0 0 0 0 0 0 0 0 0 0 0 0 0 0 0 0 0 0 0 0 0 0 0 0 0 0 0 0 0 0 0 0 0 0 0 0 0 0 0 0 0 0 0 0 "/>
</feComponentTransfer>
<feComposite operator="in" in2="effect1_texture_34_1567" in="coloredNoise1" result="noise1Clipped" />
<feFlood flood-color="rgba(0, 0, 0, 0.25)" result="color1Flood" />
<feComposite operator="in" in2="noise1Clipped" in="color1Flood" result="color1" />
<feMerge result="effect2_noise_34_1567">
<feMergeNode in="effect1_texture_34_1567" />
<feMergeNode in="color1" />
</feMerge>
</filter>
<linearGradient id="paint0_linear_34_1567" x1="220.684" y1="70.4951" x2="256.937" y2="241.361" gradientUnits="userSpaceOnUse">
<stop stop-color="#FFAB2C"/>
<stop offset="1" stop-color="#FFD754"/>
</linearGradient>
<linearGradient id="paint1_linear_34_1567" x1="218.022" y1="191.952" x2="218.022" y2="326.168" gradientUnits="userSpaceOnUse">
<stop stop-color="#F8821A"/>
<stop offset="1" stop-color="#4C4499"/>
</linearGradient>
<linearGradient id="paint2_linear_34_1567" x1="176.447" y1="96.2309" x2="176.447" y2="194.995" gradientUnits="userSpaceOnUse">
<stop stop-color="#E5FF54"/>
<stop offset="1" stop-color="#FFD78E"/>
</linearGradient>
<linearGradient id="paint3_linear_34_1567" x1="190.463" y1="94.8115" x2="190.463" y2="194.995" gradientUnits="userSpaceOnUse">
<stop stop-color="#E5FF54"/>
<stop offset="1" stop-color="#FFD78E"/>
</linearGradient>
<linearGradient id="paint4_linear_34_1567" x1="209.861" y1="94.8116" x2="209.861" y2="192.866" gradientUnits="userSpaceOnUse">
<stop stop-color="#E5FF54"/>
<stop offset="1" stop-color="#FFD78E"/>
</linearGradient>
<linearGradient id="paint5_linear_34_1567" x1="260.899" y1="79.5534" x2="260.899" y2="186.538" gradientUnits="userSpaceOnUse">
<stop stop-color="#E5FF54"/>
<stop offset="1" stop-color="#FFD78E"/>
</linearGradient>
<linearGradient id="paint6_linear_34_1567" x1="152.342" y1="348.019" x2="152.334" y2="404.151" gradientUnits="userSpaceOnUse">
<stop stop-color="#C6FF42"/>
<stop offset="0.326923" stop-color="#63BF5C"/>
<stop offset="1" stop-color="#008075"/>
</linearGradient>
<linearGradient id="paint7_linear_34_1567" x1="150.672" y1="244.075" x2="150.672" y2="351.535" gradientUnits="userSpaceOnUse">
<stop stop-color="#F1C07B"/>
<stop offset="1" stop-color="#FFC400"/>
</linearGradient>
<linearGradient id="paint8_linear_34_1567" x1="151.082" y1="246.302" x2="151.082" y2="348.605" gradientUnits="userSpaceOnUse">
<stop stop-color="#F1C07B"/>
<stop offset="1" stop-color="#FFC400"/>
</linearGradient>
<linearGradient id="paint9_linear_34_1567" x1="152.342" y1="348.019" x2="152.334" y2="404.151" gradientUnits="userSpaceOnUse">
<stop stop-color="#C6FF42"/>
<stop offset="0.326923" stop-color="#63BF5C"/>
<stop offset="1" stop-color="#008075"/>
</linearGradient>
<linearGradient id="paint10_linear_34_1567" x1="138.895" y1="349.894" x2="138.895" y2="405.792" gradientUnits="userSpaceOnUse">
<stop stop-color="#40968E"/>
<stop offset="1" stop-color="#165E45"/>
</linearGradient>
<linearGradient id="paint11_linear_34_1567" x1="145.135" y1="350.832" x2="145.135" y2="405.265" gradientUnits="userSpaceOnUse">
<stop stop-color="#40968E"/>
<stop offset="1" stop-color="#165E45"/>
</linearGradient>
<linearGradient id="paint12_linear_34_1567" x1="154.51" y1="350.656" x2="154.51" y2="406.026" gradientUnits="userSpaceOnUse">
<stop stop-color="#40968E"/>
<stop offset="1" stop-color="#165E45"/>
</linearGradient>
<linearGradient id="paint13_linear_34_1567" x1="164.471" y1="351.007" x2="164.471" y2="406.026" gradientUnits="userSpaceOnUse">
<stop stop-color="#40968E"/>
<stop offset="1" stop-color="#165E45"/>
</linearGradient>
<linearGradient id="paint14_linear_34_1567" x1="172.41" y1="372.16" x2="172.41" y2="404.796" gradientUnits="userSpaceOnUse">
<stop stop-color="#40968E"/>
<stop offset="1" stop-color="#165E45"/>
</linearGradient>
</defs>
</svg>
