<svg width="130" height="130" viewBox="0 0 130 130" fill="none" xmlns="http://www.w3.org/2000/svg">
<g filter="url(#filter0_gn_8_453)">
<path d="M75.7207 62.149C77.4603 66.2152 78.3847 67.2032 80.5068 68.0748L77.0381 68.611L77.04 68.6168L70.4053 69.569L60.8516 70.7965H49.5068L51.5859 68.6988L57.5703 48.5817L72.2227 44.9879L75.7207 62.149Z" fill="url(#paint0_linear_8_453)"/>
</g>
<g filter="url(#filter1_gn_8_453)">
<path d="M70.3188 97.9878H58.6001V96.6636H70.3188V97.9878ZM63.2856 74.6909L63.854 70.4097L65.7593 70.1655C65.7218 71.6833 65.6816 73.1946 65.647 74.6821C66.3842 74.6994 66.9649 74.7371 67.0776 74.8003C67.4067 74.9868 67.6662 76.5674 66.9077 76.9194C66.6936 77.0185 66.1993 77.074 65.5952 77.1011C65.4219 86.6482 65.6637 94.7749 68.52 96.6538H60.3745L62.9692 77.0737C62.2608 77.0346 61.7244 76.9787 61.6548 76.9194C61.4496 76.744 61.3664 74.9606 61.8599 74.8003C62.0189 74.7487 62.5831 74.7121 63.2856 74.6909Z" fill="url(#paint1_linear_8_453)"/>
</g>
<path d="M58.6124 49.7467C56.0669 60.8404 54.7148 66.3203 52.8379 70.7963H54.9076L58.9892 50.3229L58.6124 49.7467Z" fill="url(#paint2_linear_8_453)"/>
<path d="M60.1199 49.6118L57.1172 70.7963H59.196C58.1671 69.1544 58.7496 65.6667 60.9466 49.9162L60.1199 49.6118Z" fill="url(#paint3_linear_8_453)"/>
<path d="M62.4782 49.4749C62.4232 58.26 62.3357 64.0294 61.0923 70.7718L63.2076 70.4775V48.8027L62.4782 49.4749Z" fill="url(#paint4_linear_8_453)"/>
<path d="M69.9424 46.976L73.9906 69.0432L76.6043 68.6631C74.739 65.4436 72.3579 58.8385 70.2949 46.5469L69.9424 46.976Z" fill="url(#paint5_linear_8_453)"/>
<g filter="url(#filter2_f_8_453)">
<circle cx="64.9947" cy="64.9949" r="12.1568" fill="#FFCF11" fill-opacity="0.6"/>
</g>
<defs>
<filter id="filter0_gn_8_453" x="49.2049" y="44.686" width="31.6039" height="26.4125" filterUnits="userSpaceOnUse" color-interpolation-filters="sRGB">
<feFlood flood-opacity="0" result="BackgroundImageFix"/>
<feBlend mode="normal" in="SourceGraphic" in2="BackgroundImageFix" result="shape"/>
<feTurbulence type="fractalNoise" baseFrequency="0.99900001287460327 0.99900001287460327" numOctaves="3" seed="1775" />
<feDisplacementMap in="shape" scale="0.60386383533477783" xChannelSelector="R" yChannelSelector="G" result="displacedImage" width="100%" height="100%" />
<feMerge result="effect1_texture_8_453">
<feMergeNode in="displacedImage"/>
</feMerge>
<feTurbulence type="fractalNoise" baseFrequency="6.6240100860595703 6.6240100860595703" stitchTiles="stitch" numOctaves="3" result="noise" seed="5556" />
<feColorMatrix in="noise" type="luminanceToAlpha" result="alphaNoise" />
<feComponentTransfer in="alphaNoise" result="coloredNoise1">
<feFuncA type="discrete" tableValues="1 1 1 1 1 1 1 1 1 1 1 1 1 1 1 1 1 1 1 1 1 1 1 1 1 1 1 1 1 1 1 1 1 1 1 1 1 1 1 1 1 1 1 1 1 1 1 1 1 1 1 0 0 0 0 0 0 0 0 0 0 0 0 0 0 0 0 0 0 0 0 0 0 0 0 0 0 0 0 0 0 0 0 0 0 0 0 0 0 0 0 0 0 0 0 0 0 0 0 0 "/>
</feComponentTransfer>
<feComposite operator="in" in2="effect1_texture_8_453" in="coloredNoise1" result="noise1Clipped" />
<feFlood flood-color="rgba(255, 0, 0, 0.25)" result="color1Flood" />
<feComposite operator="in" in2="noise1Clipped" in="color1Flood" result="color1" />
<feMerge result="effect2_noise_8_453">
<feMergeNode in="effect1_texture_8_453" />
<feMergeNode in="color1" />
</feMerge>
</filter>
<filter id="filter1_gn_8_453" x="58.2982" y="69.8636" width="12.3226" height="28.4261" filterUnits="userSpaceOnUse" color-interpolation-filters="sRGB">
<feFlood flood-opacity="0" result="BackgroundImageFix"/>
<feBlend mode="normal" in="SourceGraphic" in2="BackgroundImageFix" result="shape"/>
<feTurbulence type="fractalNoise" baseFrequency="0.99900001287460327 0.99900001287460327" numOctaves="3" seed="1775" />
<feDisplacementMap in="shape" scale="0.60386383533477783" xChannelSelector="R" yChannelSelector="G" result="displacedImage" width="100%" height="100%" />
<feMerge result="effect1_texture_8_453">
<feMergeNode in="displacedImage"/>
</feMerge>
<feTurbulence type="fractalNoise" baseFrequency="6.6240100860595703 6.6240100860595703" stitchTiles="stitch" numOctaves="3" result="noise" seed="5556" />
<feColorMatrix in="noise" type="luminanceToAlpha" result="alphaNoise" />
<feComponentTransfer in="alphaNoise" result="coloredNoise1">
<feFuncA type="discrete" tableValues="1 1 1 1 1 1 1 1 1 1 1 1 1 1 1 1 1 1 1 1 1 1 1 1 1 1 1 1 1 1 1 1 1 1 1 1 1 1 1 1 1 1 1 1 1 1 1 1 1 1 1 0 0 0 0 0 0 0 0 0 0 0 0 0 0 0 0 0 0 0 0 0 0 0 0 0 0 0 0 0 0 0 0 0 0 0 0 0 0 0 0 0 0 0 0 0 0 0 0 0 "/>
</feComponentTransfer>
<feComposite operator="in" in2="effect1_texture_8_453" in="coloredNoise1" result="noise1Clipped" />
<feFlood flood-color="rgba(0, 0, 0, 0.25)" result="color1Flood" />
<feComposite operator="in" in2="noise1Clipped" in="color1Flood" result="color1" />
<feMerge result="effect2_noise_8_453">
<feMergeNode in="effect1_texture_8_453" />
<feMergeNode in="color1" />
</feMerge>
</filter>
<filter id="filter2_f_8_453" x="-0.00019455" y="1.43051e-06" width="129.99" height="129.99" filterUnits="userSpaceOnUse" color-interpolation-filters="sRGB">
<feFlood flood-opacity="0" result="BackgroundImageFix"/>
<feBlend mode="normal" in="SourceGraphic" in2="BackgroundImageFix" result="shape"/>
<feGaussianBlur stdDeviation="26.419" result="effect1_foregroundBlur_8_453"/>
</filter>
<linearGradient id="paint0_linear_8_453" x1="65.0068" y1="44.9879" x2="72.5799" y2="80.3819" gradientUnits="userSpaceOnUse">
<stop stop-color="#FFAB2C"/>
<stop offset="1" stop-color="#FFD754"/>
</linearGradient>
<linearGradient id="paint1_linear_8_453" x1="64.4595" y1="70.1655" x2="64.4595" y2="97.9878" gradientUnits="userSpaceOnUse">
<stop stop-color="#F8821A"/>
<stop offset="1" stop-color="#4C4499"/>
</linearGradient>
<linearGradient id="paint2_linear_8_453" x1="55.9136" y1="50.3229" x2="55.9136" y2="70.7963" gradientUnits="userSpaceOnUse">
<stop stop-color="#E5FF54"/>
<stop offset="1" stop-color="#FFD78E"/>
</linearGradient>
<linearGradient id="paint3_linear_8_453" x1="58.7948" y1="50.0286" x2="58.7948" y2="70.7963" gradientUnits="userSpaceOnUse">
<stop stop-color="#E5FF54"/>
<stop offset="1" stop-color="#FFD78E"/>
</linearGradient>
<linearGradient id="paint4_linear_8_453" x1="62.7821" y1="50.0286" x2="62.7821" y2="70.355" gradientUnits="userSpaceOnUse">
<stop stop-color="#E5FF54"/>
<stop offset="1" stop-color="#FFD78E"/>
</linearGradient>
<linearGradient id="paint5_linear_8_453" x1="73.2733" y1="46.8657" x2="73.2733" y2="69.0432" gradientUnits="userSpaceOnUse">
<stop stop-color="#E5FF54"/>
<stop offset="1" stop-color="#FFD78E"/>
</linearGradient>
</defs>
</svg>
