<svg width="192" height="201" viewBox="0 0 192 201" fill="none" xmlns="http://www.w3.org/2000/svg">
<g filter="url(#filter0_f_8_497)">
<circle cx="95.5639" cy="95.564" r="39.8183" fill="#FFCF11" fill-opacity="0.6"/>
</g>
<g filter="url(#filter1_gn_8_497)">
<path fill-rule="evenodd" clip-rule="evenodd" d="M106.116 121.445C106.004 121.853 105.86 122.399 105.702 123.055C105.341 124.561 104.907 126.646 104.618 128.959C104.329 131.271 104.185 133.812 104.401 136.231C104.618 138.65 105.196 140.944 106.348 142.767C107.016 143.825 108.039 144.405 108.923 145.041C109.805 145.675 110.546 146.366 110.614 147.644C110.687 149.011 109.803 149.734 108.82 150.43C107.833 151.13 106.746 151.804 106.353 153.074C106.024 154.133 105.861 155.022 105.861 155.909C105.862 156.796 106.025 157.684 106.353 158.744C106.663 159.747 107.317 160.407 108.134 160.898C108.952 161.39 109.932 161.712 110.892 162.041C111.849 162.368 112.79 162.704 113.517 163.223C114.246 163.744 114.763 164.452 114.875 165.521C114.998 166.694 114.521 167.806 113.741 168.812C112.962 169.818 111.877 170.721 110.78 171.477C109.683 172.234 108.57 172.846 107.732 173.268C107.314 173.479 106.963 173.643 106.717 173.754C106.594 173.81 106.498 173.852 106.432 173.88C106.399 173.895 106.373 173.905 106.355 173.913C106.354 173.913 106.353 173.913 106.352 173.914C106.351 173.917 106.351 173.922 106.351 173.926C106.348 173.95 106.346 173.987 106.342 174.033C106.334 174.126 106.323 174.262 106.313 174.437C106.291 174.788 106.267 175.293 106.26 175.91C106.245 177.145 106.297 178.829 106.558 180.626C106.947 183.308 107.805 186.233 109.604 188.294C118.447 192.457 127.713 200.525 121.131 200.525H81.3047C74.5634 200.524 84.4487 192.061 93.4756 187.999C93.4484 188.011 93.4208 188.023 93.3936 188.036C93.7414 187.439 94.0413 186.794 94.2979 186.119C94.9588 184.378 95.3375 182.439 95.5488 180.627C95.7601 178.815 95.8033 177.13 95.794 175.899C95.7893 175.284 95.7716 174.78 95.7549 174.432C95.7466 174.259 95.7384 174.123 95.7324 174.031C95.7295 173.985 95.7273 173.949 95.7256 173.925C95.7253 173.921 95.7249 173.916 95.7246 173.913L95.7217 173.912C95.7055 173.904 95.6804 173.893 95.6494 173.878C95.5867 173.849 95.4942 173.805 95.3779 173.749C95.1445 173.634 94.8107 173.466 94.4131 173.251C93.6172 172.819 92.5602 172.196 91.5186 171.432C90.477 170.668 89.4477 169.76 88.709 168.76C87.9707 167.761 87.5192 166.663 87.6397 165.521C87.7491 164.485 88.2399 163.786 88.9307 163.261C89.6194 162.738 90.5084 162.387 91.415 162.044C92.3239 161.699 93.252 161.361 94.0283 160.865C94.8034 160.369 95.4256 159.716 95.7246 158.744C96.0506 157.683 96.2297 156.789 96.2383 155.9C96.2469 155.011 96.0848 154.123 95.7246 153.075C95.486 152.381 95.0253 151.881 94.4678 151.477C93.9093 151.072 93.2556 150.764 92.6328 150.449C92.0121 150.134 91.4199 149.811 90.9941 149.379C90.5666 148.945 90.3067 148.4 90.3477 147.644C90.3866 146.929 90.6394 146.405 91.0244 145.988C91.4085 145.572 91.9232 145.263 92.4805 144.974C93.5995 144.394 94.893 143.89 95.7305 142.765C97.0171 141.036 97.6623 138.788 97.9043 136.387C98.1461 133.987 97.9849 131.435 97.6621 129.099C97.3393 126.763 96.8548 124.643 96.4512 123.108C96.3591 122.758 96.2703 122.438 96.1895 122.153C99.4994 122.185 102.779 121.947 106.116 121.445Z" fill="url(#paint0_linear_8_497)"/>
</g>
<g filter="url(#filter2_gn_8_497)">
<path d="M95.2056 66.8549C93.1748 66.8549 90.4721 61.4304 88.8745 65.9391C87.2769 70.4478 93.3341 71.434 82.185 82.4637C67.2265 91.1532 63.5244 100.473 61.1211 113.522C92.8315 126.645 108.415 124.89 141.236 109.819C141.236 98.9883 130.445 87.7566 119.574 84.2157C108.704 80.6749 109.699 73.6639 110.735 72.2702C111.77 70.8766 114.137 64.3593 110.177 64.3469C106.871 64.3366 109.261 66.7466 105.957 66.8549C102.522 66.9676 104.176 64.2872 100.74 64.3469C96.6851 64.4173 97.2363 66.8549 95.2056 66.8549Z" fill="url(#paint1_linear_8_497)"/>
</g>
<g filter="url(#filter3_f_8_497)">
<ellipse cx="101.178" cy="108.664" rx="15.1708" ry="7.36639" fill="#FBFFC5"/>
</g>
<mask id="mask0_8_497" style="mask-type:alpha" maskUnits="userSpaceOnUse" x="61" y="64" width="81" height="59">
<path fill-rule="evenodd" clip-rule="evenodd" d="M88.874 65.9392C90.4716 61.4305 93.1753 66.8553 95.2061 66.8553C97.2362 66.8549 96.6855 64.4179 100.74 64.3474C104.176 64.2878 102.522 66.9676 105.956 66.8553C109.26 66.7469 106.872 64.3371 110.178 64.3474C114.136 64.3603 111.77 70.8767 110.734 72.2703C109.699 73.6643 108.704 80.6749 119.574 84.2156C130.445 87.7565 141.235 98.9886 141.235 109.819C108.415 124.89 92.8313 126.645 61.1211 113.522C63.5244 100.473 67.2264 91.1531 82.1846 82.4637C93.3335 71.4341 87.2767 70.4478 88.874 65.9392Z" fill="url(#paint2_linear_8_497)"/>
</mask>
<g mask="url(#mask0_8_497)">
<path d="M94.3694 61.9573C94.0774 61.9573 93.7854 61.9573 93.4934 61.9573C93.447 63.0016 93.4005 64.0458 93.354 65.0901C93.2446 67.5498 93.1352 70.0096 93.0258 72.4694L93.0457 72.2804C92.2277 75.4224 91.4097 78.5645 90.5916 81.7066L90.9106 81.0852C85.4393 86.587 79.968 92.0888 74.4967 97.5906L73.9832 98.492C72.1906 103.529 70.398 108.567 68.6054 113.604C68.2549 114.589 67.9045 115.574 67.554 116.559C69.6098 117.189 71.6656 117.819 73.7214 118.449C73.983 117.437 74.2446 116.425 74.5062 115.413C75.8445 110.236 77.1827 105.06 78.5209 99.8829L78.0074 100.784C82.9686 94.8184 87.9297 88.8526 92.8908 82.8867L93.1599 82.5631L93.2097 82.2653C93.7455 79.063 94.2813 75.8607 94.8171 72.6584L94.8371 72.4694C94.7276 70.0096 94.6182 67.5498 94.5088 65.0901C94.4623 64.0458 94.4159 63.0016 94.3694 61.9573Z" fill="#ECAC44"/>
<path d="M108.703 64.0198C108.305 63.9987 107.908 63.9776 107.51 63.9565C107.429 64.9695 107.348 65.9825 107.267 66.9955C107.088 69.2297 106.91 71.4639 106.731 73.6981L106.745 73.9034C107.269 77.145 107.793 80.3867 108.317 83.6283L108.365 83.9229L108.604 84.1901C114.24 90.4907 119.875 96.7914 125.511 103.092L125.08 102.318C126.075 106.515 127.069 110.713 128.064 114.91C128.299 115.899 128.533 116.888 128.767 117.877C130.204 117.496 131.641 117.114 133.078 116.733C132.791 115.758 132.504 114.783 132.217 113.808C130.999 109.67 129.781 105.531 128.562 101.393L128.131 100.619C122.167 94.6287 116.202 88.6388 110.237 82.6489L110.524 83.2107C109.827 80.0017 109.13 76.7928 108.433 73.5839L108.447 73.7891C108.505 71.5486 108.564 69.308 108.623 67.0674C108.65 66.0516 108.676 65.0357 108.703 64.0198Z" fill="#ECAC44"/>
<path d="M100.661 62.3556C100.342 62.3556 100.024 62.3556 99.7052 62.3556C99.6567 63.3589 99.6083 64.3622 99.5598 65.3655C99.2263 72.2728 98.8928 79.18 98.5593 86.0873L98.5674 85.9247C97.6443 92.0929 96.7212 98.2612 95.7981 104.429L95.7994 104.948C96.0813 109.869 96.3631 114.789 96.6449 119.71C96.7024 120.712 96.7598 121.715 96.8172 122.718C99.0611 122.481 101.305 122.243 103.549 122.005C103.395 121.013 103.241 120.02 103.087 119.028C102.333 114.157 101.578 109.287 100.824 104.417L100.825 104.935C101.149 98.7069 101.474 92.4784 101.799 86.2499L101.807 86.0873C101.473 79.18 101.14 72.2728 100.806 65.3655C100.758 64.3622 100.709 63.3589 100.661 62.3556Z" fill="#ECAC44"/>
</g>
<g filter="url(#filter4_gn_8_497)">
<path d="M116.349 119.455V151.31" stroke="url(#paint3_linear_8_497)" stroke-width="1.19455"/>
</g>
<g filter="url(#filter5_gn_8_497)">
<ellipse cx="116.349" cy="151.827" rx="1.19455" ry="0.756548" fill="#6D5830"/>
</g>
<defs>
<filter id="filter0_f_8_497" x="-4.19617e-05" y="3.8147e-06" width="191.128" height="191.128" filterUnits="userSpaceOnUse" color-interpolation-filters="sRGB">
<feFlood flood-opacity="0" result="BackgroundImageFix"/>
<feBlend mode="normal" in="SourceGraphic" in2="BackgroundImageFix" result="shape"/>
<feGaussianBlur stdDeviation="27.8728" result="effect1_foregroundBlur_8_497"/>
</filter>
<filter id="filter1_gn_8_497" x="78.7606" y="121.126" width="44.9149" height="79.7172" filterUnits="userSpaceOnUse" color-interpolation-filters="sRGB">
<feFlood flood-opacity="0" result="BackgroundImageFix"/>
<feBlend mode="normal" in="SourceGraphic" in2="BackgroundImageFix" result="shape"/>
<feTurbulence type="fractalNoise" baseFrequency="0.99900001287460327 0.99900001287460327" numOctaves="3" seed="1775" />
<feDisplacementMap in="shape" scale="0.637093186378479" xChannelSelector="R" yChannelSelector="G" result="displacedImage" width="100%" height="100%" />
<feMerge result="effect1_texture_8_497">
<feMergeNode in="displacedImage"/>
</feMerge>
<feTurbulence type="fractalNoise" baseFrequency="6.2785162925720215 6.2785162925720215" stitchTiles="stitch" numOctaves="3" result="noise" seed="5556" />
<feColorMatrix in="noise" type="luminanceToAlpha" result="alphaNoise" />
<feComponentTransfer in="alphaNoise" result="coloredNoise1">
<feFuncA type="discrete" tableValues="1 1 1 1 1 1 1 1 1 1 1 1 1 1 1 1 1 1 1 1 1 1 1 1 1 1 1 1 1 1 1 1 1 1 1 1 1 1 1 1 1 1 1 1 1 1 1 1 1 1 1 0 0 0 0 0 0 0 0 0 0 0 0 0 0 0 0 0 0 0 0 0 0 0 0 0 0 0 0 0 0 0 0 0 0 0 0 0 0 0 0 0 0 0 0 0 0 0 0 0 "/>
</feComponentTransfer>
<feComposite operator="in" in2="effect1_texture_8_497" in="coloredNoise1" result="noise1Clipped" />
<feFlood flood-color="rgba(0, 0, 0, 0.25)" result="color1Flood" />
<feComposite operator="in" in2="noise1Clipped" in="color1Flood" result="color1" />
<feMerge result="effect2_noise_8_497">
<feMergeNode in="effect1_texture_8_497" />
<feMergeNode in="color1" />
</feMerge>
</filter>
<filter id="filter2_gn_8_497" x="60.8025" y="63.8294" width="80.7514" height="58.8312" filterUnits="userSpaceOnUse" color-interpolation-filters="sRGB">
<feFlood flood-opacity="0" result="BackgroundImageFix"/>
<feBlend mode="normal" in="SourceGraphic" in2="BackgroundImageFix" result="shape"/>
<feTurbulence type="fractalNoise" baseFrequency="0.99900001287460327 0.99900001287460327" numOctaves="3" seed="1775" />
<feDisplacementMap in="shape" scale="0.637093186378479" xChannelSelector="R" yChannelSelector="G" result="displacedImage" width="100%" height="100%" />
<feMerge result="effect1_texture_8_497">
<feMergeNode in="displacedImage"/>
</feMerge>
<feTurbulence type="fractalNoise" baseFrequency="6.2785162925720215 6.2785162925720215" stitchTiles="stitch" numOctaves="3" result="noise" seed="5556" />
<feColorMatrix in="noise" type="luminanceToAlpha" result="alphaNoise" />
<feComponentTransfer in="alphaNoise" result="coloredNoise1">
<feFuncA type="discrete" tableValues="1 1 1 1 1 1 1 1 1 1 1 1 1 1 1 1 1 1 1 1 1 1 1 1 1 1 1 1 1 1 1 1 1 1 1 1 1 1 1 1 1 1 1 1 1 1 1 1 1 1 1 0 0 0 0 0 0 0 0 0 0 0 0 0 0 0 0 0 0 0 0 0 0 0 0 0 0 0 0 0 0 0 0 0 0 0 0 0 0 0 0 0 0 0 0 0 0 0 0 0 "/>
</feComponentTransfer>
<feComposite operator="in" in2="effect1_texture_8_497" in="coloredNoise1" result="noise1Clipped" />
<feFlood flood-color="rgba(0, 0, 0, 0.25)" result="color1Flood" />
<feComposite operator="in" in2="noise1Clipped" in="color1Flood" result="color1" />
<feMerge result="effect2_noise_8_497">
<feMergeNode in="effect1_texture_8_497" />
<feMergeNode in="color1" />
</feMerge>
</filter>
<filter id="filter3_f_8_497" x="70.08" y="85.3705" width="62.1964" height="46.5874" filterUnits="userSpaceOnUse" color-interpolation-filters="sRGB">
<feFlood flood-opacity="0" result="BackgroundImageFix"/>
<feBlend mode="normal" in="SourceGraphic" in2="BackgroundImageFix" result="shape"/>
<feGaussianBlur stdDeviation="7.96366" result="effect1_foregroundBlur_8_497"/>
</filter>
<filter id="filter4_gn_8_497" x="115.433" y="119.136" width="1.83143" height="32.4917" filterUnits="userSpaceOnUse" color-interpolation-filters="sRGB">
<feFlood flood-opacity="0" result="BackgroundImageFix"/>
<feBlend mode="normal" in="SourceGraphic" in2="BackgroundImageFix" result="shape"/>
<feTurbulence type="fractalNoise" baseFrequency="0.99900001287460327 0.99900001287460327" numOctaves="3" seed="1775" />
<feDisplacementMap in="shape" scale="0.637093186378479" xChannelSelector="R" yChannelSelector="G" result="displacedImage" width="100%" height="100%" />
<feMerge result="effect1_texture_8_497">
<feMergeNode in="displacedImage"/>
</feMerge>
<feTurbulence type="fractalNoise" baseFrequency="6.2785162925720215 6.2785162925720215" stitchTiles="stitch" numOctaves="3" result="noise" seed="5556" />
<feColorMatrix in="noise" type="luminanceToAlpha" result="alphaNoise" />
<feComponentTransfer in="alphaNoise" result="coloredNoise1">
<feFuncA type="discrete" tableValues="1 1 1 1 1 1 1 1 1 1 1 1 1 1 1 1 1 1 1 1 1 1 1 1 1 1 1 1 1 1 1 1 1 1 1 1 1 1 1 1 1 1 1 1 1 1 1 1 1 1 1 0 0 0 0 0 0 0 0 0 0 0 0 0 0 0 0 0 0 0 0 0 0 0 0 0 0 0 0 0 0 0 0 0 0 0 0 0 0 0 0 0 0 0 0 0 0 0 0 0 "/>
</feComponentTransfer>
<feComposite operator="in" in2="effect1_texture_8_497" in="coloredNoise1" result="noise1Clipped" />
<feFlood flood-color="rgba(0, 0, 0, 0.25)" result="color1Flood" />
<feComposite operator="in" in2="noise1Clipped" in="color1Flood" result="color1" />
<feMerge result="effect2_noise_8_497">
<feMergeNode in="effect1_texture_8_497" />
<feMergeNode in="color1" />
</feMerge>
</filter>
<filter id="filter5_gn_8_497" x="114.836" y="150.752" width="3.02625" height="2.15019" filterUnits="userSpaceOnUse" color-interpolation-filters="sRGB">
<feFlood flood-opacity="0" result="BackgroundImageFix"/>
<feBlend mode="normal" in="SourceGraphic" in2="BackgroundImageFix" result="shape"/>
<feTurbulence type="fractalNoise" baseFrequency="0.99900001287460327 0.99900001287460327" numOctaves="3" seed="1775" />
<feDisplacementMap in="shape" scale="0.637093186378479" xChannelSelector="R" yChannelSelector="G" result="displacedImage" width="100%" height="100%" />
<feMerge result="effect1_texture_8_497">
<feMergeNode in="displacedImage"/>
</feMerge>
<feTurbulence type="fractalNoise" baseFrequency="6.2785162925720215 6.2785162925720215" stitchTiles="stitch" numOctaves="3" result="noise" seed="5556" />
<feColorMatrix in="noise" type="luminanceToAlpha" result="alphaNoise" />
<feComponentTransfer in="alphaNoise" result="coloredNoise1">
<feFuncA type="discrete" tableValues="1 1 1 1 1 1 1 1 1 1 1 1 1 1 1 1 1 1 1 1 1 1 1 1 1 1 1 1 1 1 1 1 1 1 1 1 1 1 1 1 1 1 1 1 1 1 1 1 1 1 1 0 0 0 0 0 0 0 0 0 0 0 0 0 0 0 0 0 0 0 0 0 0 0 0 0 0 0 0 0 0 0 0 0 0 0 0 0 0 0 0 0 0 0 0 0 0 0 0 0 "/>
</feComponentTransfer>
<feComposite operator="in" in2="effect1_texture_8_497" in="coloredNoise1" result="noise1Clipped" />
<feFlood flood-color="rgba(0, 0, 0, 0.25)" result="color1Flood" />
<feComposite operator="in" in2="noise1Clipped" in="color1Flood" result="color1" />
<feMerge result="effect2_noise_8_497">
<feMergeNode in="effect1_texture_8_497" />
<feMergeNode in="color1" />
</feMerge>
</filter>
<linearGradient id="paint0_linear_8_497" x1="101.218" y1="121.445" x2="101.218" y2="200.525" gradientUnits="userSpaceOnUse">
<stop stop-color="#FF9D70"/>
<stop offset="1" stop-color="#91305E"/>
</linearGradient>
<linearGradient id="paint1_linear_8_497" x1="101.178" y1="64.1479" x2="101.178" y2="122.342" gradientUnits="userSpaceOnUse">
<stop stop-color="#F6BD55"/>
<stop offset="1" stop-color="#FFA500"/>
</linearGradient>
<linearGradient id="paint2_linear_8_497" x1="101.178" y1="64.1481" x2="101.178" y2="122.342" gradientUnits="userSpaceOnUse">
<stop stop-color="#F6BD55"/>
<stop offset="1" stop-color="#FFA500"/>
</linearGradient>
<linearGradient id="paint3_linear_8_497" x1="116.849" y1="119.455" x2="116.849" y2="151.31" gradientUnits="userSpaceOnUse">
<stop stop-color="#D3A95C"/>
<stop offset="1" stop-color="#6D5830"/>
</linearGradient>
</defs>
</svg>
