<svg width="531" height="713" viewBox="0 0 531 713" fill="none" xmlns="http://www.w3.org/2000/svg">
<ellipse cx="269.662" cy="356.446" rx="150.256" ry="224.789" fill="url(#paint0_linear_34_1552)"/>
<g opacity="0.49" filter="url(#filter0_f_34_1552)">
<path d="M371.844 447.134C350.63 457.417 340.438 477.211 313.802 488.021C287.203 498.372 280.804 493.926 251.353 507.124C228.096 517.359 202.923 522.769 186.79 527.237C184.496 527.88 182.658 528.483 181.192 529.071C179.507 529.722 177.986 530.437 177.074 531.067C176.925 531.165 176.836 531.239 176.648 531.345C176.472 531.448 176.306 531.546 176.152 531.637C175.843 531.821 175.577 531.982 175.351 532.121C174.881 532.407 174.659 532.562 174.396 532.709C174.303 532.765 174.301 532.773 174.402 532.707C174.452 532.674 174.529 532.622 174.635 532.545C174.688 532.507 174.748 532.462 174.816 532.41C174.895 532.349 174.917 532.33 175.12 532.17C175.764 531.596 177.111 530.677 178.609 527.699C178.965 526.951 179.303 526.067 179.55 525.053C179.885 523.744 180.075 521.87 179.857 520.133C179.464 516.529 177.541 513.616 176.047 512.157C175.316 511.412 174.496 510.806 174.112 510.56C173.799 510.357 173.514 510.195 173.258 510.061C172.744 509.794 172.34 509.636 172.019 509.529C171.378 509.321 171.057 509.306 170.904 509.331C170.691 509.413 170.798 509.597 171.02 509.791C171.606 510.203 172.255 510.637 173.203 511.079C176.913 512.823 182.332 514.497 192.075 513.216C211.818 510.536 223.725 510.651 241.46 511.969C259.046 513.367 312.973 510.503 332.071 505.093C351.19 499.759 374.021 503.05 387.51 502.894C391.699 502.849 395.119 503.044 397.636 503.366C398.71 503.501 399.249 503.981 399.311 504.509C399.311 504.509 399.311 504.51 399.311 504.51C399.385 505.168 398.72 505.899 397.382 506.137C390.805 507.302 380.987 509.495 369.517 513.173C348.146 520.006 345.215 515.377 315.903 520.689C286.561 525.927 269.155 532.289 233.963 532.1C216.825 531.959 206.36 534.803 194.111 537.137C187.938 538.258 181.683 539.39 172.755 539.264C171.484 539.23 170.247 539.165 169.011 539.052C167.754 538.936 165.799 538.699 163.911 538.233C162.524 537.863 160.636 537.449 157.809 535.747C157.249 535.432 151.051 531.637 150.013 523.985C149.75 522.17 149.819 520.316 150.129 518.681C150.308 517.757 150.429 517.358 150.588 516.833C150.744 516.332 150.918 515.859 151.102 515.415C151.845 513.635 152.729 512.33 153.538 511.318C155.099 509.372 156.816 508.143 157.466 507.695C158.103 507.259 158.693 506.904 159.262 506.587C160.345 505.981 161.627 505.398 162.387 505.094C168.974 502.569 173.187 501.973 179.697 500.892C181.098 500.707 182.556 500.518 184.076 500.325C232.329 493.072 233.185 478.491 276.386 458.343C317.673 439.296 381.924 409.473 384.248 397.038C384.194 397.153 384.045 397.632 384.103 398.53C384.149 399.402 384.482 400.498 384.883 401.215C385.728 402.653 385.853 402.315 384.567 401.769C376.122 397.642 338.57 410.215 308.839 421.313C269.646 435.05 225.012 462.628 175.471 471.918C166.332 473.402 156.431 474.71 144.826 473.803C133.861 473.103 117.223 468.182 109.747 453.941C102.668 442.643 105.613 425.966 111.994 417.8C118.018 409.092 125.15 403.623 131.819 398.932C145.355 389.733 157.686 384.334 166.833 380.474C195.648 369.127 202.624 367.276 229.609 355.527C245.163 348.924 267.581 342.589 287.344 340.631C297.293 339.674 295.733 342.498 286.546 346.204C273.189 351.651 261.582 354.192 255.496 359.262C243.322 369.472 238.331 373.51 219.899 376.894C201.417 380.453 196.586 391.161 186.738 394.8C181.786 396.685 178.832 396.567 171.462 399.549C164.779 402.671 149.888 408.458 135.473 426.309C132.847 429.989 131.589 433.405 131.6 435.317C131.636 437.236 132.101 437.924 133.39 439.688C135.694 443.669 148.723 443.603 158.891 441.229C169.286 439.008 177.931 436.043 185.342 433.369C204.04 426.921 245.454 413.652 276.658 398.692C289.614 392.593 308.634 384.292 329.208 377.098C350.566 371.03 371.07 359.756 400.694 370.885C405.875 373.536 411.41 377.179 415.578 384.381C419.759 391.529 419.763 400.152 418.631 405.223C414.596 420.338 409.283 423.769 405.532 428.108C401.531 432.009 398.407 434.046 395.071 435.999C388.754 439.503 382.56 441.766 371.844 447.134Z" fill="url(#paint1_linear_34_1552)"/>
</g>
<g opacity="0.49" filter="url(#filter1_f_34_1552)">
<path d="M358.509 260.161C341.163 270.996 335.358 290.198 313.266 301.527C291.253 312.328 285.014 308.171 261.032 321.757C238.488 334.337 212.841 340.2 200.598 345.908C199.707 346.331 198.95 346.748 198.309 347.166C196.141 348.64 193.983 349.472 192.681 349.649C191.819 349.826 191.212 349.83 190.837 349.67C190.61 349.611 190.499 349.492 190.611 349.192C190.665 349.041 190.773 348.846 190.946 348.57C191.24 348.177 191.854 347.505 192.583 346.162C193.217 344.713 194.428 343.08 193.855 338.414C193.238 334.222 189.812 331.426 189.284 331.249C187.325 330.112 186.616 330.328 186.578 330.458C186.453 330.606 186.604 330.818 186.966 331.022C187.271 331.218 187.631 331.399 188.15 331.562C190.254 332.214 193.189 332.448 197.34 331.896C213.555 329.528 224.038 329.558 238.908 330.908C253.936 332.309 299.654 329.303 315.727 323.827C331.75 318.444 351.361 321.629 362.83 321.418C366.375 321.357 369.316 321.534 371.469 321.845C372.39 321.975 372.87 322.451 372.944 322.977C372.944 322.978 372.944 322.978 372.944 322.978C373.036 323.634 372.5 324.366 371.37 324.61C365.799 325.802 357.572 328.026 347.917 331.747C330.008 338.645 327.313 334.043 302.54 339.446C277.736 344.764 263.139 351.188 233.019 351.017C219.393 350.872 210.799 353.325 200.889 355.432C195.908 356.372 191.459 357.701 182.692 357.036C181.997 356.953 181.281 356.846 180.508 356.691C179.669 356.505 179.161 356.447 177.382 355.815C176.594 355.523 175.717 355.151 174.7 354.584C174.192 354.3 173.649 353.965 173.07 353.553C172.441 353.081 172.075 352.871 170.823 351.634C168.705 349.573 166.304 345.514 166.118 341.018C166.027 336.044 167.125 334.281 168.064 332.273C170.025 328.662 172.375 326.995 172.909 326.514C173.829 325.774 174.67 325.209 175.492 324.704C175.886 324.462 176.365 324.187 176.663 324.023C176.933 323.874 177.203 323.73 177.475 323.589C178.02 323.308 178.573 323.04 179.143 322.779C179.707 322.521 180.323 322.255 180.895 322.02C181.346 321.838 181.811 321.659 182.295 321.479C183.261 321.121 184.299 320.765 185.428 320.405C187.348 319.813 189.27 319.311 191.655 318.746C194.682 318.116 198.281 317.388 201.954 316.75C242.52 308.477 241.541 294.254 276.037 273.884C293.197 263.35 313.233 252.554 329.937 241.452C338.249 235.934 345.748 230.273 350.939 225.111C356.386 220.113 358.171 214.594 357.57 216.568C357.519 217.122 357.836 218.371 358.231 219.008C358.615 219.678 358.773 219.718 358.237 219.454C359.078 219.909 356.222 219.093 351.785 219.988C347.427 220.731 341.666 222.497 336.029 224.593C324.261 228.966 311.55 234.878 298.082 240.857C265.595 254.729 230.584 282.42 186.357 291.492C179.119 292.648 170.654 293.794 160.525 292.106C150.606 290.962 137.324 282.571 133.31 271.622C128.43 261.225 129.833 247.889 134.416 239.432C138.869 230.658 144.856 224.643 150.499 219.651C161.919 209.841 172.943 203.875 180.887 199.781C204.742 188.281 210.565 186.363 232.67 174.498C245.413 167.83 264.242 161.294 281.071 159.169C289.564 158.122 288.456 160.93 280.918 164.666C269.956 170.162 260.206 172.789 255.515 177.825C246.127 187.971 242.355 191.949 226.829 195.467C211.254 199.166 208.488 209.603 200.476 213.209C196.438 215.084 193.847 215.01 187.843 217.96C182.404 220.954 170.561 226.989 160.121 243.239C157.807 247.264 156.767 250.879 156.783 253.337C156.806 255.822 157.471 257.271 158.674 259.119C159.522 260.297 160.079 260.487 160.616 260.667C161.158 260.824 161.89 260.992 163.133 261.1C165.504 261.325 169.43 260.92 172.847 260.139C180.066 258.53 186.817 255.903 192.338 253.56C207.258 247.602 241.701 234.393 267.024 219.412C277.873 213.125 293.787 204.551 311.565 196.79C329.865 190.594 347.608 176.962 377.002 190.067C384.694 194.053 392.516 205.359 392.842 214.31C393.51 229.327 388.685 234.512 386.079 239.109C383.1 243.419 380.516 245.744 377.772 247.94C372.547 251.885 367.253 254.497 358.509 260.161Z" fill="url(#paint2_linear_34_1552)"/>
</g>
<g filter="url(#filter2_d_34_1552)">
<g filter="url(#filter3_d_34_1552)">
<g filter="url(#filter4_i_34_1552)">
<path d="M265.148 72.8026C329.528 72.8026 347.928 99.3166 357.499 119.612C420.379 128.463 424.317 192.457 418.426 223.348C444.213 226.071 446.363 244.826 449.126 289.897C451.336 325.954 468.057 349.286 476.142 356.445C468.057 363.604 451.337 386.936 449.126 422.993C446.363 468.064 444.213 486.819 418.426 489.542C424.317 520.433 420.379 584.427 357.499 593.278C347.928 613.574 329.528 640.089 265.148 640.089C200.769 640.089 182.368 613.574 172.797 593.278C109.917 584.427 105.979 520.433 111.87 489.542C86.0827 486.819 83.9339 468.064 81.1709 422.993C78.9604 386.936 62.2395 363.604 54.1553 356.445C62.2396 349.286 78.9605 325.954 81.1709 289.897C83.9339 244.826 86.0826 226.071 111.87 223.348C105.979 192.457 109.917 128.463 172.797 119.612C182.368 99.3166 200.769 72.8026 265.148 72.8026ZM265.147 162.79C189.516 162.79 128.205 249.493 128.205 356.446C128.205 463.399 189.516 550.101 265.147 550.101C340.779 550.101 402.09 463.399 402.09 356.446C402.09 249.493 340.779 162.79 265.147 162.79Z" fill="#F6BD55"/>
</g>
<g filter="url(#filter5_g_34_1552)">
<path d="M339.45 151.177C318.691 123.587 288.875 120.258 264.622 120.258V161.591M339.45 151.177C368.716 159.5 400.189 184.735 400.189 237.028M339.45 151.177L357.502 119.587M400.189 237.028C436.908 251.396 413.418 291.792 423.61 318.736C433.802 345.679 451.335 353.772 457.861 356.425H476.065M400.189 237.028L418.407 223.345" stroke="#F7EDC5" stroke-opacity="0.58" stroke-width="2.94988"/>
<path d="M264.621 120.256C238.345 120.256 211.63 123.587 190.871 151.177M190.871 151.177C161.604 159.5 130.131 184.735 130.131 237.028M190.871 151.177L172.819 119.587M130.131 237.028C93.4122 251.396 116.902 291.792 106.71 318.736C96.5185 345.679 78.985 353.772 72.4596 356.425H54.2555M130.131 237.028L111.913 223.345" stroke="#F7EDC5" stroke-opacity="0.58" stroke-width="2.94988"/>
<path d="M339.437 561.95C318.679 589.576 288.863 592.91 264.609 592.91V551.102M339.437 561.95C368.704 553.615 400.177 528.346 400.177 475.983M339.437 561.95L357.49 593.582M400.177 475.983C436.896 461.596 413.406 421.145 423.598 394.166C433.79 367.186 451.323 359.082 457.849 356.425H402.815M400.177 475.983L418.395 489.684" stroke="#F7EDC5" stroke-opacity="0.58" stroke-width="2.94988"/>
<path d="M264.608 592.912C238.333 592.912 211.617 589.576 190.859 561.95M190.859 561.95C161.592 553.615 130.119 528.346 130.119 475.983M190.859 561.95L172.806 593.582M130.119 475.983C93.3999 461.596 116.89 421.145 106.698 394.166C96.5061 367.186 78.9726 359.082 72.4473 356.425H127.333M130.119 475.983L111.901 489.684" stroke="#F7EDC5" stroke-opacity="0.58" stroke-width="2.94988"/>
</g>
</g>
</g>
<g filter="url(#filter6_f_34_1552)">
<path d="M109.159 556.761L112.429 586.173L118.857 557.434L144.97 553.39L119.508 548.207L115.051 521.545L109.809 547.533L80.2669 551.827L109.159 556.761Z" fill="url(#paint3_radial_34_1552)"/>
</g>
<g filter="url(#filter7_f_34_1552)">
<path d="M83.7645 576.643L84.9529 587.329L87.2884 576.888L96.7756 575.418L87.5245 573.535L85.9053 563.848L84.0007 573.291L73.2677 574.851L83.7645 576.643Z" fill="url(#paint4_radial_34_1552)"/>
</g>
<g filter="url(#filter8_f_34_1552)">
<path d="M410.685 162.247L413.983 191.9L420.463 162.926L446.79 158.85L421.119 153.624L416.626 126.744L411.341 152.945L381.557 157.274L410.685 162.247Z" fill="url(#paint5_radial_34_1552)"/>
</g>
<g filter="url(#filter9_f_34_1552)">
<path d="M442.521 178.352L445.818 208.004L452.299 179.03L478.625 174.954L452.954 169.728L448.461 142.848L443.176 169.049L413.393 173.378L442.521 178.352Z" fill="url(#paint6_radial_34_1552)"/>
</g>
<g filter="url(#filter10_f_34_1552)">
<path d="M438.288 115.75L440.207 133.002L443.977 116.145L459.293 113.773L444.358 110.733L441.744 95.0946L438.67 110.338L421.342 112.856L438.288 115.75Z" fill="url(#paint7_radial_34_1552)"/>
</g>
<g filter="url(#filter11_f_34_1552)">
<path d="M88.0488 181.264L89.9673 198.515L93.7377 181.659L109.054 179.287L94.119 176.247L91.505 160.608L88.4301 175.852L71.1027 178.37L88.0488 181.264Z" fill="url(#paint8_radial_34_1552)"/>
</g>
<g filter="url(#filter12_f_34_1552)">
<path d="M77.9736 196.846L79.8921 214.097L83.6625 197.241L98.9788 194.869L84.0438 191.829L81.4298 176.19L78.3549 191.434L61.0275 193.952L77.9736 196.846Z" fill="url(#paint9_radial_34_1552)"/>
</g>
<g filter="url(#filter13_f_34_1552)">
<path d="M444.771 510.03L445.888 520.072L448.082 510.26L456.998 508.879L448.304 507.109L446.783 498.006L444.993 506.879L434.906 508.345L444.771 510.03Z" fill="url(#paint10_radial_34_1552)"/>
</g>
<g filter="url(#filter14_f_34_1552)">
<path d="M48.3163 395.481L49.4331 405.524L51.628 395.711L60.5441 394.33L51.85 392.561L50.3282 383.457L48.5383 392.331L38.4515 393.797L48.3163 395.481Z" fill="url(#paint11_radial_34_1552)"/>
</g>
<g filter="url(#filter15_f_34_1552)">
<path d="M316.289 651.354L317.406 661.397L319.6 651.584L328.516 650.204L319.822 648.434L318.301 639.33L316.511 648.204L306.424 649.67L316.289 651.354Z" fill="url(#paint12_radial_34_1552)"/>
</g>
<defs>
<filter id="filter0_f_34_1552" x="67.3409" y="302.143" width="390.231" height="275.431" filterUnits="userSpaceOnUse" color-interpolation-filters="sRGB">
<feFlood flood-opacity="0" result="BackgroundImageFix"/>
<feBlend mode="normal" in="SourceGraphic" in2="BackgroundImageFix" result="shape"/>
<feGaussianBlur stdDeviation="19.15" result="effect1_foregroundBlur_34_1552"/>
</filter>
<filter id="filter1_f_34_1552" x="91.9527" y="120.647" width="339.252" height="274.868" filterUnits="userSpaceOnUse" color-interpolation-filters="sRGB">
<feFlood flood-opacity="0" result="BackgroundImageFix"/>
<feBlend mode="normal" in="SourceGraphic" in2="BackgroundImageFix" result="shape"/>
<feGaussianBlur stdDeviation="19.15" result="effect1_foregroundBlur_34_1552"/>
</filter>
<filter id="filter2_d_34_1552" x="-3.70702" y="0" width="537.71" height="720.304" filterUnits="userSpaceOnUse" color-interpolation-filters="sRGB">
<feFlood flood-opacity="0" result="BackgroundImageFix"/>
<feColorMatrix in="SourceAlpha" type="matrix" values="0 0 0 0 0 0 0 0 0 0 0 0 0 0 0 0 0 0 127 0" result="hardAlpha"/>
<feOffset dy="3.70702"/>
<feGaussianBlur stdDeviation="1.85351"/>
<feComposite in2="hardAlpha" operator="out"/>
<feColorMatrix type="matrix" values="0 0 0 0 0 0 0 0 0 0 0 0 0 0 0 0 0 0 0.25 0"/>
<feBlend mode="normal" in2="BackgroundImageFix" result="effect1_dropShadow_34_1552"/>
<feBlend mode="normal" in="SourceGraphic" in2="effect1_dropShadow_34_1552" result="shape"/>
</filter>
<filter id="filter3_d_34_1552" x="51.2054" y="72.8026" width="427.886" height="573.186" filterUnits="userSpaceOnUse" color-interpolation-filters="sRGB">
<feFlood flood-opacity="0" result="BackgroundImageFix"/>
<feColorMatrix in="SourceAlpha" type="matrix" values="0 0 0 0 0 0 0 0 0 0 0 0 0 0 0 0 0 0 127 0" result="hardAlpha"/>
<feOffset dy="2.94988"/>
<feGaussianBlur stdDeviation="1.47494"/>
<feComposite in2="hardAlpha" operator="out"/>
<feColorMatrix type="matrix" values="0 0 0 0 0 0 0 0 0 0 0 0 0 0 0 0 0 0 0.25 0"/>
<feBlend mode="normal" in2="BackgroundImageFix" result="effect1_dropShadow_34_1552"/>
<feBlend mode="normal" in="SourceGraphic" in2="effect1_dropShadow_34_1552" result="shape"/>
</filter>
<filter id="filter4_i_34_1552" x="54.1553" y="72.8026" width="421.986" height="567.286" filterUnits="userSpaceOnUse" color-interpolation-filters="sRGB">
<feFlood flood-opacity="0" result="BackgroundImageFix"/>
<feBlend mode="normal" in="SourceGraphic" in2="BackgroundImageFix" result="shape"/>
<feColorMatrix in="SourceAlpha" type="matrix" values="0 0 0 0 0 0 0 0 0 0 0 0 0 0 0 0 0 0 127 0" result="hardAlpha"/>
<feOffset/>
<feGaussianBlur stdDeviation="5.64165"/>
<feComposite in2="hardAlpha" operator="arithmetic" k2="-1" k3="1"/>
<feColorMatrix type="matrix" values="0 0 0 0 0.835294 0 0 0 0 0.301961 0 0 0 0 0.54902 0 0 0 1 0"/>
<feBlend mode="normal" in2="shape" result="effect1_innerShadow_34_1552"/>
</filter>
<filter id="filter5_g_34_1552" x="51.3056" y="115.831" width="427.709" height="481.506" filterUnits="userSpaceOnUse" color-interpolation-filters="sRGB">
<feFlood flood-opacity="0" result="BackgroundImageFix"/>
<feBlend mode="normal" in="SourceGraphic" in2="BackgroundImageFix" result="shape"/>
<feTurbulence type="fractalNoise" baseFrequency="0.33899664878845215 0.33899664878845215" numOctaves="3" seed="9716" />
<feDisplacementMap in="shape" scale="5.8997635841369629" xChannelSelector="R" yChannelSelector="G" result="displacedImage" width="100%" height="100%" />
<feMerge result="effect1_texture_34_1552">
<feMergeNode in="displacedImage"/>
</feMerge>
</filter>
<filter id="filter6_f_34_1552" x="77.8717" y="519.15" width="69.4938" height="69.4182" filterUnits="userSpaceOnUse" color-interpolation-filters="sRGB">
<feFlood flood-opacity="0" result="BackgroundImageFix"/>
<feBlend mode="normal" in="SourceGraphic" in2="BackgroundImageFix" result="shape"/>
<feGaussianBlur stdDeviation="1.1976" result="effect1_foregroundBlur_34_1552"/>
</filter>
<filter id="filter7_f_34_1552" x="72.3975" y="562.978" width="25.2484" height="25.2209" filterUnits="userSpaceOnUse" color-interpolation-filters="sRGB">
<feFlood flood-opacity="0" result="BackgroundImageFix"/>
<feBlend mode="normal" in="SourceGraphic" in2="BackgroundImageFix" result="shape"/>
<feGaussianBlur stdDeviation="0.435111" result="effect1_foregroundBlur_34_1552"/>
</filter>
<filter id="filter8_f_34_1552" x="379.143" y="124.329" width="70.0617" height="69.9854" filterUnits="userSpaceOnUse" color-interpolation-filters="sRGB">
<feFlood flood-opacity="0" result="BackgroundImageFix"/>
<feBlend mode="normal" in="SourceGraphic" in2="BackgroundImageFix" result="shape"/>
<feGaussianBlur stdDeviation="1.20739" result="effect1_foregroundBlur_34_1552"/>
</filter>
<filter id="filter9_f_34_1552" x="410.978" y="140.433" width="70.0617" height="69.9854" filterUnits="userSpaceOnUse" color-interpolation-filters="sRGB">
<feFlood flood-opacity="0" result="BackgroundImageFix"/>
<feBlend mode="normal" in="SourceGraphic" in2="BackgroundImageFix" result="shape"/>
<feGaussianBlur stdDeviation="1.20739" result="effect1_foregroundBlur_34_1552"/>
</filter>
<filter id="filter10_f_34_1552" x="419.937" y="93.6897" width="40.7611" height="40.7168" filterUnits="userSpaceOnUse" color-interpolation-filters="sRGB">
<feFlood flood-opacity="0" result="BackgroundImageFix"/>
<feBlend mode="normal" in="SourceGraphic" in2="BackgroundImageFix" result="shape"/>
<feGaussianBlur stdDeviation="0.702446" result="effect1_foregroundBlur_34_1552"/>
</filter>
<filter id="filter11_f_34_1552" x="69.6978" y="159.204" width="40.7611" height="40.7168" filterUnits="userSpaceOnUse" color-interpolation-filters="sRGB">
<feFlood flood-opacity="0" result="BackgroundImageFix"/>
<feBlend mode="normal" in="SourceGraphic" in2="BackgroundImageFix" result="shape"/>
<feGaussianBlur stdDeviation="0.702446" result="effect1_foregroundBlur_34_1552"/>
</filter>
<filter id="filter12_f_34_1552" x="59.6226" y="174.786" width="40.7611" height="40.7168" filterUnits="userSpaceOnUse" color-interpolation-filters="sRGB">
<feFlood flood-opacity="0" result="BackgroundImageFix"/>
<feBlend mode="normal" in="SourceGraphic" in2="BackgroundImageFix" result="shape"/>
<feGaussianBlur stdDeviation="0.702446" result="effect1_foregroundBlur_34_1552"/>
</filter>
<filter id="filter13_f_34_1552" x="434.088" y="497.188" width="23.7283" height="23.7025" filterUnits="userSpaceOnUse" color-interpolation-filters="sRGB">
<feFlood flood-opacity="0" result="BackgroundImageFix"/>
<feBlend mode="normal" in="SourceGraphic" in2="BackgroundImageFix" result="shape"/>
<feGaussianBlur stdDeviation="0.408915" result="effect1_foregroundBlur_34_1552"/>
</filter>
<filter id="filter14_f_34_1552" x="37.6336" y="382.639" width="23.7283" height="23.7025" filterUnits="userSpaceOnUse" color-interpolation-filters="sRGB">
<feFlood flood-opacity="0" result="BackgroundImageFix"/>
<feBlend mode="normal" in="SourceGraphic" in2="BackgroundImageFix" result="shape"/>
<feGaussianBlur stdDeviation="0.408915" result="effect1_foregroundBlur_34_1552"/>
</filter>
<filter id="filter15_f_34_1552" x="305.606" y="638.512" width="23.7283" height="23.7025" filterUnits="userSpaceOnUse" color-interpolation-filters="sRGB">
<feFlood flood-opacity="0" result="BackgroundImageFix"/>
<feBlend mode="normal" in="SourceGraphic" in2="BackgroundImageFix" result="shape"/>
<feGaussianBlur stdDeviation="0.408915" result="effect1_foregroundBlur_34_1552"/>
</filter>
<linearGradient id="paint0_linear_34_1552" x1="180.874" y1="200.12" x2="304.417" y2="507.88" gradientUnits="userSpaceOnUse">
<stop stop-color="#FFFEF6"/>
<stop offset="1" stop-color="#E0FDFF"/>
</linearGradient>
<linearGradient id="paint1_linear_34_1552" x1="121.12" y1="311.649" x2="157.653" y2="539.986" gradientUnits="userSpaceOnUse">
<stop stop-color="#F7FCFF"/>
<stop offset="1" stop-color="#B4ECFF"/>
</linearGradient>
<linearGradient id="paint2_linear_34_1552" x1="145.447" y1="130.118" x2="189.575" y2="355.666" gradientUnits="userSpaceOnUse">
<stop stop-color="#F7FCFF"/>
<stop offset="1" stop-color="#B4ECFF"/>
</linearGradient>
<radialGradient id="paint3_radial_34_1552" cx="0" cy="0" r="1" gradientTransform="matrix(-2.2753 32.2948 -32.2491 -2.23852 112.533 553.823)" gradientUnits="userSpaceOnUse">
<stop offset="0.00961538" stop-color="#FFEA00"/>
<stop offset="1" stop-color="white" stop-opacity="0.26"/>
</radialGradient>
<radialGradient id="paint4_radial_34_1552" cx="0" cy="0" r="1" gradientTransform="matrix(-0.826658 11.7333 -11.7167 -0.813293 84.9906 575.576)" gradientUnits="userSpaceOnUse">
<stop offset="0.00961538" stop-color="#FFEA00"/>
<stop offset="1" stop-color="white" stop-opacity="0.26"/>
</radialGradient>
<radialGradient id="paint5_radial_34_1552" cx="0" cy="0" r="1" gradientTransform="matrix(-2.29389 32.5587 -32.5126 -2.25681 414.087 159.286)" gradientUnits="userSpaceOnUse">
<stop offset="0.00961538" stop-color="#FFEA00"/>
<stop offset="1" stop-color="white" stop-opacity="0.26"/>
</radialGradient>
<radialGradient id="paint6_radial_34_1552" cx="0" cy="0" r="1" gradientTransform="matrix(-2.29389 32.5587 -32.5126 -2.25681 445.923 175.39)" gradientUnits="userSpaceOnUse">
<stop offset="0.00961538" stop-color="#FFEA00"/>
<stop offset="1" stop-color="white" stop-opacity="0.26"/>
</radialGradient>
<radialGradient id="paint7_radial_34_1552" cx="0" cy="0" r="1" gradientTransform="matrix(-1.33456 18.9423 -18.9155 -1.31299 440.268 114.027)" gradientUnits="userSpaceOnUse">
<stop offset="0.00961538" stop-color="#FFEA00"/>
<stop offset="1" stop-color="white" stop-opacity="0.26"/>
</radialGradient>
<radialGradient id="paint8_radial_34_1552" cx="0" cy="0" r="1" gradientTransform="matrix(-1.33456 18.9423 -18.9155 -1.31299 90.0282 179.541)" gradientUnits="userSpaceOnUse">
<stop offset="0.00961538" stop-color="#FFEA00"/>
<stop offset="1" stop-color="white" stop-opacity="0.26"/>
</radialGradient>
<radialGradient id="paint9_radial_34_1552" cx="0" cy="0" r="1" gradientTransform="matrix(-1.33456 18.9423 -18.9155 -1.31299 79.953 195.123)" gradientUnits="userSpaceOnUse">
<stop offset="0.00961538" stop-color="#FFEA00"/>
<stop offset="1" stop-color="white" stop-opacity="0.26"/>
</radialGradient>
<radialGradient id="paint10_radial_34_1552" cx="0" cy="0" r="1" gradientTransform="matrix(-0.776889 11.0269 -11.0113 -0.76433 445.923 509.027)" gradientUnits="userSpaceOnUse">
<stop offset="0.00961538" stop-color="#FFEA00"/>
<stop offset="1" stop-color="white" stop-opacity="0.26"/>
</radialGradient>
<radialGradient id="paint11_radial_34_1552" cx="0" cy="0" r="1" gradientTransform="matrix(-0.776889 11.0269 -11.0113 -0.76433 49.4686 394.478)" gradientUnits="userSpaceOnUse">
<stop offset="0.00961538" stop-color="#FFEA00"/>
<stop offset="1" stop-color="white" stop-opacity="0.26"/>
</radialGradient>
<radialGradient id="paint12_radial_34_1552" cx="0" cy="0" r="1" gradientTransform="matrix(-0.776889 11.0269 -11.0113 -0.76433 317.441 650.351)" gradientUnits="userSpaceOnUse">
<stop offset="0.00961538" stop-color="#FFEA00"/>
<stop offset="1" stop-color="white" stop-opacity="0.26"/>
</radialGradient>
</defs>
</svg>
