<svg width="46" height="55" viewBox="0 0 46 55" fill="none" xmlns="http://www.w3.org/2000/svg">
<g filter="url(#filter0_dng_8_638)">
<path d="M7.04148 49.3147C5.01862 47.0019 4.21147 41.2909 3.80865 37.7366C3.80865 37.7366 44.1926 33.9115 42.8731 38.5633C41.5537 43.2151 41.2143 44.9261 39.876 48.8271C39.3787 49.6777 39.249 50.411 37.4828 50.7658C37.3117 50.8001 37.1252 50.831 36.9215 50.858C35.8032 51.0064 34.4762 51.1234 33.0294 51.2144C31.0918 51.3362 28.9393 51.4114 26.7847 51.4527C24.6922 51.4928 22.5977 51.501 20.6966 51.4891C17.6375 51.4699 15.0788 51.3986 13.8334 51.3243C13.5846 51.3095 13.3882 51.2945 13.2507 51.2798C12.9147 51.244 12.5943 51.2123 12.2882 51.1821L12.2881 51.1821C10.5798 51.0135 9.31633 50.8887 8.26764 50.3143C7.8268 50.0728 7.42381 49.7518 7.04148 49.3147Z" fill="url(#paint0_linear_8_638)"/>
</g>
<g filter="url(#filter1_n_8_638)">
<path d="M27.4282 39.8358L26.7847 51.453C24.6923 51.4931 22.5978 51.5011 20.6968 51.4891L20.437 39.3885L27.4282 39.8358ZM13.2954 38.4462L13.8335 51.3241C13.5851 51.3093 13.3889 51.2948 13.2515 51.2802C12.9156 51.2443 12.5945 51.2127 12.2886 51.1825C10.5802 51.0138 9.31678 50.8888 8.26807 50.3143L6.55615 37.8007L13.2954 38.4462ZM37.4829 50.8153C37.312 50.8496 37.1258 50.8811 36.9224 50.9081C35.804 51.0565 34.4766 51.1735 33.0298 51.2645L33.4136 39.1903L39.7505 38.5946L37.4829 50.8153Z" fill="url(#paint1_linear_8_638)"/>
</g>
<g filter="url(#filter2_f_8_638)">
<path fill-rule="evenodd" clip-rule="evenodd" d="M16.2797 40.1124C16.3382 39.6067 16.9763 40.2368 16.9887 40.2491C17.0461 47.4648 17.0025 51.6866 16.768 51.2413C16.5334 50.7951 16.2207 40.6233 16.2797 40.1124ZM30.1371 40.0782C30.2296 39.5767 30.8256 40.2498 30.8354 40.2608C30.4071 47.465 30.0795 51.6745 29.8754 51.214C29.6715 50.753 30.0437 40.5896 30.1371 40.0782ZM39.6381 38.8018C39.7647 38.3056 40.3179 39.0241 40.3227 39.0304C39.4098 46.1883 38.7991 50.3666 38.6264 49.8966C38.4539 49.4236 39.5109 39.3005 39.6381 38.8018ZM5.81487 38.0919C5.83846 37.5847 6.51564 38.1669 6.53166 38.1808C7.08463 45.3767 7.33151 49.5917 7.06682 49.1622C6.80211 48.7324 5.79105 38.6053 5.81487 38.0919Z" fill="#FAA1A1" fill-opacity="0.44"/>
</g>
<g filter="url(#filter3_d_8_638)">
<path fill-rule="evenodd" clip-rule="evenodd" d="M21.7746 20.8811C23.0013 20.87 24.0936 21.2827 24.7875 21.9305C25.4831 21.5788 26.3608 21.4057 27.2958 21.4893C28.3638 21.5848 29.2958 21.9962 29.9303 22.5769C30.6871 22.2422 31.6315 22.0919 32.6322 22.1976C34.8944 22.4369 36.5889 23.892 36.4167 25.4479C36.3964 25.6312 36.349 25.8072 36.2812 25.9756C36.9204 25.7347 37.6752 25.6333 38.4679 25.7171C40.537 25.9357 42.0798 27.3297 41.9137 28.831C41.8785 29.1486 41.7682 29.4449 41.5988 29.7137C43.2393 30.1637 44.3679 31.3774 44.2246 32.6723C44.1521 33.3268 43.766 33.8932 43.1829 34.3063C43.8967 34.8854 44.3028 35.6594 44.2134 36.466C44.0468 37.967 42.2346 39.0061 40.1657 38.7876C40.012 38.7713 39.8611 38.7465 39.7136 38.7177C39.712 38.7384 39.712 38.7594 39.7097 38.7801C39.5434 40.2815 37.7312 41.3214 35.662 41.1027C34.7501 41.0063 33.9414 40.6804 33.3353 40.2188C32.9144 41.4931 31.2518 42.3268 29.378 42.1288C28.5713 42.0435 27.8458 41.7781 27.2692 41.3988C26.5514 42.2126 25.2248 42.6824 23.7697 42.5287C22.2167 42.3645 20.9604 41.538 20.5006 40.5011C19.8222 41.4136 18.4175 41.9554 16.8686 41.7917C15.072 41.6017 13.6727 40.5255 13.4442 39.2625C12.7621 40.1669 11.3638 40.7033 9.82237 40.5404C8.01832 40.3496 6.6145 39.2649 6.39482 37.9951C5.88075 38.1175 5.31526 38.161 4.72807 38.0989C2.65909 37.8803 1.11633 36.4862 1.2823 34.985C1.35783 34.3033 1.77407 33.7178 2.39827 33.301C2.27524 33.2053 2.16163 33.0968 2.06186 32.9734C1.11095 31.7967 1.66133 29.8023 3.29109 28.5182C3.8125 28.1074 4.38118 27.8193 4.94475 27.6557C4.87303 26.4444 5.81284 25.0894 7.34982 24.3573C8.78105 23.6758 10.3166 23.7318 11.2594 24.3967C11.6849 23.4143 12.7608 22.4903 14.1884 22.0096C15.8486 21.4507 17.5012 21.6543 18.4018 22.4232C19.0142 21.5213 20.2928 20.8944 21.7746 20.8811ZM18.6878 25.1732C18.173 26.0046 17.2012 26.7535 15.9647 27.1698C14.4488 27.6802 12.9395 27.5551 12.0028 26.9441C11.6841 27.8526 10.8775 28.7303 9.7457 29.2693C9.31013 29.4768 8.86404 29.612 8.42871 29.6865C8.43845 30.7286 7.8328 31.9149 6.73586 32.7792C6.6655 32.8346 6.59218 32.8849 6.52023 32.9359C7.7252 33.3724 8.58783 34.2336 8.75685 35.2057C9.2712 35.0831 9.83784 35.0409 10.4254 35.103C12.2213 35.2929 13.6196 36.3688 13.849 37.6312C14.5312 36.727 15.9303 36.1924 17.4715 36.3553C19.0233 36.5194 20.2794 37.3441 20.74 38.3798C21.4189 37.4684 22.8238 36.9286 24.3717 37.0922C25.1776 37.1774 25.9024 37.4423 26.4787 37.821C27.1965 37.007 28.5247 36.5385 29.98 36.6922C30.8913 36.7886 31.6998 37.1139 32.3058 37.575C32.727 36.3013 34.3907 35.4683 36.264 35.6662C36.4174 35.6824 36.5681 35.7063 36.7152 35.735C36.7169 35.7146 36.7177 35.6941 36.72 35.6736C36.7925 35.019 37.1776 34.4517 37.7608 34.0386C37.0476 33.4596 36.6419 32.6871 36.7311 31.8809C36.7663 31.5632 36.8756 31.266 37.0451 30.9972C35.4052 30.547 34.277 29.3342 34.4202 28.0396C34.4403 27.8581 34.4845 27.6829 34.5503 27.5163C33.8218 27.8043 32.9397 27.9316 32.0074 27.8331C30.8066 27.7061 29.7661 27.2358 29.0796 26.5903C28.4211 26.8746 27.6259 27.0107 26.7832 26.9354C25.6657 26.8354 24.698 26.3888 24.0635 25.765C23.4357 26.1106 22.6569 26.322 21.8098 26.3296C20.5167 26.3412 19.3729 25.8824 18.6878 25.1732Z" fill="url(#paint2_radial_8_638)"/>
</g>
<g filter="url(#filter4_dn_8_638)">
<path d="M40.9194 33.3221C40.8586 37.1061 32.3819 38.4637 22.111 38.303C11.8401 38.1423 4.01853 37.2159 4.07933 33.432C4.14013 29.648 12.305 24.2132 22.576 24.374C32.8469 24.5347 40.9802 29.5381 40.9194 33.3221Z" fill="url(#paint3_linear_8_638)"/>
</g>
<path d="M21.758 29.5717C21.6807 29.8782 19.5911 29.0389 18.8406 28.8543C18.0902 28.6698 17.2386 28.643 17.3816 28.0767C17.5246 27.5103 18.229 27.2797 18.9794 27.4643C19.7298 27.6488 21.8354 29.2653 21.758 29.5717Z" fill="#C24C0D"/>
<path d="M21.2791 29.3192C21.2302 29.5131 19.9082 28.9821 19.4335 28.8654C18.9587 28.7486 18.42 28.7317 18.5104 28.3734C18.6009 28.0151 19.0465 27.8692 19.5212 27.986C19.996 28.1027 21.328 29.1254 21.2791 29.3192Z" fill="#783D1D"/>
<path d="M22.6868 29.6206C22.7642 29.927 24.8538 29.0877 25.6042 28.9032C26.3546 28.7186 27.2062 28.6918 27.0632 28.1255C26.9202 27.5592 26.2159 27.3286 25.4654 27.5131C24.715 27.6976 22.6094 29.3141 22.6868 29.6206Z" fill="#C24C0D"/>
<path d="M23.3683 29.3256C23.4175 29.5202 24.7449 28.9871 25.2216 28.8699C25.6983 28.7526 26.2392 28.7356 26.1484 28.3759C26.0576 28.0161 25.6101 27.8696 25.1334 27.9868C24.6567 28.1041 23.3192 29.1309 23.3683 29.3256Z" fill="#783D1D"/>
<path d="M21.8777 30.4965C22.0652 30.7524 20.0678 31.7875 19.441 32.2346C18.8142 32.6817 18.2443 33.3067 17.8979 32.8337C17.5514 32.3607 17.827 31.6807 18.4538 31.2336C19.0806 30.7865 21.6903 30.2406 21.8777 30.4965Z" fill="#C24C0D"/>
<path d="M21.2353 30.7724C21.3715 30.9584 19.92 31.7106 19.4645 32.0355C19.009 32.3604 18.5949 32.8146 18.3431 32.4709C18.0914 32.1271 18.2916 31.633 18.7471 31.3081C19.2026 30.9832 21.0991 30.5864 21.2353 30.7724Z" fill="#783D1D"/>
<path d="M22.8342 30.6814C22.6468 30.9374 24.6442 31.9724 25.271 32.4195C25.8978 32.8666 26.4676 33.4917 26.814 33.0186C27.1605 32.5456 26.8849 31.8656 26.2581 31.4185C25.6313 30.9714 23.0216 30.4255 22.8342 30.6814Z" fill="#C24C0D"/>
<path d="M23.3137 30.8609C23.1793 31.0445 24.6117 31.7868 25.0612 32.1074C25.5107 32.428 25.9193 32.8762 26.1678 32.537C26.4162 32.1978 26.2186 31.7102 25.7691 31.3895C25.3196 31.0689 23.4481 30.6774 23.3137 30.8609Z" fill="#783D1D"/>
<g opacity="0.5" filter="url(#filter5_f_8_638)">
<path d="M8.97025 49.8121L7.86377 41.0765C7.86377 41.0765 8.48811 44.4766 9.27201 46.5363C9.86823 48.1028 11.1329 50.4077 11.1329 50.4077L8.97025 49.8121Z" fill="#95F5DA"/>
</g>
<g opacity="0.5" filter="url(#filter6_f_8_638)">
<path d="M21.6445 50.7552L21.1416 42.7641C21.1416 42.7641 21.6445 46.3874 22.1475 47.7771C22.6504 49.1669 23.9078 50.7552 23.9078 50.7552H21.6445Z" fill="#95F5DA"/>
</g>
<g opacity="0.5" filter="url(#filter7_f_8_638)">
<path d="M33.9663 50.507L33.7148 45.7421C33.7148 45.7421 33.9663 47.1815 34.4693 48.5713C34.9722 49.961 35.8775 50.3084 35.8775 50.3084L33.9663 50.507Z" fill="#95F5DA"/>
</g>
<g filter="url(#filter8_f_8_638)">
<path d="M6.35481 31.5451C4.44938 35.8936 7.14517 35.8729 9.3127 36.7583C10.9105 37.2218 10.499 36.5449 9.3127 35.6168C4.75861 32.0537 8.5175 29.8096 11.2742 28.0724C13.167 26.8796 19.2503 25.8885 16.1622 25.8885C14.0757 25.8885 7.96423 27.8722 6.35481 31.5451Z" fill="url(#paint4_linear_8_638)" fill-opacity="0.64"/>
</g>
<g filter="url(#filter9_g_8_638)">
<path d="M14.6081 15.4157C14.4069 18.3937 20.2411 19.1382 20.5931 18.2448C20.9452 17.3514 18.5311 16.1106 18.6317 14.8201C18.7322 13.5296 19.5873 12.6362 21.9511 11.9909C24.3149 11.3457 22.1121 8.31967 21.2973 7.17644C20.236 5.68742 21.8454 2.0145 21.4934 1.26999C21.2587 1.68361 18.1538 5.39954 19.2804 6.829C20.6887 8.61583 20.6937 9.90631 18.8831 11.1472C17.0725 12.388 14.8596 11.6931 14.6081 15.4157Z" fill="url(#paint5_linear_8_638)"/>
</g>
<g filter="url(#filter10_g_8_638)">
<path d="M22.2512 16.5562C22.1256 18.786 25.7682 19.3434 25.988 18.6745C26.2078 18.0055 24.7006 17.0764 24.7634 16.1102C24.8262 15.1439 25.36 14.475 26.8359 13.9919C28.3118 13.5087 27.2755 10.6843 26.4277 10.387C25.7494 10.1491 25.1402 8.97475 24.9204 8.4173C24.7738 8.727 24.6566 9.61397 25.36 10.6843C26.2392 12.0222 26.0508 12.431 24.9204 13.3601C23.7899 14.2892 22.4082 13.7689 22.2512 16.5562Z" fill="url(#paint6_linear_8_638)"/>
</g>
<defs>
<filter id="filter0_dng_8_638" x="2.5386" y="34.9874" width="41.6362" height="19.0467" filterUnits="userSpaceOnUse" color-interpolation-filters="sRGB">
<feFlood flood-opacity="0" result="BackgroundImageFix"/>
<feColorMatrix in="SourceAlpha" type="matrix" values="0 0 0 0 0 0 0 0 0 0 0 0 0 0 0 0 0 0 127 0" result="hardAlpha"/>
<feOffset dy="1.26999"/>
<feGaussianBlur stdDeviation="0.634997"/>
<feComposite in2="hardAlpha" operator="out"/>
<feColorMatrix type="matrix" values="0 0 0 0 0 0 0 0 0 0 0 0 0 0 0 0 0 0 0.25 0"/>
<feBlend mode="normal" in2="BackgroundImageFix" result="effect1_dropShadow_8_638"/>
<feBlend mode="normal" in="SourceGraphic" in2="BackgroundImageFix" result="shape"/>
<feTurbulence type="fractalNoise" baseFrequency="6.2992434501647949 6.2992434501647949" stitchTiles="stitch" numOctaves="3" result="noise" seed="5842" />
<feColorMatrix in="noise" type="luminanceToAlpha" result="alphaNoise" />
<feComponentTransfer in="alphaNoise" result="coloredNoise1">
<feFuncA type="discrete" tableValues="1 1 1 1 1 1 1 1 1 1 1 1 1 1 1 1 1 1 1 1 1 1 1 1 1 1 1 1 1 1 1 1 1 1 1 1 1 1 1 1 1 1 1 1 1 1 1 1 1 1 1 0 0 0 0 0 0 0 0 0 0 0 0 0 0 0 0 0 0 0 0 0 0 0 0 0 0 0 0 0 0 0 0 0 0 0 0 0 0 0 0 0 0 0 0 0 0 0 0 0 "/>
</feComponentTransfer>
<feComposite operator="in" in2="shape" in="coloredNoise1" result="noise1Clipped" />
<feFlood flood-color="rgba(0, 0, 0, 0.25)" result="color1Flood" />
<feComposite operator="in" in2="noise1Clipped" in="color1Flood" result="color1" />
<feMerge result="effect2_noise_8_638">
<feMergeNode in="shape" />
<feMergeNode in="color1" />
</feMerge>
<feBlend mode="normal" in="effect2_noise_8_638" in2="effect1_dropShadow_8_638" result="effect2_noise_8_638"/>
<feTurbulence type="fractalNoise" baseFrequency="0.99900001287460327 0.99900001287460327" numOctaves="3" seed="9285" />
<feDisplacementMap in="effect2_noise_8_638" scale="2.5399875640869141" xChannelSelector="R" yChannelSelector="G" result="displacedImage" width="100%" height="100%" />
<feMerge result="effect3_texture_8_638">
<feMergeNode in="displacedImage"/>
</feMerge>
</filter>
<filter id="filter1_n_8_638" x="6.55615" y="37.8007" width="33.1943" height="13.6935" filterUnits="userSpaceOnUse" color-interpolation-filters="sRGB">
<feFlood flood-opacity="0" result="BackgroundImageFix"/>
<feBlend mode="normal" in="SourceGraphic" in2="BackgroundImageFix" result="shape"/>
<feTurbulence type="fractalNoise" baseFrequency="3.1496217250823975 3.1496217250823975" stitchTiles="stitch" numOctaves="3" result="noise" seed="44" />
<feColorMatrix in="noise" type="luminanceToAlpha" result="alphaNoise" />
<feComponentTransfer in="alphaNoise" result="coloredNoise1">
<feFuncA type="discrete" tableValues="1 1 1 1 1 1 1 1 1 1 1 1 1 1 1 1 1 1 1 1 1 1 1 1 1 1 1 1 1 1 1 1 1 1 1 1 1 1 1 1 1 1 1 1 1 1 1 1 1 1 1 0 0 0 0 0 0 0 0 0 0 0 0 0 0 0 0 0 0 0 0 0 0 0 0 0 0 0 0 0 0 0 0 0 0 0 0 0 0 0 0 0 0 0 0 0 0 0 0 0 "/>
</feComponentTransfer>
<feComposite operator="in" in2="shape" in="coloredNoise1" result="noise1Clipped" />
<feFlood flood-color="rgba(0, 0, 0, 0.25)" result="color1Flood" />
<feComposite operator="in" in2="noise1Clipped" in="color1Flood" result="color1" />
<feMerge result="effect1_noise_8_638">
<feMergeNode in="shape" />
<feMergeNode in="color1" />
</feMerge>
</filter>
<filter id="filter2_f_8_638" x="4.54446" y="36.6148" width="37.0483" height="15.9286" filterUnits="userSpaceOnUse" color-interpolation-filters="sRGB">
<feFlood flood-opacity="0" result="BackgroundImageFix"/>
<feBlend mode="normal" in="SourceGraphic" in2="BackgroundImageFix" result="shape"/>
<feGaussianBlur stdDeviation="0.634997" result="effect1_foregroundBlur_8_638"/>
</filter>
<filter id="filter3_d_8_638" x="2.57492e-05" y="20.8808" width="45.5068" height="24.2168" filterUnits="userSpaceOnUse" color-interpolation-filters="sRGB">
<feFlood flood-opacity="0" result="BackgroundImageFix"/>
<feColorMatrix in="SourceAlpha" type="matrix" values="0 0 0 0 0 0 0 0 0 0 0 0 0 0 0 0 0 0 127 0" result="hardAlpha"/>
<feOffset dy="1.26999"/>
<feGaussianBlur stdDeviation="0.634997"/>
<feComposite in2="hardAlpha" operator="out"/>
<feColorMatrix type="matrix" values="0 0 0 0 0 0 0 0 0 0 0 0 0 0 0 0 0 0 0.25 0"/>
<feBlend mode="normal" in2="BackgroundImageFix" result="effect1_dropShadow_8_638"/>
<feBlend mode="normal" in="SourceGraphic" in2="effect1_dropShadow_8_638" result="shape"/>
</filter>
<filter id="filter4_dn_8_638" x="2.80911" y="24.3705" width="39.3808" height="16.4851" filterUnits="userSpaceOnUse" color-interpolation-filters="sRGB">
<feFlood flood-opacity="0" result="BackgroundImageFix"/>
<feColorMatrix in="SourceAlpha" type="matrix" values="0 0 0 0 0 0 0 0 0 0 0 0 0 0 0 0 0 0 127 0" result="hardAlpha"/>
<feOffset dy="1.26999"/>
<feGaussianBlur stdDeviation="0.634997"/>
<feComposite in2="hardAlpha" operator="out"/>
<feColorMatrix type="matrix" values="0 0 0 0 0 0 0 0 0 0 0 0 0 0 0 0 0 0 0.25 0"/>
<feBlend mode="normal" in2="BackgroundImageFix" result="effect1_dropShadow_8_638"/>
<feBlend mode="normal" in="SourceGraphic" in2="BackgroundImageFix" result="shape"/>
<feTurbulence type="fractalNoise" baseFrequency="3.1496217250823975 3.1496217250823975" stitchTiles="stitch" numOctaves="3" result="noise" seed="2639" />
<feComponentTransfer in="noise" result="coloredNoise1">
<feFuncR type="linear" slope="2" intercept="-0.5" />
<feFuncG type="linear" slope="2" intercept="-0.5" />
<feFuncB type="linear" slope="2" intercept="-0.5" />
<feFuncA type="discrete" tableValues="1 1 1 1 1 1 1 1 1 1 1 1 1 1 1 1 1 1 1 1 1 1 1 1 1 1 1 1 1 1 1 1 1 1 1 1 1 1 1 1 1 1 1 1 1 1 1 1 1 1 1 0 0 0 0 0 0 0 0 0 0 0 0 0 0 0 0 0 0 0 0 0 0 0 0 0 0 0 0 0 0 0 0 0 0 0 0 0 0 0 0 0 0 0 0 0 0 0 0 0 "/>
</feComponentTransfer>
<feComposite operator="in" in2="shape" in="coloredNoise1" result="noise1Clipped" />
<feComponentTransfer in="noise1Clipped" result="color1">
<feFuncA type="table" tableValues="0 0.15" />
</feComponentTransfer>
<feMerge result="effect2_noise_8_638">
<feMergeNode in="shape" />
<feMergeNode in="color1" />
</feMerge>
<feBlend mode="normal" in="effect2_noise_8_638" in2="effect1_dropShadow_8_638" result="effect2_noise_8_638"/>
</filter>
<filter id="filter5_f_8_638" x="6.59378" y="39.8065" width="5.80903" height="11.8712" filterUnits="userSpaceOnUse" color-interpolation-filters="sRGB">
<feFlood flood-opacity="0" result="BackgroundImageFix"/>
<feBlend mode="normal" in="SourceGraphic" in2="BackgroundImageFix" result="shape"/>
<feGaussianBlur stdDeviation="0.634997" result="effect1_foregroundBlur_8_638"/>
</filter>
<filter id="filter6_f_8_638" x="19.8716" y="41.4941" width="5.3061" height="10.5311" filterUnits="userSpaceOnUse" color-interpolation-filters="sRGB">
<feFlood flood-opacity="0" result="BackgroundImageFix"/>
<feBlend mode="normal" in="SourceGraphic" in2="BackgroundImageFix" result="shape"/>
<feGaussianBlur stdDeviation="0.634997" result="effect1_foregroundBlur_8_638"/>
</filter>
<filter id="filter7_f_8_638" x="32.4448" y="44.4721" width="4.70259" height="7.30485" filterUnits="userSpaceOnUse" color-interpolation-filters="sRGB">
<feFlood flood-opacity="0" result="BackgroundImageFix"/>
<feBlend mode="normal" in="SourceGraphic" in2="BackgroundImageFix" result="shape"/>
<feGaussianBlur stdDeviation="0.634997" result="effect1_foregroundBlur_8_638"/>
</filter>
<filter id="filter8_f_8_638" x="4.43704" y="24.6185" width="13.8544" height="13.5597" filterUnits="userSpaceOnUse" color-interpolation-filters="sRGB">
<feFlood flood-opacity="0" result="BackgroundImageFix"/>
<feBlend mode="normal" in="SourceGraphic" in2="BackgroundImageFix" result="shape"/>
<feGaussianBlur stdDeviation="0.634997" result="effect1_foregroundBlur_8_638"/>
</filter>
<filter id="filter9_g_8_638" x="13.333" y="-4.76837e-06" width="10.9501" height="19.8691" filterUnits="userSpaceOnUse" color-interpolation-filters="sRGB">
<feFlood flood-opacity="0" result="BackgroundImageFix"/>
<feBlend mode="normal" in="SourceGraphic" in2="BackgroundImageFix" result="shape"/>
<feTurbulence type="fractalNoise" baseFrequency="0.31496217846870422 0.31496217846870422" numOctaves="3" seed="4191" />
<feDisplacementMap in="shape" scale="2.5399875640869141" xChannelSelector="R" yChannelSelector="G" result="displacedImage" width="100%" height="100%" />
<feMerge result="effect1_texture_8_638">
<feMergeNode in="displacedImage"/>
</feMerge>
</filter>
<filter id="filter10_g_8_638" x="20.9781" y="7.1473" width="7.87104" height="13.0624" filterUnits="userSpaceOnUse" color-interpolation-filters="sRGB">
<feFlood flood-opacity="0" result="BackgroundImageFix"/>
<feBlend mode="normal" in="SourceGraphic" in2="BackgroundImageFix" result="shape"/>
<feTurbulence type="fractalNoise" baseFrequency="0.31496217846870422 0.31496217846870422" numOctaves="3" seed="4191" />
<feDisplacementMap in="shape" scale="2.5399875640869141" xChannelSelector="R" yChannelSelector="G" result="displacedImage" width="100%" height="100%" />
<feMerge result="effect1_texture_8_638">
<feMergeNode in="displacedImage"/>
</feMerge>
</filter>
<linearGradient id="paint0_linear_8_638" x1="23.6919" y1="35.0036" x2="23.6079" y2="54.6266" gradientUnits="userSpaceOnUse">
<stop stop-color="#76191E"/>
<stop offset="1" stop-color="#F24A53"/>
</linearGradient>
<linearGradient id="paint1_linear_8_638" x1="36.3868" y1="38.5965" x2="36.3931" y2="51.2624" gradientUnits="userSpaceOnUse">
<stop stop-color="#0A3C61"/>
<stop offset="0.971154" stop-color="#14C794"/>
</linearGradient>
<radialGradient id="paint2_radial_8_638" cx="0" cy="0" r="1" gradientTransform="matrix(0.50503 15.0119 -30.1844 0.98988 23.1484 31.7274)" gradientUnits="userSpaceOnUse">
<stop offset="0.0480769" stop-color="#F8B569"/>
<stop offset="0.552885" stop-color="#E66D2C"/>
<stop offset="0.885945" stop-color="#8B421B"/>
</radialGradient>
<linearGradient id="paint3_linear_8_638" x1="22.644" y1="24.375" x2="22.426" y2="38.3079" gradientUnits="userSpaceOnUse">
<stop offset="0.139423" stop-color="#F8B569"/>
<stop offset="1" stop-color="#E66D2C"/>
</linearGradient>
<linearGradient id="paint4_linear_8_638" x1="13.4716" y1="24.5204" x2="8.5563" y2="36.5533" gradientUnits="userSpaceOnUse">
<stop stop-color="#FBC98F"/>
<stop offset="1" stop-color="#FFD8AC" stop-opacity="0.18"/>
</linearGradient>
<linearGradient id="paint5_linear_8_638" x1="18.8724" y1="4.54584" x2="18.8724" y2="18.5991" gradientUnits="userSpaceOnUse">
<stop stop-color="#FEF2D8"/>
<stop offset="1" stop-color="#F6ECD4" stop-opacity="0.54"/>
</linearGradient>
<linearGradient id="paint6_linear_8_638" x1="24.9137" y1="8.4173" x2="24.9137" y2="18.9397" gradientUnits="userSpaceOnUse">
<stop stop-color="#FEF2D8"/>
<stop offset="1" stop-color="#F6ECD4" stop-opacity="0.54"/>
</linearGradient>
</defs>
</svg>
