<svg width="1116" height="837" viewBox="0 0 1116 837" fill="none" xmlns="http://www.w3.org/2000/svg">
<g opacity="0.05" style="mix-blend-mode:multiply">
<path d="M-38.623 319.871C5.793 293.417 94.2332 264.416 92.6655 360.041C90.706 479.573 -4.3314 571.671 120.099 601.064C244.529 630.457 287.639 482.512 394.434 595.185C501.228 707.858 440.483 755.867 538.459 754.887C636.436 753.907 726.574 674.546 770.664 740.19C814.753 805.835 759.886 837.187 834.349 840.127" stroke="#4B96FF" stroke-width="5"/>
</g>
<g opacity="0.05" style="mix-blend-mode:multiply">
<path d="M1079.98 -83.353C1035.56 -109.807 947.124 -138.808 948.692 -43.1825C950.651 76.349 1045.69 168.447 921.258 197.84C796.828 227.233 753.718 79.2883 646.924 191.961C540.129 304.635 600.875 352.643 502.898 351.663C404.921 350.684 314.783 271.323 270.693 336.967C226.604 402.611 281.471 433.964 207.009 436.903" stroke="#4B96FF" stroke-width="5"/>
</g>
<g opacity="0.05" style="mix-blend-mode:multiply">
<path d="M-116.024 383.555C-71.6084 357.102 16.8318 328.101 15.2642 423.726C13.3046 543.257 -81.7328 635.355 42.6976 664.748C167.128 694.141 210.238 546.197 317.032 658.87C423.827 771.543 363.081 819.552 461.058 818.572C559.035 817.592 649.173 738.231 693.263 803.875C737.352 869.52 682.485 900.872 756.947 903.811" stroke="#4B96FF" stroke-width="5"/>
</g>
<g opacity="0.05" style="mix-blend-mode:multiply">
<path d="M1157.38 -19.6681C1112.97 -46.1218 1024.53 -75.1229 1026.09 20.5023C1028.05 140.034 1123.09 232.132 998.66 261.525C874.229 290.918 831.12 142.973 724.325 255.646C617.531 368.319 678.276 416.328 580.299 415.348C482.323 414.368 392.184 335.007 348.095 400.652C304.005 466.296 358.872 497.649 284.41 500.588" stroke="#4B96FF" stroke-width="5"/>
</g>
<g opacity="0.05" style="mix-blend-mode:multiply">
<path d="M-203.224 454.099C-158.808 427.645 -70.3674 398.644 -71.9351 494.269C-73.8946 613.801 -168.932 705.899 -44.5016 735.292C79.9287 764.685 123.038 616.74 229.833 729.413C336.628 842.086 275.882 890.095 373.859 889.115C471.835 888.135 561.974 808.774 606.063 874.418C650.153 940.063 595.286 971.415 669.748 974.355" stroke="#4B96FF" stroke-width="5"/>
</g>
<g opacity="0.05" style="mix-blend-mode:multiply">
<path d="M1244.58 50.8751C1200.17 24.4214 1111.72 -4.5797 1113.29 91.0455C1115.25 210.577 1210.29 302.675 1085.86 332.068C961.429 361.461 918.319 213.516 811.524 326.189C704.73 438.863 765.475 486.871 667.499 485.891C569.522 484.912 479.384 405.551 435.294 471.195C391.205 536.839 446.072 568.192 371.609 571.131" stroke="#4B96FF" stroke-width="5"/>
</g>
</svg>
