<svg width="1116" height="837" viewBox="0 0 1116 837" fill="none" xmlns="http://www.w3.org/2000/svg">
<g opacity="0.07" filter="url(#filter0_gn_37_525)">
<path d="M917.577 127.118L955.89 140.122L956.309 141.885L921.325 169.456L882.659 156.616L881.748 154.898L917.577 127.118Z" fill="#723A3A"/>
<path d="M917.515 127.861L955.883 140.124L920.809 167.312L883.082 154.682L917.515 127.861Z" fill="#561E1E"/>
<path d="M887.373 151.232L892.236 152.847L887.834 156.256L882.982 154.648L887.373 151.232Z" fill="#7E3D3D"/>
<path d="M896.649 154.286L901.513 155.901L897.111 159.31L892.259 157.702L896.649 154.286Z" fill="#7E3D3D"/>
<path d="M891.723 147.862L896.586 149.477L892.184 152.886L887.332 151.278L891.723 147.862Z" fill="#EBA9A9"/>
<path d="M900.999 150.915L905.863 152.531L901.46 155.94L896.609 154.332L900.999 150.915Z" fill="#EBA9A9"/>
<path d="M895.924 144.526L900.788 146.142L896.386 149.551L891.534 147.943L895.924 144.526Z" fill="#7E3D3D"/>
<path d="M905.201 147.58L910.065 149.195L905.663 152.605L900.811 150.997L905.201 147.58Z" fill="#7E3D3D"/>
<path d="M900.274 141.156L905.137 142.771L900.735 146.181L895.883 144.573L900.274 141.156Z" fill="#EBA9A9"/>
<path d="M909.551 144.21L914.415 145.825L910.012 149.234L905.16 147.626L909.551 144.21Z" fill="#EBA9A9"/>
<path d="M904.772 137.751L909.635 139.366L905.233 142.775L900.381 141.167L904.772 137.751Z" fill="#7E3D3D"/>
<path d="M914.048 140.805L918.912 142.42L914.51 145.829L909.658 144.221L914.048 140.805Z" fill="#7E3D3D"/>
<path d="M909.121 134.38L913.985 135.996L909.582 139.405L904.731 137.797L909.121 134.38Z" fill="#EBA9A9"/>
<path d="M918.398 137.434L923.262 139.049L918.859 142.459L914.008 140.851L918.398 137.434Z" fill="#EBA9A9"/>
<path d="M913.323 131.045L918.187 132.661L913.784 136.07L908.932 134.462L913.323 131.045Z" fill="#7E3D3D"/>
<path d="M917.672 127.675L922.536 129.29L918.134 132.699L913.282 131.091L917.672 127.675Z" fill="#EBA9A9"/>
<path d="M926.95 130.729L931.813 132.344L927.411 135.753L922.559 134.145L926.95 130.729Z" fill="#EBA9A9"/>
<path d="M896.477 149.399L901.34 151.015L896.938 154.424L892.086 152.816L896.477 149.399Z" fill="#7E3D3D"/>
<path d="M905.754 152.453L910.617 154.068L906.215 157.477L901.363 155.869L905.754 152.453Z" fill="#7E3D3D"/>
<path d="M900.826 146.029L905.69 147.644L901.288 151.053L896.436 149.445L900.826 146.029Z" fill="#EBA9A9"/>
<path d="M910.103 149.083L914.967 150.698L910.564 154.107L905.713 152.499L910.103 149.083Z" fill="#EBA9A9"/>
<path d="M905.028 142.694L909.892 144.309L905.49 147.718L900.638 146.11L905.028 142.694Z" fill="#7E3D3D"/>
<path d="M914.305 145.748L919.168 147.363L914.766 150.772L909.914 149.164L914.305 145.748Z" fill="#7E3D3D"/>
<path d="M909.378 139.324L914.241 140.939L909.839 144.348L904.987 142.74L909.378 139.324Z" fill="#EBA9A9"/>
<path d="M918.655 142.377L923.519 143.992L919.116 147.402L914.264 145.794L918.655 142.377Z" fill="#EBA9A9"/>
<path d="M913.875 135.918L918.739 137.533L914.336 140.943L909.485 139.335L913.875 135.918Z" fill="#7E3D3D"/>
<path d="M923.152 138.972L928.016 140.587L923.613 143.996L918.761 142.388L923.152 138.972Z" fill="#7E3D3D"/>
<path d="M918.225 132.548L923.088 134.163L918.686 137.572L913.834 135.964L918.225 132.548Z" fill="#EBA9A9"/>
<path d="M927.502 135.602L932.365 137.217L927.963 140.626L923.111 139.018L927.502 135.602Z" fill="#EBA9A9"/>
<path d="M922.427 129.213L927.291 130.828L922.888 134.237L918.036 132.629L922.427 129.213Z" fill="#7E3D3D"/>
<path d="M931.704 132.266L936.567 133.882L932.165 137.291L927.313 135.683L931.704 132.266Z" fill="#7E3D3D"/>
<path d="M892.025 152.816L896.889 154.432L892.486 157.841L887.634 156.233L892.025 152.816Z" fill="#EBA9A9"/>
<path d="M901.301 155.87L906.165 157.485L901.763 160.894L896.911 159.286L901.301 155.87Z" fill="#EBA9A9"/>
<path d="M922.839 134.22L927.703 135.835L923.3 139.244L918.448 137.636L922.839 134.22Z" fill="#7E3D3D"/>
<path d="M906.119 157.458L910.982 159.073L906.58 162.482L901.728 160.874L906.119 157.458Z" fill="#7E3D3D"/>
<path d="M915.494 160.573L920.358 162.188L915.955 165.597L911.104 163.989L915.494 160.573Z" fill="#7E3D3D"/>
<path d="M910.468 154.088L915.332 155.703L910.93 159.112L906.078 157.504L910.468 154.088Z" fill="#EBA9A9"/>
<path d="M919.746 157.141L924.609 158.757L920.207 162.166L915.355 160.558L919.746 157.141Z" fill="#EBA9A9"/>
<path d="M914.67 150.752L919.534 152.368L915.132 155.777L910.28 154.169L914.67 150.752Z" fill="#7E3D3D"/>
<path d="M923.947 153.806L928.811 155.421L924.409 158.83L919.557 157.223L923.947 153.806Z" fill="#7E3D3D"/>
<path d="M928.297 150.436L933.161 152.051L928.758 155.46L923.906 153.852L928.297 150.436Z" fill="#EBA9A9"/>
<path d="M923.517 143.977L928.381 145.592L923.978 149.001L919.127 147.393L923.517 143.977Z" fill="#7E3D3D"/>
<path d="M932.795 147.03L937.658 148.646L933.256 152.055L928.404 150.447L932.795 147.03Z" fill="#7E3D3D"/>
<path d="M927.867 140.606L932.731 142.222L928.329 145.631L923.477 144.023L927.867 140.606Z" fill="#EBA9A9"/>
<path d="M937.144 143.66L942.008 145.275L937.605 148.685L932.754 147.077L937.144 143.66Z" fill="#EBA9A9"/>
<path d="M932.069 137.271L936.933 138.886L932.531 142.296L927.679 140.688L932.069 137.271Z" fill="#7E3D3D"/>
<path d="M941.346 140.325L946.209 141.94L941.807 145.349L936.955 143.741L941.346 140.325Z" fill="#7E3D3D"/>
<path d="M936.419 133.901L941.283 135.516L936.88 138.925L932.029 137.317L936.419 133.901Z" fill="#EBA9A9"/>
<path d="M945.695 136.955L950.559 138.57L946.157 141.979L941.305 140.371L945.695 136.955Z" fill="#EBA9A9"/>
<path d="M915.223 155.625L920.086 157.241L915.684 160.65L910.832 159.042L915.223 155.625Z" fill="#7E3D3D"/>
<path d="M924.5 158.679L929.363 160.294L924.961 163.703L920.109 162.095L924.5 158.679Z" fill="#7E3D3D"/>
<path d="M919.572 152.255L924.436 153.87L920.033 157.279L915.181 155.671L919.572 152.255Z" fill="#EBA9A9"/>
<path d="M928.849 155.309L933.713 156.924L929.31 160.333L924.459 158.725L928.849 155.309Z" fill="#EBA9A9"/>
<path d="M923.774 148.92L928.638 150.535L924.235 153.944L919.383 152.336L923.774 148.92Z" fill="#7E3D3D"/>
<path d="M933.051 151.973L937.915 153.589L933.513 156.998L928.661 155.39L933.051 151.973Z" fill="#7E3D3D"/>
<path d="M928.124 145.55L932.987 147.165L928.585 150.574L923.733 148.966L928.124 145.55Z" fill="#EBA9A9"/>
<path d="M937.4 148.603L942.264 150.218L937.862 153.628L933.01 152.02L937.4 148.603Z" fill="#EBA9A9"/>
<path d="M932.621 142.144L937.485 143.759L933.082 147.169L928.231 145.561L932.621 142.144Z" fill="#7E3D3D"/>
<path d="M941.898 145.198L946.762 146.813L942.359 150.222L937.508 148.614L941.898 145.198Z" fill="#7E3D3D"/>
<path d="M936.971 138.774L941.834 140.389L937.432 143.798L932.58 142.19L936.971 138.774Z" fill="#EBA9A9"/>
<path d="M946.248 141.828L951.112 143.443L946.709 146.852L941.858 145.244L946.248 141.828Z" fill="#EBA9A9"/>
<path d="M941.173 135.439L946.037 137.054L941.634 140.463L936.782 138.855L941.173 135.439Z" fill="#7E3D3D"/>
<path d="M950.45 138.492L955.314 140.108L950.912 143.517L946.06 141.909L950.45 138.492Z" fill="#7E3D3D"/>
<path d="M910.771 159.042L915.634 160.657L911.232 164.067L906.38 162.459L910.771 159.042Z" fill="#EBA9A9"/>
<path d="M920.048 162.096L924.912 163.711L920.509 167.12L915.657 165.512L920.048 162.096Z" fill="#EBA9A9"/>
<path d="M918.977 147.279L923.84 148.895L919.438 152.304L914.586 150.696L918.977 147.279Z" fill="#EBA9A9"/>
<path d="M920.841 167.466L921.314 169.459L882.647 156.619L881.751 154.889L920.841 167.466Z" fill="#561E1E"/>
</g>
<g opacity="0.09" filter="url(#filter1_gn_37_525)">
<path d="M612.351 501.144L652.926 511.998L653.48 513.795L619.126 544.744L578.196 534.085L577.135 532.368L612.351 501.144Z" fill="#723A3A"/>
<path d="M612.337 501.919L652.918 512L618.444 542.559L578.502 532.053L612.337 501.919Z" fill="#561E1E"/>
<path d="M582.711 528.186L587.86 529.527L583.532 533.359L578.397 532.025L582.711 528.186Z" fill="#7E3D3D"/>
<path d="M592.529 530.716L597.677 532.057L593.35 535.889L588.215 534.555L592.529 530.716Z" fill="#7E3D3D"/>
<path d="M586.987 524.398L592.135 525.739L587.808 529.571L582.672 528.237L586.987 524.398Z" fill="#EBA9A9"/>
<path d="M596.804 526.928L601.953 528.269L597.625 532.101L592.49 530.766L596.804 526.928Z" fill="#EBA9A9"/>
<path d="M591.112 520.656L596.26 521.997L591.933 525.829L586.797 524.495L591.112 520.656Z" fill="#7E3D3D"/>
<path d="M600.929 523.186L606.078 524.527L601.75 528.359L596.615 527.024L600.929 523.186Z" fill="#7E3D3D"/>
<path d="M595.387 516.868L600.535 518.209L596.208 522.041L591.072 520.707L595.387 516.868Z" fill="#EBA9A9"/>
<path d="M605.205 519.397L610.353 520.738L606.026 524.57L600.89 523.236L605.205 519.397Z" fill="#EBA9A9"/>
<path d="M599.812 513.033L604.961 514.374L600.633 518.206L595.498 516.872L599.812 513.033Z" fill="#7E3D3D"/>
<path d="M609.631 515.563L614.779 516.904L610.452 520.736L605.317 519.402L609.631 515.563Z" fill="#7E3D3D"/>
<path d="M604.088 509.245L609.237 510.586L604.909 514.418L599.774 513.084L604.088 509.245Z" fill="#EBA9A9"/>
<path d="M613.906 511.775L619.054 513.115L614.727 516.948L609.592 515.613L613.906 511.775Z" fill="#EBA9A9"/>
<path d="M608.213 505.503L613.361 506.844L609.034 510.676L603.898 509.342L608.213 505.503Z" fill="#7E3D3D"/>
<path d="M612.488 501.715L617.636 503.056L613.309 506.888L608.174 505.554L612.488 501.715Z" fill="#EBA9A9"/>
<path d="M622.306 504.244L627.455 505.585L623.127 509.417L617.992 508.083L622.306 504.244Z" fill="#EBA9A9"/>
<path d="M592.016 525.666L597.164 527.007L592.837 530.839L587.701 529.505L592.016 525.666Z" fill="#7E3D3D"/>
<path d="M601.834 528.196L606.983 529.537L602.655 533.369L597.52 532.034L601.834 528.196Z" fill="#7E3D3D"/>
<path d="M596.291 521.878L601.44 523.219L597.112 527.051L591.977 525.717L596.291 521.878Z" fill="#EBA9A9"/>
<path d="M606.11 524.407L611.258 525.748L606.931 529.58L601.795 528.246L606.11 524.407Z" fill="#EBA9A9"/>
<path d="M600.416 518.136L605.565 519.477L601.237 523.309L596.102 521.975L600.416 518.136Z" fill="#7E3D3D"/>
<path d="M610.235 520.665L615.383 522.006L611.056 525.838L605.92 524.504L610.235 520.665Z" fill="#7E3D3D"/>
<path d="M604.692 514.348L609.84 515.689L605.513 519.521L600.377 518.187L604.692 514.348Z" fill="#EBA9A9"/>
<path d="M614.51 516.877L619.658 518.218L615.331 522.05L610.195 520.716L614.51 516.877Z" fill="#EBA9A9"/>
<path d="M609.117 510.513L614.266 511.854L609.938 515.686L604.803 514.352L609.117 510.513Z" fill="#7E3D3D"/>
<path d="M618.935 513.043L624.084 514.384L619.756 518.216L614.621 516.881L618.935 513.043Z" fill="#7E3D3D"/>
<path d="M613.393 506.725L618.541 508.066L614.214 511.898L609.078 510.564L613.393 506.725Z" fill="#EBA9A9"/>
<path d="M623.211 509.254L628.36 510.595L624.032 514.427L618.897 513.093L623.211 509.254Z" fill="#EBA9A9"/>
<path d="M617.518 502.983L622.666 504.324L618.339 508.156L613.203 506.822L617.518 502.983Z" fill="#7E3D3D"/>
<path d="M627.336 505.512L632.485 506.853L628.157 510.685L623.022 509.351L627.336 505.512Z" fill="#7E3D3D"/>
<path d="M587.638 529.51L592.787 530.851L588.459 534.683L583.324 533.348L587.638 529.51Z" fill="#EBA9A9"/>
<path d="M597.456 532.039L602.605 533.38L598.277 537.212L593.142 535.878L597.456 532.039Z" fill="#EBA9A9"/>
<path d="M618.286 508.142L623.435 509.483L619.107 513.315L613.972 511.981L618.286 508.142Z" fill="#7E3D3D"/>
<path d="M602.555 533.355L607.703 534.696L603.376 538.528L598.24 537.194L602.555 533.355Z" fill="#7E3D3D"/>
<path d="M612.479 535.941L617.628 537.282L613.3 541.114L608.165 539.78L612.479 535.941Z" fill="#7E3D3D"/>
<path d="M606.83 529.567L611.979 530.908L607.651 534.74L602.516 533.406L606.83 529.567Z" fill="#EBA9A9"/>
<path d="M616.649 532.096L621.797 533.437L617.47 537.269L612.334 535.935L616.649 532.096Z" fill="#EBA9A9"/>
<path d="M610.955 525.825L616.104 527.166L611.776 530.998L606.641 529.664L610.955 525.825Z" fill="#7E3D3D"/>
<path d="M620.774 528.354L625.922 529.695L621.595 533.527L616.459 532.193L620.774 528.354Z" fill="#7E3D3D"/>
<path d="M625.049 524.566L630.197 525.907L625.87 529.739L620.734 528.405L625.049 524.566Z" fill="#EBA9A9"/>
<path d="M619.657 518.202L624.805 519.543L620.478 523.375L615.342 522.041L619.657 518.202Z" fill="#7E3D3D"/>
<path d="M629.475 520.731L634.623 522.072L630.296 525.904L625.16 524.57L629.475 520.731Z" fill="#7E3D3D"/>
<path d="M623.932 514.414L629.08 515.755L624.753 519.587L619.617 518.252L623.932 514.414Z" fill="#EBA9A9"/>
<path d="M633.75 516.943L638.898 518.284L634.571 522.116L629.435 520.782L633.75 516.943Z" fill="#EBA9A9"/>
<path d="M628.057 510.672L633.205 512.013L628.878 515.845L623.742 514.511L628.057 510.672Z" fill="#7E3D3D"/>
<path d="M637.875 513.201L643.023 514.542L638.696 518.374L633.56 517.04L637.875 513.201Z" fill="#7E3D3D"/>
<path d="M632.332 506.884L637.481 508.225L633.153 512.057L628.018 510.722L632.332 506.884Z" fill="#EBA9A9"/>
<path d="M642.15 509.413L647.299 510.754L642.971 514.586L637.836 513.252L642.15 509.413Z" fill="#EBA9A9"/>
<path d="M611.86 530.835L617.008 532.176L612.681 536.008L607.546 534.673L611.86 530.835Z" fill="#7E3D3D"/>
<path d="M621.678 533.364L626.826 534.705L622.499 538.537L617.363 537.203L621.678 533.364Z" fill="#7E3D3D"/>
<path d="M616.135 527.046L621.283 528.387L616.956 532.219L611.821 530.885L616.135 527.046Z" fill="#EBA9A9"/>
<path d="M625.953 529.576L631.102 530.917L626.774 534.749L621.639 533.415L625.953 529.576Z" fill="#EBA9A9"/>
<path d="M620.26 523.305L625.408 524.646L621.081 528.478L615.946 527.143L620.26 523.305Z" fill="#7E3D3D"/>
<path d="M630.078 525.834L635.227 527.175L630.899 531.007L625.764 529.673L630.078 525.834Z" fill="#7E3D3D"/>
<path d="M624.535 519.516L629.684 520.857L625.356 524.689L620.221 523.355L624.535 519.516Z" fill="#EBA9A9"/>
<path d="M634.354 522.046L639.502 523.387L635.175 527.219L630.039 525.885L634.354 522.046Z" fill="#EBA9A9"/>
<path d="M628.962 515.682L634.11 517.023L629.783 520.855L624.647 519.521L628.962 515.682Z" fill="#7E3D3D"/>
<path d="M638.78 518.211L643.928 519.552L639.601 523.384L634.465 522.05L638.78 518.211Z" fill="#7E3D3D"/>
<path d="M633.237 511.893L638.385 513.234L634.058 517.066L628.922 515.732L633.237 511.893Z" fill="#EBA9A9"/>
<path d="M643.055 514.423L648.203 515.764L643.876 519.596L638.74 518.262L643.055 514.423Z" fill="#EBA9A9"/>
<path d="M637.362 508.152L642.51 509.493L638.183 513.325L633.047 511.99L637.362 508.152Z" fill="#7E3D3D"/>
<path d="M647.18 510.681L652.328 512.022L648.001 515.854L642.865 514.52L647.18 510.681Z" fill="#7E3D3D"/>
<path d="M607.482 534.678L612.631 536.019L608.303 539.851L603.168 538.517L607.482 534.678Z" fill="#EBA9A9"/>
<path d="M617.3 537.208L622.448 538.549L618.121 542.381L612.986 541.046L617.3 537.208Z" fill="#EBA9A9"/>
<path d="M615.178 521.933L620.327 523.274L616 527.106L610.864 525.772L615.178 521.933Z" fill="#EBA9A9"/>
<path d="M618.488 542.716L619.114 544.748L578.184 534.089L577.138 532.358L618.488 542.716Z" fill="#561E1E"/>
</g>
<g opacity="0.2" filter="url(#filter2_gn_37_525)">
<path d="M222.855 130.323L245.75 165.536L244.959 167.242L198.72 167.26L175.431 131.955L175.792 129.968L222.855 130.323Z" fill="#723A3A"/>
<path d="M222.327 130.89L245.743 165.533L199.676 165.18L177.019 130.649L222.327 130.89Z" fill="#561E1E"/>
<path d="M182.734 130.591L185.663 135.032L179.883 134.985L176.959 130.558L182.734 130.591Z" fill="#7E3D3D"/>
<path d="M188.339 139.04L191.268 143.481L185.488 143.434L182.564 139.006L188.339 139.04Z" fill="#7E3D3D"/>
<path d="M188.446 130.636L191.375 135.077L185.595 135.03L182.671 130.603L188.446 130.636Z" fill="#EBA9A9"/>
<path d="M194.051 139.085L196.98 143.526L191.2 143.479L188.276 139.051L194.051 139.085Z" fill="#EBA9A9"/>
<path d="M194.015 130.615L196.944 135.056L191.164 135.009L188.24 130.581L194.015 130.615Z" fill="#7E3D3D"/>
<path d="M199.62 139.064L202.549 143.505L196.769 143.458L193.845 139.03L199.62 139.064Z" fill="#7E3D3D"/>
<path d="M199.727 130.66L202.656 135.101L196.876 135.054L193.952 130.626L199.727 130.66Z" fill="#EBA9A9"/>
<path d="M205.332 139.108L208.261 143.549L202.481 143.502L199.557 139.075L205.332 139.108Z" fill="#EBA9A9"/>
<path d="M205.582 130.771L208.511 135.212L202.731 135.165L199.807 130.737L205.582 130.771Z" fill="#7E3D3D"/>
<path d="M211.187 139.22L214.116 143.661L208.336 143.614L205.412 139.186L211.187 139.22Z" fill="#7E3D3D"/>
<path d="M211.294 130.816L214.223 135.257L208.443 135.21L205.519 130.782L211.294 130.816Z" fill="#EBA9A9"/>
<path d="M216.899 139.264L219.828 143.705L214.048 143.658L211.124 139.231L216.899 139.264Z" fill="#EBA9A9"/>
<path d="M216.863 130.794L219.792 135.235L214.012 135.188L211.088 130.761L216.863 130.794Z" fill="#7E3D3D"/>
<path d="M222.575 130.839L225.505 135.28L219.725 135.233L216.801 130.806L222.575 130.839Z" fill="#EBA9A9"/>
<path d="M228.18 139.288L231.109 143.729L225.329 143.682L222.405 139.254L228.18 139.288Z" fill="#EBA9A9"/>
<path d="M191.335 134.943L194.264 139.385L188.484 139.337L185.56 134.91L191.335 134.943Z" fill="#7E3D3D"/>
<path d="M196.94 143.392L199.869 147.833L194.089 147.786L191.165 143.359L196.94 143.392Z" fill="#7E3D3D"/>
<path d="M197.048 134.988L199.977 139.43L194.197 139.382L191.273 134.955L197.048 134.988Z" fill="#EBA9A9"/>
<path d="M202.653 143.437L205.582 147.878L199.802 147.831L196.878 143.404L202.653 143.437Z" fill="#EBA9A9"/>
<path d="M202.617 134.967L205.546 139.408L199.766 139.361L196.842 134.934L202.617 134.967Z" fill="#7E3D3D"/>
<path d="M208.221 143.416L211.151 147.857L205.371 147.81L202.446 143.382L208.221 143.416Z" fill="#7E3D3D"/>
<path d="M208.329 135.012L211.258 139.453L205.478 139.406L202.554 134.978L208.329 135.012Z" fill="#EBA9A9"/>
<path d="M213.933 143.461L216.863 147.902L211.083 147.855L208.158 143.427L213.933 143.461Z" fill="#EBA9A9"/>
<path d="M214.184 135.123L217.113 139.564L211.333 139.517L208.409 135.09L214.184 135.123Z" fill="#7E3D3D"/>
<path d="M219.788 143.572L222.718 148.013L216.938 147.966L214.013 143.538L219.788 143.572Z" fill="#7E3D3D"/>
<path d="M219.896 135.168L222.825 139.609L217.045 139.562L214.121 135.134L219.896 135.168Z" fill="#EBA9A9"/>
<path d="M225.501 143.617L228.43 148.058L222.65 148.011L219.726 143.583L225.501 143.617Z" fill="#EBA9A9"/>
<path d="M225.465 135.147L228.394 139.588L222.614 139.541L219.69 135.113L225.465 135.147Z" fill="#7E3D3D"/>
<path d="M231.07 143.595L233.999 148.037L228.219 147.989L225.295 143.562L231.07 143.595Z" fill="#7E3D3D"/>
<path d="M185.511 134.871L188.44 139.312L182.66 139.265L179.736 134.838L185.511 134.871Z" fill="#EBA9A9"/>
<path d="M191.115 143.32L194.044 147.761L188.264 147.714L185.34 143.286L191.115 143.32Z" fill="#EBA9A9"/>
<path d="M222.585 139.495L225.514 143.936L219.734 143.889L216.81 139.462L222.585 139.495Z" fill="#7E3D3D"/>
<path d="M194.025 147.709L196.954 152.15L191.174 152.103L188.25 147.675L194.025 147.709Z" fill="#7E3D3D"/>
<path d="M199.67 156.271L202.599 160.712L196.819 160.665L193.895 156.237L199.67 156.271Z" fill="#7E3D3D"/>
<path d="M199.737 147.754L202.666 152.195L196.886 152.148L193.962 147.72L199.737 147.754Z" fill="#EBA9A9"/>
<path d="M205.342 156.203L208.271 160.644L202.491 160.597L199.567 156.169L205.342 156.203Z" fill="#EBA9A9"/>
<path d="M205.306 147.732L208.235 152.174L202.455 152.126L199.531 147.699L205.306 147.732Z" fill="#7E3D3D"/>
<path d="M210.91 156.181L213.84 160.622L208.06 160.575L205.135 156.148L210.91 156.181Z" fill="#7E3D3D"/>
<path d="M216.622 156.226L219.552 160.667L213.772 160.62L210.847 156.193L216.622 156.226Z" fill="#EBA9A9"/>
<path d="M216.873 147.889L219.802 152.33L214.022 152.283L211.098 147.855L216.873 147.889Z" fill="#7E3D3D"/>
<path d="M222.477 156.337L225.407 160.778L219.627 160.731L216.702 156.304L222.477 156.337Z" fill="#7E3D3D"/>
<path d="M222.585 147.933L225.514 152.374L219.734 152.327L216.81 147.9L222.585 147.933Z" fill="#EBA9A9"/>
<path d="M228.19 156.382L231.119 160.823L225.339 160.776L222.415 156.349L228.19 156.382Z" fill="#EBA9A9"/>
<path d="M228.154 147.912L231.083 152.353L225.303 152.306L222.379 147.879L228.154 147.912Z" fill="#7E3D3D"/>
<path d="M233.759 156.361L236.688 160.802L230.908 160.755L227.984 156.327L233.759 156.361Z" fill="#7E3D3D"/>
<path d="M233.866 147.957L236.795 152.398L231.015 152.351L228.091 147.923L233.866 147.957Z" fill="#EBA9A9"/>
<path d="M239.471 156.406L242.4 160.847L236.62 160.8L233.696 156.372L239.471 156.406Z" fill="#EBA9A9"/>
<path d="M202.626 152.061L205.555 156.502L199.776 156.455L196.851 152.028L202.626 152.061Z" fill="#7E3D3D"/>
<path d="M208.231 160.51L211.16 164.951L205.38 164.904L202.456 160.476L208.231 160.51Z" fill="#7E3D3D"/>
<path d="M208.338 152.106L211.267 156.547L205.487 156.5L202.563 152.073L208.338 152.106Z" fill="#EBA9A9"/>
<path d="M213.943 160.555L216.872 164.996L211.092 164.949L208.168 160.521L213.943 160.555Z" fill="#EBA9A9"/>
<path d="M213.908 152.085L216.837 156.526L211.057 156.479L208.133 152.051L213.908 152.085Z" fill="#7E3D3D"/>
<path d="M219.512 160.533L222.442 164.975L216.662 164.927L213.738 160.5L219.512 160.533Z" fill="#7E3D3D"/>
<path d="M219.619 152.13L222.549 156.571L216.769 156.524L213.844 152.096L219.619 152.13Z" fill="#EBA9A9"/>
<path d="M225.224 160.578L228.154 165.019L222.374 164.972L219.449 160.545L225.224 160.578Z" fill="#EBA9A9"/>
<path d="M225.474 152.241L228.404 156.682L222.624 156.635L219.699 152.207L225.474 152.241Z" fill="#7E3D3D"/>
<path d="M231.079 160.69L234.009 165.131L228.229 165.084L225.304 160.656L231.079 160.69Z" fill="#7E3D3D"/>
<path d="M231.186 152.286L234.116 156.727L228.336 156.68L225.411 152.252L231.186 152.286Z" fill="#EBA9A9"/>
<path d="M236.791 160.734L239.721 165.175L233.941 165.128L231.016 160.701L236.791 160.734Z" fill="#EBA9A9"/>
<path d="M236.756 152.264L239.685 156.705L233.905 156.658L230.981 152.231L236.756 152.264Z" fill="#7E3D3D"/>
<path d="M242.361 160.713L245.29 165.154L239.51 165.107L236.586 160.68L242.361 160.713Z" fill="#7E3D3D"/>
<path d="M196.801 151.989L199.73 156.43L193.95 156.383L191.026 151.955L196.801 151.989Z" fill="#EBA9A9"/>
<path d="M202.406 160.437L205.335 164.879L199.555 164.831L196.631 160.404L202.406 160.437Z" fill="#EBA9A9"/>
<path d="M211.048 147.666L213.977 152.107L208.197 152.06L205.273 147.632L211.048 147.666Z" fill="#EBA9A9"/>
<path d="M199.604 165.327L198.71 167.255L175.421 131.95L175.801 129.963L199.604 165.327Z" fill="#561E1E"/>
</g>
<g opacity="0.21" filter="url(#filter3_gn_37_525)">
<path d="M-11.3253 332.361L64.7902 331.162L66.6468 334.02L22.1055 405.008L-54.5321 406.723L-57.2334 404.256L-11.3253 332.361Z" fill="#723A3A"/>
<path d="M-10.9652 333.718L64.7782 331.17L19.8334 401.537L-55.0059 403.028L-10.9652 333.718Z" fill="#561E1E"/>
<path d="M-8.91806 358.846L0.721896 358.631L-4.92164 367.457L-14.5359 367.678L-8.91806 358.846Z" fill="#7E3D3D"/>
<path d="M-3.34335 350.122L6.2966 349.907L0.653066 358.733L-8.96117 358.954L-3.34335 350.122Z" fill="#EBA9A9"/>
<path d="M7.56632 332.83L17.2063 332.614L11.5627 341.44L1.9485 341.661L7.56632 332.83Z" fill="#EBA9A9"/>
<path d="M-5.33554 367.442L4.30442 367.227L-1.33912 376.053L-10.9534 376.274L-5.33554 367.442Z" fill="#7E3D3D"/>
<path d="M0.239168 358.718L9.87912 358.503L4.23559 367.329L-5.37865 367.55L0.239168 358.718Z" fill="#EBA9A9"/>
<path d="M6.05313 349.839L15.6931 349.623L10.0496 358.449L0.435314 358.67L6.05313 349.839Z" fill="#7E3D3D"/>
<path d="M-6.74228 341.574L2.89768 341.358L-2.74586 350.184L-12.3601 350.405L-6.74228 341.574Z" fill="#EBA9A9"/>
<path d="M11.6283 341.114L21.2683 340.899L15.6247 349.725L6.01051 349.946L11.6283 341.114Z" fill="#EBA9A9"/>
<path d="M-1.40634 333.005L8.23361 332.79L2.59008 341.616L-7.02416 341.836L-1.40634 333.005Z" fill="#7E3D3D"/>
<path d="M16.9638 332.545L26.6037 332.33L20.9602 341.156L11.346 341.377L16.9638 332.545Z" fill="#7E3D3D"/>
<path d="M2.49112 341.617L12.1311 341.402L6.48754 350.228L-3.1267 350.449L2.49112 341.617Z" fill="#7E3D3D"/>
<path d="M6.15274 392.958L15.7927 392.742L10.1492 401.568L0.534923 401.789L6.15274 392.958Z" fill="#7E3D3D"/>
<path d="M-6.85556 384.646L2.7844 384.431L-2.85914 393.257L-12.4734 393.478L-6.85556 384.646Z" fill="#EBA9A9"/>
<path d="M11.515 384.187L21.155 383.972L15.5115 392.798L5.89723 393.019L11.515 384.187Z" fill="#EBA9A9"/>
<path d="M-1.52011 376.078L8.11984 375.862L2.47631 384.689L-7.13793 384.909L-1.52011 376.078Z" fill="#7E3D3D"/>
<path d="M16.8495 375.619L26.4895 375.404L20.8459 384.23L11.2317 384.451L16.8495 375.619Z" fill="#7E3D3D"/>
<path d="M22.4242 366.895L32.0642 366.68L26.4206 375.506L16.8064 375.727L22.4242 366.895Z" fill="#EBA9A9"/>
<path d="M9.86856 358.475L19.5085 358.259L13.865 367.085L4.25074 367.306L9.86856 358.475Z" fill="#7E3D3D"/>
<path d="M28.2382 358.016L37.8781 357.801L32.2346 366.627L22.6204 366.847L28.2382 358.016Z" fill="#7E3D3D"/>
<path d="M15.4428 349.751L25.0827 349.535L19.4392 358.361L9.82496 358.582L15.4428 349.751Z" fill="#EBA9A9"/>
<path d="M33.8129 349.291L43.4529 349.076L37.8093 357.902L28.1951 358.123L33.8129 349.291Z" fill="#EBA9A9"/>
<path d="M20.7782 341.182L30.4182 340.967L24.7746 349.793L15.1604 350.013L20.7782 341.182Z" fill="#7E3D3D"/>
<path d="M39.1479 340.723L48.7878 340.508L43.1443 349.334L33.53 349.555L39.1479 340.723Z" fill="#7E3D3D"/>
<path d="M26.3529 332.458L35.9929 332.243L30.3494 341.069L20.7351 341.29L26.3529 332.458Z" fill="#EBA9A9"/>
<path d="M44.7226 331.999L54.3625 331.784L48.719 340.61L39.1047 340.831L44.7226 331.999Z" fill="#EBA9A9"/>
<path d="M2.54093 384.363L12.1809 384.148L6.53734 392.974L-3.07689 393.195L2.54093 384.363Z" fill="#7E3D3D"/>
<path d="M20.911 383.904L30.551 383.688L24.9075 392.515L15.2932 392.735L20.911 383.904Z" fill="#7E3D3D"/>
<path d="M8.11563 375.639L17.7556 375.424L12.1121 384.25L2.49781 384.471L8.11563 375.639Z" fill="#EBA9A9"/>
<path d="M26.4857 375.18L36.1257 374.965L30.4822 383.791L20.8679 384.011L26.4857 375.18Z" fill="#EBA9A9"/>
<path d="M13.4511 367.071L23.091 366.855L17.4475 375.681L7.83326 375.902L13.4511 367.071Z" fill="#7E3D3D"/>
<path d="M31.8212 366.611L41.4612 366.396L35.8176 375.222L26.2034 375.443L31.8212 366.611Z" fill="#7E3D3D"/>
<path d="M19.0253 358.347L28.6653 358.131L23.0217 366.958L13.4075 367.178L19.0253 358.347Z" fill="#EBA9A9"/>
<path d="M37.3954 357.887L47.0354 357.672L41.3918 366.498L31.7776 366.719L37.3954 357.887Z" fill="#EBA9A9"/>
<path d="M24.8398 349.467L34.4797 349.252L28.8362 358.078L19.2219 358.299L24.8398 349.467Z" fill="#7E3D3D"/>
<path d="M43.2099 349.008L52.8498 348.793L47.2063 357.619L37.5921 357.84L43.2099 349.008Z" fill="#7E3D3D"/>
<path d="M30.414 340.743L40.0539 340.528L34.4104 349.354L24.7962 349.575L30.414 340.743Z" fill="#EBA9A9"/>
<path d="M48.7841 340.284L58.424 340.069L52.7805 348.895L43.1663 349.116L48.7841 340.284Z" fill="#EBA9A9"/>
<path d="M35.7494 332.175L45.3894 331.959L39.7458 340.786L30.1316 341.006L35.7494 332.175Z" fill="#7E3D3D"/>
<path d="M54.12 331.715L63.76 331.5L58.1164 340.326L48.5022 340.547L54.12 331.715Z" fill="#7E3D3D"/>
<path d="M-3.18515 393.234L6.45481 393.019L0.811269 401.845L-8.80297 402.066L-3.18515 393.234Z" fill="#EBA9A9"/>
<path d="M15.1855 392.775L24.8254 392.56L19.1819 401.386L9.56764 401.606L15.1855 392.775Z" fill="#EBA9A9"/>
<path d="M3.91202 367.2L13.552 366.985L7.90844 375.811L-1.7058 376.032L3.91202 367.2Z" fill="#EBA9A9"/>
<path d="M19.9885 401.789L22.0873 405.02L-54.5504 406.735L-57.2334 404.237L19.9885 401.789Z" fill="#561E1E"/>
</g>
<g opacity="0.21" filter="url(#filter4_gn_37_525)">
<path d="M1131.29 618.112L1222.78 662.625L1223.27 667.155L1127.31 724.926L1034.88 680.714L1033.15 676.14L1131.29 618.112Z" fill="#723A3A"/>
<path d="M1130.9 619.948L1222.76 662.628L1126.69 719.415L1036.54 676.021L1130.9 619.948Z" fill="#561E1E"/>
<path d="M1048.33 668.765L1059.96 674.327L1047.9 681.446L1036.3 675.906L1048.33 668.765Z" fill="#7E3D3D"/>
<path d="M1070.52 679.306L1082.14 684.867L1070.08 691.987L1058.49 686.447L1070.52 679.306Z" fill="#7E3D3D"/>
<path d="M1060.25 661.726L1071.87 667.288L1059.81 674.407L1048.22 668.867L1060.25 661.726Z" fill="#EBA9A9"/>
<path d="M1082.43 672.267L1094.06 677.829L1082 684.948L1070.4 679.408L1082.43 672.267Z" fill="#EBA9A9"/>
<path d="M1071.78 654.729L1083.41 660.29L1071.35 667.41L1059.75 661.87L1071.78 654.729Z" fill="#7E3D3D"/>
<path d="M1093.96 665.269L1105.59 670.831L1093.53 677.95L1081.93 672.41L1093.96 665.269Z" fill="#7E3D3D"/>
<path d="M1083.69 647.69L1095.32 653.251L1083.26 660.371L1071.66 654.831L1083.69 647.69Z" fill="#EBA9A9"/>
<path d="M1105.88 658.23L1117.5 663.792L1105.45 670.911L1093.85 665.371L1105.88 658.23Z" fill="#EBA9A9"/>
<path d="M1095.99 640.609L1107.61 646.171L1095.55 653.29L1083.96 647.751L1095.99 640.609Z" fill="#7E3D3D"/>
<path d="M1118.17 651.15L1129.8 656.712L1117.74 663.831L1106.14 658.291L1118.17 651.15Z" fill="#7E3D3D"/>
<path d="M1107.9 633.57L1119.53 639.132L1107.47 646.251L1095.87 640.711L1107.9 633.57Z" fill="#EBA9A9"/>
<path d="M1119.43 626.572L1131.06 632.134L1119 639.253L1107.4 633.714L1119.43 626.572Z" fill="#7E3D3D"/>
<path d="M1071.62 667.06L1083.25 672.622L1071.19 679.741L1059.59 674.201L1071.62 667.06Z" fill="#7E3D3D"/>
<path d="M1093.81 677.601L1105.43 683.163L1093.38 690.282L1081.78 684.742L1093.81 677.601Z" fill="#7E3D3D"/>
<path d="M1083.54 660.021L1095.16 665.583L1083.11 672.702L1071.51 667.162L1083.54 660.021Z" fill="#EBA9A9"/>
<path d="M1105.72 670.561L1117.35 676.123L1105.29 683.242L1093.69 677.702L1105.72 670.561Z" fill="#EBA9A9"/>
<path d="M1095.07 653.023L1106.7 658.585L1094.64 665.704L1083.04 660.164L1095.07 653.023Z" fill="#7E3D3D"/>
<path d="M1117.25 663.564L1128.88 669.126L1116.82 676.245L1105.22 670.705L1117.25 663.564Z" fill="#7E3D3D"/>
<path d="M1106.99 645.984L1118.61 651.546L1106.55 658.665L1094.96 653.125L1106.99 645.984Z" fill="#EBA9A9"/>
<path d="M1119.28 638.904L1130.9 644.466L1118.85 651.585L1107.25 646.045L1119.28 638.904Z" fill="#7E3D3D"/>
<path d="M1059.44 674.183L1071.07 679.745L1059.01 686.864L1047.41 681.324L1059.44 674.183Z" fill="#EBA9A9"/>
<path d="M1081.62 684.724L1093.25 690.286L1081.19 697.405L1069.59 691.865L1081.62 684.724Z" fill="#EBA9A9"/>
<path d="M1093.14 690.202L1104.77 695.764L1092.71 702.883L1081.11 697.343L1093.14 690.202Z" fill="#7E3D3D"/>
<path d="M1115.55 700.926L1127.18 706.488L1115.12 713.607L1103.52 708.068L1115.55 700.926Z" fill="#7E3D3D"/>
<path d="M1105.06 683.163L1116.68 688.725L1104.63 695.844L1093.03 690.304L1105.06 683.163Z" fill="#EBA9A9"/>
<path d="M1127.24 693.704L1138.87 699.266L1126.81 706.385L1115.21 700.845L1127.24 693.704Z" fill="#EBA9A9"/>
<path d="M1116.59 676.165L1128.22 681.727L1116.16 688.846L1104.56 683.306L1116.59 676.165Z" fill="#7E3D3D"/>
<path d="M1116.43 688.497L1128.06 694.059L1116 701.178L1104.4 695.638L1116.43 688.497Z" fill="#7E3D3D"/>
<path d="M1104.25 695.62L1115.88 701.182L1103.82 708.301L1092.22 702.761L1104.25 695.62Z" fill="#EBA9A9"/>
<path d="M1126.44 706.16L1138.06 711.722L1126.01 718.841L1114.41 713.302L1126.44 706.16Z" fill="#EBA9A9"/>
<path d="M1126.72 719.809L1127.28 724.929L1034.85 680.716L1033.16 676.118L1126.72 719.809Z" fill="#561E1E"/>
</g>
<g opacity="0.17" filter="url(#filter5_gn_37_525)">
<path d="M310.728 778.513L402.223 823.026L402.711 827.555L306.746 885.327L214.317 841.114L212.585 836.54L310.728 778.513Z" fill="#723A3A"/>
<path d="M310.338 780.348L402.203 823.028L306.131 879.815L215.982 836.421L310.338 780.348Z" fill="#561E1E"/>
<path d="M227.772 829.165L239.398 834.727L227.341 841.846L215.742 836.307L227.772 829.165Z" fill="#7E3D3D"/>
<path d="M249.956 839.706L261.582 845.268L249.524 852.387L237.925 846.847L249.956 839.706Z" fill="#7E3D3D"/>
<path d="M239.686 822.126L251.312 827.688L239.254 834.807L227.656 829.268L239.686 822.126Z" fill="#EBA9A9"/>
<path d="M261.87 832.667L273.496 838.229L261.439 845.348L249.84 839.809L261.87 832.667Z" fill="#EBA9A9"/>
<path d="M251.221 815.129L262.847 820.691L250.789 827.81L239.19 822.27L251.221 815.129Z" fill="#7E3D3D"/>
<path d="M273.405 825.669L285.031 831.231L272.973 838.35L261.375 832.81L273.405 825.669Z" fill="#7E3D3D"/>
<path d="M263.134 808.09L274.76 813.652L262.702 820.771L251.104 815.231L263.134 808.09Z" fill="#EBA9A9"/>
<path d="M285.318 818.63L296.944 824.192L284.886 831.311L273.288 825.772L285.318 818.63Z" fill="#EBA9A9"/>
<path d="M275.427 801.01L287.053 806.572L274.995 813.691L263.397 808.151L275.427 801.01Z" fill="#7E3D3D"/>
<path d="M297.611 811.551L309.237 817.112L297.18 824.232L285.581 818.692L297.611 811.551Z" fill="#7E3D3D"/>
<path d="M287.341 793.971L298.967 799.533L286.91 806.652L275.311 801.112L287.341 793.971Z" fill="#EBA9A9"/>
<path d="M309.524 804.512L321.15 810.073L309.093 817.193L297.494 811.653L309.524 804.512Z" fill="#EBA9A9"/>
<path d="M298.874 786.973L310.501 792.535L298.443 799.654L286.844 794.114L298.874 786.973Z" fill="#7E3D3D"/>
<path d="M310.789 779.934L322.415 785.496L310.358 792.615L298.759 787.075L310.789 779.934Z" fill="#EBA9A9"/>
<path d="M332.974 790.475L344.6 796.037L332.542 803.156L320.943 797.616L332.974 790.475Z" fill="#EBA9A9"/>
<path d="M251.062 827.461L262.689 833.022L250.631 840.142L239.032 834.602L251.062 827.461Z" fill="#7E3D3D"/>
<path d="M273.247 838.001L284.873 843.563L272.816 850.682L261.217 845.142L273.247 838.001Z" fill="#7E3D3D"/>
<path d="M262.977 820.421L274.603 825.983L262.546 833.102L250.947 827.563L262.977 820.421Z" fill="#EBA9A9"/>
<path d="M285.162 830.962L296.788 836.524L284.73 843.643L273.131 838.103L285.162 830.962Z" fill="#EBA9A9"/>
<path d="M274.512 813.423L286.138 818.985L274.08 826.104L262.482 820.564L274.512 813.423Z" fill="#7E3D3D"/>
<path d="M296.695 823.964L308.321 829.526L296.263 836.645L284.665 831.105L296.695 823.964Z" fill="#7E3D3D"/>
<path d="M286.425 806.384L298.051 811.946L285.993 819.065L274.395 813.526L286.425 806.384Z" fill="#EBA9A9"/>
<path d="M308.608 816.925L320.234 822.487L308.176 829.606L296.578 824.066L308.608 816.925Z" fill="#EBA9A9"/>
<path d="M298.718 799.305L310.344 804.867L298.286 811.986L286.688 806.446L298.718 799.305Z" fill="#7E3D3D"/>
<path d="M320.902 809.845L332.528 815.407L320.471 822.526L308.872 816.986L320.902 809.845Z" fill="#7E3D3D"/>
<path d="M310.631 792.266L322.257 797.828L310.2 804.947L298.601 799.407L310.631 792.266Z" fill="#EBA9A9"/>
<path d="M332.817 802.806L344.443 808.368L332.385 815.487L320.787 809.947L332.817 802.806Z" fill="#EBA9A9"/>
<path d="M322.167 785.268L333.793 790.829L321.735 797.949L310.137 792.409L322.167 785.268Z" fill="#7E3D3D"/>
<path d="M344.352 795.808L355.978 801.37L343.92 808.489L332.321 802.949L344.352 795.808Z" fill="#7E3D3D"/>
<path d="M238.88 834.583L250.506 840.145L238.449 847.264L226.85 841.725L238.88 834.583Z" fill="#EBA9A9"/>
<path d="M321.616 797.891L333.242 803.453L321.185 810.572L309.586 805.032L321.616 797.891Z" fill="#7E3D3D"/>
<path d="M296.032 836.566L307.658 842.127L295.601 849.247L284.002 843.707L296.032 836.566Z" fill="#7E3D3D"/>
<path d="M330.13 840.068L341.756 845.629L329.698 852.749L318.1 847.209L330.13 840.068Z" fill="#EBA9A9"/>
<path d="M320.24 822.447L331.866 828.009L319.808 835.128L308.21 829.588L320.24 822.447Z" fill="#7E3D3D"/>
<path d="M342.423 832.988L354.049 838.55L341.991 845.669L330.393 840.129L342.423 832.988Z" fill="#7E3D3D"/>
<path d="M332.153 815.408L343.779 820.97L331.721 828.089L320.123 822.549L332.153 815.408Z" fill="#EBA9A9"/>
<path d="M354.337 825.948L365.963 831.51L353.906 838.629L342.307 833.089L354.337 825.948Z" fill="#EBA9A9"/>
<path d="M343.687 808.41L355.314 813.972L343.256 821.091L331.657 815.551L343.687 808.41Z" fill="#7E3D3D"/>
<path d="M365.871 818.95L377.497 824.512L365.439 831.631L353.84 826.092L365.871 818.95Z" fill="#7E3D3D"/>
<path d="M355.601 801.371L367.227 806.933L355.17 814.052L343.571 808.512L355.601 801.371Z" fill="#EBA9A9"/>
<path d="M377.784 811.912L389.41 817.474L377.353 824.593L365.754 819.053L377.784 811.912Z" fill="#EBA9A9"/>
<path d="M319.324 834.86L330.95 840.422L318.892 847.542L307.294 842.002L319.324 834.86Z" fill="#7E3D3D"/>
<path d="M331.237 827.822L342.863 833.383L330.805 840.503L319.207 834.963L331.237 827.822Z" fill="#EBA9A9"/>
<path d="M353.421 838.362L365.047 843.924L352.989 851.043L341.391 845.503L353.421 838.362Z" fill="#EBA9A9"/>
<path d="M343.53 820.742L355.156 826.304L343.098 833.423L331.5 827.883L343.53 820.742Z" fill="#7E3D3D"/>
<path d="M365.714 831.282L377.34 836.844L365.283 843.963L353.684 838.423L365.714 831.282Z" fill="#7E3D3D"/>
<path d="M355.443 813.703L367.069 819.265L355.011 826.384L343.413 820.844L355.443 813.703Z" fill="#EBA9A9"/>
<path d="M377.627 824.243L389.253 829.805L377.196 836.924L365.597 831.384L377.627 824.243Z" fill="#EBA9A9"/>
<path d="M366.978 806.705L378.604 812.267L366.546 819.386L354.947 813.846L366.978 806.705Z" fill="#7E3D3D"/>
<path d="M389.164 817.245L400.79 822.807L388.732 829.926L377.133 824.386L389.164 817.245Z" fill="#7E3D3D"/>
<path d="M307.87 829.257L319.496 834.819L307.438 841.938L295.839 836.398L307.87 829.257Z" fill="#EBA9A9"/>
<path d="M306.164 880.209L306.717 885.33L214.287 841.117L212.596 836.518L306.164 880.209Z" fill="#561E1E"/>
</g>
<g opacity="0.06" filter="url(#filter6_gn_37_525)">
<path d="M797.555 -18.1981L871.398 51.8013L870.5 56.2676L761.592 82.4585L686.768 12.4639L686.494 7.58112L797.555 -18.1981Z" fill="#723A3A"/>
<path d="M796.631 -16.5653L871.379 51.7978L762.666 77.0178L689.769 8.49028L796.631 -16.5653Z" fill="#561E1E"/>
<path d="M703.197 5.1221L712.609 13.9268L698.967 17.0845L689.575 8.30899L703.197 5.1221Z" fill="#7E3D3D"/>
<path d="M721.176 21.8536L730.588 30.6584L716.946 33.816L707.554 25.0405L721.176 21.8536Z" fill="#7E3D3D"/>
<path d="M716.677 1.9974L726.089 10.8022L712.447 13.9598L703.055 5.1843L716.677 1.9974Z" fill="#EBA9A9"/>
<path d="M734.658 18.7297L744.069 27.5345L730.428 30.6921L721.036 21.9166L734.658 18.7297Z" fill="#EBA9A9"/>
<path d="M729.784 -1.20164L739.195 7.60312L725.554 10.7608L716.162 1.98526L729.784 -1.20164Z" fill="#7E3D3D"/>
<path d="M747.764 15.5299L757.176 24.3347L743.534 27.4923L734.142 18.7168L747.764 15.5299Z" fill="#7E3D3D"/>
<path d="M743.264 -4.32627L752.675 4.47848L739.034 7.63614L729.642 -1.13937L743.264 -4.32627Z" fill="#EBA9A9"/>
<path d="M761.244 12.4054L770.656 21.2102L757.014 24.3678L747.622 15.5923L761.244 12.4054Z" fill="#EBA9A9"/>
<path d="M757.118 -7.37589L766.53 1.42886L752.888 4.58652L743.496 -4.18899L757.118 -7.37589Z" fill="#7E3D3D"/>
<path d="M775.099 9.35623L784.51 18.161L770.868 21.3186L761.476 12.5431L775.099 9.35623Z" fill="#7E3D3D"/>
<path d="M770.6 -10.5003L780.011 -1.69559L766.369 1.46207L756.977 -7.31344L770.6 -10.5003Z" fill="#EBA9A9"/>
<path d="M788.579 6.23147L797.99 15.0362L784.348 18.1939L774.956 9.41837L788.579 6.23147Z" fill="#EBA9A9"/>
<path d="M783.705 -13.7002L793.116 -4.89542L779.474 -1.73776L770.082 -10.5133L783.705 -13.7002Z" fill="#7E3D3D"/>
<path d="M797.186 -16.8246L806.598 -8.01987L792.956 -4.86221L783.564 -13.6377L797.186 -16.8246Z" fill="#EBA9A9"/>
<path d="M815.166 -0.0923821L824.578 8.71237L810.936 11.87L801.544 3.09451L815.166 -0.0923821Z" fill="#EBA9A9"/>
<path d="M725.92 10.5099L735.331 19.3147L721.689 22.4723L712.297 13.6968L725.92 10.5099Z" fill="#7E3D3D"/>
<path d="M743.9 27.242L753.311 36.0468L739.67 39.2044L730.278 30.4289L743.9 27.242Z" fill="#7E3D3D"/>
<path d="M739.401 7.38552L748.812 16.1903L735.171 19.3479L725.779 10.5724L739.401 7.38552Z" fill="#EBA9A9"/>
<path d="M757.381 24.1171L766.793 32.9218L753.151 36.0795L743.759 27.304L757.381 24.1171Z" fill="#EBA9A9"/>
<path d="M752.507 4.18576L761.919 12.9905L748.277 16.1482L738.885 7.37265L752.507 4.18576Z" fill="#7E3D3D"/>
<path d="M770.486 20.9177L779.898 29.7224L766.256 32.8801L756.864 24.1046L770.486 20.9177Z" fill="#7E3D3D"/>
<path d="M765.987 1.06112L775.399 9.86587L761.757 13.0235L752.365 4.24802L765.987 1.06112Z" fill="#EBA9A9"/>
<path d="M783.966 17.793L793.378 26.5977L779.736 29.7554L770.344 20.9799L783.966 17.793Z" fill="#EBA9A9"/>
<path d="M779.842 -1.98795L789.253 6.8168L775.612 9.97446L766.22 1.19895L779.842 -1.98795Z" fill="#7E3D3D"/>
<path d="M797.822 14.7439L807.234 23.5487L793.592 26.7063L784.2 17.9308L797.822 14.7439Z" fill="#7E3D3D"/>
<path d="M793.322 -5.11265L802.733 3.69211L789.092 6.84976L779.7 -1.92575L793.322 -5.11265Z" fill="#EBA9A9"/>
<path d="M811.303 11.6194L820.715 20.4242L807.073 23.5818L797.681 14.8063L811.303 11.6194Z" fill="#EBA9A9"/>
<path d="M806.43 -8.31193L815.841 0.492826L802.2 3.65048L792.808 -5.12503L806.43 -8.31193Z" fill="#7E3D3D"/>
<path d="M824.41 8.41976L833.822 17.2245L820.18 20.3822L810.788 11.6067L824.41 8.41976Z" fill="#7E3D3D"/>
<path d="M712.158 13.6336L721.57 22.4383L707.928 25.596L698.536 16.8205L712.158 13.6336Z" fill="#EBA9A9"/>
<path d="M730.137 30.3654L739.549 39.1702L725.907 42.3279L716.515 33.5523L730.137 30.3654Z" fill="#EBA9A9"/>
<path d="M802.103 3.55941L811.515 12.3642L797.873 15.5218L788.481 6.74631L802.103 3.55941Z" fill="#7E3D3D"/>
<path d="M739.474 39.0589L748.885 47.8637L735.243 51.0213L725.851 42.2458L739.474 39.0589Z" fill="#7E3D3D"/>
<path d="M757.614 56.034L767.025 64.8387L753.384 67.9964L743.992 59.2209L757.614 56.034Z" fill="#7E3D3D"/>
<path d="M752.954 35.9342L762.365 44.739L748.723 47.8966L739.331 39.1211L752.954 35.9342Z" fill="#EBA9A9"/>
<path d="M770.934 52.6663L780.345 61.471L766.703 64.6287L757.311 55.8532L770.934 52.6663Z" fill="#EBA9A9"/>
<path d="M766.06 32.7346L775.472 41.5393L761.83 44.697L752.438 35.9215L766.06 32.7346Z" fill="#7E3D3D"/>
<path d="M784.041 49.4668L793.452 58.2715L779.81 61.4292L770.418 52.6537L784.041 49.4668Z" fill="#7E3D3D"/>
<path d="M797.52 46.3422L806.932 55.1469L793.29 58.3046L783.898 49.5291L797.52 46.3422Z" fill="#EBA9A9"/>
<path d="M793.396 26.5612L802.807 35.366L789.165 38.5237L779.773 29.7481L793.396 26.5612Z" fill="#7E3D3D"/>
<path d="M811.375 43.2931L820.786 52.0978L807.144 55.2555L797.752 46.48L811.375 43.2931Z" fill="#7E3D3D"/>
<path d="M806.876 23.4365L816.287 32.2412L802.645 35.3989L793.253 26.6234L806.876 23.4365Z" fill="#EBA9A9"/>
<path d="M824.856 40.1681L834.268 48.9729L820.626 52.1305L811.234 43.355L824.856 40.1681Z" fill="#EBA9A9"/>
<path d="M819.982 20.2368L829.393 29.0416L815.752 32.1993L806.36 23.4237L819.982 20.2368Z" fill="#7E3D3D"/>
<path d="M837.962 36.9683L847.373 45.7731L833.731 48.9308L824.339 40.1552L837.962 36.9683Z" fill="#7E3D3D"/>
<path d="M833.462 17.1121L842.873 25.9169L829.232 29.0746L819.84 20.299L833.462 17.1121Z" fill="#EBA9A9"/>
<path d="M851.441 33.8441L860.852 42.6488L847.211 45.8065L837.819 37.031L851.441 33.8441Z" fill="#EBA9A9"/>
<path d="M762.196 44.4465L771.607 53.2512L757.966 56.4089L748.574 47.6334L762.196 44.4465Z" fill="#7E3D3D"/>
<path d="M780.176 61.1782L789.588 69.9829L775.946 73.1406L766.554 64.3651L780.176 61.1782Z" fill="#7E3D3D"/>
<path d="M775.676 41.3219L785.087 50.1266L771.446 53.2843L762.054 44.5088L775.676 41.3219Z" fill="#EBA9A9"/>
<path d="M793.657 58.0539L803.069 66.8587L789.427 70.0163L780.035 61.2408L793.657 58.0539Z" fill="#EBA9A9"/>
<path d="M788.784 38.1226L798.195 46.9273L784.554 50.085L775.162 41.3095L788.784 38.1226Z" fill="#7E3D3D"/>
<path d="M806.764 54.8543L816.176 63.6591L802.534 66.8167L793.142 58.0412L806.764 54.8543Z" fill="#7E3D3D"/>
<path d="M802.264 34.9979L811.675 43.8027L798.034 46.9604L788.642 38.1848L802.264 34.9979Z" fill="#EBA9A9"/>
<path d="M820.244 51.7296L829.656 60.5344L816.014 63.692L806.622 54.9165L820.244 51.7296Z" fill="#EBA9A9"/>
<path d="M816.118 31.9489L825.529 40.7536L811.888 43.9113L802.496 35.1358L816.118 31.9489Z" fill="#7E3D3D"/>
<path d="M834.098 48.6806L843.51 57.4853L829.868 60.643L820.476 51.8675L834.098 48.6806Z" fill="#7E3D3D"/>
<path d="M829.598 28.8241L839.009 37.6289L825.367 40.7865L815.976 32.011L829.598 28.8241Z" fill="#EBA9A9"/>
<path d="M847.578 45.5558L856.99 54.3606L843.348 57.5182L833.956 48.7427L847.578 45.5558Z" fill="#EBA9A9"/>
<path d="M842.705 25.6245L852.116 34.4293L838.474 37.5869L829.082 28.8114L842.705 25.6245Z" fill="#7E3D3D"/>
<path d="M860.686 42.3567L870.098 51.1614L856.456 54.3191L847.064 45.5436L860.686 42.3567Z" fill="#7E3D3D"/>
<path d="M748.434 47.5704L757.846 56.3752L744.204 59.5328L734.812 50.7573L748.434 47.5704Z" fill="#EBA9A9"/>
<path d="M766.415 64.302L775.826 73.1067L762.184 76.2644L752.792 67.4889L766.415 64.302Z" fill="#EBA9A9"/>
<path d="M779.549 29.3303L788.96 38.135L775.319 41.2927L765.927 32.5172L779.549 29.3303Z" fill="#EBA9A9"/>
<path d="M762.579 77.4036L761.564 82.4524L686.739 12.4578L686.511 7.56311L762.579 77.4036Z" fill="#561E1E"/>
</g>
<g opacity="0.03">
<path d="M646.202 431.717C647.42 432.306 649.95 431.923 651.062 431.657L652.949 430.757L652.88 429.731C652.88 429.731 642.559 421.047 642.08 421.062C641.6 421.076 639.535 421.469 639.138 422.394C638.74 423.319 642.412 428.836 642.412 428.836C642.412 428.836 644.983 431.128 646.202 431.717Z" fill="url(#paint0_linear_37_525)"/>
<path d="M672.127 446.433C672.127 446.433 667.628 444.068 665.826 445.766C664.887 446.651 660.493 445.264 660.605 446.548C660.738 448.091 665.563 451.415 667.053 451.843C667.666 452.019 668.106 451.65 668.684 451.919C669.413 452.258 669.905 453.576 669.905 453.576C669.905 453.576 672.088 454.401 673.557 454.523L673.605 454.527C675.447 454.68 677.036 454.811 678.301 453.879C679.578 452.938 672.127 446.433 672.127 446.433Z" fill="url(#paint1_linear_37_525)"/>
<g filter="url(#filter7_d_37_525)">
<path d="M626.277 465.204C628.606 462.225 629.208 460.795 630.697 456.958C632.186 453.122 633.638 450.291 635.432 450.339C639.534 450.448 647.542 453.292 650.962 455.404L648.837 434.985C648.837 434.985 638.091 435.049 632.612 438.523C626.674 442.288 628.335 449.901 622.087 453.125C621.216 453.575 620.609 453.596 619.789 454.133C616.666 456.176 615.197 459.903 616.876 463.226C618.61 466.658 625.015 466.819 626.277 465.204Z" fill="url(#paint2_linear_37_525)"/>
</g>
<path d="M649.512 441.804C650.337 442.924 659.049 446.066 662.239 448.526C665.429 450.985 664.722 450.427 665.854 446.219C666.986 442.011 667.769 437.996 668.834 437.84C670.166 437.644 673.899 434.416 674.002 434.033C674.208 433.264 673.936 431.137 673.199 430.404C672.462 429.671 667.918 426.442 666.3 425.18C664.681 423.919 662.18 425.467 660.989 425.853C659.798 426.24 657.621 423.82 656.837 423.023C656.053 422.226 650.643 415.415 649.518 413.888C648.393 412.361 645.884 409.891 645.194 409.221C644.504 408.552 644.356 410.441 643.97 411.301C642.041 415.604 645.26 421.736 645.942 423.196C646.624 424.657 652.046 428.81 652.715 429.986C653.384 431.161 649.331 434.343 648.804 434.83C648.276 435.316 648.481 440.404 649.512 441.804Z" fill="url(#paint3_linear_37_525)"/>
<path d="M650.635 454.828C650.635 454.828 652.911 457.183 654.824 457.722C657.976 458.609 662.858 455.332 662.858 455.332C663.203 456.156 664.138 458.134 665.112 459.455C666.085 460.777 668.251 460.083 669.212 459.571C669.335 458.762 669.488 456.702 669.124 454.931C668.76 453.16 667.426 451.739 666.804 451.249L663.344 448.015C662.44 447.275 660.27 445.73 658.821 445.465C657.01 445.133 649.162 440.746 649.332 441.758C649.507 442.792 650.479 450.76 650.635 454.828Z" fill="url(#paint4_linear_37_525)"/>
<path d="M646.702 486.067C644.966 484.379 641.247 473.322 641.247 473.322L640.404 472.178C640.404 472.178 633.259 472.496 630.593 469.673C628.625 467.59 628.348 466.237 628.407 463.368C628.463 460.689 629.402 459.261 630.593 456.857C632.102 453.809 632.352 450.101 635.742 449.829C636.918 449.734 637.56 450.127 638.71 450.387C643.765 451.53 651.014 455.342 651.014 455.342C651.014 455.342 653.366 461.054 652.849 464.775C652.334 468.481 648.176 469.62 648.539 473.342C648.886 476.904 653.598 478.608 653.969 480.714C654.47 483.558 654.403 487.951 651.568 488.535C649.83 488.893 648.437 487.756 646.702 486.067Z" fill="url(#paint5_linear_37_525)"/>
<path d="M626.519 473.018L625.346 465.934C625.346 465.934 626.429 465.136 627.132 464.225C627.836 463.314 628.304 460.615 628.749 460.287C629.195 459.958 627.874 466.223 629.984 468.896C632.922 472.618 640.359 472.047 640.359 472.047L637.832 475.576L638.34 477.066C638.34 477.066 641.845 493.717 639.925 494.15C638.004 494.584 637.13 494.515 635.751 494.085C634.373 493.654 633.799 491.908 632.94 490.268C630.849 486.274 634.232 482.545 631.747 478.783C630.646 477.115 628.112 475.181 628.112 475.181C627.352 474.727 626.519 473.018 626.519 473.018Z" fill="url(#paint6_linear_37_525)"/>
<path d="M665.468 429.272C665.489 429.723 664.977 429.925 664.586 429.923C664.194 429.92 663.479 429.477 662.856 429.16C662.234 428.843 661.833 428.554 662.115 428.154C662.258 427.952 663.045 427.567 663.326 427.553C663.608 427.539 664.373 427.508 664.841 427.892C665.299 428.268 665.448 428.822 665.468 429.272Z" fill="#4D4444"/>
<ellipse cx="664.8" cy="428.436" rx="0.224353" ry="0.314094" transform="rotate(-36.377 664.8 428.436)" fill="#D9D9D9"/>
<path d="M650.173 417.546C650.173 417.546 655.029 424.673 656.478 427.042C656.116 427.309 655.013 427.728 653.496 427.275C651.6 426.707 647.049 423.084 645.96 418.784C645.317 416.244 644.99 411.446 646.14 412.072C647.291 412.697 650.173 417.546 650.173 417.546Z" fill="url(#paint7_linear_37_525)"/>
<g filter="url(#filter8_f_37_525)">
<ellipse cx="619.022" cy="460.709" rx="1.92943" ry="2.46788" transform="rotate(-11.2705 619.022 460.709)" fill="#D7F6FF" fill-opacity="0.96"/>
</g>
<g filter="url(#filter9_f_37_525)">
<ellipse cx="666.441" cy="453.587" rx="1.88456" ry="2.42301" transform="rotate(-36.377 666.441 453.587)" fill="#D7F6FF" fill-opacity="0.96"/>
</g>
<g filter="url(#filter10_f_37_525)">
<ellipse cx="662.033" cy="430.902" rx="1.89602" ry="1.10601" transform="rotate(13.0685 662.033 430.902)" fill="#F9D0D0" fill-opacity="0.65"/>
</g>
</g>
<g opacity="0.06">
<path d="M942.002 78.1043C941.656 79.4127 942.515 81.8227 942.987 82.8641L944.232 84.5444L945.225 84.2815C945.225 84.2815 951.782 72.4942 951.676 72.0259C951.57 71.5577 950.791 69.6059 949.807 69.3922C948.823 69.1784 944.107 73.8349 944.107 73.8349C944.107 73.8349 942.348 76.7958 942.002 78.1043Z" fill="url(#paint8_linear_37_525)"/>
<path d="M932.5 106.36C932.5 106.36 933.964 101.492 931.953 100.047C930.905 99.2945 931.429 94.7168 930.19 95.0709C928.701 95.4964 926.357 100.867 926.222 102.41C926.166 103.045 926.612 103.408 926.458 104.026C926.264 104.807 925.064 105.541 925.064 105.541C925.064 105.541 924.67 107.841 924.831 109.306L924.836 109.354C925.038 111.192 925.211 112.776 926.368 113.841C927.535 114.915 932.5 106.36 932.5 106.36Z" fill="url(#paint9_linear_37_525)"/>
<g filter="url(#filter11_d_37_525)">
<path d="M905.33 64.9311C908.698 66.6487 910.217 66.9672 914.267 67.6973C918.317 68.4275 921.373 69.3128 921.668 71.0835C922.343 75.1308 921.078 83.5345 919.657 87.294L939.296 81.3142C939.296 81.3142 937.185 70.7778 932.73 66.0619C927.901 60.9509 920.745 64.0325 916.388 58.5144C915.781 57.7452 915.644 57.1535 914.961 56.4508C912.36 53.775 908.421 53.0431 905.479 55.3251C902.441 57.6823 903.504 63.9999 905.33 64.9311Z" fill="url(#paint10_linear_37_525)"/>
</g>
<path d="M932.732 83.2778C931.79 84.3011 930.366 93.4524 928.56 97.0527C926.754 100.653 927.168 99.8524 931.514 100.161C935.861 100.47 939.951 100.473 940.308 101.489C940.754 102.759 944.635 105.808 945.03 105.836C945.824 105.892 947.86 105.219 948.439 104.356C949.018 103.492 951.322 98.4163 952.252 96.5871C953.182 94.7578 951.185 92.5978 950.578 91.5021C949.971 90.4064 951.932 87.808 952.565 86.8866C953.198 85.9653 958.852 79.355 960.136 77.9596C961.421 76.5642 963.367 73.6303 963.893 72.8252C964.419 72.0202 962.536 72.2348 961.618 72.0203C957.026 70.9468 951.621 75.2766 950.317 76.2248C949.013 77.173 945.97 83.2867 944.944 84.1678C943.918 85.0489 940.021 81.677 939.443 81.2521C938.865 80.8273 933.909 81.9987 932.732 83.2778Z" fill="url(#paint11_linear_37_525)"/>
<path d="M920.161 86.8635C920.161 86.8635 918.283 89.5461 918.119 91.527C917.848 94.7905 921.996 98.9578 921.996 98.9578C921.254 99.4541 919.49 100.749 918.379 101.956C917.267 103.164 918.361 105.158 919.047 106.004C919.864 105.97 921.916 105.728 923.585 105.033C925.254 104.338 926.395 102.756 926.757 102.053L929.272 98.0394C929.826 97.0113 930.928 94.5868 930.913 93.1136C930.893 91.272 933.703 82.7314 932.743 83.0919C931.76 83.4606 924.124 85.9348 920.161 86.8635Z" fill="url(#paint12_linear_37_525)"/>
<path d="M888.745 88.9597C890.071 86.9341 900.216 81.174 900.216 81.174L901.178 80.1287C901.178 80.1287 899.504 73.1754 901.766 70.0206C903.436 67.6915 904.711 67.1615 907.538 66.6724C910.179 66.2157 911.76 66.8658 914.347 67.576C917.627 68.4763 921.314 68.0149 922.228 71.2901C922.545 72.4272 922.282 73.1316 922.246 74.3104C922.088 79.4906 919.728 87.3339 919.728 87.3339C919.728 87.3339 914.569 90.7313 910.818 90.9335C907.082 91.135 905.171 87.2708 901.587 88.3362C898.157 89.3559 897.382 94.3072 895.386 95.0728C892.689 96.1071 888.364 96.8785 887.25 94.2073C886.567 92.5693 887.418 90.9852 888.745 88.9597Z" fill="url(#paint13_linear_37_525)"/>
<path d="M897.705 66.6583L904.436 64.1563C904.436 64.1563 905.425 65.0667 906.454 65.584C907.483 66.1013 910.221 66.0451 910.628 66.42C911.036 66.7949 904.634 66.6924 902.413 69.2734C899.319 72.8682 901.298 80.059 901.298 80.059L897.352 78.2518L895.986 79.0349C895.986 79.0349 880.309 85.6508 879.517 83.8482C878.726 82.0457 878.626 81.1741 878.786 79.7388C878.946 78.3036 880.55 77.4069 881.996 76.2512C885.518 73.4365 889.825 76.0468 893.044 72.8903C894.471 71.491 895.886 68.6346 895.886 68.6346C896.187 67.8019 897.705 66.6583 897.705 66.6583Z" fill="url(#paint14_linear_37_525)"/>
<path d="M948.076 96.551C947.638 96.657 947.341 96.1929 947.269 95.8083C947.197 95.4238 947.495 94.6372 947.688 93.9654C947.88 93.2937 948.088 92.8454 948.534 93.0463C948.76 93.148 949.288 93.8464 949.355 94.1205C949.422 94.3945 949.599 95.1392 949.311 95.6717C949.03 96.1927 948.514 96.445 948.076 96.551Z" fill="#4D4444"/>
<ellipse cx="948.769" cy="95.7352" rx="0.224353" ry="0.314094" transform="rotate(42.6296 948.769 95.7352)" fill="#D9D9D9"/>
<path d="M956.67 79.3006C956.67 79.3006 950.6 85.4263 948.551 87.301C948.22 86.9965 947.598 85.9936 947.754 84.418C947.949 82.4486 950.639 77.2896 954.652 75.4011C957.023 74.2856 961.67 73.0493 961.275 74.298C960.881 75.5467 956.67 79.3006 956.67 79.3006Z" fill="url(#paint15_linear_37_525)"/>
<g filter="url(#filter12_f_37_525)">
<ellipse cx="908.359" cy="56.9514" rx="1.92943" ry="2.46788" transform="rotate(67.7362 908.359 56.9514)" fill="#D7F6FF" fill-opacity="0.96"/>
</g>
<g filter="url(#filter13_f_37_525)">
<ellipse cx="924.393" cy="102.143" rx="1.88456" ry="2.42301" transform="rotate(42.6296 924.393 102.143)" fill="#D7F6FF" fill-opacity="0.96"/>
</g>
<g filter="url(#filter14_f_37_525)">
<ellipse cx="945.821" cy="93.4896" rx="1.89602" ry="1.10601" transform="rotate(92.0752 945.821 93.4896)" fill="#F9D0D0" fill-opacity="0.65"/>
</g>
</g>
<g opacity="0.11">
<path d="M963.754 570.769C963.54 573.627 960.151 577.856 958.484 579.614L954.829 582.115L953.023 580.9C953.023 580.9 948.066 552.762 948.602 551.898C949.138 551.034 952.051 547.667 954.169 547.921C956.286 548.175 962.499 560.764 962.499 560.764C962.499 560.764 963.969 567.91 963.754 570.769Z" fill="url(#paint16_linear_37_525)"/>
<path d="M963.195 633.913C963.195 633.913 963.637 623.155 968.664 621.656C971.283 620.875 973.405 611.348 975.641 612.916C978.327 614.8 979.296 627.174 978.498 630.357C978.17 631.667 977.025 632.083 976.905 633.428C976.754 635.124 978.646 637.425 978.646 637.425C978.646 637.425 977.84 642.303 976.504 645.124L976.46 645.216C974.783 648.755 973.338 651.806 970.284 653.136C967.205 654.477 963.195 633.913 963.195 633.913Z" fill="url(#paint17_linear_37_525)"/>
<g filter="url(#filter15_d_37_525)">
<path d="M1046.29 569.812C1038.36 570.917 1035.1 570.501 1026.48 569.156C1017.87 567.811 1011.14 567.466 1009.32 570.806C1005.17 578.44 1001.87 596.137 1002.11 604.648L966.947 579.069C966.947 579.069 978.474 559.442 990.66 553.089C1003.87 546.204 1016.06 557.332 1028.6 549.305C1030.35 548.186 1031.03 547.097 1032.89 546.164C1039.95 542.61 1048.34 543.874 1052.65 550.481C1057.1 557.305 1050.59 569.213 1046.29 569.812Z" fill="url(#paint18_linear_37_525)"/>
</g>
<path d="M978.726 587.549C979.902 590.25 976.41 609.554 977.531 618.012C978.652 626.471 978.378 624.581 969.463 622.188C960.549 619.794 952.36 616.966 950.941 618.752C949.168 620.985 939.287 624.399 938.476 624.181C936.849 623.742 933.24 620.984 932.678 618.855C932.117 616.726 931.024 604.969 930.431 600.663C929.837 596.357 935.33 593.417 937.304 591.644C939.278 589.872 937.153 583.311 936.525 581.029C935.897 578.746 929.16 561.596 927.556 557.913C925.952 554.23 924.088 547.008 923.594 545.032C923.1 543.056 926.72 544.791 928.705 544.997C938.641 546.031 946.461 558.443 948.413 561.245C950.366 564.046 952.22 578.393 953.664 580.867C955.108 583.342 965.245 579.293 966.696 578.843C968.148 578.394 977.256 584.172 978.726 587.549Z" fill="url(#paint19_linear_37_525)"/>
<path d="M1001.4 603.437C1001.4 603.437 1003.3 610.108 1002.26 614.187C1000.54 620.907 989.349 626.374 989.349 626.374C990.491 627.882 993.124 631.696 994.512 634.883C995.901 638.071 992.329 641.305 990.37 642.523C988.757 641.888 984.817 639.981 981.959 637.433C979.1 634.886 977.912 630.93 977.675 629.27L975.421 619.494C975.026 617.053 974.498 611.435 975.551 608.497C976.866 604.824 977.16 585.782 978.833 587.169C980.544 588.588 994.115 598.832 1001.4 603.437Z" fill="url(#paint20_linear_37_525)"/>
<path d="M1062.84 629.403C1061.59 624.429 1045.27 605.869 1045.27 605.869L1044.07 603.11C1044.07 603.11 1052.24 590.352 1049.9 582.47C1048.17 576.65 1045.98 574.706 1040.66 571.768C1035.69 569.024 1032.08 569.229 1026.41 568.858C1019.22 568.387 1012.16 564.909 1008.06 570.831C1006.63 572.888 1006.67 574.48 1005.93 576.865C1002.66 587.343 1001.94 604.678 1001.94 604.678C1001.94 604.678 1009.92 615.054 1017.28 618.058C1024.62 621.05 1031.13 614.64 1037.56 619.256C1043.72 623.674 1041.84 634.122 1045.31 637.038C1049.99 640.977 1058.11 645.518 1062.19 640.943C1064.69 638.137 1064.09 634.377 1062.84 629.403Z" fill="url(#paint21_linear_37_525)"/>
<path d="M1060.35 578.553L1048.61 568.881C1048.61 568.881 1046 570.018 1043.59 570.34C1041.17 570.663 1035.73 568.653 1034.65 569.121C1033.58 569.589 1046.46 573.82 1049.12 580.526C1052.82 589.865 1043.88 602.888 1043.88 602.888L1053.03 602.005L1055.22 604.519C1055.22 604.519 1082.01 628.625 1084.85 625.566C1087.68 622.506 1088.49 620.83 1089.16 617.847C1089.83 614.863 1087.24 611.956 1085.15 608.641C1080.05 600.566 1069.62 602.807 1065.37 594.258C1063.48 590.468 1062.63 583.77 1062.63 583.77C1062.6 581.894 1060.35 578.553 1060.35 578.553Z" fill="url(#paint22_linear_37_525)"/>
<path d="M938.813 603.484C939.617 604 940.533 603.277 940.943 602.557C941.353 601.837 941.301 600.056 941.382 598.578C941.462 597.1 941.357 596.058 940.325 596.152C939.803 596.199 938.261 597.231 937.937 597.733C937.613 598.235 936.743 599.603 936.95 600.868C937.153 602.106 938.01 602.969 938.813 603.484Z" fill="#4D4444"/>
<ellipse cx="0.475234" cy="0.665328" rx="0.475234" ry="0.665328" transform="matrix(-0.916821 0.3993 0.3993 0.916821 938.161 600.571)" fill="#D9D9D9"/>
<path d="M933.563 562.999C933.563 562.999 941.469 579.467 944.272 584.639C945.145 584.259 947.086 582.683 947.865 579.421C948.839 575.343 947.031 563.153 940.306 556.592C936.333 552.716 927.888 547.021 927.812 549.794C927.737 552.567 933.563 562.999 933.563 562.999Z" fill="url(#paint23_linear_37_525)"/>
<g filter="url(#filter16_f_37_525)">
<ellipse cx="4.08701" cy="5.22758" rx="4.08701" ry="5.22758" transform="matrix(-0.660776 0.750584 0.750583 0.660776 1044.53 545.219)" fill="#D7F6FF" fill-opacity="0.96"/>
</g>
<g filter="url(#filter17_f_37_525)">
<ellipse cx="3.99197" cy="5.13253" rx="3.99197" ry="5.13253" transform="matrix(-0.916821 0.3993 0.3993 0.916821 983.956 624.789)" fill="#D7F6FF" fill-opacity="0.96"/>
</g>
<g filter="url(#filter18_f_37_525)">
<ellipse cx="4.01624" cy="2.34281" rx="4.01624" ry="2.34281" transform="matrix(-0.292707 0.956202 0.956202 0.292707 944.383 594.393)" fill="#F9D0D0" fill-opacity="0.65"/>
</g>
</g>
<g opacity="0.06">
<path d="M140.133 82.7061C139.992 84.052 138.333 86 137.522 86.8058L135.762 87.9347L134.927 87.3362C134.927 87.3362 132.983 73.9887 133.248 73.5885C133.513 73.1883 134.935 71.6405 135.931 71.7902C136.926 71.9398 139.681 77.9673 139.681 77.9673C139.681 77.9673 140.274 81.3601 140.133 82.7061Z" fill="url(#paint24_linear_37_525)"/>
<path d="M138.982 112.495C138.982 112.495 139.342 107.424 141.735 106.788C142.982 106.456 144.117 101.99 145.15 102.761C146.391 103.688 146.674 109.541 146.253 111.032C146.08 111.645 145.534 111.826 145.458 112.459C145.363 113.257 146.224 114.369 146.224 114.369C146.224 114.369 145.775 116.66 145.105 117.972L145.083 118.015C144.242 119.661 143.517 121.081 142.057 121.665C140.585 122.255 138.982 112.495 138.982 112.495Z" fill="url(#paint25_linear_37_525)"/>
<g filter="url(#filter19_d_37_525)">
<path d="M179.092 83.4142C175.334 83.8239 173.801 83.582 169.755 82.8264C165.71 82.0707 162.539 81.8132 161.634 83.3637C159.567 86.9076 157.764 95.2126 157.758 99.2318L141.522 86.6676C141.522 86.6676 147.238 77.5678 153.077 74.7413C159.406 71.6779 165.001 77.1001 171.034 73.4888C171.874 72.9854 172.213 72.481 173.101 72.0667C176.483 70.489 180.424 71.2033 182.364 74.3813C184.368 77.6639 181.13 83.192 179.092 83.4142Z" fill="url(#paint26_linear_37_525)"/>
</g>
<path d="M146.962 90.8345C147.479 92.1256 145.56 101.186 145.97 105.193C146.38 109.2 146.277 108.305 142.104 107.05C137.931 105.795 134.107 104.345 133.412 105.169C132.544 106.197 127.833 107.67 127.454 107.555C126.692 107.325 125.028 105.973 124.793 104.961C124.558 103.948 124.208 98.3847 123.988 96.3445C123.768 94.3043 126.402 92.994 127.358 92.1853C128.315 91.3765 127.404 88.251 127.14 87.165C126.875 86.0791 123.937 77.8918 123.232 76.1312C122.527 74.3706 121.749 70.9366 121.543 69.9973C121.338 69.0581 123.022 69.9274 123.956 70.0526C128.63 70.6799 132.145 76.6471 133.027 77.9964C133.909 79.3457 134.583 86.1416 135.229 87.3297C135.876 88.5179 140.716 86.7494 141.408 86.5576C142.099 86.3658 146.315 89.2206 146.962 90.8345Z" fill="url(#paint27_linear_37_525)"/>
<path d="M157.44 98.6505C157.44 98.6505 158.243 101.825 157.693 103.735C156.787 106.882 151.429 109.305 151.429 109.305C151.947 110.032 153.136 111.869 153.746 113.393C154.356 114.916 152.626 116.392 151.684 116.939C150.932 116.617 149.1 115.662 147.787 114.42C146.473 113.177 145.968 111.294 145.88 110.507L144.953 105.862C144.801 104.705 144.631 102.047 145.169 100.675C145.841 98.9604 146.248 89.9787 147.017 90.6567C147.805 91.3503 154.065 96.3749 157.44 98.6505Z" fill="url(#paint28_linear_37_525)"/>
<path d="M186.064 111.766C185.543 109.402 178.105 100.415 178.105 100.415L177.577 99.0956C177.577 99.0956 181.612 93.1902 180.617 89.4377C179.883 86.6673 178.879 85.7191 176.41 84.2579C174.104 82.8932 172.395 82.9396 169.724 82.6847C166.338 82.3616 163.055 80.6208 161.038 83.3581C160.337 84.3083 160.334 85.0604 159.949 86.1752C158.257 91.0738 157.678 99.2439 157.678 99.2439C157.678 99.2439 161.294 104.252 164.728 105.773C168.149 107.288 171.308 104.355 174.28 106.623C177.125 108.795 176.091 113.698 177.685 115.123C179.839 117.047 183.608 119.304 185.598 117.203C186.818 115.914 186.585 114.131 186.064 111.766Z" fill="url(#paint29_linear_37_525)"/>
<path d="M185.607 87.7364L180.203 83.0073C180.203 83.0073 178.955 83.5072 177.81 83.6255C176.665 83.7438 174.125 82.7187 173.611 82.9246C173.097 83.1304 179.117 85.3077 180.278 88.5095C181.893 92.9687 177.49 98.988 177.49 98.988L181.821 98.7L182.819 99.917C182.819 99.917 195.125 111.669 196.505 110.265C197.885 108.861 198.288 108.081 198.648 106.683C199.008 105.285 197.827 103.877 196.885 102.283C194.593 98.4007 189.64 99.3116 187.752 95.2178C186.915 93.4029 186.606 90.23 186.606 90.23C186.62 89.3447 185.607 87.7364 185.607 87.7364Z" fill="url(#paint30_linear_37_525)"/>
<path d="M127.904 97.7935C128.276 98.0482 128.718 97.7197 128.922 97.3858C129.126 97.0519 129.126 96.2106 129.185 95.5143C129.243 94.8179 129.209 94.3252 128.72 94.3546C128.473 94.3695 127.731 94.8348 127.571 95.0672C127.411 95.2995 126.982 95.9329 127.062 96.533C127.14 97.1199 127.532 97.5389 127.904 97.7935Z" fill="#4D4444"/>
<ellipse cx="0.224353" cy="0.314094" rx="0.224353" ry="0.314094" transform="matrix(-0.928297 0.37184 0.37184 0.928297 127.637 96.4095)" fill="#D9D9D9"/>
<path d="M125.996 78.6155C125.996 78.6155 129.495 86.4974 130.745 88.9777C131.162 88.8105 132.1 88.094 132.514 86.5657C133.031 84.6553 132.349 78.8776 129.267 75.6868C127.447 73.8022 123.542 70.9962 123.467 72.3036C123.393 73.6111 125.996 78.6155 125.996 78.6155Z" fill="url(#paint31_linear_37_525)"/>
<g filter="url(#filter20_f_37_525)">
<ellipse cx="1.92943" cy="2.46788" rx="1.92943" ry="2.46788" transform="matrix(-0.682819 0.730588 0.730588 0.682819 178.609 71.7844)" fill="#D7F6FF" fill-opacity="0.96"/>
</g>
<g filter="url(#filter21_f_37_525)">
<ellipse cx="1.88456" cy="2.42301" rx="1.88456" ry="2.42301" transform="matrix(-0.928297 0.37184 0.37184 0.928297 148.907 108.481)" fill="#D7F6FF" fill-opacity="0.96"/>
</g>
<g filter="url(#filter22_f_37_525)">
<ellipse cx="1.89602" cy="1.10601" rx="1.89602" ry="1.10601" transform="matrix(-0.321032 0.947069 0.947069 0.321032 130.66 93.5816)" fill="#F9D0D0" fill-opacity="0.65"/>
</g>
</g>
<defs>
<filter id="filter0_gn_37_525" x="881.59" y="126.96" width="74.8761" height="42.6562" filterUnits="userSpaceOnUse" color-interpolation-filters="sRGB">
<feFlood flood-opacity="0" result="BackgroundImageFix"/>
<feBlend mode="normal" in="SourceGraphic" in2="BackgroundImageFix" result="shape"/>
<feTurbulence type="fractalNoise" baseFrequency="0.99900001287460327 0.99900001287460327" numOctaves="3" seed="598" />
<feDisplacementMap in="shape" scale="0.31505188345909119" xChannelSelector="R" yChannelSelector="G" result="displacedImage" width="100%" height="100%" />
<feMerge result="effect1_texture_37_525">
<feMergeNode in="displacedImage"/>
</feMerge>
<feTurbulence type="fractalNoise" baseFrequency="12.696321487426758 12.696321487426758" stitchTiles="stitch" numOctaves="3" result="noise" seed="8" />
<feColorMatrix in="noise" type="luminanceToAlpha" result="alphaNoise" />
<feComponentTransfer in="alphaNoise" result="coloredNoise1">
<feFuncA type="discrete" tableValues="0 0 0 0 0 0 0 0 0 0 1 1 1 1 1 1 1 1 1 1 1 1 1 1 1 1 1 1 1 1 1 1 1 1 1 1 1 1 1 0 0 0 0 0 0 0 0 0 0 0 0 0 0 0 0 0 0 0 0 0 0 0 0 0 0 0 0 0 0 0 0 0 0 0 0 0 0 0 0 0 0 0 0 0 0 0 0 0 0 0 0 0 0 0 0 0 0 0 0 0 "/>
</feComponentTransfer>
<feComposite operator="in" in2="effect1_texture_37_525" in="coloredNoise1" result="noise1Clipped" />
<feFlood flood-color="rgba(0, 0, 0, 0.25)" result="color1Flood" />
<feComposite operator="in" in2="noise1Clipped" in="color1Flood" result="color1" />
<feMerge result="effect2_noise_37_525">
<feMergeNode in="effect1_texture_37_525" />
<feMergeNode in="color1" />
</feMerge>
</filter>
<filter id="filter1_gn_37_525" x="576.972" y="500.981" width="76.6718" height="43.9306" filterUnits="userSpaceOnUse" color-interpolation-filters="sRGB">
<feFlood flood-opacity="0" result="BackgroundImageFix"/>
<feBlend mode="normal" in="SourceGraphic" in2="BackgroundImageFix" result="shape"/>
<feTurbulence type="fractalNoise" baseFrequency="0.99900001287460327 0.99900001287460327" numOctaves="3" seed="598" />
<feDisplacementMap in="shape" scale="0.32705420255661011" xChannelSelector="R" yChannelSelector="G" result="displacedImage" width="100%" height="100%" />
<feMerge result="effect1_texture_37_525">
<feMergeNode in="displacedImage"/>
</feMerge>
<feTurbulence type="fractalNoise" baseFrequency="12.230388641357422 12.230388641357422" stitchTiles="stitch" numOctaves="3" result="noise" seed="8" />
<feColorMatrix in="noise" type="luminanceToAlpha" result="alphaNoise" />
<feComponentTransfer in="alphaNoise" result="coloredNoise1">
<feFuncA type="discrete" tableValues="0 0 0 0 0 0 0 0 0 0 1 1 1 1 1 1 1 1 1 1 1 1 1 1 1 1 1 1 1 1 1 1 1 1 1 1 1 1 1 0 0 0 0 0 0 0 0 0 0 0 0 0 0 0 0 0 0 0 0 0 0 0 0 0 0 0 0 0 0 0 0 0 0 0 0 0 0 0 0 0 0 0 0 0 0 0 0 0 0 0 0 0 0 0 0 0 0 0 0 0 "/>
</feComponentTransfer>
<feComposite operator="in" in2="effect1_texture_37_525" in="coloredNoise1" result="noise1Clipped" />
<feFlood flood-color="rgba(0, 0, 0, 0.25)" result="color1Flood" />
<feComposite operator="in" in2="noise1Clipped" in="color1Flood" result="color1" />
<feMerge result="effect2_noise_37_525">
<feMergeNode in="effect1_texture_37_525" />
<feMergeNode in="color1" />
</feMerge>
</filter>
<filter id="filter2_gn_37_525" x="175.257" y="129.799" width="70.6562" height="37.6247" filterUnits="userSpaceOnUse" color-interpolation-filters="sRGB">
<feFlood flood-opacity="0" result="BackgroundImageFix"/>
<feBlend mode="normal" in="SourceGraphic" in2="BackgroundImageFix" result="shape"/>
<feTurbulence type="fractalNoise" baseFrequency="0.99900001287460327 0.99900001287460327" numOctaves="3" seed="598" />
<feDisplacementMap in="shape" scale="0.32705420255661011" xChannelSelector="R" yChannelSelector="G" result="displacedImage" width="100%" height="100%" />
<feMerge result="effect1_texture_37_525">
<feMergeNode in="displacedImage"/>
</feMerge>
<feTurbulence type="fractalNoise" baseFrequency="12.230388641357422 12.230388641357422" stitchTiles="stitch" numOctaves="3" result="noise" seed="8" />
<feColorMatrix in="noise" type="luminanceToAlpha" result="alphaNoise" />
<feComponentTransfer in="alphaNoise" result="coloredNoise1">
<feFuncA type="discrete" tableValues="0 0 0 0 0 0 0 0 0 0 1 1 1 1 1 1 1 1 1 1 1 1 1 1 1 1 1 1 1 1 1 1 1 1 1 1 1 1 1 0 0 0 0 0 0 0 0 0 0 0 0 0 0 0 0 0 0 0 0 0 0 0 0 0 0 0 0 0 0 0 0 0 0 0 0 0 0 0 0 0 0 0 0 0 0 0 0 0 0 0 0 0 0 0 0 0 0 0 0 0 "/>
</feComponentTransfer>
<feComposite operator="in" in2="effect1_texture_37_525" in="coloredNoise1" result="noise1Clipped" />
<feFlood flood-color="rgba(0, 0, 0, 0.25)" result="color1Flood" />
<feComposite operator="in" in2="noise1Clipped" in="color1Flood" result="color1" />
<feMerge result="effect2_noise_37_525">
<feMergeNode in="effect1_texture_37_525" />
<feMergeNode in="color1" />
</feMerge>
</filter>
<filter id="filter3_gn_37_525" x="-57.3969" y="330.998" width="124.207" height="75.9001" filterUnits="userSpaceOnUse" color-interpolation-filters="sRGB">
<feFlood flood-opacity="0" result="BackgroundImageFix"/>
<feBlend mode="normal" in="SourceGraphic" in2="BackgroundImageFix" result="shape"/>
<feTurbulence type="fractalNoise" baseFrequency="0.99900001287460327 0.99900001287460327" numOctaves="3" seed="598" />
<feDisplacementMap in="shape" scale="0.32705420255661011" xChannelSelector="R" yChannelSelector="G" result="displacedImage" width="100%" height="100%" />
<feMerge result="effect1_texture_37_525">
<feMergeNode in="displacedImage"/>
</feMerge>
<feTurbulence type="fractalNoise" baseFrequency="12.230388641357422 12.230388641357422" stitchTiles="stitch" numOctaves="3" result="noise" seed="8" />
<feColorMatrix in="noise" type="luminanceToAlpha" result="alphaNoise" />
<feComponentTransfer in="alphaNoise" result="coloredNoise1">
<feFuncA type="discrete" tableValues="0 0 0 0 0 0 0 0 0 0 1 1 1 1 1 1 1 1 1 1 1 1 1 1 1 1 1 1 1 1 1 1 1 1 1 1 1 1 1 0 0 0 0 0 0 0 0 0 0 0 0 0 0 0 0 0 0 0 0 0 0 0 0 0 0 0 0 0 0 0 0 0 0 0 0 0 0 0 0 0 0 0 0 0 0 0 0 0 0 0 0 0 0 0 0 0 0 0 0 0 "/>
</feComponentTransfer>
<feComposite operator="in" in2="effect1_texture_37_525" in="coloredNoise1" result="noise1Clipped" />
<feFlood flood-color="rgba(0, 0, 0, 0.25)" result="color1Flood" />
<feComposite operator="in" in2="noise1Clipped" in="color1Flood" result="color1" />
<feMerge result="effect2_noise_37_525">
<feMergeNode in="effect1_texture_37_525" />
<feMergeNode in="color1" />
</feMerge>
</filter>
<filter id="filter4_gn_37_525" x="1032.98" y="617.949" width="190.454" height="107.144" filterUnits="userSpaceOnUse" color-interpolation-filters="sRGB">
<feFlood flood-opacity="0" result="BackgroundImageFix"/>
<feBlend mode="normal" in="SourceGraphic" in2="BackgroundImageFix" result="shape"/>
<feTurbulence type="fractalNoise" baseFrequency="0.99900001287460327 0.99900001287460327" numOctaves="3" seed="598" />
<feDisplacementMap in="shape" scale="0.32705420255661011" xChannelSelector="R" yChannelSelector="G" result="displacedImage" width="100%" height="100%" />
<feMerge result="effect1_texture_37_525">
<feMergeNode in="displacedImage"/>
</feMerge>
<feTurbulence type="fractalNoise" baseFrequency="12.230388641357422 12.230388641357422" stitchTiles="stitch" numOctaves="3" result="noise" seed="8" />
<feColorMatrix in="noise" type="luminanceToAlpha" result="alphaNoise" />
<feComponentTransfer in="alphaNoise" result="coloredNoise1">
<feFuncA type="discrete" tableValues="0 0 0 0 0 0 0 0 0 0 1 1 1 1 1 1 1 1 1 1 1 1 1 1 1 1 1 1 1 1 1 1 1 1 1 1 1 1 1 0 0 0 0 0 0 0 0 0 0 0 0 0 0 0 0 0 0 0 0 0 0 0 0 0 0 0 0 0 0 0 0 0 0 0 0 0 0 0 0 0 0 0 0 0 0 0 0 0 0 0 0 0 0 0 0 0 0 0 0 0 "/>
</feComponentTransfer>
<feComposite operator="in" in2="effect1_texture_37_525" in="coloredNoise1" result="noise1Clipped" />
<feFlood flood-color="rgba(0, 0, 0, 0.25)" result="color1Flood" />
<feComposite operator="in" in2="noise1Clipped" in="color1Flood" result="color1" />
<feMerge result="effect2_noise_37_525">
<feMergeNode in="effect1_texture_37_525" />
<feMergeNode in="color1" />
</feMerge>
</filter>
<filter id="filter5_gn_37_525" x="212.421" y="778.349" width="190.454" height="107.144" filterUnits="userSpaceOnUse" color-interpolation-filters="sRGB">
<feFlood flood-opacity="0" result="BackgroundImageFix"/>
<feBlend mode="normal" in="SourceGraphic" in2="BackgroundImageFix" result="shape"/>
<feTurbulence type="fractalNoise" baseFrequency="0.99900001287460327 0.99900001287460327" numOctaves="3" seed="598" />
<feDisplacementMap in="shape" scale="0.32705420255661011" xChannelSelector="R" yChannelSelector="G" result="displacedImage" width="100%" height="100%" />
<feMerge result="effect1_texture_37_525">
<feMergeNode in="displacedImage"/>
</feMerge>
<feTurbulence type="fractalNoise" baseFrequency="12.230388641357422 12.230388641357422" stitchTiles="stitch" numOctaves="3" result="noise" seed="8" />
<feColorMatrix in="noise" type="luminanceToAlpha" result="alphaNoise" />
<feComponentTransfer in="alphaNoise" result="coloredNoise1">
<feFuncA type="discrete" tableValues="0 0 0 0 0 0 0 0 0 0 1 1 1 1 1 1 1 1 1 1 1 1 1 1 1 1 1 1 1 1 1 1 1 1 1 1 1 1 1 0 0 0 0 0 0 0 0 0 0 0 0 0 0 0 0 0 0 0 0 0 0 0 0 0 0 0 0 0 0 0 0 0 0 0 0 0 0 0 0 0 0 0 0 0 0 0 0 0 0 0 0 0 0 0 0 0 0 0 0 0 "/>
</feComponentTransfer>
<feComposite operator="in" in2="effect1_texture_37_525" in="coloredNoise1" result="noise1Clipped" />
<feFlood flood-color="rgba(0, 0, 0, 0.25)" result="color1Flood" />
<feComposite operator="in" in2="noise1Clipped" in="color1Flood" result="color1" />
<feMerge result="effect2_noise_37_525">
<feMergeNode in="effect1_texture_37_525" />
<feMergeNode in="color1" />
</feMerge>
</filter>
<filter id="filter6_gn_37_525" x="686.33" y="-18.3616" width="185.232" height="100.984" filterUnits="userSpaceOnUse" color-interpolation-filters="sRGB">
<feFlood flood-opacity="0" result="BackgroundImageFix"/>
<feBlend mode="normal" in="SourceGraphic" in2="BackgroundImageFix" result="shape"/>
<feTurbulence type="fractalNoise" baseFrequency="0.99900001287460327 0.99900001287460327" numOctaves="3" seed="598" />
<feDisplacementMap in="shape" scale="0.32705420255661011" xChannelSelector="R" yChannelSelector="G" result="displacedImage" width="100%" height="100%" />
<feMerge result="effect1_texture_37_525">
<feMergeNode in="displacedImage"/>
</feMerge>
<feTurbulence type="fractalNoise" baseFrequency="12.230388641357422 12.230388641357422" stitchTiles="stitch" numOctaves="3" result="noise" seed="8" />
<feColorMatrix in="noise" type="luminanceToAlpha" result="alphaNoise" />
<feComponentTransfer in="alphaNoise" result="coloredNoise1">
<feFuncA type="discrete" tableValues="0 0 0 0 0 0 0 0 0 0 1 1 1 1 1 1 1 1 1 1 1 1 1 1 1 1 1 1 1 1 1 1 1 1 1 1 1 1 1 0 0 0 0 0 0 0 0 0 0 0 0 0 0 0 0 0 0 0 0 0 0 0 0 0 0 0 0 0 0 0 0 0 0 0 0 0 0 0 0 0 0 0 0 0 0 0 0 0 0 0 0 0 0 0 0 0 0 0 0 0 "/>
</feComponentTransfer>
<feComposite operator="in" in2="effect1_texture_37_525" in="coloredNoise1" result="noise1Clipped" />
<feFlood flood-color="rgba(0, 0, 0, 0.25)" result="color1Flood" />
<feComposite operator="in" in2="noise1Clipped" in="color1Flood" result="color1" />
<feMerge result="effect2_noise_37_525">
<feMergeNode in="effect1_texture_37_525" />
<feMergeNode in="color1" />
</feMerge>
</filter>
<filter id="filter7_d_37_525" x="615.814" y="434.985" width="35.507" height="31.9268" filterUnits="userSpaceOnUse" color-interpolation-filters="sRGB">
<feFlood flood-opacity="0" result="BackgroundImageFix"/>
<feColorMatrix in="SourceAlpha" type="matrix" values="0 0 0 0 0 0 0 0 0 0 0 0 0 0 0 0 0 0 127 0" result="hardAlpha"/>
<feOffset dy="0.358964"/>
<feGaussianBlur stdDeviation="0.179482"/>
<feComposite in2="hardAlpha" operator="out"/>
<feColorMatrix type="matrix" values="0 0 0 0 0 0 0 0 0 0 0 0 0 0 0 0 0 0 0.25 0"/>
<feBlend mode="normal" in2="BackgroundImageFix" result="effect1_dropShadow_37_525"/>
<feBlend mode="normal" in="SourceGraphic" in2="effect1_dropShadow_37_525" result="shape"/>
</filter>
<filter id="filter8_f_37_525" x="615.274" y="456.464" width="7.49589" height="8.48933" filterUnits="userSpaceOnUse" color-interpolation-filters="sRGB">
<feFlood flood-opacity="0" result="BackgroundImageFix"/>
<feBlend mode="normal" in="SourceGraphic" in2="BackgroundImageFix" result="shape"/>
<feGaussianBlur stdDeviation="0.897411" result="effect1_foregroundBlur_37_525"/>
</filter>
<filter id="filter9_f_37_525" x="663.005" y="449.993" width="6.87192" height="7.1897" filterUnits="userSpaceOnUse" color-interpolation-filters="sRGB">
<feFlood flood-opacity="0" result="BackgroundImageFix"/>
<feBlend mode="normal" in="SourceGraphic" in2="BackgroundImageFix" result="shape"/>
<feGaussianBlur stdDeviation="0.673058" result="effect1_foregroundBlur_37_525"/>
</filter>
<filter id="filter10_f_37_525" x="659.272" y="428.845" width="5.52285" height="4.11449" filterUnits="userSpaceOnUse" color-interpolation-filters="sRGB">
<feFlood flood-opacity="0" result="BackgroundImageFix"/>
<feBlend mode="normal" in="SourceGraphic" in2="BackgroundImageFix" result="shape"/>
<feGaussianBlur stdDeviation="0.448706" result="effect1_foregroundBlur_37_525"/>
</filter>
<filter id="filter11_d_37_525" x="903.205" y="53.9644" width="36.4494" height="34.0476" filterUnits="userSpaceOnUse" color-interpolation-filters="sRGB">
<feFlood flood-opacity="0" result="BackgroundImageFix"/>
<feColorMatrix in="SourceAlpha" type="matrix" values="0 0 0 0 0 0 0 0 0 0 0 0 0 0 0 0 0 0 127 0" result="hardAlpha"/>
<feOffset dy="0.358964"/>
<feGaussianBlur stdDeviation="0.179482"/>
<feComposite in2="hardAlpha" operator="out"/>
<feColorMatrix type="matrix" values="0 0 0 0 0 0 0 0 0 0 0 0 0 0 0 0 0 0 0.25 0"/>
<feBlend mode="normal" in2="BackgroundImageFix" result="effect1_dropShadow_37_525"/>
<feBlend mode="normal" in="SourceGraphic" in2="effect1_dropShadow_37_525" result="shape"/>
</filter>
<filter id="filter12_f_37_525" x="904.165" y="53.1406" width="8.38701" height="7.62163" filterUnits="userSpaceOnUse" color-interpolation-filters="sRGB">
<feFlood flood-opacity="0" result="BackgroundImageFix"/>
<feBlend mode="normal" in="SourceGraphic" in2="BackgroundImageFix" result="shape"/>
<feGaussianBlur stdDeviation="0.897411" result="effect1_foregroundBlur_37_525"/>
</filter>
<filter id="filter13_f_37_525" x="920.898" y="98.6038" width="6.98911" height="7.07755" filterUnits="userSpaceOnUse" color-interpolation-filters="sRGB">
<feFlood flood-opacity="0" result="BackgroundImageFix"/>
<feBlend mode="normal" in="SourceGraphic" in2="BackgroundImageFix" result="shape"/>
<feGaussianBlur stdDeviation="0.673058" result="effect1_foregroundBlur_37_525"/>
</filter>
<filter id="filter14_f_37_525" x="943.816" y="90.6969" width="4.00967" height="5.58523" filterUnits="userSpaceOnUse" color-interpolation-filters="sRGB">
<feFlood flood-opacity="0" result="BackgroundImageFix"/>
<feBlend mode="normal" in="SourceGraphic" in2="BackgroundImageFix" result="shape"/>
<feGaussianBlur stdDeviation="0.448706" result="effect1_foregroundBlur_37_525"/>
</filter>
<filter id="filter15_d_37_525" x="966.588" y="544.223" width="87.9108" height="61.1424" filterUnits="userSpaceOnUse" color-interpolation-filters="sRGB">
<feFlood flood-opacity="0" result="BackgroundImageFix"/>
<feColorMatrix in="SourceAlpha" type="matrix" values="0 0 0 0 0 0 0 0 0 0 0 0 0 0 0 0 0 0 127 0" result="hardAlpha"/>
<feOffset dy="0.358964"/>
<feGaussianBlur stdDeviation="0.179482"/>
<feComposite in2="hardAlpha" operator="out"/>
<feColorMatrix type="matrix" values="0 0 0 0 0 0 0 0 0 0 0 0 0 0 0 0 0 0 0.25 0"/>
<feBlend mode="normal" in2="BackgroundImageFix" result="effect1_dropShadow_37_525"/>
<feBlend mode="normal" in="SourceGraphic" in2="effect1_dropShadow_37_525" result="shape"/>
</filter>
<filter id="filter16_f_37_525" x="1039.2" y="545.326" width="13.118" height="12.8293" filterUnits="userSpaceOnUse" color-interpolation-filters="sRGB">
<feFlood flood-opacity="0" result="BackgroundImageFix"/>
<feBlend mode="normal" in="SourceGraphic" in2="BackgroundImageFix" result="shape"/>
<feGaussianBlur stdDeviation="0.897411" result="effect1_foregroundBlur_37_525"/>
</filter>
<filter id="filter17_f_37_525" x="976.804" y="624.773" width="11.0829" height="12.6314" filterUnits="userSpaceOnUse" color-interpolation-filters="sRGB">
<feFlood flood-opacity="0" result="BackgroundImageFix"/>
<feBlend mode="normal" in="SourceGraphic" in2="BackgroundImageFix" result="shape"/>
<feGaussianBlur stdDeviation="0.673058" result="effect1_foregroundBlur_37_525"/>
</filter>
<filter id="filter18_f_37_525" x="942.02" y="594.12" width="6.85586" height="9.59831" filterUnits="userSpaceOnUse" color-interpolation-filters="sRGB">
<feFlood flood-opacity="0" result="BackgroundImageFix"/>
<feBlend mode="normal" in="SourceGraphic" in2="BackgroundImageFix" result="shape"/>
<feGaussianBlur stdDeviation="0.448706" result="effect1_foregroundBlur_37_525"/>
</filter>
<filter id="filter19_d_37_525" x="141.163" y="71.259" width="42.1896" height="28.6907" filterUnits="userSpaceOnUse" color-interpolation-filters="sRGB">
<feFlood flood-opacity="0" result="BackgroundImageFix"/>
<feColorMatrix in="SourceAlpha" type="matrix" values="0 0 0 0 0 0 0 0 0 0 0 0 0 0 0 0 0 0 127 0" result="hardAlpha"/>
<feOffset dy="0.358964"/>
<feGaussianBlur stdDeviation="0.179482"/>
<feComposite in2="hardAlpha" operator="out"/>
<feColorMatrix type="matrix" values="0 0 0 0 0 0 0 0 0 0 0 0 0 0 0 0 0 0 0.25 0"/>
<feBlend mode="normal" in2="BackgroundImageFix" result="effect1_dropShadow_37_525"/>
<feBlend mode="normal" in="SourceGraphic" in2="effect1_dropShadow_37_525" result="shape"/>
</filter>
<filter id="filter20_f_37_525" x="175.067" y="70.8872" width="8.05595" height="7.98369" filterUnits="userSpaceOnUse" color-interpolation-filters="sRGB">
<feFlood flood-opacity="0" result="BackgroundImageFix"/>
<feBlend mode="normal" in="SourceGraphic" in2="BackgroundImageFix" result="shape"/>
<feGaussianBlur stdDeviation="0.897411" result="effect1_foregroundBlur_37_525"/>
</filter>
<filter id="filter21_f_37_525" x="144.744" y="107.728" width="6.62876" height="7.40531" filterUnits="userSpaceOnUse" color-interpolation-filters="sRGB">
<feFlood flood-opacity="0" result="BackgroundImageFix"/>
<feBlend mode="normal" in="SourceGraphic" in2="BackgroundImageFix" result="shape"/>
<feGaussianBlur stdDeviation="0.673058" result="effect1_foregroundBlur_37_525"/>
</filter>
<filter id="filter22_f_37_525" x="128.99" y="93.0041" width="4.21816" height="5.45638" filterUnits="userSpaceOnUse" color-interpolation-filters="sRGB">
<feFlood flood-opacity="0" result="BackgroundImageFix"/>
<feBlend mode="normal" in="SourceGraphic" in2="BackgroundImageFix" result="shape"/>
<feGaussianBlur stdDeviation="0.448706" result="effect1_foregroundBlur_37_525"/>
</filter>
<linearGradient id="paint0_linear_37_525" x1="641.273" y1="420.632" x2="652.224" y2="430.07" gradientUnits="userSpaceOnUse">
<stop stop-color="#C1EDF9"/>
<stop offset="0.860577" stop-color="#D9D9D9"/>
<stop offset="0.971154" stop-color="#AEADAD"/>
</linearGradient>
<linearGradient id="paint1_linear_37_525" x1="664.129" y1="450.931" x2="677.53" y2="454.448" gradientUnits="userSpaceOnUse">
<stop offset="0.0144231" stop-color="#AEADAD"/>
<stop offset="0.153846" stop-color="#D9D9D9"/>
<stop offset="1" stop-color="#C1EDF9"/>
</linearGradient>
<linearGradient id="paint2_linear_37_525" x1="651.554" y1="441.564" x2="638.407" y2="448.47" gradientUnits="userSpaceOnUse">
<stop offset="0.288462" stop-color="#D9D9D9"/>
<stop offset="1" stop-color="#C1EDF9"/>
</linearGradient>
<linearGradient id="paint3_linear_37_525" x1="652.301" y1="443.185" x2="663.745" y2="423.613" gradientUnits="userSpaceOnUse">
<stop stop-color="#D9D9D9"/>
<stop offset="0.918269" stop-color="#C1EDF9"/>
<stop offset="0.990385" stop-color="#D9F7FF"/>
</linearGradient>
<linearGradient id="paint4_linear_37_525" x1="651.391" y1="452.396" x2="665.618" y2="462.215" gradientUnits="userSpaceOnUse">
<stop stop-color="#D9D9D9"/>
<stop offset="1" stop-color="#C1EDF9"/>
</linearGradient>
<linearGradient id="paint5_linear_37_525" x1="643.738" y1="457.859" x2="650.497" y2="453.841" gradientUnits="userSpaceOnUse">
<stop stop-color="#C1EDF9"/>
<stop offset="0.802885" stop-color="#D9D9D9"/>
<stop offset="1" stop-color="#AEADAD"/>
</linearGradient>
<linearGradient id="paint6_linear_37_525" x1="625.095" y1="465.726" x2="643.842" y2="491.308" gradientUnits="userSpaceOnUse">
<stop stop-color="#AEADAD"/>
<stop offset="0.0913462" stop-color="#D7DBDC"/>
<stop offset="1" stop-color="#C1EDF9"/>
</linearGradient>
<linearGradient id="paint7_linear_37_525" x1="644.154" y1="413.271" x2="655.065" y2="428.083" gradientUnits="userSpaceOnUse">
<stop offset="0.149038" stop-color="#F9D0D0"/>
<stop offset="1" stop-color="#E06060"/>
</linearGradient>
<linearGradient id="paint8_linear_37_525" x1="951.944" y1="71.1521" x2="944.768" y2="83.7022" gradientUnits="userSpaceOnUse">
<stop stop-color="#C1EDF9"/>
<stop offset="0.860577" stop-color="#D9D9D9"/>
<stop offset="0.971154" stop-color="#AEADAD"/>
</linearGradient>
<linearGradient id="paint9_linear_37_525" x1="926.559" y1="99.3667" x2="925.663" y2="113.192" gradientUnits="userSpaceOnUse">
<stop offset="0.0144231" stop-color="#AEADAD"/>
<stop offset="0.153846" stop-color="#D9D9D9"/>
<stop offset="1" stop-color="#C1EDF9"/>
</linearGradient>
<linearGradient id="paint10_linear_37_525" x1="933.357" y1="85.2361" x2="924.07" y2="73.6471" gradientUnits="userSpaceOnUse">
<stop offset="0.288462" stop-color="#D9D9D9"/>
<stop offset="1" stop-color="#C1EDF9"/>
</linearGradient>
<linearGradient id="paint11_linear_37_525" x1="931.908" y1="86.2788" x2="953.303" y2="93.7806" gradientUnits="userSpaceOnUse">
<stop stop-color="#D9D9D9"/>
<stop offset="0.918269" stop-color="#C1EDF9"/>
<stop offset="0.990385" stop-color="#D9F7FF"/>
</linearGradient>
<linearGradient id="paint12_linear_37_525" x1="922.692" y1="87.1412" x2="915.766" y2="102.98" gradientUnits="userSpaceOnUse">
<stop stop-color="#D9D9D9"/>
<stop offset="1" stop-color="#C1EDF9"/>
</linearGradient>
<linearGradient id="paint13_linear_37_525" x1="915.87" y1="80.6709" x2="921.104" y2="86.5401" gradientUnits="userSpaceOnUse">
<stop stop-color="#C1EDF9"/>
<stop offset="0.802885" stop-color="#D9D9D9"/>
<stop offset="1" stop-color="#AEADAD"/>
</linearGradient>
<linearGradient id="paint14_linear_37_525" x1="904.592" y1="63.8702" x2="883.054" y2="87.1516" gradientUnits="userSpaceOnUse">
<stop stop-color="#AEADAD"/>
<stop offset="0.0913462" stop-color="#D7DBDC"/>
<stop offset="1" stop-color="#C1EDF9"/>
</linearGradient>
<linearGradient id="paint15_linear_37_525" x1="959.719" y1="72.5767" x2="947.26" y2="86.1122" gradientUnits="userSpaceOnUse">
<stop offset="0.149038" stop-color="#F9D0D0"/>
<stop offset="1" stop-color="#E06060"/>
</linearGradient>
<linearGradient id="paint16_linear_37_525" x1="948.672" y1="549.963" x2="954.339" y2="580.057" gradientUnits="userSpaceOnUse">
<stop stop-color="#C1EDF9"/>
<stop offset="0.860577" stop-color="#D9D9D9"/>
<stop offset="0.971154" stop-color="#AEADAD"/>
</linearGradient>
<linearGradient id="paint17_linear_37_525" x1="979.932" y1="624.031" x2="972.146" y2="652.326" gradientUnits="userSpaceOnUse">
<stop offset="0.0144231" stop-color="#AEADAD"/>
<stop offset="0.153846" stop-color="#D9D9D9"/>
<stop offset="1" stop-color="#C1EDF9"/>
</linearGradient>
<linearGradient id="paint18_linear_37_525" x1="976.118" y1="591.035" x2="1002.74" y2="574.273" gradientUnits="userSpaceOnUse">
<stop offset="0.288462" stop-color="#D9D9D9"/>
<stop offset="1" stop-color="#C1EDF9"/>
</linearGradient>
<linearGradient id="paint19_linear_37_525" x1="978.296" y1="594.126" x2="930.27" y2="594.317" gradientUnits="userSpaceOnUse">
<stop stop-color="#D9D9D9"/>
<stop offset="0.918269" stop-color="#C1EDF9"/>
<stop offset="0.990385" stop-color="#D9F7FF"/>
</linearGradient>
<linearGradient id="paint20_linear_37_525" x1="996.145" y1="602.239" x2="999.033" y2="638.743" gradientUnits="userSpaceOnUse">
<stop stop-color="#D9D9D9"/>
<stop offset="1" stop-color="#C1EDF9"/>
</linearGradient>
<linearGradient id="paint21_linear_37_525" x1="1014.28" y1="594.015" x2="999.741" y2="602.136" gradientUnits="userSpaceOnUse">
<stop stop-color="#C1EDF9"/>
<stop offset="0.802885" stop-color="#D9D9D9"/>
<stop offset="1" stop-color="#AEADAD"/>
</linearGradient>
<linearGradient id="paint22_linear_37_525" x1="1048.5" y1="568.2" x2="1075.48" y2="629.727" gradientUnits="userSpaceOnUse">
<stop stop-color="#AEADAD"/>
<stop offset="0.0913462" stop-color="#D7DBDC"/>
<stop offset="1" stop-color="#C1EDF9"/>
</linearGradient>
<linearGradient id="paint23_linear_37_525" x1="932.12" y1="547.427" x2="947.681" y2="583.155" gradientUnits="userSpaceOnUse">
<stop offset="0.149038" stop-color="#F9D0D0"/>
<stop offset="1" stop-color="#E06060"/>
</linearGradient>
<linearGradient id="paint24_linear_37_525" x1="133.308" y1="72.6766" x2="135.56" y2="86.957" gradientUnits="userSpaceOnUse">
<stop stop-color="#C1EDF9"/>
<stop offset="0.860577" stop-color="#D9D9D9"/>
<stop offset="0.971154" stop-color="#AEADAD"/>
</linearGradient>
<linearGradient id="paint25_linear_37_525" x1="147.019" y1="108.067" x2="142.947" y2="121.309" gradientUnits="userSpaceOnUse">
<stop offset="0.0144231" stop-color="#AEADAD"/>
<stop offset="0.153846" stop-color="#D9D9D9"/>
<stop offset="1" stop-color="#C1EDF9"/>
</linearGradient>
<linearGradient id="paint26_linear_37_525" x1="145.682" y1="92.4431" x2="158.479" y2="84.9073" gradientUnits="userSpaceOnUse">
<stop offset="0.288462" stop-color="#D9D9D9"/>
<stop offset="1" stop-color="#C1EDF9"/>
</linearGradient>
<linearGradient id="paint27_linear_37_525" x1="146.666" y1="93.9324" x2="124.001" y2="93.3475" gradientUnits="userSpaceOnUse">
<stop stop-color="#D9D9D9"/>
<stop offset="0.918269" stop-color="#C1EDF9"/>
<stop offset="0.990385" stop-color="#D9F7FF"/>
</linearGradient>
<linearGradient id="paint28_linear_37_525" x1="154.975" y1="98.0112" x2="155.825" y2="115.277" gradientUnits="userSpaceOnUse">
<stop stop-color="#D9D9D9"/>
<stop offset="1" stop-color="#C1EDF9"/>
</linearGradient>
<linearGradient id="paint29_linear_37_525" x1="163.65" y1="94.3853" x2="156.673" y2="98.0134" gradientUnits="userSpaceOnUse">
<stop stop-color="#C1EDF9"/>
<stop offset="0.802885" stop-color="#D9D9D9"/>
<stop offset="1" stop-color="#AEADAD"/>
</linearGradient>
<linearGradient id="paint30_linear_37_525" x1="180.159" y1="82.6845" x2="192.026" y2="112.097" gradientUnits="userSpaceOnUse">
<stop stop-color="#AEADAD"/>
<stop offset="0.0913462" stop-color="#D7DBDC"/>
<stop offset="1" stop-color="#C1EDF9"/>
</linearGradient>
<linearGradient id="paint31_linear_37_525" x1="125.533" y1="71.2472" x2="132.374" y2="88.325" gradientUnits="userSpaceOnUse">
<stop offset="0.149038" stop-color="#F9D0D0"/>
<stop offset="1" stop-color="#E06060"/>
</linearGradient>
</defs>
</svg>
