<svg width="431" height="640" viewBox="0 0 431 640" fill="none" xmlns="http://www.w3.org/2000/svg">
<path d="M416.551 1015.98L384.359 1024.89C384.359 1024.89 108.364 8.31315 123.645 3.35222C138.926 -1.60871 416.551 1015.98 416.551 1015.98Z" fill="#400F0F"/>
<g filter="url(#filter0_n_28_1740)">
<path d="M218.387 639.355L227.541 655.503L206.772 653.76L206.809 585.778L248.599 556.355L276.536 544.086L359.671 540.849L396.508 598.597L376.966 613.016C377.02 607.151 376.988 594.771 376.427 592.173C375.866 589.576 358.001 566.322 349.139 555.02L270.684 558.946L222.59 588.032L218.387 639.355Z" fill="url(#paint0_linear_28_1740)"/>
</g>
<path d="M201.777 583.466L196.416 658.264L207.574 670.58L228.082 655.386L226.169 654.772L212.257 650.309C211.918 633.011 211.684 596.28 213.463 587.739C215.243 579.197 251.26 559.933 269.046 551.369L351.597 545.426L388.493 592.965L376.966 613.016L398.553 618.547L406.146 603.878L363.285 528.738L265.772 536.216L201.777 583.466Z" fill="url(#paint1_linear_28_1740)"/>
<path d="M78.1626 100.876C61.2366 126.614 64.8588 161.94 69.1962 179.245C73.5336 196.55 257.276 151.006 258.709 136.342C261.518 107.607 246.179 88.5019 222.613 71.8219C196.563 53.3835 172.541 54.6871 141.479 62.0159C113.242 68.678 94.1036 76.6356 78.1626 100.876Z" fill="url(#paint2_linear_28_1740)"/>
<g filter="url(#filter1_n_28_1740)">
<path d="M88.402 139.691C86.3417 156.419 95.5155 176.224 96.9613 181.992C98.4071 187.761 230.464 156.704 231.073 148.378C232.37 130.62 230.621 118.435 219.988 104.155C208.706 89.0009 196.281 84.3612 177.787 80.5029C154.625 75.6708 137.521 77.7269 118.18 91.3564C100.057 104.127 91.1121 117.687 88.402 139.691Z" fill="url(#paint3_radial_28_1740)"/>
</g>
<path d="M156.979 99.3974C158.494 105.444 159.251 123.976 154.738 125.107C150.225 126.238 142.151 109.54 140.636 103.494C139.12 97.4475 141.55 91.6289 146.063 90.4977C150.576 89.3665 155.463 93.351 156.979 99.3974Z" fill="#FDD8B7"/>
<path d="M119.654 122.779C125.569 124.747 141.61 134.058 140.141 138.473C138.672 142.887 120.25 140.734 114.335 138.766C108.421 136.799 104.817 131.625 106.285 127.21C107.754 122.795 113.739 120.811 119.654 122.779Z" fill="#FDD8B7"/>
<path d="M117.452 153.073C123.626 152.215 142.132 153.452 142.772 158.061C143.412 162.669 125.944 168.904 119.77 169.762C113.596 170.619 108.072 167.579 107.432 162.97C106.791 158.362 111.278 153.931 117.452 153.073Z" fill="#FDD8B7"/>
<path d="M200.003 108.346C197.228 113.928 185.768 128.511 181.601 126.44C177.435 124.369 182.14 106.428 184.915 100.846C187.689 95.2646 193.316 92.4184 197.482 94.4893C201.649 96.5602 202.777 102.764 200.003 108.346Z" fill="#FDD8B7"/>
<path d="M216.704 142.458C211.176 145.337 193.327 150.381 191.178 146.254C189.029 142.128 203.393 130.394 208.921 127.514C214.45 124.635 220.674 125.646 222.823 129.773C224.972 133.899 222.233 139.579 216.704 142.458Z" fill="#FDD8B7"/>
<rect y="204.17" width="394.373" height="300.598" transform="rotate(-7.60435 0 204.17)" fill="#FFFBE1"/>
<ellipse cx="299.76" cy="638.812" rx="41.6539" ry="39.7314" transform="rotate(-12.9941 299.76 638.812)" fill="url(#paint4_radial_28_1740)"/>
<circle cx="284.055" cy="639.148" r="12.1758" transform="rotate(-12.9941 284.055 639.148)" fill="url(#paint5_linear_28_1740)"/>
<g filter="url(#filter2_n_28_1740)">
<path d="M183.95 481.183L165.877 513.865L197.876 531.489L269.242 527.991L353.032 495.93L359.753 462.636L344.028 452.29L305.785 453.09L254.273 455.446L183.95 481.183Z" fill="#CBF5B4"/>
</g>
<path d="M170.338 538.352L165.193 513.415L214.51 523.33L273.47 514.119L315.392 502.515L341.742 487.033L359.87 463.202L364.43 485.306L350.819 505.25L317.47 526.903L276.249 541.908L224.522 546.081L170.338 538.352Z" fill="#48772F"/>
<path d="M220.235 535.922C220.205 536.347 221.009 536.397 221.063 536.884C221.117 537.37 220.765 537.562 221.021 538.049C221.137 538.269 221.183 538.512 221.221 538.728L221.241 538.798C221.262 539.061 221.275 539.285 221.393 539.389C221.608 539.58 221.138 539.725 221.329 540.027C221.521 540.326 221.512 540.538 221.44 540.864C221.364 541.183 221.509 542.096 221.817 542.299L221.83 542.328C221.833 542.332 221.837 542.336 221.841 542.339C222.156 542.64 221.907 543.116 221.875 543.353C221.865 543.429 221.843 543.491 221.817 543.54C221.806 543.561 221.776 543.576 221.746 543.582C221.746 543.582 221.746 543.582 221.746 543.582C221.707 543.59 221.667 543.585 221.658 543.563C221.611 543.457 221.515 543.3 221.333 543.141C221.072 542.919 221.172 542.812 221.104 542.591L221.117 542.621C221.083 542.541 221.035 542.452 220.961 542.346C220.646 541.895 220.295 541.666 220.295 541.03C220.301 540.4 219.555 540.447 219.752 539.515C219.783 539.37 219.792 539.25 219.781 539.147L219.798 539.206C219.698 538.667 219.113 538.677 218.807 538.036C218.446 537.277 218.502 536.151 218.296 535.694C218.093 535.237 217.777 534.645 217.605 533.966C217.531 533.672 217.379 533.377 217.216 533.085C216.989 532.672 216.753 532.24 216.665 531.78C216.506 530.969 216.296 529.831 216.256 529.288C216.216 528.747 216.205 528.617 215.951 528.175C215.804 527.919 215.726 527.528 215.808 527.149C215.848 526.96 215.991 526.95 216.108 527.09C216.278 527.294 216.281 527.505 216.485 527.57C216.893 527.697 217.052 527.75 216.969 528.116C216.886 528.481 217.367 528.467 217.381 528.654C217.397 528.843 217.139 528.94 217.677 529.736C218.22 530.527 218.475 530.97 218.663 531.274C218.786 531.473 218.867 531.872 219.001 532.261C219.077 532.478 219.162 532.692 219.271 532.874C219.595 533.401 219.958 534.568 220.252 534.98C220.548 535.394 220.264 535.497 220.235 535.922Z" fill="#2C4B1C"/>
<path d="M174.629 529.019C174.633 529.46 175.444 529.468 175.539 529.969C175.633 530.468 175.298 530.689 175.598 531.182C175.897 531.676 175.862 532.307 176.107 532.483C176.352 532.66 175.907 532.865 176.141 533.162C176.375 533.458 176.395 533.686 176.36 534.04C176.355 534.09 176.355 534.152 176.359 534.221L176.37 534.253C176.37 534.697 176.457 535.448 176.685 535.71C176.951 536.015 176.7 536.478 176.67 536.73C176.66 536.808 176.638 536.873 176.613 536.925C176.602 536.947 176.572 536.962 176.542 536.968C176.542 536.968 176.542 536.968 176.542 536.968C176.503 536.976 176.463 536.97 176.453 536.947C176.406 536.835 176.308 536.672 176.127 536.495C175.788 536.165 176.066 536.062 175.82 535.575C175.621 535.186 175.364 534.95 175.277 534.57L175.295 534.623C175.264 534.528 175.242 534.422 175.231 534.298C175.17 533.656 174.437 533.793 174.495 532.826C174.549 531.856 173.804 532.059 173.375 531.291C173.073 530.751 172.964 530.007 172.84 529.446L172.807 529.355C172.778 529.115 172.743 528.904 172.685 528.755C172.493 528.257 172.198 527.596 172.078 526.843C171.959 526.09 171.452 525.267 171.396 524.414C171.34 523.562 171.247 522.364 171.257 521.799C171.266 521.235 171.265 521.097 171.048 520.613C170.924 520.332 170.875 519.913 170.995 519.526C171.056 519.336 171.199 519.345 171.3 519.503C171.448 519.731 171.435 519.955 171.632 520.041C172.03 520.22 172.183 520.289 172.07 520.663C171.957 521.034 172.44 521.075 172.437 521.273C172.437 521.475 172.172 521.54 172.633 522.442C173.096 523.342 173.297 523.848 173.448 524.196C173.599 524.542 173.594 525.36 173.849 525.923C174.103 526.485 174.39 527.698 174.672 528.133C174.86 528.425 174.794 528.563 174.717 528.749L174.686 528.664C174.658 528.763 174.628 528.873 174.629 529.019Z" fill="#2C4B1C"/>
<path d="M194.289 530.923C194.224 531.279 195.009 531.294 195.03 531.684C195.037 531.82 195 531.936 194.956 532.037L194.989 532.15C194.891 532.338 194.779 532.495 194.903 532.765C195.094 533.181 194.943 533.68 195.151 533.833C195.358 533.983 194.889 534.13 195.069 534.375C195.249 534.618 195.233 534.795 195.152 535.077C195.084 535.303 195.141 535.868 195.338 536.128L195.348 536.153C195.392 536.228 195.438 536.291 195.489 536.335C195.768 536.579 195.505 536.984 195.465 537.186C195.453 537.25 195.429 537.303 195.401 537.346C195.389 537.364 195.36 537.377 195.329 537.383C195.329 537.383 195.329 537.383 195.329 537.383C195.291 537.391 195.251 537.388 195.242 537.37C195.199 537.281 195.109 537.153 194.935 537.023C194.624 536.8 194.866 536.691 194.667 536.4L194.68 536.431C194.668 536.415 194.655 536.399 194.641 536.382C194.335 536.006 193.998 535.828 194.015 535.282C194.041 534.743 193.302 534.821 193.522 534.019C193.748 533.23 193.001 533.336 192.732 532.678L192.77 532.811C192.768 532.806 192.765 532.801 192.763 532.796C192.417 532.127 192.558 531.133 192.404 530.733C192.248 530.33 192.003 529.799 191.94 529.186C191.877 528.574 191.439 527.914 191.448 527.221C191.457 526.527 191.455 525.557 191.504 525.098C191.553 524.638 191.563 524.531 191.379 524.142C191.274 523.917 191.252 523.581 191.387 523.266C191.456 523.11 191.598 523.112 191.691 523.236C191.828 523.418 191.801 523.596 191.992 523.663C192.375 523.796 192.523 523.851 192.387 524.157C192.25 524.461 192.724 524.48 192.708 524.644C192.693 524.807 192.428 524.867 192.817 525.589C193.206 526.307 193.365 526.714 193.488 526.991C193.61 527.268 193.542 527.932 193.752 528.38C193.959 528.829 194.153 529.801 194.399 530.141C194.644 530.481 194.356 530.568 194.289 530.923Z" fill="#2C4B1C"/>
<path d="M275.105 529.71C275.042 530.166 275.843 530.327 275.857 530.862C275.87 531.397 275.501 531.557 275.716 532.122C275.93 532.685 275.791 533.326 276.004 533.551C276.218 533.776 275.744 533.906 275.929 534.251C276.113 534.597 276.097 534.833 276.008 535.188C275.919 535.542 275.991 536.559 276.257 536.878C276.523 537.198 276.275 537.677 276.247 537.94C276.238 538.022 276.217 538.089 276.192 538.143C276.181 538.165 276.152 538.181 276.121 538.187C276.121 538.187 276.121 538.187 276.121 538.187C276.083 538.195 276.042 538.189 276.032 538.165C275.984 538.047 275.884 537.877 275.701 537.689C275.36 537.339 275.636 537.236 275.391 536.719C275.145 536.203 274.813 535.931 274.85 535.256C274.888 534.581 274.141 534.585 274.355 533.599C274.568 532.612 273.798 532.677 273.501 531.809C273.236 531.034 273.325 529.984 273.223 529.403C273.211 529.332 273.196 529.269 273.178 529.215C273.007 528.696 272.731 528.028 272.589 527.285C272.507 526.853 272.285 526.448 272.062 525.939L272.058 525.928C271.91 525.572 271.775 525.203 271.723 524.827C271.601 523.946 271.412 522.705 271.379 522.115C271.346 521.525 271.337 521.385 271.087 520.885C270.945 520.597 270.871 520.157 270.982 519.75C271.04 519.546 271.184 519.563 271.288 519.724C271.441 519.958 271.438 520.186 271.64 520.271C272.047 520.44 272.205 520.507 272.114 520.896C272.026 521.287 272.511 521.303 272.524 521.511C272.538 521.719 272.276 521.801 272.808 522.713C273.341 523.623 273.584 524.14 273.763 524.494C273.847 524.66 273.904 524.938 273.972 525.244L273.968 525.233C274.038 525.548 274.152 525.954 274.312 526.273C274.629 526.882 274.928 528.201 275.192 528.688C275.231 528.758 275.258 528.821 275.276 528.878C275.379 529.208 275.158 529.318 275.105 529.71Z" fill="#2C4B1C"/>
<path d="M248.119 534.067C248.076 534.51 248.881 534.603 248.928 535.094C248.939 535.22 248.928 535.339 248.901 535.431L248.836 535.276C248.821 535.576 248.718 535.802 248.966 536.163C249.306 536.658 249.301 537.308 249.555 537.482C249.809 537.658 249.37 537.878 249.615 538.176C249.859 538.476 249.885 538.71 249.856 539.069C249.835 539.354 249.972 540.022 250.177 540.42L250.182 540.434C250.232 540.545 250.286 540.638 250.346 540.702C250.636 541.014 250.392 541.501 250.362 541.754C250.353 541.834 250.332 541.9 250.306 541.952C250.295 541.974 250.266 541.989 250.235 541.996C250.235 541.996 250.235 541.996 250.235 541.996C250.197 542.004 250.157 541.998 250.147 541.974C250.099 541.86 250 541.694 249.817 541.518C249.479 541.202 249.741 541.088 249.489 540.652L249.495 540.671C249.489 540.663 249.484 540.654 249.477 540.645C249.163 540.186 248.8 539.987 248.73 539.341C248.655 538.691 247.93 538.845 247.954 537.877C247.966 536.902 247.23 537.139 246.753 536.42C246.741 536.402 246.73 536.384 246.718 536.366L246.645 536.193C246.278 535.336 246.361 534.172 246.18 533.67C245.995 533.156 245.712 532.48 245.606 531.712C245.5 530.943 245.008 530.095 244.968 529.228C244.927 528.363 244.853 527.145 244.87 526.571C244.886 525.996 244.889 525.861 244.676 525.363C244.553 525.075 244.508 524.651 244.628 524.261C244.689 524.069 244.832 524.079 244.933 524.239C245.082 524.475 245.066 524.697 245.265 524.791C245.661 524.976 245.815 525.053 245.698 525.434C245.581 525.807 246.063 525.857 246.059 526.063C246.055 526.266 245.79 526.327 246.239 527.257C246.687 528.182 246.88 528.704 247.025 529.06C247.17 529.416 247.15 530.247 247.395 530.826C247.639 531.404 247.905 532.641 248.179 533.092C248.452 533.539 248.163 533.622 248.119 534.067Z" fill="#2C4B1C"/>
<path d="M316.904 517.508C316.83 517.743 317.097 517.903 317.302 518.095L317.296 518.058C317.428 518.171 317.537 518.3 317.527 518.473C317.502 518.925 317.126 519.064 317.305 519.55C317.484 520.038 317.306 520.592 317.504 520.791C317.702 520.99 317.222 521.095 317.382 521.397C317.541 521.701 317.508 521.908 317.392 522.213C317.278 522.518 317.258 523.397 317.487 523.69C317.718 523.984 317.417 524.382 317.356 524.605C317.338 524.674 317.308 524.73 317.276 524.774C317.262 524.793 317.232 524.803 317.2 524.806C317.2 524.806 317.2 524.806 317.2 524.806C317.161 524.809 317.122 524.8 317.115 524.779C317.082 524.674 317.005 524.52 316.846 524.348C316.548 524.027 316.834 523.958 316.643 523.504C316.45 523.051 316.145 522.811 316.236 522.237C316.325 521.661 315.583 521.654 315.861 520.813C316.135 519.965 315.364 520.019 315.123 519.262C315.045 519.016 315.016 518.737 315.011 518.454L315.005 518.414C315.015 517.824 315.129 517.237 315.066 516.918C314.973 516.445 314.811 515.814 314.837 515.132C314.864 514.449 314.52 513.656 314.608 512.905C314.624 512.77 314.64 512.626 314.655 512.475L314.662 512.521C314.695 511.825 314.723 511.028 314.771 510.613C314.829 510.107 314.84 509.983 314.658 509.544C314.554 509.29 314.531 508.918 314.661 508.572C314.727 508.399 314.869 508.404 314.966 508.548C315.108 508.757 315.081 508.955 315.274 509.039C315.66 509.207 315.809 509.281 315.671 509.617C315.532 509.952 316.007 510.005 315.989 510.188C315.97 510.373 315.706 510.419 316.077 511.261C316.242 511.637 316.361 511.94 316.452 512.19L316.46 512.24C316.557 512.558 316.614 512.789 316.664 512.973C316.755 513.308 316.604 514.042 316.748 514.581C316.892 515.122 316.939 516.237 317.132 516.663C317.323 517.09 317.025 517.127 316.904 517.508Z" fill="#2C4B1C"/>
<path d="M296.378 521.684C296.337 522.094 296.851 522.303 297.073 522.68C297.128 522.774 297.165 522.878 297.172 522.996C297.204 523.596 296.84 523.772 297.078 524.412C297.316 525.054 297.201 525.775 297.424 526.034C297.648 526.294 297.176 526.43 297.374 526.825C297.572 527.22 297.564 527.488 297.487 527.887C297.41 528.287 297.514 529.438 297.79 529.807C298.067 530.176 297.83 530.712 297.809 531.008C297.803 531.101 297.783 531.176 297.759 531.236C297.749 531.262 297.72 531.278 297.689 531.285C297.689 531.285 297.689 531.285 297.689 531.285C297.651 531.293 297.61 531.284 297.599 531.257C297.547 531.122 297.443 530.927 297.253 530.71C296.901 530.305 297.176 530.196 296.914 529.605C296.652 529.015 296.31 528.701 296.325 527.939C296.339 527.176 295.588 527.167 295.766 526.057C295.942 524.945 295.17 525.006 294.836 524.015C294.755 523.776 294.701 523.517 294.66 523.248C294.536 522.406 294.562 521.499 294.424 521.041C294.243 520.438 293.957 519.637 293.842 518.745C293.729 517.855 293.217 516.845 293.155 515.844C293.094 514.843 292.978 513.435 292.971 512.772C292.963 512.11 292.959 511.949 292.718 511.37C292.58 511.037 292.51 510.548 292.601 510.097C292.647 509.871 292.792 509.883 292.907 510.071C293.076 510.346 293.074 510.607 293.28 510.718C293.691 510.942 293.852 511.041 293.754 511.477C293.656 511.913 294.144 511.986 294.149 512.224C294.154 512.463 293.893 512.524 294.379 513.624C294.866 514.724 295.074 515.341 295.23 515.765C295.386 516.188 295.383 517.155 295.639 517.845C295.896 518.536 296.173 520 296.447 520.55C296.722 521.102 296.429 521.173 296.378 521.684Z" fill="#2C4B1C"/>
<path d="M346.609 495.671C346.524 496.065 347.313 496.189 347.304 496.648C347.295 497.106 346.923 497.255 347.116 497.735C347.309 498.215 347.149 498.771 347.354 498.959C347.56 499.148 347.085 499.272 347.257 499.565C347.429 499.858 347.406 500.063 347.307 500.37C347.209 500.678 347.251 501.553 347.506 501.821C347.761 502.09 347.501 502.51 347.466 502.737C347.455 502.808 347.432 502.867 347.405 502.914C347.393 502.933 347.364 502.948 347.333 502.954C347.333 502.954 347.333 502.954 347.333 502.954C347.295 502.962 347.255 502.958 347.246 502.937C347.201 502.837 347.107 502.693 346.93 502.536C346.601 502.244 346.878 502.147 346.649 501.708C346.42 501.27 346.097 501.044 346.155 500.461C346.212 499.877 345.469 499.9 345.714 499.043C345.957 498.184 345.191 498.26 344.927 497.515C344.664 496.77 344.863 495.714 344.723 495.263C344.696 495.175 344.664 495.079 344.632 494.982C344.499 494.578 344.339 494.095 344.283 493.564C344.218 492.91 343.746 492.206 343.714 491.415L343.708 491.39C343.708 491.379 343.708 491.368 343.708 491.357C343.718 490.589 343.713 489.513 343.758 489.003C343.804 488.495 343.813 488.372 343.624 487.935C343.515 487.682 343.489 487.31 343.618 486.962C343.683 486.787 343.826 486.796 343.923 486.937C344.064 487.143 344.04 487.343 344.234 487.423C344.621 487.586 344.771 487.655 344.637 487.991C344.504 488.326 344.98 488.368 344.966 488.55C344.952 488.733 344.687 488.787 345.082 489.611C345.378 490.229 345.543 490.643 345.658 490.947L345.652 490.92C345.692 491.016 345.727 491.1 345.76 491.175C345.889 491.472 345.861 492.21 346.09 492.733C346.279 493.161 346.448 493.999 346.629 494.514C346.668 494.624 346.709 494.722 346.751 494.795C346.988 495.211 346.693 495.276 346.609 495.671Z" fill="#2C4B1C"/>
<path d="M357.775 481.326C357.604 481.735 358.348 482.054 358.253 482.541C358.248 482.569 358.241 482.597 358.233 482.623C358.118 483.055 357.777 483.163 357.873 483.713C357.973 484.298 357.706 484.886 357.867 485.148C358.028 485.411 357.538 485.436 357.643 485.805C357.747 486.177 357.678 486.401 357.512 486.717C357.438 486.857 357.366 487.127 357.33 487.412C357.277 487.782 357.294 488.156 357.417 488.343C357.635 488.67 357.341 489.101 357.291 489.356C357.275 489.434 357.248 489.498 357.218 489.548C357.206 489.57 357.176 489.583 357.145 489.587C357.144 489.587 357.144 489.587 357.144 489.587C357.106 489.592 357.066 489.582 357.058 489.558C357.019 489.44 356.934 489.265 356.77 489.065C356.468 488.682 356.746 488.617 356.586 488.06C356.518 487.812 356.437 487.598 356.378 487.401C356.299 487.146 356.263 486.882 356.369 486.527C356.556 485.894 355.829 485.744 356.244 484.859C356.653 483.965 355.885 483.879 355.759 483C355.745 482.899 355.737 482.801 355.734 482.694C355.715 481.817 356.059 480.856 356.039 480.371C356.016 479.822 355.951 479.083 356.087 478.315C356.223 477.547 356.021 476.581 356.254 475.742C356.487 474.905 356.798 473.721 356.991 473.183C357.183 472.643 357.228 472.508 357.174 471.972C357.143 471.662 357.224 471.246 357.446 470.905C357.557 470.737 357.692 470.784 357.746 470.968C357.823 471.239 357.743 471.448 357.905 471.599C358.23 471.893 358.353 472.02 358.128 472.347C357.902 472.676 358.346 472.87 358.279 473.063C358.212 473.258 357.943 473.238 358.079 474.262C358.215 475.287 358.234 475.843 358.261 476.228C358.287 476.612 358.008 477.397 358.063 478.023C358.115 478.648 357.991 479.907 358.12 480.415C358.248 480.923 357.947 480.917 357.775 481.326Z" fill="#2C4B1C"/>
<path d="M332.53 505.705C332.494 506.09 333.288 506.102 333.327 506.545C333.364 506.985 333.008 507.167 333.241 507.598C333.472 508.029 333.358 508.564 333.578 508.713C333.796 508.86 333.337 509.036 333.535 509.28C333.599 509.358 333.643 509.43 333.67 509.501L333.685 509.547C333.735 509.716 333.71 509.875 333.649 510.077C333.561 510.378 333.603 511.2 333.855 511.449C334.108 511.699 333.844 512.098 333.806 512.312C333.794 512.379 333.771 512.435 333.743 512.479C333.732 512.498 333.702 512.511 333.671 512.518C333.671 512.518 333.671 512.518 333.671 512.518C333.633 512.526 333.593 512.522 333.584 512.503C333.541 512.409 333.449 512.275 333.274 512.13C332.949 511.862 333.227 511.766 333.001 511.36C332.774 510.955 332.455 510.757 332.503 510.222C332.515 510.081 332.471 509.983 332.405 509.904L332.421 509.951C332.211 509.715 331.838 509.604 331.96 508.984C332.128 508.149 331.377 508.305 331.054 507.65C330.839 507.215 330.812 506.637 330.753 506.183L330.734 506.127C330.727 505.928 330.694 505.727 330.635 505.601C330.452 505.214 330.149 504.702 330.002 504.086C329.855 503.468 329.315 502.851 329.209 502.139C329.103 501.427 328.929 500.427 328.895 499.946C328.861 499.466 328.851 499.351 328.6 498.978C328.456 498.764 328.373 498.418 328.453 498.073C328.494 497.901 328.634 497.883 328.748 497.996C328.916 498.164 328.921 498.353 329.122 498.392C329.526 498.472 329.682 498.508 329.601 498.842C329.521 499.177 329.994 499.127 330.007 499.297C330.022 499.469 329.77 499.569 330.284 500.258C330.799 500.946 331.028 501.347 331.197 501.62C331.367 501.892 331.41 502.592 331.689 503.04C331.967 503.484 332.299 504.497 332.582 504.867C332.807 505.16 332.681 505.295 332.594 505.536L332.578 505.488C332.556 505.551 332.538 505.622 332.53 505.705Z" fill="#2C4B1C"/>
<defs>
<filter id="filter0_n_28_1740" x="206.771" y="540.849" width="189.736" height="114.654" filterUnits="userSpaceOnUse" color-interpolation-filters="sRGB">
<feFlood flood-opacity="0" result="BackgroundImageFix"/>
<feBlend mode="normal" in="SourceGraphic" in2="BackgroundImageFix" result="shape"/>
<feTurbulence type="fractalNoise" baseFrequency="5 5" stitchTiles="stitch" numOctaves="3" result="noise" seed="4971" />
<feColorMatrix in="noise" type="luminanceToAlpha" result="alphaNoise" />
<feComponentTransfer in="alphaNoise" result="coloredNoise1">
<feFuncA type="discrete" tableValues="1 1 1 1 1 1 1 1 1 1 1 1 1 1 1 1 1 1 1 1 1 1 1 1 1 1 1 1 1 1 1 1 1 1 1 1 1 1 1 1 1 1 1 1 1 1 1 1 1 1 1 0 0 0 0 0 0 0 0 0 0 0 0 0 0 0 0 0 0 0 0 0 0 0 0 0 0 0 0 0 0 0 0 0 0 0 0 0 0 0 0 0 0 0 0 0 0 0 0 0 "/>
</feComponentTransfer>
<feComposite operator="in" in2="shape" in="coloredNoise1" result="noise1Clipped" />
<feFlood flood-color="rgba(0, 0, 0, 0.25)" result="color1Flood" />
<feComposite operator="in" in2="noise1Clipped" in="color1Flood" result="color1" />
<feMerge result="effect1_noise_28_1740">
<feMergeNode in="shape" />
<feMergeNode in="color1" />
</feMerge>
</filter>
<filter id="filter1_n_28_1740" x="88.1016" y="78.1334" width="143.342" height="104.568" filterUnits="userSpaceOnUse" color-interpolation-filters="sRGB">
<feFlood flood-opacity="0" result="BackgroundImageFix"/>
<feBlend mode="normal" in="SourceGraphic" in2="BackgroundImageFix" result="shape"/>
<feTurbulence type="fractalNoise" baseFrequency="3.3333332538604736 3.3333332538604736" stitchTiles="stitch" numOctaves="3" result="noise" seed="3137" />
<feColorMatrix in="noise" type="luminanceToAlpha" result="alphaNoise" />
<feComponentTransfer in="alphaNoise" result="coloredNoise1">
<feFuncA type="discrete" tableValues="1 1 1 1 1 1 1 1 1 1 1 1 1 1 1 1 1 1 1 1 1 1 1 1 1 1 1 1 1 1 1 1 1 1 1 1 1 1 1 1 1 1 1 1 1 1 1 1 1 1 1 0 0 0 0 0 0 0 0 0 0 0 0 0 0 0 0 0 0 0 0 0 0 0 0 0 0 0 0 0 0 0 0 0 0 0 0 0 0 0 0 0 0 0 0 0 0 0 0 0 "/>
</feComponentTransfer>
<feComposite operator="in" in2="shape" in="coloredNoise1" result="noise1Clipped" />
<feFlood flood-color="rgba(0, 0, 0, 0.25)" result="color1Flood" />
<feComposite operator="in" in2="noise1Clipped" in="color1Flood" result="color1" />
<feMerge result="effect1_noise_28_1740">
<feMergeNode in="shape" />
<feMergeNode in="color1" />
</feMerge>
</filter>
<filter id="filter2_n_28_1740" x="165.877" y="452.29" width="193.876" height="79.1992" filterUnits="userSpaceOnUse" color-interpolation-filters="sRGB">
<feFlood flood-opacity="0" result="BackgroundImageFix"/>
<feBlend mode="normal" in="SourceGraphic" in2="BackgroundImageFix" result="shape"/>
<feTurbulence type="fractalNoise" baseFrequency="1.6666666269302368 1.6666666269302368" stitchTiles="stitch" numOctaves="3" result="noise" seed="7797" />
<feComponentTransfer in="noise" result="coloredNoise1">
<feFuncR type="linear" slope="2" intercept="-0.5" />
<feFuncG type="linear" slope="2" intercept="-0.5" />
<feFuncB type="linear" slope="2" intercept="-0.5" />
<feFuncA type="discrete" tableValues="1 1 1 1 1 1 1 1 1 1 1 1 1 1 1 1 1 1 1 1 1 1 1 1 1 1 1 1 1 1 1 1 1 1 1 1 1 1 1 1 1 1 1 1 1 1 1 1 1 1 1 0 0 0 0 0 0 0 0 0 0 0 0 0 0 0 0 0 0 0 0 0 0 0 0 0 0 0 0 0 0 0 0 0 0 0 0 0 0 0 0 0 0 0 0 0 0 0 0 0 "/>
</feComponentTransfer>
<feComposite operator="in" in2="shape" in="coloredNoise1" result="noise1Clipped" />
<feComponentTransfer in="noise1Clipped" result="color1">
<feFuncA type="table" tableValues="0 0.15" />
</feComponentTransfer>
<feMerge result="effect1_noise_28_1740">
<feMergeNode in="shape" />
<feMergeNode in="color1" />
</feMerge>
</filter>
<linearGradient id="paint0_linear_28_1740" x1="274.472" y1="558.127" x2="304.388" y2="638.896" gradientUnits="userSpaceOnUse">
<stop stop-color="#C6F8AB"/>
<stop offset="1" stop-color="#759265"/>
</linearGradient>
<linearGradient id="paint1_linear_28_1740" x1="280.113" y1="533.117" x2="305.257" y2="649.471" gradientUnits="userSpaceOnUse">
<stop stop-color="#5DD94C"/>
<stop offset="1" stop-color="#317328"/>
</linearGradient>
<linearGradient id="paint2_linear_28_1740" x1="141.838" y1="61.892" x2="168.671" y2="168.947" gradientUnits="userSpaceOnUse">
<stop stop-color="#D30808"/>
<stop offset="1" stop-color="#6D0404"/>
</linearGradient>
<radialGradient id="paint3_radial_28_1740" cx="0" cy="0" r="1" gradientUnits="userSpaceOnUse" gradientTransform="translate(155.564 124.625) rotate(75.9288) scale(46.6272 72.1364)">
<stop stop-color="#E38383"/>
<stop offset="0.932692" stop-color="#E64F4F"/>
</radialGradient>
<radialGradient id="paint4_radial_28_1740" cx="0" cy="0" r="1" gradientTransform="matrix(15.4274 53.6632 -56.2598 16.2839 284.333 624.88)" gradientUnits="userSpaceOnUse">
<stop stop-color="#896781"/>
<stop offset="1" stop-color="#451037"/>
</radialGradient>
<linearGradient id="paint5_linear_28_1740" x1="284.055" y1="626.972" x2="284.055" y2="651.324" gradientUnits="userSpaceOnUse">
<stop stop-color="#EF2C2C"/>
<stop offset="1" stop-color="#891919"/>
</linearGradient>
</defs>
</svg>
