<svg width="781" height="451" viewBox="0 0 781 451" fill="none" xmlns="http://www.w3.org/2000/svg">
<g opacity="0.5" filter="url(#filter0_d_34_1576)">
<path d="M261.619 428.872L261.263 423.586L281.78 412.853L282.19 418.935L268.104 425.72L268.278 425.391L268.329 426.142L268.112 425.84L282.98 430.678L283.389 436.76L261.619 428.872ZM310.574 425.578L290.057 436.311L289.648 430.229L303.733 423.444L303.559 423.772L303.509 423.021L303.725 423.324L288.858 418.486L288.449 412.404L310.219 420.292L310.574 425.578Z" fill="#EAFFFE"/>
</g>
<g opacity="0.5" filter="url(#filter1_d_34_1576)">
<path d="M269.439 64.4069L267.649 37.7992L274.376 37.3466L276.166 63.9543L269.439 64.4069ZM258.83 55.1353L258.377 48.4082L284.985 46.6182L285.437 53.3453L258.83 55.1353Z" fill="#EAFFFE"/>
</g>
<g opacity="0.5" filter="url(#filter2_d_34_1576)">
<path d="M270.982 16.7839L269.462 18.9599L263.449 14.762L264.969 12.5859L270.982 16.7839Z" fill="#EAFFFE"/>
</g>
<g opacity="0.5" filter="url(#filter3_d_34_1576)">
<path d="M769.056 187.744L756.484 203.219L753.852 202.045L766.424 186.571L769.056 187.744ZM776.481 191.054L763.909 206.528L761.277 205.355L773.849 189.881L776.481 191.054Z" fill="#EAFFFE"/>
</g>
<g opacity="0.5" filter="url(#filter4_d_34_1576)">
<path d="M4.62329 414.794L4.45256 413.225C5.3528 413.127 5.95771 412.88 6.26729 412.483C6.57687 412.086 6.68805 411.487 6.60085 410.685L6.41314 408.96C6.30838 407.998 6.35727 407.213 6.55981 406.606C6.76698 405.994 7.0938 405.514 7.54026 405.165C7.99193 404.816 8.54282 404.556 9.19293 404.385C9.84305 404.214 10.561 404.086 11.3467 404L11.6168 406.483C11.0028 406.549 10.5433 406.681 10.2382 406.878C9.93774 407.068 9.7484 407.336 9.67015 407.682C9.59135 408.022 9.57941 408.445 9.63433 408.949L9.88235 411.229C9.92539 411.624 9.89359 412.009 9.78696 412.384C9.67976 412.754 9.44342 413.098 9.07795 413.417C8.71191 413.731 8.17081 414.008 7.45464 414.249C6.73791 414.485 5.79412 414.667 4.62329 414.794ZM13.4965 423.756C12.7108 423.842 11.9821 423.871 11.3104 423.844C10.6388 423.817 10.0449 423.682 9.52866 423.438C9.01764 423.193 8.59513 422.794 8.26111 422.241C7.93287 421.692 7.71637 420.937 7.61161 419.974L7.42305 418.241C7.33585 417.44 7.09839 416.878 6.71067 416.557C6.32295 416.236 5.67897 416.125 4.77872 416.223L4.608 414.654C5.77883 414.526 6.73989 414.503 7.49117 414.585C8.24188 414.661 8.82998 414.816 9.25547 415.048C9.6804 415.276 9.98525 415.561 10.17 415.904C10.3542 416.242 10.4681 416.612 10.5117 417.012L10.7598 419.292C10.8141 419.791 10.9164 420.199 11.0665 420.514C11.2173 420.835 11.4598 421.056 11.7942 421.177C12.1344 421.304 12.6115 421.333 13.2256 421.266L13.4965 423.756ZM4.77872 416.223L4.45256 413.225L7.25476 412.92L7.58092 415.918L4.77872 416.223ZM25.3559 412.396L25.5267 413.965C24.6316 414.062 24.0267 414.31 23.7119 414.707C23.4024 415.104 23.2912 415.703 23.3784 416.505L23.5669 418.238C23.6717 419.2 23.6202 419.985 23.4125 420.592C23.2105 421.204 22.8837 421.684 22.432 422.034C21.9855 422.382 21.4373 422.642 20.7871 422.813C20.1422 422.983 19.4243 423.111 18.6333 423.197L18.3624 420.707C18.9764 420.641 19.4334 420.509 19.7332 420.313C20.0389 420.122 20.2308 419.854 20.3091 419.508C20.3879 419.168 20.4001 418.748 20.3457 418.249L20.0977 415.969C20.0541 415.569 20.0859 415.183 20.1931 414.814C20.2998 414.439 20.5361 414.095 20.9021 413.781C21.2676 413.462 21.8087 413.185 22.5254 412.949C23.2416 412.708 24.1851 412.523 25.3559 412.396ZM16.4836 403.442C17.2745 403.355 18.0032 403.326 18.6696 403.354C19.3413 403.381 19.9326 403.516 20.4436 403.761C20.9598 404.005 21.3823 404.404 21.7112 404.958C22.0446 405.506 22.2637 406.261 22.3685 407.224L22.5562 408.949C22.6434 409.75 22.8808 410.312 23.2686 410.633C23.6615 410.953 24.3055 411.065 25.2005 410.968L25.3712 412.536C24.2004 412.664 23.2396 412.689 22.4889 412.613C21.7376 412.532 21.1495 412.377 20.7246 412.15C20.2991 411.917 19.9943 411.631 19.81 411.293C19.6253 410.95 19.5114 410.581 19.4683 410.185L19.2203 407.906C19.1654 407.401 19.0628 406.991 18.9127 406.676C18.762 406.355 18.5168 406.135 18.1772 406.014C17.8422 405.887 17.3677 405.857 16.7537 405.924L16.4836 403.442ZM25.2005 410.968L25.5267 413.965L22.7245 414.27L22.3983 411.272L25.2005 410.968Z" fill="#EAFFFE"/>
</g>
<defs>
<filter id="filter0_d_34_1576" x="253.849" y="404.194" width="64.1398" height="40.7762" filterUnits="userSpaceOnUse" color-interpolation-filters="sRGB">
<feFlood flood-opacity="0" result="BackgroundImageFix"/>
<feColorMatrix in="SourceAlpha" type="matrix" values="0 0 0 0 0 0 0 0 0 0 0 0 0 0 0 0 0 0 127 0" result="hardAlpha"/>
<feOffset/>
<feGaussianBlur stdDeviation="3.39396"/>
<feComposite in2="hardAlpha" operator="out"/>
<feColorMatrix type="matrix" values="0 0 0 0 1 0 0 0 0 1 0 0 0 0 1 0 0 0 0.63 0"/>
<feBlend mode="normal" in2="BackgroundImageFix" result="effect1_dropShadow_34_1576"/>
<feBlend mode="normal" in="SourceGraphic" in2="effect1_dropShadow_34_1576" result="shape"/>
</filter>
<filter id="filter1_d_34_1576" x="249.215" y="28.1841" width="45.3851" height="45.3853" filterUnits="userSpaceOnUse" color-interpolation-filters="sRGB">
<feFlood flood-opacity="0" result="BackgroundImageFix"/>
<feColorMatrix in="SourceAlpha" type="matrix" values="0 0 0 0 0 0 0 0 0 0 0 0 0 0 0 0 0 0 127 0" result="hardAlpha"/>
<feOffset/>
<feGaussianBlur stdDeviation="4.2469"/>
<feComposite in2="hardAlpha" operator="out"/>
<feColorMatrix type="matrix" values="0 0 0 0 1 0 0 0 0 1 0 0 0 0 1 0 0 0 0.63 0"/>
<feBlend mode="normal" in2="BackgroundImageFix" result="effect1_dropShadow_34_1576"/>
<feBlend mode="normal" in="SourceGraphic" in2="effect1_dropShadow_34_1576" result="shape"/>
</filter>
<filter id="filter2_d_34_1576" x="259.908" y="9.04483" width="14.6144" height="13.4562" filterUnits="userSpaceOnUse" color-interpolation-filters="sRGB">
<feFlood flood-opacity="0" result="BackgroundImageFix"/>
<feColorMatrix in="SourceAlpha" type="matrix" values="0 0 0 0 0 0 0 0 0 0 0 0 0 0 0 0 0 0 127 0" result="hardAlpha"/>
<feOffset/>
<feGaussianBlur stdDeviation="1.77055"/>
<feComposite in2="hardAlpha" operator="out"/>
<feColorMatrix type="matrix" values="0 0 0 0 1 0 0 0 0 1 0 0 0 0 1 0 0 0 0.63 0"/>
<feBlend mode="normal" in2="BackgroundImageFix" result="effect1_dropShadow_34_1576"/>
<feBlend mode="normal" in="SourceGraphic" in2="effect1_dropShadow_34_1576" result="shape"/>
</filter>
<filter id="filter3_d_34_1576" x="750.311" y="180.92" width="29.7101" height="31.2593" filterUnits="userSpaceOnUse" color-interpolation-filters="sRGB">
<feFlood flood-opacity="0" result="BackgroundImageFix"/>
<feColorMatrix in="SourceAlpha" type="matrix" values="0 0 0 0 0 0 0 0 0 0 0 0 0 0 0 0 0 0 127 0" result="hardAlpha"/>
<feOffset/>
<feGaussianBlur stdDeviation="1.77055"/>
<feComposite in2="hardAlpha" operator="out"/>
<feColorMatrix type="matrix" values="0 0 0 0 1 0 0 0 0 1 0 0 0 0 1 0 0 0 0.63 0"/>
<feBlend mode="normal" in2="BackgroundImageFix" result="effect1_dropShadow_34_1576"/>
<feBlend mode="normal" in="SourceGraphic" in2="effect1_dropShadow_34_1576" result="shape"/>
</filter>
<filter id="filter4_d_34_1576" x="-8.74996e-05" y="399.051" width="29.9802" height="29.0958" filterUnits="userSpaceOnUse" color-interpolation-filters="sRGB">
<feFlood flood-opacity="0" result="BackgroundImageFix"/>
<feColorMatrix in="SourceAlpha" type="matrix" values="0 0 0 0 0 0 0 0 0 0 0 0 0 0 0 0 0 0 127 0" result="hardAlpha"/>
<feOffset/>
<feGaussianBlur stdDeviation="1.77055"/>
<feComposite in2="hardAlpha" operator="out"/>
<feColorMatrix type="matrix" values="0 0 0 0 1 0 0 0 0 1 0 0 0 0 1 0 0 0 0.63 0"/>
<feBlend mode="normal" in2="BackgroundImageFix" result="effect1_dropShadow_34_1576"/>
<feBlend mode="normal" in="SourceGraphic" in2="effect1_dropShadow_34_1576" result="shape"/>
</filter>
</defs>
</svg>
