<svg width="297" height="307" viewBox="0 0 297 307" fill="none" xmlns="http://www.w3.org/2000/svg">
<path d="M108.508 96.6145L79.5989 104.177C87.926 96.5794 106.117 76.543 104.964 72.4024C103.523 67.2266 96.706 69.0545 90.0312 68.5991C83.3565 68.1437 66.4333 71.9487 60.7265 75.8637C53.4225 80.8744 36.421 105.538 35.0252 109.305C33.6294 113.072 35.0948 115.441 43.635 107.412C49.3607 102.03 50.9127 98.491 51.2918 97.3179C51.3291 97.1811 51.3652 97.0476 51.3999 96.9178C51.3901 96.9729 51.3598 97.1072 51.2918 97.3179C49.8685 102.528 46.5376 112.588 43.73 114.147C40.1283 116.147 28.7605 125.237 24.383 123.068C21.9066 121.841 27.4543 113.294 28.9984 108.322C32.6038 101.159 39.3972 96.1504 39.5015 82.2863C39.5263 78.9972 47.2081 73.2325 58.3318 64.0319C69.4555 54.8312 116.701 59.6067 118.292 61.5638C120.42 64.1799 118.053 73.3705 108.655 84.8831C100.543 94.8207 104.17 95.7554 108.508 96.6145Z" fill="url(#paint0_linear_8_115)"/>
<g filter="url(#filter0_g_8_115)">
<path d="M167.187 205.187C170.648 201.289 187.905 169.604 187.905 169.604L188.057 169.791C189.525 171.28 193.512 173.034 197.307 175.274C202.051 178.074 212.786 178.015 214.978 178.245C216.732 178.429 225.893 177.369 230.955 177.02L247.569 175.277C251.49 174.979 260.165 174.572 263.496 175.331C267.66 176.28 270.405 179.801 271.171 181.166C272.543 183.612 271.363 190.301 270.711 192.534C270.06 194.767 268.306 202.85 258.05 206.546C255.798 207.357 250.638 209.012 247.052 211.618C244.183 213.704 245.944 214.997 248.481 216.03C251.018 217.064 269.415 217.122 269.415 217.122C266.351 217.652 259.527 219.032 256.74 220.308C253.953 221.583 249.881 223.82 248.194 224.78C246.413 223.854 241.838 222.083 237.784 222.407C233.729 222.731 230.953 221.15 230.071 220.318C229.557 219.497 229.118 217.098 231.468 214.072C234.406 210.29 248.322 205.012 256.304 200.998C259.839 199.221 262.304 198.314 264.454 193.751C266.604 189.189 263.325 185.689 262.793 184.883C262.128 183.875 259.116 181.394 254.381 182.124L254.252 182.144C251.078 182.632 250.44 182.731 233.846 187.211C233.846 187.211 194.641 195.712 185.396 199.514C176.152 203.316 159.042 214.133 159.042 214.133C159.042 214.133 163.726 209.085 167.187 205.187Z" fill="url(#paint1_linear_8_115)"/>
</g>
<path d="M190.513 170.696C190.513 170.696 208.522 137.648 196.991 132.952C196.375 132.701 191.996 130.983 191.996 130.983C191.996 130.983 118.164 95.7638 112.214 95.6541C106.263 95.5443 83.8086 101.124 83.8086 101.124C83.8086 101.124 71.4615 107.346 65.3458 113.509C47.9846 131.003 39.8991 153.532 53.4988 175.567C67.0985 197.601 88.7354 216.811 110.238 225.614C131.741 234.417 135.696 231.054 149.534 224.433C157.545 220.6 167.174 210.088 167.174 210.088L190.513 170.696Z" fill="url(#paint2_linear_8_115)"/>
<ellipse cx="49.3383" cy="9.57824" rx="49.3383" ry="9.57824" transform="matrix(0.915206 0.402986 -0.399888 0.916564 113.236 88.3407)" fill="#194B65"/>
<g filter="url(#filter1_n_8_115)">
<path d="M83.1626 121.848C82.4443 123.052 81.8465 134.835 81.8465 134.835C81.8465 134.835 93.035 134.558 96.0818 132.235C99.1287 129.912 101.258 126.654 99.0941 124.369C97.4743 122.658 93.0832 123.995 93.0832 123.995C93.0832 123.995 93.716 119.892 92.1299 118.27C89.5444 115.628 83.8809 120.645 83.1626 121.848Z" fill="#4783FA"/>
</g>
<g filter="url(#filter2_n_8_115)">
<path d="M104.634 142.69C104.144 144.042 106.016 156.398 106.016 156.398C106.016 156.398 117.563 154.575 120.233 151.738C122.902 148.9 124.422 145.215 121.694 143.131C119.652 141.57 115.379 143.566 115.379 143.566C115.379 143.566 115.168 139.204 113.18 137.733C109.939 135.335 105.125 141.338 104.634 142.69Z" fill="#4783FA"/>
</g>
<g filter="url(#filter3_n_8_115)">
<path d="M131.963 159.613C131.463 160.938 133.053 172.942 133.053 172.942C133.053 172.942 144.282 170.956 146.922 168.143C149.561 165.33 151.102 161.712 148.495 159.731C146.543 158.249 142.365 160.27 142.365 160.27C142.365 160.27 142.239 156.025 140.338 154.628C137.24 152.351 132.463 158.287 131.963 159.613Z" fill="#4783FA"/>
</g>
<g filter="url(#filter4_n_8_115)">
<path d="M158.185 175.146C158.144 176.572 163.766 187.647 163.766 187.647C163.766 187.647 174.081 182.366 175.711 178.866C177.341 175.367 177.623 171.422 174.401 170.299C171.989 169.457 168.585 172.657 168.585 172.657C168.585 172.657 167.025 168.609 164.692 167.835C160.888 166.574 158.225 173.72 158.185 175.146Z" fill="#4783FA"/>
</g>
<g filter="url(#filter5_n_8_115)">
<path fill-rule="evenodd" clip-rule="evenodd" d="M179.309 77.83C202.988 82.1604 218.209 95.9193 222.372 107.425L126.471 95.0046C126.405 94.1756 126.426 93.3474 126.548 92.5232C133.629 82.4793 147.935 74.9696 169.97 76.6325C167.536 69.6235 164.949 60.3968 164.937 60.3567C165.013 60.323 174.896 55.9705 181.083 60.3942L181.128 60.4259C182.99 61.757 184.662 62.9535 185.552 64.6435C186.069 65.6271 182.682 72.4698 179.309 77.83Z" fill="url(#paint3_linear_8_115)"/>
</g>
<defs>
<filter id="filter0_g_8_115" x="157.999" y="168.561" width="114.851" height="57.2617" filterUnits="userSpaceOnUse" color-interpolation-filters="sRGB">
<feFlood flood-opacity="0" result="BackgroundImageFix"/>
<feBlend mode="normal" in="SourceGraphic" in2="BackgroundImageFix" result="shape"/>
<feTurbulence type="fractalNoise" baseFrequency="0.99900001287460327 0.99900001287460327" numOctaves="3" seed="8615" />
<feDisplacementMap in="shape" scale="2.0862693786621094" xChannelSelector="R" yChannelSelector="G" result="displacedImage" width="100%" height="100%" />
<feMerge result="effect1_texture_8_115">
<feMergeNode in="displacedImage"/>
</feMerge>
</filter>
<filter id="filter1_n_8_115" x="81.8467" y="117.512" width="18.1294" height="17.323" filterUnits="userSpaceOnUse" color-interpolation-filters="sRGB">
<feFlood flood-opacity="0" result="BackgroundImageFix"/>
<feBlend mode="normal" in="SourceGraphic" in2="BackgroundImageFix" result="shape"/>
<feTurbulence type="fractalNoise" baseFrequency="1.9172979593276978 1.9172979593276978" stitchTiles="stitch" numOctaves="3" result="noise" seed="2605" />
<feColorMatrix in="noise" type="luminanceToAlpha" result="alphaNoise" />
<feComponentTransfer in="alphaNoise" result="coloredNoise1">
<feFuncA type="discrete" tableValues="1 1 1 1 1 1 1 1 1 1 1 1 1 1 1 1 1 1 1 1 1 1 1 1 1 1 1 1 1 1 1 1 1 1 1 1 1 1 1 1 1 1 1 1 1 1 1 1 1 1 1 0 0 0 0 0 0 0 0 0 0 0 0 0 0 0 0 0 0 0 0 0 0 0 0 0 0 0 0 0 0 0 0 0 0 0 0 0 0 0 0 0 0 0 0 0 0 0 0 0 "/>
</feComponentTransfer>
<feComposite operator="in" in2="shape" in="coloredNoise1" result="noise1Clipped" />
<feFlood flood-color="rgba(0, 0, 0, 0.25)" result="color1Flood" />
<feComposite operator="in" in2="noise1Clipped" in="color1Flood" result="color1" />
<feMerge result="effect1_noise_8_115">
<feMergeNode in="shape" />
<feMergeNode in="color1" />
</feMerge>
</filter>
<filter id="filter2_n_8_115" x="104.552" y="137.173" width="18.582" height="19.225" filterUnits="userSpaceOnUse" color-interpolation-filters="sRGB">
<feFlood flood-opacity="0" result="BackgroundImageFix"/>
<feBlend mode="normal" in="SourceGraphic" in2="BackgroundImageFix" result="shape"/>
<feTurbulence type="fractalNoise" baseFrequency="1.9172979593276978 1.9172979593276978" stitchTiles="stitch" numOctaves="3" result="noise" seed="2605" />
<feColorMatrix in="noise" type="luminanceToAlpha" result="alphaNoise" />
<feComponentTransfer in="alphaNoise" result="coloredNoise1">
<feFuncA type="discrete" tableValues="1 1 1 1 1 1 1 1 1 1 1 1 1 1 1 1 1 1 1 1 1 1 1 1 1 1 1 1 1 1 1 1 1 1 1 1 1 1 1 1 1 1 1 1 1 1 1 1 1 1 1 0 0 0 0 0 0 0 0 0 0 0 0 0 0 0 0 0 0 0 0 0 0 0 0 0 0 0 0 0 0 0 0 0 0 0 0 0 0 0 0 0 0 0 0 0 0 0 0 0 "/>
</feComponentTransfer>
<feComposite operator="in" in2="shape" in="coloredNoise1" result="noise1Clipped" />
<feFlood flood-color="rgba(0, 0, 0, 0.25)" result="color1Flood" />
<feComposite operator="in" in2="noise1Clipped" in="color1Flood" result="color1" />
<feMerge result="effect1_noise_8_115">
<feMergeNode in="shape" />
<feMergeNode in="color1" />
</feMerge>
</filter>
<filter id="filter3_n_8_115" x="131.866" y="154.113" width="17.9741" height="18.8289" filterUnits="userSpaceOnUse" color-interpolation-filters="sRGB">
<feFlood flood-opacity="0" result="BackgroundImageFix"/>
<feBlend mode="normal" in="SourceGraphic" in2="BackgroundImageFix" result="shape"/>
<feTurbulence type="fractalNoise" baseFrequency="1.9172979593276978 1.9172979593276978" stitchTiles="stitch" numOctaves="3" result="noise" seed="2605" />
<feColorMatrix in="noise" type="luminanceToAlpha" result="alphaNoise" />
<feComponentTransfer in="alphaNoise" result="coloredNoise1">
<feFuncA type="discrete" tableValues="1 1 1 1 1 1 1 1 1 1 1 1 1 1 1 1 1 1 1 1 1 1 1 1 1 1 1 1 1 1 1 1 1 1 1 1 1 1 1 1 1 1 1 1 1 1 1 1 1 1 1 0 0 0 0 0 0 0 0 0 0 0 0 0 0 0 0 0 0 0 0 0 0 0 0 0 0 0 0 0 0 0 0 0 0 0 0 0 0 0 0 0 0 0 0 0 0 0 0 0 "/>
</feComponentTransfer>
<feComposite operator="in" in2="shape" in="coloredNoise1" result="noise1Clipped" />
<feFlood flood-color="rgba(0, 0, 0, 0.25)" result="color1Flood" />
<feComposite operator="in" in2="noise1Clipped" in="color1Flood" result="color1" />
<feMerge result="effect1_noise_8_115">
<feMergeNode in="shape" />
<feMergeNode in="color1" />
</feMerge>
</filter>
<filter id="filter4_n_8_115" x="158.185" y="167.687" width="18.7114" height="19.9607" filterUnits="userSpaceOnUse" color-interpolation-filters="sRGB">
<feFlood flood-opacity="0" result="BackgroundImageFix"/>
<feBlend mode="normal" in="SourceGraphic" in2="BackgroundImageFix" result="shape"/>
<feTurbulence type="fractalNoise" baseFrequency="1.9172979593276978 1.9172979593276978" stitchTiles="stitch" numOctaves="3" result="noise" seed="2605" />
<feColorMatrix in="noise" type="luminanceToAlpha" result="alphaNoise" />
<feComponentTransfer in="alphaNoise" result="coloredNoise1">
<feFuncA type="discrete" tableValues="1 1 1 1 1 1 1 1 1 1 1 1 1 1 1 1 1 1 1 1 1 1 1 1 1 1 1 1 1 1 1 1 1 1 1 1 1 1 1 1 1 1 1 1 1 1 1 1 1 1 1 0 0 0 0 0 0 0 0 0 0 0 0 0 0 0 0 0 0 0 0 0 0 0 0 0 0 0 0 0 0 0 0 0 0 0 0 0 0 0 0 0 0 0 0 0 0 0 0 0 "/>
</feComponentTransfer>
<feComposite operator="in" in2="shape" in="coloredNoise1" result="noise1Clipped" />
<feFlood flood-color="rgba(0, 0, 0, 0.25)" result="color1Flood" />
<feComposite operator="in" in2="noise1Clipped" in="color1Flood" result="color1" />
<feMerge result="effect1_noise_8_115">
<feMergeNode in="shape" />
<feMergeNode in="color1" />
</feMerge>
</filter>
<filter id="filter5_n_8_115" x="126.434" y="58.4108" width="95.9385" height="49.0144" filterUnits="userSpaceOnUse" color-interpolation-filters="sRGB">
<feFlood flood-opacity="0" result="BackgroundImageFix"/>
<feBlend mode="normal" in="SourceGraphic" in2="BackgroundImageFix" result="shape"/>
<feTurbulence type="fractalNoise" baseFrequency="4.9999995231628418 4.9999995231628418" stitchTiles="stitch" numOctaves="3" result="noise" seed="2605" />
<feColorMatrix in="noise" type="luminanceToAlpha" result="alphaNoise" />
<feComponentTransfer in="alphaNoise" result="coloredNoise1">
<feFuncA type="discrete" tableValues="1 1 1 1 1 1 1 1 1 1 1 1 1 1 1 1 1 1 1 1 1 1 1 1 1 1 1 1 1 1 1 1 1 1 1 1 1 1 1 1 1 1 1 1 1 1 1 1 1 1 1 0 0 0 0 0 0 0 0 0 0 0 0 0 0 0 0 0 0 0 0 0 0 0 0 0 0 0 0 0 0 0 0 0 0 0 0 0 0 0 0 0 0 0 0 0 0 0 0 0 "/>
</feComponentTransfer>
<feComposite operator="in" in2="shape" in="coloredNoise1" result="noise1Clipped" />
<feFlood flood-color="rgba(0, 0, 0, 0.25)" result="color1Flood" />
<feComposite operator="in" in2="noise1Clipped" in="color1Flood" result="color1" />
<feMerge result="effect1_noise_8_115">
<feMergeNode in="shape" />
<feMergeNode in="color1" />
</feMerge>
</filter>
<linearGradient id="paint0_linear_8_115" x1="101.343" y1="59.3999" x2="20.02" y2="145.543" gradientUnits="userSpaceOnUse">
<stop stop-color="#F8B3C6"/>
<stop offset="1" stop-color="#0E8EEA"/>
</linearGradient>
<linearGradient id="paint1_linear_8_115" x1="216.902" y1="192.164" x2="179.349" y2="195.604" gradientUnits="userSpaceOnUse">
<stop stop-color="#ADD3FE"/>
<stop offset="1" stop-color="#4886CD"/>
</linearGradient>
<linearGradient id="paint2_linear_8_115" x1="99.0134" y1="130.822" x2="94.9462" y2="241.672" gradientUnits="userSpaceOnUse">
<stop stop-color="#D8EAFF"/>
<stop offset="0.774038" stop-color="#428ADC"/>
<stop offset="0.961538" stop-color="#2E6BB1"/>
</linearGradient>
<linearGradient id="paint3_linear_8_115" x1="178.233" y1="74.6913" x2="170.173" y2="121.929" gradientUnits="userSpaceOnUse">
<stop stop-color="#F8B3C6"/>
<stop offset="1" stop-color="#0E71EA"/>
</linearGradient>
</defs>
</svg>
