<svg width="178" height="247" viewBox="0 0 178 247" fill="none" xmlns="http://www.w3.org/2000/svg">
<g filter="url(#filter0_g_37_1091)">
<path d="M96.8703 43.2251C85.155 41.5149 85.8658 67.7172 86.9203 81.026L88.4977 83.6547C89.29 80.3754 91.1706 72.7011 92.3543 68.2385C93.8341 62.6602 99.4469 68.9563 103.485 60.1775C107.523 51.3987 113.829 62.5809 124.803 61.8799C135.777 61.1789 146.576 52.5135 146.567 44.8473C146.559 37.1812 124.574 41.8044 121.787 49.1544C118.999 56.5044 111.514 45.3629 96.8703 43.2251Z" fill="url(#paint0_linear_37_1091)"/>
</g>
<g filter="url(#filter1_g_37_1091)">
<path d="M80.3588 39.0495C85.4999 43.1128 85.7585 70.8259 85.2452 84.1745L83.3638 91.0692L80.9596 77.2363C79.9561 71.4626 73.641 62.7705 64.1457 50.6657C54.6505 38.561 53.6563 49.143 42.1519 58.0821C30.6474 67.0211 33.656 58.8152 16.3615 47.1985C2.52583 37.9052 7.68368 26.5664 11.9921 22.0587C15.9451 21.413 24.4522 22.4458 26.8566 31.7432C29.8497 43.3176 39.9265 34.4868 46.9786 28.3068L47.0652 28.2309C54.121 22.0478 73.9325 33.9705 80.3588 39.0495Z" fill="url(#paint1_linear_37_1091)"/>
</g>
<g filter="url(#filter2_g_37_1091)">
<path d="M61.4696 68.7521C69.8532 66.3422 80.7325 74.1524 80.7979 79.7602C79.5877 78.9017 75.3936 81.1959 72.3462 77.4745C68.5368 72.8228 65.8626 75.578 60.7235 79.4946C55.5844 83.4112 57.2822 91.0867 54.6496 91.6359C52.017 92.1851 49.5674 91.6947 47.3196 99.6896C45.0718 107.684 33.9886 99.8993 26.0884 99.4401C18.1882 98.9809 15.4662 88.5515 10.6062 81.5172C5.74623 74.4828 17.0709 67.0175 32.5592 80.2669C48.0476 93.5163 50.9901 71.7646 61.4696 68.7521Z" fill="url(#paint2_linear_37_1091)"/>
</g>
<path d="M85.4285 227.976L77.1971 200.58L103.399 196.026L104.699 234.984L88.3861 237.819L71.8207 240.699C69.8039 236.84 63.4062 225.889 74.3865 223.98C75.6775 223.756 79.2504 226.975 82.8521 227.716C83.706 227.892 84.568 227.966 85.4285 227.976Z" fill="url(#paint3_linear_37_1091)"/>
<ellipse cx="90.2627" cy="198.092" rx="13.2973" ry="2.3592" transform="rotate(-9.85978 90.2627 198.092)" fill="url(#paint4_linear_37_1091)"/>
<path d="M84.8846 200.973L76.8434 153.686L77.4794 147.009L87.6433 157.267L94.9729 199.438C94.9729 199.438 91.9808 200.217 90.0294 200.515C86.7711 201.012 84.8846 200.973 84.8846 200.973Z" fill="url(#paint5_linear_37_1091)"/>
<path d="M117.126 222.467L108.894 195.071L135.096 190.517L136.396 229.475L120.083 232.311L103.518 235.19C101.501 231.331 95.1034 220.38 106.084 218.471C107.375 218.247 110.948 221.466 114.549 222.207C115.403 222.383 116.265 222.457 117.126 222.467Z" fill="url(#paint6_linear_37_1091)"/>
<ellipse cx="121.958" cy="192.583" rx="13.2973" ry="2.3592" transform="rotate(-9.85978 121.958 192.583)" fill="url(#paint7_linear_37_1091)"/>
<path d="M126.552 193.731L118.167 146.504L115.315 140.433L108.785 151.087L116.538 195.69C116.538 195.69 119.617 195.414 121.555 195.035C124.79 194.404 126.552 193.731 126.552 193.731Z" fill="url(#paint8_linear_37_1091)"/>
<path d="M79.144 166.687L76.9404 154.009L87.7899 157.566L89.2313 167.111C89.222 167.475 88.3657 168.393 85.0142 169.15C81.6627 169.907 79.7043 167.824 79.144 166.687Z" fill="#CF8B8B"/>
<path d="M119.908 156.99L117.704 144.312L108.691 151.321L110.555 160.793C110.687 161.133 111.802 161.708 115.213 161.289C118.623 160.871 119.764 158.249 119.908 156.99Z" fill="#CF8B8B"/>
<path d="M59.5215 96.5016C66.1899 88.7244 67.0247 87.2469 82.9953 83.9099C98.9658 80.5729 108.224 80.8902 114.949 84.9203C121.674 88.9503 130.241 96.1671 132.954 103.054C135.668 109.941 135.481 129.221 131.077 135.126C125.122 143.111 117.884 146.361 111.85 149.859C104.307 154.23 103.574 157.761 98.7814 159.461C93.9892 161.161 79.4027 156.821 66.559 149.538C53.3512 142.049 51.8897 129.776 51.6167 123.776C51.3521 117.965 52.1527 105.096 59.5215 96.5016Z" fill="url(#paint9_linear_37_1091)"/>
<g filter="url(#filter3_nf_37_1091)">
<ellipse cx="74.2508" cy="132.272" rx="10.0802" ry="10.2947" transform="rotate(-9.85978 74.2508 132.272)" fill="#CA1C1C" fill-opacity="0.39"/>
</g>
<g filter="url(#filter4_nf_37_1091)">
<ellipse cx="114.399" cy="125.294" rx="10.0802" ry="10.2947" transform="rotate(-9.85978 114.399 125.294)" fill="#CA1C1C" fill-opacity="0.39"/>
</g>
<path d="M69.0323 77.021L75.3483 86.067L95.6638 82.4045L97.6727 66.378L89.053 78.0788L84.6159 69.1061L77.8184 79.4945L69.0323 77.021Z" fill="url(#paint10_linear_37_1091)"/>
<path d="M136.419 229.441L127.967 230.91L117.401 232.746L118.835 230.973L127.316 218.397L135.475 205.224L135.924 214.071L136.419 229.441Z" fill="url(#paint11_linear_37_1091)"/>
<ellipse cx="77.7063" cy="122.094" rx="2.78852" ry="3.86102" transform="rotate(-9.85978 77.7063 122.094)" fill="#601A1A"/>
<ellipse cx="106.022" cy="117.173" rx="2.78852" ry="3.86102" transform="rotate(-9.85978 106.022 117.173)" fill="#601A1A"/>
<ellipse cx="94.298" cy="124.87" rx="2.78852" ry="1.71601" transform="rotate(-9.85978 94.298 124.87)" fill="#CC3030"/>
<path d="M85.0829 136.426L86.1179 134.117L105.714 130.679L107.098 132.215L85.0829 136.426Z" fill="#9D2F2F"/>
<defs>
<filter id="filter0_g_37_1091" x="84.6631" y="39.1838" width="63.62" height="46.1867" filterUnits="userSpaceOnUse" color-interpolation-filters="sRGB">
<feFlood flood-opacity="0" result="BackgroundImageFix"/>
<feBlend mode="normal" in="SourceGraphic" in2="BackgroundImageFix" result="shape"/>
<feTurbulence type="fractalNoise" baseFrequency="0.046626001596450806 0.046626001596450806" numOctaves="3" seed="645" />
<feDisplacementMap in="shape" scale="3.4315617084503174" xChannelSelector="R" yChannelSelector="G" result="displacedImage" width="100%" height="100%" />
<feMerge result="effect1_texture_37_1091">
<feMergeNode in="displacedImage"/>
</feMerge>
</filter>
<filter id="filter1_g_37_1091" x="5.65336" y="20.1879" width="81.4911" height="72.5972" filterUnits="userSpaceOnUse" color-interpolation-filters="sRGB">
<feFlood flood-opacity="0" result="BackgroundImageFix"/>
<feBlend mode="normal" in="SourceGraphic" in2="BackgroundImageFix" result="shape"/>
<feTurbulence type="fractalNoise" baseFrequency="0.046626001596450806 0.046626001596450806" numOctaves="3" seed="645" />
<feDisplacementMap in="shape" scale="3.4315617084503174" xChannelSelector="R" yChannelSelector="G" result="displacedImage" width="100%" height="100%" />
<feMerge result="effect1_texture_37_1091">
<feMergeNode in="displacedImage"/>
</feMerge>
</filter>
<filter id="filter2_g_37_1091" x="7.75102" y="66.5872" width="74.7626" height="38.4089" filterUnits="userSpaceOnUse" color-interpolation-filters="sRGB">
<feFlood flood-opacity="0" result="BackgroundImageFix"/>
<feBlend mode="normal" in="SourceGraphic" in2="BackgroundImageFix" result="shape"/>
<feTurbulence type="fractalNoise" baseFrequency="0.046626001596450806 0.046626001596450806" numOctaves="3" seed="645" />
<feDisplacementMap in="shape" scale="3.4315617084503174" xChannelSelector="R" yChannelSelector="G" result="displacedImage" width="100%" height="100%" />
<feMerge result="effect1_texture_37_1091">
<feMergeNode in="displacedImage"/>
</feMerge>
</filter>
<filter id="filter3_nf_37_1091" x="59.8727" y="117.693" width="28.7557" height="29.1591" filterUnits="userSpaceOnUse" color-interpolation-filters="sRGB">
<feFlood flood-opacity="0" result="BackgroundImageFix"/>
<feBlend mode="normal" in="SourceGraphic" in2="BackgroundImageFix" result="shape"/>
<feTurbulence type="fractalNoise" baseFrequency="4.662600040435791 4.662600040435791" stitchTiles="stitch" numOctaves="3" result="noise" seed="1252" />
<feComponentTransfer in="noise" result="coloredNoise1">
<feFuncR type="linear" slope="2" intercept="-0.5" />
<feFuncG type="linear" slope="2" intercept="-0.5" />
<feFuncB type="linear" slope="2" intercept="-0.5" />
<feFuncA type="discrete" tableValues="1 1 1 1 1 1 1 1 1 1 1 1 1 1 1 1 1 1 1 1 1 1 1 1 1 1 1 1 1 1 1 1 1 1 1 1 1 1 1 1 1 1 1 1 1 1 1 1 1 1 1 0 0 0 0 0 0 0 0 0 0 0 0 0 0 0 0 0 0 0 0 0 0 0 0 0 0 0 0 0 0 0 0 0 0 0 0 0 0 0 0 0 0 0 0 0 0 0 0 0 "/>
</feComponentTransfer>
<feComposite operator="in" in2="shape" in="coloredNoise1" result="noise1Clipped" />
<feComponentTransfer in="noise1Clipped" result="color1">
<feFuncA type="table" tableValues="0 0.15" />
</feComponentTransfer>
<feMerge result="effect1_noise_37_1091">
<feMergeNode in="shape" />
<feMergeNode in="color1" />
</feMerge>
<feGaussianBlur stdDeviation="2.14473" result="effect2_foregroundBlur_37_1091"/>
</filter>
<filter id="filter4_nf_37_1091" x="100.021" y="110.715" width="28.7557" height="29.1591" filterUnits="userSpaceOnUse" color-interpolation-filters="sRGB">
<feFlood flood-opacity="0" result="BackgroundImageFix"/>
<feBlend mode="normal" in="SourceGraphic" in2="BackgroundImageFix" result="shape"/>
<feTurbulence type="fractalNoise" baseFrequency="4.662600040435791 4.662600040435791" stitchTiles="stitch" numOctaves="3" result="noise" seed="1252" />
<feComponentTransfer in="noise" result="coloredNoise1">
<feFuncR type="linear" slope="2" intercept="-0.5" />
<feFuncG type="linear" slope="2" intercept="-0.5" />
<feFuncB type="linear" slope="2" intercept="-0.5" />
<feFuncA type="discrete" tableValues="1 1 1 1 1 1 1 1 1 1 1 1 1 1 1 1 1 1 1 1 1 1 1 1 1 1 1 1 1 1 1 1 1 1 1 1 1 1 1 1 1 1 1 1 1 1 1 1 1 1 1 0 0 0 0 0 0 0 0 0 0 0 0 0 0 0 0 0 0 0 0 0 0 0 0 0 0 0 0 0 0 0 0 0 0 0 0 0 0 0 0 0 0 0 0 0 0 0 0 0 "/>
</feComponentTransfer>
<feComposite operator="in" in2="shape" in="coloredNoise1" result="noise1Clipped" />
<feComponentTransfer in="noise1Clipped" result="color1">
<feFuncA type="table" tableValues="0 0.15" />
</feComponentTransfer>
<feMerge result="effect1_noise_37_1091">
<feMergeNode in="shape" />
<feMergeNode in="color1" />
</feMerge>
<feGaussianBlur stdDeviation="2.14473" result="effect2_foregroundBlur_37_1091"/>
</filter>
<linearGradient id="paint0_linear_37_1091" x1="124.706" y1="50.5777" x2="88.2776" y2="70.1881" gradientUnits="userSpaceOnUse">
<stop stop-color="#93E541"/>
<stop offset="1" stop-color="#369414"/>
</linearGradient>
<linearGradient id="paint1_linear_37_1091" x1="21.3078" y1="28.0587" x2="89.7078" y2="88.4428" gradientUnits="userSpaceOnUse">
<stop stop-color="#94FB5C"/>
<stop offset="1" stop-color="#369414"/>
</linearGradient>
<linearGradient id="paint2_linear_37_1091" x1="23.5992" y1="83.824" x2="79.8792" y2="79.4845" gradientUnits="userSpaceOnUse">
<stop stop-color="#93E541"/>
<stop offset="1" stop-color="#369414"/>
</linearGradient>
<linearGradient id="paint3_linear_37_1091" x1="83.3249" y1="199.515" x2="105.144" y2="234.876" gradientUnits="userSpaceOnUse">
<stop stop-color="#94FB5C"/>
<stop offset="0.240385" stop-color="#94FB5C"/>
<stop offset="1" stop-color="#369414"/>
</linearGradient>
<linearGradient id="paint4_linear_37_1091" x1="76.9654" y1="198.092" x2="103.56" y2="198.092" gradientUnits="userSpaceOnUse">
<stop stop-color="#CAA0A0"/>
<stop offset="1" stop-color="#645050"/>
</linearGradient>
<linearGradient id="paint5_linear_37_1091" x1="80.6067" y1="146.442" x2="91.4527" y2="207.451" gradientUnits="userSpaceOnUse">
<stop stop-color="#F9C1C1"/>
<stop offset="1" stop-color="#CAA0A0"/>
</linearGradient>
<linearGradient id="paint6_linear_37_1091" x1="115.022" y1="194.006" x2="135.996" y2="229.514" gradientUnits="userSpaceOnUse">
<stop offset="0.0192308" stop-color="#94FB5C"/>
<stop offset="0.850962" stop-color="#93E541"/>
</linearGradient>
<linearGradient id="paint7_linear_37_1091" x1="108.661" y1="192.583" x2="135.255" y2="192.583" gradientUnits="userSpaceOnUse">
<stop stop-color="#CAA0A0"/>
<stop offset="1" stop-color="#645050"/>
</linearGradient>
<linearGradient id="paint8_linear_37_1091" x1="112.18" y1="140.955" x2="122.555" y2="202.045" gradientUnits="userSpaceOnUse">
<stop stop-color="#F9C1C1"/>
<stop offset="1" stop-color="#CAA0A0"/>
</linearGradient>
<linearGradient id="paint9_linear_37_1091" x1="85.8261" y1="83.3184" x2="101.621" y2="158.913" gradientUnits="userSpaceOnUse">
<stop stop-color="#B42525"/>
<stop offset="0.351889" stop-color="#E95252"/>
<stop offset="0.958121" stop-color="#F9C1C1"/>
</linearGradient>
<linearGradient id="paint10_linear_37_1091" x1="82.8861" y1="69.4676" x2="86.0107" y2="84.4215" gradientUnits="userSpaceOnUse">
<stop stop-color="#F52F2F"/>
<stop offset="1" stop-color="#AF3030"/>
</linearGradient>
<linearGradient id="paint11_linear_37_1091" x1="134.673" y1="231.921" x2="122.134" y2="223.651" gradientUnits="userSpaceOnUse">
<stop stop-color="#379545" stop-opacity="0.8"/>
<stop offset="0.287824" stop-color="#379545" stop-opacity="0.491346"/>
<stop offset="0.654432" stop-color="#379545" stop-opacity="0.2"/>
<stop offset="0.903846" stop-color="#379545" stop-opacity="0"/>
</linearGradient>
</defs>
</svg>
