<svg width="1116" height="502" viewBox="0 0 1116 502" fill="none" xmlns="http://www.w3.org/2000/svg">
<path d="M306.241 362.289C298.579 373.183 329.561 379.162 297.231 402.509C310.018 387.019 275.595 354.905 286.201 349.391C299.459 342.498 309.366 353.217 319.336 346.017C343.353 328.674 332.966 324.557 364.688 357.056C382.083 374.879 388.313 411.489 386.61 418.974C379.474 450.344 340.605 448.621 333.958 456.996C331.425 460.186 308.054 487.2 314.776 503.019C321.169 518.063 363.418 574.112 359.121 571.086L308.76 520.769C303.607 516.418 294.899 499.5 297.009 483.677C297.675 478.689 315.442 463.23 316.254 454.588C319.044 424.87 355.575 443.173 370.291 415.566C376.245 404.398 371.506 381.623 359.335 366.284C347.813 351.761 315.862 348.608 306.241 362.289Z" fill="#4E3F3F"/>
<path d="M400.208 622.473C392.547 611.579 423.528 605.6 391.198 582.253C403.985 597.743 369.562 629.857 380.168 635.371C393.426 642.264 403.333 631.545 413.303 638.745C437.32 656.088 426.933 660.205 458.655 627.706C476.05 609.883 482.28 573.273 480.577 565.788C473.441 534.418 434.572 536.141 427.925 527.766C425.392 524.576 402.021 497.562 408.743 481.743C415.136 466.699 457.385 410.65 453.088 413.676L402.727 463.993C397.574 468.344 388.866 485.262 390.976 501.085C391.642 506.073 409.41 521.532 410.221 530.174C413.011 559.892 449.542 541.589 464.258 569.196C470.212 580.364 465.473 603.139 453.302 618.478C441.78 633.001 409.829 636.154 400.208 622.473Z" fill="#4E3F3F"/>
<path d="M170.65 256.55C170.005 255.453 169.322 255.687 168.524 256.864C147.623 260.411 142.116 275.225 120.598 277.023C92.8109 279.346 105.12 337.993 82.7125 332.938C60.3053 327.884 92.2155 379.948 84.5714 411.561C81.9571 422.373 96.8846 410.201 107.532 416.921C152.155 445.08 119.665 451.887 146.244 448.726C153.664 447.844 237.845 437.427 244.471 459.14C250.771 479.79 226.67 525.088 244.033 532.149L274.256 522.525C277.516 514.149 253.783 462.523 250.252 433.9C249.354 426.619 184.357 410.466 175.117 400.813C142.082 366.301 185.808 425.543 167.894 431.595C146.792 438.724 92.3797 381.386 94.6486 356.215C96.7966 332.386 115.298 301.883 138.006 296.813C157.612 292.436 164.519 262.772 168.524 256.864C169.216 256.747 169.924 256.642 170.65 256.55Z" fill="#4E3F3F"/>
<g filter="url(#filter0_n_34_1544)">
<path d="M127.477 248.317C115.842 268.273 115.512 306.874 120.796 312.699C126.08 318.523 156.911 294.116 167.613 274.626C177.86 255.964 183.709 237.419 164.239 229.704C146.82 222.801 136.972 232.032 127.477 248.317Z" fill="url(#paint0_linear_34_1544)"/>
<path d="M164.601 300.63C143.369 315.676 126.345 319.005 120.144 313.162C113.944 307.318 124.944 277.001 146.176 261.956C167.409 246.91 166.087 227.546 188.27 240.491C201.485 250.578 185.834 285.584 164.601 300.63Z" fill="url(#paint1_linear_34_1544)"/>
<g filter="url(#filter1_f_34_1544)">
<path d="M116.492 258.566C109.464 288.734 119.057 312.1 124.792 316.005C130.526 319.911 149.378 291.959 154.526 270.132C159.455 249.233 171.587 237.215 157.44 220.561C147.112 211.44 120.809 240.036 116.492 258.566Z" fill="#1F1D1D" fill-opacity="0.29"/>
</g>
<path d="M108.914 255.703C102.26 286.011 113.983 310.182 120.579 314.413C127.176 318.645 147.192 291.132 152.078 269.206C156.755 248.212 169.88 236.569 153.32 219.004C141.354 209.264 113.001 237.085 108.914 255.703Z" fill="url(#paint2_linear_34_1544)"/>
</g>
<path d="M866.961 352.414C871.099 349.299 881.641 387.212 888.601 387.526C894.018 387.77 884.158 392.167 882.107 402.857C873.244 425.948 874.747 443.529 873.493 442.884C868.215 440.171 858.372 408.202 864.129 407.763C883.296 406.304 862.824 355.528 866.961 352.414Z" fill="#4E3F3F"/>
<path d="M857.457 419.93C865.172 413.701 804.049 370.622 809.355 358.897C810.263 356.893 877.178 410.336 876.224 422.857C874.667 443.307 868.221 490.359 885.274 504.138C900.11 516.125 874.5 545.566 860.485 558.502C846.47 571.438 805.32 582.25 801.615 553.603C796.746 515.953 810.059 498.743 790.102 480.639C755.305 449.074 718.779 451.81 709.67 461.535C696.418 475.685 666.682 514.109 668.953 510.368L672.823 475.427C676.171 471.227 689.671 436.085 740.008 437.041C762.851 437.475 806.287 483.559 815.288 487.423C824.289 491.288 828.174 482.386 812.63 536.108C805.969 559.128 835.345 558.009 850.471 545.796C900.241 505.613 833.734 439.084 857.457 419.93Z" fill="#4E3F3F"/>
<g filter="url(#filter2_n_34_1544)">
<path d="M789.149 340.897C810.245 356.489 828.055 396.677 825.211 405.151C822.367 413.626 779.349 402.059 759.431 386.53C740.36 371.662 725.902 354.928 742.602 338.065C757.543 322.977 771.933 328.172 789.149 340.897Z" fill="url(#paint3_linear_34_1544)"/>
<path d="M765.598 419.684C794.426 425.808 822.31 414.248 826.096 405.339C829.881 396.43 804.755 369.723 775.927 363.599C747.1 357.475 738.848 359.607 721.701 383.162C712.562 399.675 736.77 413.56 765.598 419.684Z" fill="url(#paint4_linear_34_1544)"/>
<g filter="url(#filter3_f_34_1544)">
<path d="M814.725 339.383C829.982 359.715 829.761 400.015 824.44 407.693C819.119 415.371 786.524 397.323 772.368 377.333C758.813 358.192 756.477 340.391 767.006 314.003C775.816 297.961 802.274 322.791 814.725 339.383Z" fill="url(#paint5_linear_34_1544)"/>
</g>
<path d="M814.353 335.824C834.968 364.486 830.821 398.864 825.894 406.268C820.968 413.671 787.76 393.971 772.772 373.268C758.421 353.445 755.272 335.532 764.497 309.692C772.499 294.105 801.689 318.217 814.353 335.824Z" fill="url(#paint6_linear_34_1544)"/>
</g>
<path d="M1006.05 387.225C1016.03 395.52 1051.76 389.951 1055.27 387.138C1059.69 395.407 1014.02 407.096 1003.82 400.992C991.066 393.363 995.407 375.201 983.403 372.928C971.399 370.655 983.645 341.902 987.841 322.455C992.037 303.007 995.172 304.27 1001.95 302.931C1030.35 297.323 1022.83 298.484 1033.06 300.582C1036.95 301.382 1067.13 299.165 1075.71 288.513C1083.86 278.382 1152.88 258.2 1152.91 262.52L1092.88 286.84C1092.36 292.274 1084.03 304.817 1070.54 308.775C1066.28 310.022 1062.22 315.003 1055.15 317.747C1043.28 322.356 1058.92 315.813 1029.23 314.352C1017.21 313.762 1001.52 322.736 996.352 337.35C991.456 351.186 996.424 379.214 1006.05 387.225Z" fill="#4E3F3F"/>
<path d="M944.028 291.501C947.856 279.649 969.201 287.702 973.441 288.145C972.819 279.197 943.069 271.619 937.95 281.827C931.55 294.587 932.326 306.006 923.819 314.07C915.312 322.133 939.694 338.901 952.898 352.365C957.413 356.969 948.324 342.561 954.452 340.117C980.135 329.874 981.815 339.659 988.978 332.662C991.707 329.996 1029.87 307.903 1042.15 312.017C1053.83 315.928 1065.72 300.623 1073.83 295.386L1042.15 309.149C1038.99 305.048 1028.65 312.806 1013.87 305.135C1010.11 303.183 1003.8 307.515 996.727 308.979C984.849 311.438 1000.74 308.576 977.592 325.174C968.228 331.889 951.071 332.821 939.525 323.752C928.594 315.165 940.33 302.947 944.028 291.501Z" fill="#4E3F3F"/>
<g filter="url(#filter4_n_34_1544)">
<path d="M942.146 263.612C929.918 277.644 923.506 308.139 926.684 313.546C929.863 318.954 957.724 304.3 969.152 290.495C980.094 277.277 987.599 263.486 973.693 254.439C961.252 246.345 952.124 252.161 942.146 263.612Z" fill="url(#paint7_linear_34_1544)"/>
<path d="M969.715 314.33C950.809 323.027 929.993 319.374 926.105 313.813C922.216 308.253 935.603 285.926 954.508 277.229C973.414 268.532 979.388 268.724 994.568 282.319C1003.23 292.297 988.621 305.633 969.715 314.33Z" fill="url(#paint8_linear_34_1544)"/>
<g filter="url(#filter5_f_34_1544)">
<path d="M924.368 266.535C916.835 282.932 922.818 310.708 927.582 315.181C932.346 319.654 952.113 302.145 958.94 286.154C965.476 270.843 964.504 258.196 953.458 241.619C945.087 231.915 930.515 253.153 924.368 266.535Z" fill="url(#paint9_linear_34_1544)"/>
</g>
<path d="M924.108 264.02C914.101 286.997 921.923 310.078 926.377 314.423C930.83 318.768 950.779 300.023 958.073 283.411C965.058 267.506 964.628 254.656 954.555 238.255C946.806 228.74 930.255 249.906 924.108 264.02Z" fill="url(#paint10_linear_34_1544)"/>
</g>
<path d="M1204.02 84.3152C1194.29 77.7792 1208.69 49.2762 1187.1 21.4265C1201.02 32.3675 1209.93 48.4692 1215.17 57.6311C1221.72 69.0835 1212.97 77.8297 1219.63 86.4182C1235.67 107.107 1238.72 98.0212 1212.27 126.004C1197.76 141.349 1166.58 147.203 1160.07 145.81C1132.76 139.974 1132.41 106.139 1124.9 100.455C1122.04 98.2897 1097.71 78.2773 1084.43 84.3135C1071.8 90.0538 1025.59 127.474 1027.99 123.7L1068.89 79.2897C1072.38 74.7555 1086.52 66.9788 1100.22 68.6271C1104.54 69.1468 1118.67 84.4211 1126.14 85.0244C1151.82 87.0992 1137.8 119.097 1162.23 131.573C1172.11 136.62 1191.47 132.227 1204.08 121.457C1216.03 111.26 1216.24 92.5231 1204.02 84.3152Z" fill="#4E3F3F"/>
<path d="M991.989 518.972C1004.72 513.374 993.086 490.31 992.063 485.6C1002.11 485.316 1014.27 517.864 1003.53 524.729C990.105 533.311 977.279 533.696 969.352 544.127C961.425 554.557 939.695 529.041 923.041 515.705C917.346 511.144 934.539 519.76 936.5 512.616C944.716 482.674 931.983 483.549 938.891 474.743C941.522 471.388 958.146 439.961 952.03 426.631C946.214 413.954 942.301 394.67 947.128 384.994L952.45 407.551C957.415 410.651 954.3 426.955 964.693 442.7C967.333 446.699 966.69 453.642 965.941 461.722L965.938 461.761C964.678 475.359 965.887 457.215 950.271 485.011C943.953 496.255 945.054 515.608 956.602 527.567C967.535 538.888 979.691 524.378 991.989 518.972Z" fill="#4E3F3F"/>
<path d="M81.4795 186.689C79.6914 175.107 110.407 166.372 116.246 131.62C117.637 149.269 111.84 166.736 108.656 176.798C104.676 189.377 92.314 188.872 90.5135 199.59C86.1763 225.406 94.9242 221.491 56.4216 221.012C35.3072 220.75 9.86608 201.792 6.47329 196.057C-7.74563 172.026 16.8955 148.836 15.9817 139.46C15.6335 135.888 13.8584 104.439 0.415605 98.7639C-12.3684 93.3668 -71.1989 84.7629 -66.7974 83.9691L-6.42716 83.9309C-0.722502 83.4292 14.5774 88.5508 22.6542 99.7427C25.2006 103.271 23.5464 124.01 28.1653 129.91C44.0485 150.198 11.0207 161.581 18.4067 187.997C21.3946 198.683 37.746 209.937 54.2165 211.913C69.8097 213.783 83.7249 201.233 81.4795 186.689Z" fill="#4E3F3F"/>
<path d="M5.80164 273.421C19.7027 273.915 19.2494 248.085 20.3757 243.399C29.5513 247.513 26.3485 282.108 13.6918 283.622C-2.12912 285.515 -13.8464 280.285 -25.52 286.232C-37.1936 292.18 -45.6701 259.754 -54.8698 240.505C-58.0161 233.921 -46.2778 249.155 -41.4065 243.573C-20.9909 220.18 -32.8375 215.433 -22.7889 210.506C-18.9605 208.628 9.67239 187.554 9.95975 172.89C10.233 158.945 15.0929 139.878 23.6464 133.262L18.6321 155.89C21.7565 160.84 11.8625 174.169 14.3777 192.867C15.0166 197.616 11.4189 203.589 7.23217 210.539L7.21194 210.573C0.165731 222.271 9.1428 206.457 -17.0042 224.7C-27.5816 232.08 -35.0042 249.986 -29.803 265.776C-24.8788 280.725 -7.62367 272.943 5.80164 273.421Z" fill="#4E3F3F"/>
<g filter="url(#filter6_n_34_1544)">
<path d="M119.807 131.749C108.784 144.171 103.043 171.375 105.924 176.243C108.805 181.111 133.953 168.293 144.254 156.065C154.117 144.357 160.874 132.102 148.295 123.869C137.04 116.503 128.803 121.611 119.807 131.749Z" fill="url(#paint11_linear_34_1544)"/>
<path d="M138.427 173.991C121.36 181.574 108.923 181.488 105.401 176.476C101.878 171.463 113.934 151.635 131 144.052C148.067 136.469 149.902 122.61 163.641 134.923C171.487 143.935 155.493 166.408 138.427 173.991Z" fill="url(#paint12_linear_34_1544)"/>
<g filter="url(#filter7_f_34_1544)">
<path d="M110.626 137.412C101.383 157.703 104.788 175.571 108.26 179.149C111.732 182.727 128.968 165.692 135.7 151.02C142.146 136.971 152.386 130.223 144.823 116.441C138.868 108.524 116.304 124.947 110.626 137.412Z" fill="#1F1D1D" fill-opacity="0.29"/>
</g>
<path d="M105.709 134.306C96.7077 154.75 101.495 173.491 105.526 177.423C109.557 181.354 127.549 164.796 134.111 150.016C140.394 135.864 151.278 129.523 142.149 114.753C135.131 106.165 111.238 121.748 105.709 134.306Z" fill="url(#paint13_linear_34_1544)"/>
</g>
<path d="M1050.3 219.891C1052.84 210.44 1032.93 198.411 1032.93 168.34C1029.96 182.946 1031.91 198.497 1032.93 207.433C1034.2 218.602 1042.67 220.068 1042.67 229.342C1042.67 251.681 1037.17 247.056 1063.44 252.54C1077.85 255.547 1097.34 243.518 1100.3 239.222C1112.74 221.218 1098.61 197.981 1100.3 190.249C1100.95 187.303 1105.76 161.169 1115.56 158.459C1124.88 155.882 1165.93 157.651 1163.02 156.311L1121.92 147.051C1118.09 145.758 1107.08 147.719 1100.3 155.882C1098.17 158.455 1096.92 176.121 1093.1 180.368C1079.96 194.974 1101.15 209.58 1093.1 230.63C1089.84 239.146 1077.42 246.096 1065.98 245.236C1055.15 244.423 1047.11 231.759 1050.3 219.891Z" fill="#4E3F3F"/>
<path d="M1002.84 225.475C1001.24 227.401 1023.4 240.257 1023.88 244.46C1024.26 247.73 1026.35 242.616 1032.38 243.247C1038.86 247.814 1052.84 250.391 1052.42 249.532C1050.64 245.916 1025.3 224.268 1025.3 227.623C1025.3 238.793 1004.44 223.549 1002.84 225.475Z" fill="#4E3F3F"/>
<g filter="url(#filter8_n_34_1544)">
<path d="M1049.21 174.912C1054.45 190.072 1049.81 216.415 1045.56 219.672C1041.31 222.93 1023.84 202.157 1019.17 187.44C1014.69 173.349 1013.13 159.928 1027.07 157.289C1039.54 154.928 1044.94 162.541 1049.21 174.912Z" fill="url(#paint14_linear_34_1544)"/>
<path d="M1011.11 206.205C1023.36 219.31 1041.07 223.222 1045.93 220.074C1050.8 216.927 1047.29 194.794 1035.04 181.689C1022.79 168.584 1017.98 166.781 1001.58 172.618C991.506 177.713 998.861 193.1 1011.11 206.205Z" fill="url(#paint15_linear_34_1544)"/>
<g filter="url(#filter9_f_34_1544)">
<path d="M1062.41 183.056C1063.16 198.559 1049.54 218.682 1044.32 220.678C1039.11 222.674 1028.99 202.281 1028.67 187.333C1028.36 173.021 1033.17 163.285 1047.25 153.723C1057 148.749 1061.8 170.405 1062.41 183.056Z" fill="url(#paint16_linear_34_1544)"/>
</g>
<path d="M1063.42 181.143C1064.04 202.686 1050.45 218.474 1045.52 220.47C1040.6 222.466 1030.73 201.031 1030.23 185.436C1029.76 170.505 1034.2 160.43 1047.45 150.689C1056.64 145.662 1063.04 167.909 1063.42 181.143Z" fill="url(#paint17_linear_34_1544)"/>
</g>
<path d="M-30.4303 398.533C-35.8983 388.816 -17.6372 379.673 -14.7698 377.153C-21.032 372.128 -44.086 387.087 -40.4834 396.654C-35.9802 408.613 -28 415.039 -27.8652 425.531C-27.7304 436.023 -1.89358 430.175 14.9801 429.671C20.7509 429.499 5.75524 426.723 7.87047 421.209C16.7352 398.099 24.1906 402.939 23.9401 393.978C23.8447 390.564 32.4977 352.051 42.6636 346.472C52.3314 341.167 49.4871 324.055 50.9698 315.54L40.7781 344.73C36.1593 344.32 34.9824 355.829 20.958 360.89C17.3903 362.178 16.4079 368.957 13.0745 374.497C7.47603 383.801 15.2462 371.613 12.1006 396.917C10.8281 407.153 1.01909 419.001 -11.9579 421.084C-24.2438 423.056 -25.1494 407.918 -30.4303 398.533Z" fill="#4E3F3F"/>
<path d="M1104.72 448.959C1093.73 450.795 1091.34 430.512 1089.95 426.958C1083.09 431.137 1089.31 457.905 1099.53 457.773C1112.31 457.607 1121.07 452.289 1130.98 455.732C1140.89 459.175 1144.19 432.89 1149.45 416.852C1151.25 411.367 1143.54 424.523 1139.08 420.658C1120.36 404.459 1127.45 399.095 1118.94 396.282C1115.69 395.21 1082.42 373.97 1080.64 362.513C1078.94 351.617 1061.88 348.469 1054.38 344.178L1078.36 363.693C1076.4 367.897 1086.82 372.919 1086.81 387.829C1086.81 391.622 1092.85 394.852 1096.92 399.871C1103.77 408.301 1094.95 396.848 1117.67 408.415C1126.87 413.095 1134.67 426.349 1132.21 439.261C1129.89 451.485 1115.34 447.186 1104.72 448.959Z" fill="#4E3F3F"/>
<defs>
<filter id="filter0_n_34_1544" x="106.935" y="216.993" width="86.1993" height="99.3812" filterUnits="userSpaceOnUse" color-interpolation-filters="sRGB">
<feFlood flood-opacity="0" result="BackgroundImageFix"/>
<feBlend mode="normal" in="SourceGraphic" in2="BackgroundImageFix" result="shape"/>
<feTurbulence type="fractalNoise" baseFrequency="0.58139675855636597 0.58139675855636597" stitchTiles="stitch" numOctaves="3" result="noise" seed="2256" />
<feComponentTransfer in="noise" result="coloredNoise1">
<feFuncR type="linear" slope="2" intercept="-0.5" />
<feFuncG type="linear" slope="2" intercept="-0.5" />
<feFuncB type="linear" slope="2" intercept="-0.5" />
<feFuncA type="discrete" tableValues="1 1 1 1 1 1 1 1 1 1 1 1 1 1 1 1 1 1 1 1 1 1 1 1 1 1 1 1 1 1 1 1 1 1 1 1 1 1 1 1 1 1 1 1 1 1 1 1 1 1 1 0 0 0 0 0 0 0 0 0 0 0 0 0 0 0 0 0 0 0 0 0 0 0 0 0 0 0 0 0 0 0 0 0 0 0 0 0 0 0 0 0 0 0 0 0 0 0 0 0 "/>
</feComponentTransfer>
<feComposite operator="in" in2="shape" in="coloredNoise1" result="noise1Clipped" />
<feComponentTransfer in="noise1Clipped" result="color1">
<feFuncA type="table" tableValues="0 0.15" />
</feComponentTransfer>
<feMerge result="effect1_noise_34_1544">
<feMergeNode in="shape" />
<feMergeNode in="color1" />
</feMerge>
</filter>
<filter id="filter1_f_34_1544" x="110.578" y="215.371" width="56.9359" height="104.443" filterUnits="userSpaceOnUse" color-interpolation-filters="sRGB">
<feFlood flood-opacity="0" result="BackgroundImageFix"/>
<feBlend mode="normal" in="SourceGraphic" in2="BackgroundImageFix" result="shape"/>
<feGaussianBlur stdDeviation="1.72" result="effect1_foregroundBlur_34_1544"/>
</filter>
<filter id="filter2_n_34_1544" x="719.741" y="304.674" width="110.171" height="116.726" filterUnits="userSpaceOnUse" color-interpolation-filters="sRGB">
<feFlood flood-opacity="0" result="BackgroundImageFix"/>
<feBlend mode="normal" in="SourceGraphic" in2="BackgroundImageFix" result="shape"/>
<feTurbulence type="fractalNoise" baseFrequency="0.73407238721847534 0.73407238721847534" stitchTiles="stitch" numOctaves="3" result="noise" seed="2256" />
<feComponentTransfer in="noise" result="coloredNoise1">
<feFuncR type="linear" slope="2" intercept="-0.5" />
<feFuncG type="linear" slope="2" intercept="-0.5" />
<feFuncB type="linear" slope="2" intercept="-0.5" />
<feFuncA type="discrete" tableValues="1 1 1 1 1 1 1 1 1 1 1 1 1 1 1 1 1 1 1 1 1 1 1 1 1 1 1 1 1 1 1 1 1 1 1 1 1 1 1 1 1 1 1 1 1 1 1 1 1 1 1 0 0 0 0 0 0 0 0 0 0 0 0 0 0 0 0 0 0 0 0 0 0 0 0 0 0 0 0 0 0 0 0 0 0 0 0 0 0 0 0 0 0 0 0 0 0 0 0 0 "/>
</feComponentTransfer>
<feComposite operator="in" in2="shape" in="coloredNoise1" result="noise1Clipped" />
<feComponentTransfer in="noise1Clipped" result="color1">
<feFuncA type="table" tableValues="0 0.15" />
</feComponentTransfer>
<feMerge result="effect1_noise_34_1544">
<feMergeNode in="shape" />
<feMergeNode in="color1" />
</feMerge>
</filter>
<filter id="filter3_f_34_1544" x="757.701" y="306.097" width="72.7509" height="106.127" filterUnits="userSpaceOnUse" color-interpolation-filters="sRGB">
<feFlood flood-opacity="0" result="BackgroundImageFix"/>
<feBlend mode="normal" in="SourceGraphic" in2="BackgroundImageFix" result="shape"/>
<feGaussianBlur stdDeviation="1.36226" result="effect1_foregroundBlur_34_1544"/>
</filter>
<filter id="filter4_n_34_1544" x="919.243" y="235.876" width="77.8829" height="83.6533" filterUnits="userSpaceOnUse" color-interpolation-filters="sRGB">
<feFlood flood-opacity="0" result="BackgroundImageFix"/>
<feBlend mode="normal" in="SourceGraphic" in2="BackgroundImageFix" result="shape"/>
<feTurbulence type="fractalNoise" baseFrequency="0.90968507528305054 0.90968507528305054" stitchTiles="stitch" numOctaves="3" result="noise" seed="2256" />
<feComponentTransfer in="noise" result="coloredNoise1">
<feFuncR type="linear" slope="2" intercept="-0.5" />
<feFuncG type="linear" slope="2" intercept="-0.5" />
<feFuncB type="linear" slope="2" intercept="-0.5" />
<feFuncA type="discrete" tableValues="1 1 1 1 1 1 1 1 1 1 1 1 1 1 1 1 1 1 1 1 1 1 1 1 1 1 1 1 1 1 1 1 1 1 1 1 1 1 1 1 1 1 1 1 1 1 1 1 1 1 1 0 0 0 0 0 0 0 0 0 0 0 0 0 0 0 0 0 0 0 0 0 0 0 0 0 0 0 0 0 0 0 0 0 0 0 0 0 0 0 0 0 0 0 0 0 0 0 0 0 "/>
</feComponentTransfer>
<feComposite operator="in" in2="shape" in="coloredNoise1" result="noise1Clipped" />
<feComponentTransfer in="noise1Clipped" result="color1">
<feFuncA type="table" tableValues="0 0.15" />
</feComponentTransfer>
<feMerge result="effect1_noise_34_1544">
<feMergeNode in="shape" />
<feMergeNode in="color1" />
</feMerge>
</filter>
<filter id="filter5_f_34_1544" x="918.594" y="236.961" width="46.6211" height="81.1288" filterUnits="userSpaceOnUse" color-interpolation-filters="sRGB">
<feFlood flood-opacity="0" result="BackgroundImageFix"/>
<feBlend mode="normal" in="SourceGraphic" in2="BackgroundImageFix" result="shape"/>
<feGaussianBlur stdDeviation="1.09928" result="effect1_foregroundBlur_34_1544"/>
</filter>
<filter id="filter6_n_34_1544" x="100.587" y="112.283" width="65.107" height="67.717" filterUnits="userSpaceOnUse" color-interpolation-filters="sRGB">
<feFlood flood-opacity="0" result="BackgroundImageFix"/>
<feBlend mode="normal" in="SourceGraphic" in2="BackgroundImageFix" result="shape"/>
<feTurbulence type="fractalNoise" baseFrequency="0.80900514125823975 0.80900514125823975" stitchTiles="stitch" numOctaves="3" result="noise" seed="2256" />
<feComponentTransfer in="noise" result="coloredNoise1">
<feFuncR type="linear" slope="2" intercept="-0.5" />
<feFuncG type="linear" slope="2" intercept="-0.5" />
<feFuncB type="linear" slope="2" intercept="-0.5" />
<feFuncA type="discrete" tableValues="1 1 1 1 1 1 1 1 1 1 1 1 1 1 1 1 1 1 1 1 1 1 1 1 1 1 1 1 1 1 1 1 1 1 1 1 1 1 1 1 1 1 1 1 1 1 1 1 1 1 1 0 0 0 0 0 0 0 0 0 0 0 0 0 0 0 0 0 0 0 0 0 0 0 0 0 0 0 0 0 0 0 0 0 0 0 0 0 0 0 0 0 0 0 0 0 0 0 0 0 "/>
</feComponentTransfer>
<feComposite operator="in" in2="shape" in="coloredNoise1" result="noise1Clipped" />
<feComponentTransfer in="noise1Clipped" result="color1">
<feFuncA type="table" tableValues="0 0.15" />
</feComponentTransfer>
<feMerge result="effect1_noise_34_1544">
<feMergeNode in="shape" />
<feMergeNode in="color1" />
</feMerge>
</filter>
<filter id="filter7_f_34_1544" x="102.195" y="111.895" width="47.7721" height="70.2087" filterUnits="userSpaceOnUse" color-interpolation-filters="sRGB">
<feFlood flood-opacity="0" result="BackgroundImageFix"/>
<feBlend mode="normal" in="SourceGraphic" in2="BackgroundImageFix" result="shape"/>
<feGaussianBlur stdDeviation="1.23609" result="effect1_foregroundBlur_34_1544"/>
</filter>
<filter id="filter8_n_34_1544" x="996.85" y="149.963" width="66.5894" height="71.1413" filterUnits="userSpaceOnUse" color-interpolation-filters="sRGB">
<feFlood flood-opacity="0" result="BackgroundImageFix"/>
<feBlend mode="normal" in="SourceGraphic" in2="BackgroundImageFix" result="shape"/>
<feTurbulence type="fractalNoise" baseFrequency="1.2143651247024536 1.2143651247024536" stitchTiles="stitch" numOctaves="3" result="noise" seed="2256" />
<feComponentTransfer in="noise" result="coloredNoise1">
<feFuncR type="linear" slope="2" intercept="-0.5" />
<feFuncG type="linear" slope="2" intercept="-0.5" />
<feFuncB type="linear" slope="2" intercept="-0.5" />
<feFuncA type="discrete" tableValues="1 1 1 1 1 1 1 1 1 1 1 1 1 1 1 1 1 1 1 1 1 1 1 1 1 1 1 1 1 1 1 1 1 1 1 1 1 1 1 1 1 1 1 1 1 1 1 1 1 1 1 0 0 0 0 0 0 0 0 0 0 0 0 0 0 0 0 0 0 0 0 0 0 0 0 0 0 0 0 0 0 0 0 0 0 0 0 0 0 0 0 0 0 0 0 0 0 0 0 0 "/>
</feComponentTransfer>
<feComposite operator="in" in2="shape" in="coloredNoise1" result="noise1Clipped" />
<feComponentTransfer in="noise1Clipped" result="color1">
<feFuncA type="table" tableValues="0 0.15" />
</feComponentTransfer>
<feMerge result="effect1_noise_34_1544">
<feMergeNode in="shape" />
<feMergeNode in="color1" />
</feMerge>
</filter>
<filter id="filter9_f_34_1544" x="1027.01" y="151.347" width="37.0777" height="71.1134" filterUnits="userSpaceOnUse" color-interpolation-filters="sRGB">
<feFlood flood-opacity="0" result="BackgroundImageFix"/>
<feBlend mode="normal" in="SourceGraphic" in2="BackgroundImageFix" result="shape"/>
<feGaussianBlur stdDeviation="0.823476" result="effect1_foregroundBlur_34_1544"/>
</filter>
<linearGradient id="paint0_linear_34_1544" x1="168.309" y1="231.565" x2="113.362" y2="307.372" gradientUnits="userSpaceOnUse">
<stop stop-color="#D50A0E"/>
<stop offset="1" stop-color="#6F0507"/>
</linearGradient>
<linearGradient id="paint1_linear_34_1544" x1="196.565" y1="256.959" x2="119.664" y2="312.612" gradientUnits="userSpaceOnUse">
<stop offset="0.0288462" stop-color="#D50A0E"/>
<stop offset="1" stop-color="#C01774"/>
</linearGradient>
<linearGradient id="paint2_linear_34_1544" x1="144.248" y1="217.549" x2="109.257" y2="310.2" gradientUnits="userSpaceOnUse">
<stop offset="0.0288462" stop-color="#D50A0E"/>
<stop offset="1" stop-color="#C01774"/>
</linearGradient>
<linearGradient id="paint3_linear_34_1544" x1="739.223" y1="341.849" x2="830.884" y2="395.586" gradientUnits="userSpaceOnUse">
<stop stop-color="#D50A0E"/>
<stop offset="1" stop-color="#6F0507"/>
</linearGradient>
<linearGradient id="paint4_linear_34_1544" x1="721.411" y1="381.157" x2="826.471" y2="403.974" gradientUnits="userSpaceOnUse">
<stop offset="0.0288462" stop-color="#D50A0E"/>
<stop offset="1" stop-color="#C01774"/>
</linearGradient>
<linearGradient id="paint5_linear_34_1544" x1="769.001" y1="330.692" x2="834.553" y2="397.903" gradientUnits="userSpaceOnUse">
<stop offset="0.0288462" stop-color="#302828" stop-opacity="0.23"/>
</linearGradient>
<linearGradient id="paint6_linear_34_1544" x1="757.515" y1="315.749" x2="836.221" y2="396.266" gradientUnits="userSpaceOnUse">
<stop offset="0.0288462" stop-color="#D50A0E"/>
<stop offset="1" stop-color="#C01774"/>
</linearGradient>
<linearGradient id="paint7_linear_34_1544" x1="976.56" y1="256.527" x2="920.943" y2="307.319" gradientUnits="userSpaceOnUse">
<stop stop-color="#D50A0E"/>
<stop offset="1" stop-color="#6F0507"/>
</linearGradient>
<linearGradient id="paint8_linear_34_1544" x1="994.477" y1="280.891" x2="925.19" y2="311.903" gradientUnits="userSpaceOnUse">
<stop offset="0.0288462" stop-color="#D50A0E"/>
<stop offset="1" stop-color="#C01774"/>
</linearGradient>
<linearGradient id="paint9_linear_34_1544" x1="954.502" y1="253.445" x2="919.145" y2="309.945" gradientUnits="userSpaceOnUse">
<stop offset="0.0288462" stop-color="#302828" stop-opacity="0.23"/>
</linearGradient>
<linearGradient id="paint10_linear_34_1544" x1="960.226" y1="241.352" x2="917.744" y2="309.062" gradientUnits="userSpaceOnUse">
<stop offset="0.0288462" stop-color="#D50A0E"/>
<stop offset="1" stop-color="#C01774"/>
</linearGradient>
<linearGradient id="paint11_linear_34_1544" x1="150.889" y1="125.766" x2="101.25" y2="171.189" gradientUnits="userSpaceOnUse">
<stop stop-color="#D50A0E"/>
<stop offset="1" stop-color="#6F0507"/>
</linearGradient>
<linearGradient id="paint12_linear_34_1544" x1="167.119" y1="147.736" x2="105.037" y2="175.787" gradientUnits="userSpaceOnUse">
<stop offset="0.0288462" stop-color="#D50A0E"/>
<stop offset="1" stop-color="#C01774"/>
</linearGradient>
<linearGradient id="paint13_linear_34_1544" x1="135.982" y1="112.427" x2="97.9317" y2="172.676" gradientUnits="userSpaceOnUse">
<stop offset="0.0288462" stop-color="#D50A0E"/>
<stop offset="1" stop-color="#C01774"/>
</linearGradient>
<linearGradient id="paint14_linear_34_1544" x1="1024.12" y1="158.01" x2="1051.96" y2="216.672" gradientUnits="userSpaceOnUse">
<stop stop-color="#D50A0E"/>
<stop offset="1" stop-color="#6F0507"/>
</linearGradient>
<linearGradient id="paint15_linear_34_1544" x1="1002.11" y1="171.512" x2="1047.44" y2="218.698" gradientUnits="userSpaceOnUse">
<stop offset="0.0288462" stop-color="#D50A0E"/>
<stop offset="1" stop-color="#C01774"/>
</linearGradient>
<linearGradient id="paint16_linear_34_1544" x1="1042.64" y1="162.783" x2="1052.31" y2="219.344" gradientUnits="userSpaceOnUse">
<stop offset="0.0288462" stop-color="#302828" stop-opacity="0.23"/>
</linearGradient>
<linearGradient id="paint17_linear_34_1544" x1="1041.95" y1="151.295" x2="1053.63" y2="219.115" gradientUnits="userSpaceOnUse">
<stop offset="0.0288462" stop-color="#D50A0E"/>
<stop offset="1" stop-color="#C01774"/>
</linearGradient>
</defs>
</svg>
